<svg width="20" height="20" viewBox="0 0 20 20" fill="none" xmlns="http://www.w3.org/2000/svg">
<path d="M10 14.64C9.84667 14.64 9.70476 14.6148 9.57429 14.5643C9.44381 14.5138 9.31667 14.4262 9.19286 14.3014L5.45 10.56C5.31095 10.421 5.23857 10.2571 5.23286 10.0686C5.22714 9.88001 5.29952 9.70715 5.45 9.55001C5.60809 9.39191 5.7781 9.31143 5.96 9.30858C6.14286 9.30572 6.31286 9.38334 6.47 9.54143L9.28571 12.3571V0.714295C9.28571 0.511438 9.35381 0.341438 9.49 0.204296C9.62619 0.0671529 9.79619 -0.000942528 10 9.85218e-06C10.2038 0.000962233 10.3738 0.0690576 10.51 0.204296C10.6462 0.339534 10.7143 0.509533 10.7143 0.714295V12.3571L13.53 9.54143C13.669 9.40239 13.8343 9.32953 14.0257 9.32286C14.2171 9.3162 14.3914 9.39191 14.5486 9.55001C14.701 9.70715 14.7786 9.87572 14.7814 10.0557C14.7843 10.2357 14.7071 10.4038 14.55 10.56L10.8071 14.3029C10.6833 14.4267 10.5562 14.5138 10.4257 14.5643C10.2962 14.6148 10.1543 14.64 10 14.64ZM2.30857 20C1.65048 20 1.10143 19.78 0.661428 19.34C0.221428 18.9 0.000952381 18.3505 0 17.6914V14.9443C0 14.7414 0.0680954 14.5719 0.204286 14.4357C0.340476 14.2995 0.510476 14.231 0.714286 14.23C0.918095 14.2291 1.0881 14.2976 1.22429 14.4357C1.36048 14.5738 1.42857 14.7433 1.42857 14.9443V17.6914C1.42857 17.9114 1.52 18.1133 1.70286 18.2971C1.88571 18.481 2.08714 18.5724 2.30714 18.5714H17.6929C17.9119 18.5714 18.1133 18.48 18.2971 18.2971C18.481 18.1143 18.5724 17.9124 18.5714 17.6914V14.9443C18.5714 14.7414 18.6395 14.5719 18.7757 14.4357C18.9119 14.2995 19.0819 14.231 19.2857 14.23C19.4895 14.2291 19.6595 14.2976 19.7957 14.4357C19.9319 14.5738 20 14.7433 20 14.9443V17.6914C20 18.3495 19.78 18.8986 19.34 19.3386C18.9 19.7786 18.3505 19.999 17.6914 20H2.30857Z" fill="#C3C5C9"/>
</svg>
