<svg width="65" height="61" viewBox="0 0 65 61" fill="none" xmlns="http://www.w3.org/2000/svg">
<g id="Frame 1686562007">
<path id="Union" fill-rule="evenodd" clip-rule="evenodd" d="M13.3332 60.6396C18.611 60.6396 23.1429 53.121 25.1022 42.3847C26.0954 51.5316 28.1989 57.8406 30.6333 57.8406C33.2085 57.8406 35.4135 50.7805 36.3255 40.7692C37.1419 48.1392 38.8091 53.1882 40.7332 53.1882C43.4626 53.1882 45.6752 43.0285 45.6752 30.496C45.6752 17.9634 43.4626 7.80381 40.7332 7.80381C38.8093 7.80381 37.1422 12.8518 36.3258 20.2206C35.4139 10.2079 33.2087 3.14644 30.6333 3.14644C28.1988 3.14644 26.0952 9.45606 25.102 18.6037C23.1427 7.86792 18.6109 0.349609 13.3332 0.349609C6.26207 0.349609 0.529785 13.846 0.529785 30.4946C0.529785 47.1433 6.26207 60.6396 13.3332 60.6396ZM51.9616 47.4963C53.9467 47.4963 55.5559 39.8846 55.5559 30.4951C55.5559 21.1056 53.9467 13.4939 51.9616 13.4939C49.9765 13.4939 48.3672 21.1056 48.3672 30.4951C48.3672 39.8846 49.9765 47.4963 51.9616 47.4963ZM64.4702 30.4935C64.4702 35.1883 63.2786 38.9941 61.8088 38.9941C60.339 38.9941 59.1474 35.1883 59.1474 30.4935C59.1474 25.7987 60.339 21.9929 61.8088 21.9929C63.2786 21.9929 64.4702 25.7987 64.4702 30.4935Z" fill="#EE1171"/>
</g>
</svg>
