<svg width="24" height="24" viewBox="0 0 24 24" fill="none" xmlns="http://www.w3.org/2000/svg">
<path d="M14.3807 20.2051C14.8142 19.8635 15.443 19.9369 15.7849 20.3701C16.1265 20.8035 16.0519 21.4333 15.6189 21.7754C14.6433 22.5451 13.3723 22.9998 11.9998 23C10.6272 23 9.35646 22.545 8.38065 21.7754C7.94707 21.4333 7.87254 20.8037 8.21464 20.3701C8.55682 19.9371 9.18555 19.8632 9.61893 20.2051C10.2352 20.6911 11.068 21 11.9998 21C12.9315 20.9998 13.7645 20.6912 14.3807 20.2051ZM11.9998 1C12.2478 1.00002 12.4929 1.01347 12.7351 1.03516C12.3569 1.61173 12.1077 2.28012 12.0281 3C12.0187 2.99995 12.0092 3 11.9998 3C8.45809 3 5.45389 6.1337 5.45389 10.1689V10.1797L5.42655 12.6084C5.42394 14.2927 4.86045 15.7148 4.21952 16.7578H19.7859C19.17 15.7115 18.6287 14.2851 18.6287 12.5967V12.585L18.656 10.2891L18.6473 9.90723C18.6103 9.11502 18.4564 8.36151 18.2098 7.66211C18.8581 7.39547 19.4297 6.98208 19.8846 6.46289C20.3794 7.63552 20.656 8.93233 20.656 10.2891V10.3008L20.6287 12.6084C20.6316 14.0434 21.1611 15.2472 21.7176 16.0742C22.0833 16.6181 22.0469 17.2619 21.8689 17.7148C21.6956 18.1556 21.2319 18.7574 20.4295 18.7578H3.57108C2.75515 18.7578 2.29365 18.1369 2.12479 17.6943C1.95095 17.2381 1.91665 16.5838 2.2996 16.0381L2.51542 15.71C3.0095 14.9062 3.42654 13.8366 3.42655 12.5967V12.585L3.45487 10.1689H3.45389C3.45389 5.18151 7.20706 1 11.9998 1Z" fill="#EE1171"/>
<circle cx="16.5" cy="3.5" r="2.5" fill="#EE1171"/>
</svg>
