<svg width="21" height="20" viewBox="0 0 21 20" fill="none" xmlns="http://www.w3.org/2000/svg">
<mask id="mask0_2889_22643" style="mask-type:alpha" maskUnits="userSpaceOnUse" x="0" y="0" width="21" height="20">
<rect x="0.296875" width="20" height="20" fill="#D9D9D9"/>
</mask>
<g mask="url(#mask0_2889_22643)">
<path d="M10.2973 17.9168C9.31443 17.9168 8.39352 17.7309 7.53464 17.3591C6.67561 16.9873 5.92665 16.482 5.28776 15.8431C4.64887 15.2042 4.14352 14.4552 3.77172 13.5962C3.39991 12.7373 3.21401 11.8164 3.21401 10.8335C3.21401 9.85056 3.39991 8.92966 3.77172 8.07077C4.14352 7.21174 4.64887 6.46278 5.28776 5.82389C5.92665 5.185 6.67561 4.67966 7.53464 4.30785C8.39352 3.93605 9.31443 3.75014 10.2973 3.75014C11.2803 3.75014 12.2012 3.93605 13.0601 4.30785C13.9191 4.67966 14.668 5.185 15.3069 5.82389C15.9458 6.46278 16.4512 7.21174 16.823 8.07077C17.1948 8.92966 17.3807 9.85056 17.3807 10.8335C17.3807 11.8164 17.1948 12.7373 16.823 13.5962C16.4512 14.4552 15.9458 15.2042 15.3069 15.8431C14.668 16.482 13.9191 16.9873 13.0601 17.3591C12.2012 17.7309 11.2803 17.9168 10.2973 17.9168ZM12.7748 14.1893L13.6532 13.311L10.9223 10.5804V6.66681H9.67234V11.0866L12.7748 14.1893ZM5.09213 2.40723L5.97047 3.28535L2.74922 6.5066L1.87109 5.62827L5.09213 2.40723ZM15.5026 2.40723L18.7236 5.62827L17.8455 6.5066L14.6242 3.28535L15.5026 2.40723ZM10.2973 16.6668C11.9171 16.6668 13.2942 16.0995 14.4288 14.9649C15.5634 13.8304 16.1307 12.4532 16.1307 10.8335C16.1307 9.21376 15.5634 7.8366 14.4288 6.70202C13.2942 5.56744 11.9171 5.00014 10.2973 5.00014C8.67762 5.00014 7.30047 5.56744 6.16589 6.70202C5.0313 7.8366 4.46401 9.21376 4.46401 10.8335C4.46401 12.4532 5.0313 13.8304 6.16589 14.9649C7.30047 16.0995 8.67762 16.6668 10.2973 16.6668Z" fill="#7C7F83"/>
</g>
</svg>
