<svg xmlns="http://www.w3.org/2000/svg" width="24" height="24" viewBox="0 0 14 17" fill="white">
  <path d="M11.138 8.946c-.019-1.994 1.628-2.952 1.7-2.997-0.93-1.357-2.375-1.543-2.889-1.56-1.233-.125-2.408.73-3.033.73-.623 0-1.593-.713-2.618-.693-1.345.019-2.59.779-3.282 1.982-1.407 2.445-.36 6.061 1.01 8.044.67.967 1.464 2.053 2.506 2.015 1.01-.039 1.389-.654 2.606-.654 1.214 0 1.558.654 2.617.634 1.087-.02 1.774-.986 2.44-1.958.77-1.104 1.093-2.182 1.11-2.236-.025-.012-2.136-.823-2.155-3.35zm-2.01-6.52c.554-.682.928-1.63.825-2.59-.797.033-1.751.536-2.319 1.218-.509.597-.955 1.546-.836 2.45.887.07 1.776-.45 2.33-1.078z"/>
</svg>