<svg width="24" height="24" viewBox="0 0 24 24" fill="none" xmlns="http://www.w3.org/2000/svg">
<mask id="mask0_7294_24148" style="mask-type:alpha" maskUnits="userSpaceOnUse" x="0" y="0" width="24" height="24">
<rect width="24" height="24" fill="#D9D9D9"/>
</mask>
<g mask="url(#mask0_7294_24148)">
<path d="M3.184 12.0003L10.7168 19.533C10.9154 19.7317 11.0123 19.9656 11.0073 20.2348C11.0021 20.5041 10.9002 20.7381 10.7015 20.9368C10.5027 21.1354 10.2687 21.2348 9.9995 21.2348C9.73033 21.2348 9.49634 21.1354 9.2975 20.9368L1.6265 13.281C1.44567 13.1002 1.31167 12.8976 1.2245 12.6733C1.13733 12.4489 1.09375 12.2246 1.09375 12.0003C1.09375 11.7759 1.13733 11.5516 1.2245 11.3273C1.31167 11.1029 1.44567 10.9003 1.6265 10.7195L9.2975 3.04826C9.49634 2.84959 9.73292 2.75284 10.0073 2.75801C10.2816 2.76318 10.5181 2.86509 10.7168 3.06376C10.9154 3.26243 11.0148 3.49643 11.0148 3.76576C11.0148 4.03493 10.9154 4.26884 10.7168 4.46751L3.184 12.0003Z" fill="white"/>
</g>
</svg>
