<svg width="20" height="21" viewBox="0 0 20 21" fill="none" xmlns="http://www.w3.org/2000/svg">
<mask id="mask0_6942_21097" style="mask-type:alpha" maskUnits="userSpaceOnUse" x="0" y="0" width="20" height="21">
<rect width="20" height="20" transform="matrix(-1 0 0 1 20 0.5)" fill="#D9D9D9"/>
</mask>
<g mask="url(#mask0_6942_21097)">
<path d="M12.7752 10.5002L6.59578 16.6797C6.48675 16.7886 6.42953 16.9286 6.42411 17.0995C6.41884 17.2705 6.47071 17.4104 6.57974 17.5193C6.68863 17.6284 6.82856 17.6829 6.99953 17.6829C7.1705 17.6829 7.31043 17.6284 7.41932 17.5193L13.6006 11.3222C13.7213 11.2016 13.8056 11.0723 13.8537 10.9345C13.9018 10.7966 13.9258 10.6518 13.9258 10.5002C13.9258 10.3485 13.9018 10.2037 13.8537 10.0658C13.8056 9.92801 13.7213 9.79877 13.6006 9.67808L7.41932 3.49704C7.31043 3.38801 7.17314 3.33086 7.00745 3.32558C6.84189 3.32016 6.70467 3.37197 6.59578 3.481C6.48675 3.58989 6.43224 3.72982 6.43224 3.90079C6.43224 4.07176 6.48675 4.21169 6.59578 4.32058L12.7752 10.5002Z" fill="#979A9F"/>
</g>
</svg>
