<svg width="24" height="24" viewBox="0 0 24 24" fill="none" xmlns="http://www.w3.org/2000/svg">
<mask id="mask0_7051_20919" style="mask-type:alpha" maskUnits="userSpaceOnUse" x="0" y="0" width="24" height="24">
<rect width="24" height="24" fill="#D9D9D9"/>
</mask>
<g mask="url(#mask0_7051_20919)">
<path d="M3.18498 12.0003L10.7177 19.533C10.9164 19.7317 11.0132 19.9656 11.0082 20.2348C11.0031 20.5041 10.9011 20.7381 10.7025 20.9368C10.5036 21.1354 10.2696 21.2348 10.0005 21.2348C9.73131 21.2348 9.49731 21.1354 9.29848 20.9368L1.62748 13.281C1.44664 13.1002 1.31264 12.8976 1.22548 12.6733C1.13831 12.4489 1.09473 12.2246 1.09473 12.0003C1.09473 11.7759 1.13831 11.5516 1.22548 11.3273C1.31264 11.1029 1.44664 10.9003 1.62748 10.7195L9.29848 3.04826C9.49731 2.84959 9.73389 2.75284 10.0082 2.75801C10.2826 2.76318 10.5191 2.86509 10.7177 3.06376C10.9164 3.26243 11.0157 3.49643 11.0157 3.76576C11.0157 4.03493 10.9164 4.26884 10.7177 4.46751L3.18498 12.0003Z" fill="white"/>
</g>
</svg>
