<svg width="17" height="16" viewBox="0 0 17 16" fill="none" xmlns="http://www.w3.org/2000/svg">
<path d="M3.36116 0.5C4.76771 0.500176 5.97139 2.42857 6.47247 5.16504C6.72349 2.85339 7.272 1.25 7.90826 1.25C8.51197 1.25015 9.03649 2.69387 9.303 4.81641C9.51686 3.34189 9.87472 2.375 10.2806 2.375C10.9358 2.37506 11.4671 4.89344 11.4671 8C11.4671 11.1066 10.9358 13.6249 10.2806 13.625C9.87467 13.625 9.51685 12.6579 9.303 11.1831C9.03651 13.3059 8.51202 14.7498 7.90826 14.75C7.27196 14.75 6.72347 13.1464 6.47247 10.8345C5.97144 13.5712 4.76779 15.4998 3.36116 15.5C1.50495 15.5 0 12.1421 0 8C1.15484e-07 3.85786 1.50495 0.5 3.36116 0.5Z" fill="#FFCAE1"/>
<path d="M13.246 3.875C13.7919 3.875 14.2348 5.80577 14.2348 8.1875C14.2348 10.5692 13.7919 12.5 13.246 12.5C12.7001 12.4995 12.2577 10.5689 12.2577 8.1875C12.2577 5.80605 12.7001 3.87546 13.246 3.875Z" fill="#FFCAE1"/>
<path d="M16.0142 5.75C16.3417 5.75027 16.6071 6.67358 16.6071 7.8125C16.6071 8.95142 16.3417 9.87473 16.0142 9.875C15.6866 9.875 15.4207 8.95159 15.4207 7.8125C15.4207 6.67341 15.6866 5.75 16.0142 5.75Z" fill="#FFCAE1"/>
</svg>
