<svg width="59" height="59" viewBox="0 0 59 59" fill="none" xmlns="http://www.w3.org/2000/svg">
<path d="M14.6104 5.57617C18.8474 5.57632 22.4739 11.6053 23.9834 20.1611C24.7395 12.9345 26.3903 7.92171 28.3066 7.9209C30.1257 7.9209 31.7061 12.437 32.5088 19.0762C33.1529 14.4633 34.2319 11.4385 35.4551 11.4385C37.4285 11.4388 39.0283 19.3126 39.0283 29.0254C39.0283 38.7381 37.4284 46.612 35.4551 46.6123C34.2319 46.6123 33.1529 43.5868 32.5088 38.9736C31.7062 45.6131 30.1258 50.1299 28.3066 50.1299C26.3903 50.1291 24.7395 45.1157 23.9834 37.8887C22.474 46.4449 18.8475 52.4745 14.6104 52.4746C9.01899 52.4746 4.48637 41.9759 4.48633 29.0254C4.48633 16.0747 9.01896 5.57617 14.6104 5.57617ZM44.3877 16.1279C46.0322 16.1279 47.3652 22.1648 47.3652 29.6113C47.3652 37.058 46.0322 43.0947 44.3877 43.0947C42.7432 43.0945 41.4102 37.0578 41.4102 29.6113C41.4102 22.1649 42.7432 16.1282 44.3877 16.1279ZM52.7246 21.9902C53.7113 21.9902 54.5116 24.8773 54.5117 28.4385C54.5117 31.9999 53.7113 34.8877 52.7246 34.8877C51.7381 34.8868 50.9385 31.9993 50.9385 28.4385C50.9385 24.8778 51.7382 21.9912 52.7246 21.9902Z" fill="#4B4D4F"/>
</svg>
