<svg width="20" height="21" viewBox="0 0 20 21" fill="none" xmlns="http://www.w3.org/2000/svg">
<mask id="mask0_9981_24648" style="mask-type:alpha" maskUnits="userSpaceOnUse" x="0" y="0" width="20" height="21">
<rect y="0.5" width="20" height="20" fill="#D9D9D9"/>
</mask>
<g mask="url(#mask0_9981_24648)">
<path d="M10.0008 18.0837C8.96136 18.0837 7.98074 17.8863 7.05893 17.4916C6.13713 17.0969 5.33032 16.5537 4.63852 15.8622C3.94671 15.1707 3.40331 14.3642 3.00831 13.4428C2.61345 12.5214 2.41602 11.5411 2.41602 10.5018C2.41602 9.44845 2.61338 8.46435 3.0081 7.54949C3.40282 6.63463 3.94595 5.8313 4.63747 5.13949C5.329 4.44769 6.13546 3.90428 7.05685 3.50928C7.97824 3.11442 8.95858 2.91699 9.99789 2.91699C11.0512 2.91699 12.0353 3.11435 12.9502 3.50908C13.865 3.9038 14.6684 4.44692 15.3602 5.13845C16.052 5.82998 16.5954 6.63296 16.9904 7.54741C17.3853 8.46185 17.5827 9.44567 17.5827 10.4989C17.5827 11.5383 17.3853 12.5189 16.9906 13.4407C16.5959 14.3625 16.0528 15.1694 15.3612 15.8612C14.6697 16.553 13.8667 17.0964 12.9523 17.4914C12.0378 17.8862 11.054 18.0837 10.0008 18.0837ZM9.99935 17.0003C10.795 17.0003 11.548 16.8646 12.2581 16.5932C12.9681 16.3219 13.6089 15.9426 14.1804 15.4555L5.04414 6.31928C4.56234 6.89081 4.18442 7.53158 3.91039 8.24158C3.63636 8.95171 3.49935 9.70463 3.49935 10.5003C3.49935 12.3059 4.13129 13.8406 5.39518 15.1045C6.65907 16.3684 8.19379 17.0003 9.99935 17.0003ZM14.9546 14.6814C15.4416 14.1098 15.8209 13.4691 16.0923 12.7591C16.3637 12.0489 16.4993 11.296 16.4993 10.5003C16.4993 8.69477 15.8674 7.16005 14.6035 5.89616C13.3396 4.63227 11.8049 4.00033 9.99935 4.00033C9.20171 4.00033 8.44699 4.1347 7.73518 4.40345C7.02352 4.67206 6.38456 5.05262 5.81831 5.54512L14.9546 14.6814Z" fill="#EE1171"/>
</g>
</svg>
