<svg width="33" height="32" viewBox="0 0 33 32" fill="none" xmlns="http://www.w3.org/2000/svg">
<path d="M21.663 5.5605C21.3989 5.28259 21.0339 5.12109 20.6505 5.12109H10.3603C8.85644 5.12109 7.63732 6.34023 7.63731 7.84411L7.63721 24.1823C7.6372 25.6861 8.85631 26.9053 10.3602 26.9053L22.6136 26.9054C24.1174 26.9054 25.3365 25.6863 25.3366 24.1824L25.3369 9.74779C25.3369 9.39965 25.2041 9.06499 24.9625 8.81436C24.5157 8.35089 23.7696 7.58829 23.2947 7.16337C22.6888 6.62119 22.06 5.97814 21.663 5.5605Z" fill="#7C7F83"/>
<path d="M19.891 5.12109V9.20564C19.891 9.95759 20.5006 10.5672 21.2525 10.5672H25.337M12.4028 10.5672H15.1258M12.4028 14.6517H20.5718M12.4028 18.7363H20.5718M23.2947 7.16337C22.6888 6.62119 22.06 5.97814 21.663 5.5605C21.3989 5.28259 21.0339 5.12109 20.6505 5.12109H10.3603C8.85644 5.12109 7.63732 6.34023 7.63731 7.84411L7.63721 24.1823C7.6372 25.6861 8.85631 26.9053 10.3602 26.9053L22.6136 26.9054C24.1174 26.9054 25.3365 25.6863 25.3366 24.1824L25.3369 9.74779C25.3369 9.39965 25.2041 9.06499 24.9625 8.81436C24.5157 8.35089 23.7696 7.58829 23.2947 7.16337Z" stroke="#7C7F83" stroke-width="2.14974" stroke-linecap="round" stroke-linejoin="round"/>
<path d="M20.7502 4.90625V4.04635H19.0304V4.90625H20.7502ZM25.5578 11.4275H26.4177V9.70768H25.5578V11.4275ZM10.969 9.70768C10.4941 9.70768 10.1091 10.0927 10.1091 10.5676C10.1091 11.0425 10.4941 11.4275 10.969 11.4275V9.70768ZM13.692 11.4275C14.1669 11.4275 14.5519 11.0425 14.5519 10.5676C14.5519 10.0927 14.1669 9.70768 13.692 9.70768V11.4275ZM10.969 13.7922C10.4941 13.7922 10.1091 14.1772 10.1091 14.6521C10.1091 15.127 10.4941 15.512 10.969 15.512V13.7922ZM19.1379 15.512C19.6128 15.512 19.9978 15.127 19.9978 14.6521C19.9978 14.1772 19.6128 13.7922 19.1379 13.7922V15.512ZM10.969 17.8768C10.4941 17.8768 10.1091 18.2618 10.1091 18.7367C10.1091 19.2116 10.4941 19.5966 10.969 19.5966V17.8768ZM19.1379 19.5966C19.6128 19.5966 19.9978 19.2116 19.9978 18.7367C19.9978 18.2618 19.6128 17.8768 19.1379 17.8768V19.5966ZM19.0304 4.90625V9.20606H20.7502V4.90625H19.0304ZM21.2518 11.4275H25.5578V9.70768H21.2518V11.4275ZM19.0304 9.20606C19.0304 10.4329 20.0249 11.4275 21.2518 11.4275V9.70768C20.9748 9.70768 20.7502 9.48311 20.7502 9.20606H19.0304ZM10.969 11.4275H13.692V9.70768H10.969V11.4275ZM10.969 15.512H19.1379V13.7922H10.969V15.512ZM10.969 19.5966H19.1379V17.8768H10.969V19.5966Z" fill="#17181C"/>
</svg>
