<svg width="9" height="9" viewBox="0 0 9 9" fill="none" xmlns="http://www.w3.org/2000/svg">
<circle cx="4.5" cy="4.5" r="4.5" transform="matrix(1 0 0 -1 0 9)" fill="#EE1171"/>
<path d="M3.02051 7.29297C3.48611 7.29297 3.88496 6.64559 4.05664 5.72266C4.14372 6.50952 4.32813 7.05273 4.54297 7.05273C4.77082 7.05237 4.96459 6.44105 5.04395 5.57617C5.11509 6.21464 5.2612 6.65348 5.43164 6.6543C5.67179 6.6543 5.86716 5.78478 5.86719 4.71191C5.86719 3.63895 5.67181 2.76855 5.43164 2.76855C5.26117 2.76937 5.11507 3.20896 5.04395 3.84766C4.96462 2.98257 4.77085 2.37048 4.54297 2.37012C4.32809 2.37012 4.1437 2.9141 4.05664 3.70117C3.88495 2.77828 3.4861 2.13086 3.02051 2.13086C2.39842 2.13121 1.89454 3.28679 1.89453 4.71191C1.89453 6.13706 2.39842 7.29262 3.02051 7.29297ZM6.41992 6.16699C6.59455 6.16683 6.7363 5.51559 6.73633 4.71191C6.73633 3.90814 6.59457 3.25602 6.41992 3.25586C6.24524 3.25586 6.10352 3.90804 6.10352 4.71191C6.10354 5.51569 6.24526 6.16699 6.41992 6.16699ZM7.28711 5.43945C7.41639 5.43924 7.52148 5.11372 7.52148 4.71191C7.52144 4.31023 7.41636 3.98459 7.28711 3.98438C7.1578 3.98438 7.05278 4.3101 7.05273 4.71191C7.05273 5.11385 7.15777 5.43945 7.28711 5.43945Z" fill="#480522"/>
</svg>
