<svg width="18" height="18" viewBox="0 0 18 18" fill="none" xmlns="http://www.w3.org/2000/svg">
<path d="M6.53025 14.78L13.5 7.81023L10.1895 4.49973L3.21975 11.4695C3.12371 11.5655 3.05553 11.6858 3.0225 11.8175L2.25 15.7497L6.1815 14.9772C6.3135 14.9442 6.43425 14.876 6.53025 14.78ZM15.75 5.56023C16.0312 5.27893 16.1892 4.89747 16.1892 4.49973C16.1892 4.10198 16.0312 3.72052 15.75 3.43923L14.5605 2.24973C14.2792 1.96852 13.8977 1.81055 13.5 1.81055C13.1023 1.81055 12.7208 1.96852 12.4395 2.24973L11.25 3.43923L14.5605 6.74973L15.75 5.56023Z" fill="#C3C5C9"/>
</svg>
