<svg width="20" height="20" viewBox="0 0 20 20" fill="none" xmlns="http://www.w3.org/2000/svg">
<mask id="mask0_7216_14282" style="mask-type:alpha" maskUnits="userSpaceOnUse" x="0" y="0" width="20" height="20">
<rect width="20" height="20" fill="#D9D9D9"/>
</mask>
<g mask="url(#mask0_7216_14282)">
<path d="M14.9987 4.82747H12.9987V3.82747C12.9987 3.73907 12.9636 3.65428 12.9011 3.59177C12.8386 3.52926 12.7538 3.49414 12.6654 3.49414C12.577 3.49414 12.4922 3.52926 12.4297 3.59177C12.3672 3.65428 12.332 3.73907 12.332 3.82747V4.82747H7.66536V3.82747C7.66536 3.73907 7.63025 3.65428 7.56773 3.59177C7.50522 3.52926 7.42044 3.49414 7.33203 3.49414C7.24363 3.49414 7.15884 3.52926 7.09633 3.59177C7.03382 3.65428 6.9987 3.73907 6.9987 3.82747V4.82747H4.9987C4.55683 4.828 4.13322 5.00377 3.82077 5.31621C3.50833 5.62866 3.33256 6.05228 3.33203 6.49414V15.1608C3.33256 15.6027 3.50833 16.0263 3.82077 16.3387C4.13322 16.6512 4.55683 16.8269 4.9987 16.8275H14.9987C15.4407 16.8275 15.8646 16.6519 16.1772 16.3393C16.4898 16.0268 16.6654 15.6028 16.6654 15.1608V6.49414C16.6654 6.05211 16.4898 5.62819 16.1772 5.31563C15.8646 5.00307 15.4407 4.82747 14.9987 4.82747ZM15.9987 15.1608C15.9987 15.426 15.8933 15.6804 15.7058 15.8679C15.5183 16.0555 15.2639 16.1608 14.9987 16.1608H4.9987C4.73348 16.1608 4.47913 16.0555 4.29159 15.8679C4.10405 15.6804 3.9987 15.426 3.9987 15.1608V9.49414H15.9987V15.1608ZM15.9987 8.82747H3.9987V6.49414C3.9987 5.94214 4.44536 5.49414 4.9987 5.49414H6.9987V6.49414C6.9987 6.58255 7.03382 6.66733 7.09633 6.72984C7.15884 6.79236 7.24363 6.82747 7.33203 6.82747C7.42044 6.82747 7.50522 6.79236 7.56773 6.72984C7.63025 6.66733 7.66536 6.58255 7.66536 6.49414V5.49414H12.332V6.49414C12.332 6.58255 12.3672 6.66733 12.4297 6.72984C12.4922 6.79236 12.577 6.82747 12.6654 6.82747C12.7538 6.82747 12.8386 6.79236 12.9011 6.72984C12.9636 6.66733 12.9987 6.58255 12.9987 6.49414V5.49414H14.9987C15.2639 5.49414 15.5183 5.5995 15.7058 5.78703C15.8933 5.97457 15.9987 6.22892 15.9987 6.49414V8.82747Z" fill="#979A9F" stroke="#979A9F" stroke-width="0.5"/>
</g>
</svg>
