<svg width="20" height="21" viewBox="0 0 20 21" fill="none" xmlns="http://www.w3.org/2000/svg">
<mask id="mask0_9981_24952" style="mask-type:alpha" maskUnits="userSpaceOnUse" x="0" y="0" width="20" height="21">
<rect y="0.5" width="20" height="20" fill="#D9D9D9"/>
</mask>
<g mask="url(#mask0_9981_24952)">
<path d="M7.06185 14.2118L9.99935 11.2743L12.9368 14.2118L13.7108 13.4378L10.7733 10.5003L13.7108 7.56283L12.9368 6.78887L9.99935 9.72637L7.06185 6.78887L6.28789 7.56283L9.22539 10.5003L6.28789 13.4378L7.06185 14.2118ZM10.0008 18.0837C8.96136 18.0837 7.98074 17.8863 7.05893 17.4916C6.13713 17.0969 5.33032 16.5537 4.63852 15.8622C3.94671 15.1707 3.40331 14.3642 3.00831 13.4428C2.61345 12.5214 2.41602 11.5411 2.41602 10.5018C2.41602 9.44845 2.61338 8.46435 3.0081 7.54949C3.40282 6.63463 3.94595 5.8313 4.63747 5.13949C5.329 4.44769 6.13546 3.90428 7.05685 3.50928C7.97824 3.11442 8.95858 2.91699 9.99789 2.91699C11.0512 2.91699 12.0353 3.11435 12.9502 3.50908C13.865 3.9038 14.6684 4.44692 15.3602 5.13845C16.052 5.82998 16.5954 6.63296 16.9904 7.54741C17.3853 8.46185 17.5827 9.44567 17.5827 10.4989C17.5827 11.5383 17.3853 12.5189 16.9906 13.4407C16.5959 14.3625 16.0528 15.1694 15.3612 15.8612C14.6697 16.553 13.8667 17.0964 12.9523 17.4914C12.0378 17.8862 11.054 18.0837 10.0008 18.0837ZM9.99935 17.0003C11.8049 17.0003 13.3396 16.3684 14.6035 15.1045C15.8674 13.8406 16.4993 12.3059 16.4993 10.5003C16.4993 8.69477 15.8674 7.16005 14.6035 5.89616C13.3396 4.63227 11.8049 4.00033 9.99935 4.00033C8.19379 4.00033 6.65907 4.63227 5.39518 5.89616C4.13129 7.16005 3.49935 8.69477 3.49935 10.5003C3.49935 12.3059 4.13129 13.8406 5.39518 15.1045C6.65907 16.3684 8.19379 17.0003 9.99935 17.0003Z" fill="#EE1171"/>
</g>
</svg>
