<svg width="57" height="52" viewBox="0 0 57 52" fill="none" xmlns="http://www.w3.org/2000/svg">
<path fill-rule="evenodd" clip-rule="evenodd" d="M28.341 0C30.9832 0 33.4272 1.70625 35.2228 4.80025L55.1584 39.1852C56.9751 42.3442 57.1734 45.617 55.7027 48.1634C54.3004 50.596 51.5346 51.9935 48.1188 52H8.5631C5.15222 51.9935 2.39135 50.5911 0.984095 48.1536C-0.494655 45.591 -0.299655 42.3052 1.52034 39.1414L21.4575 4.80025C23.2531 1.70625 25.6987 0 28.341 0ZM48.1156 50.375C50.9382 50.3701 53.1905 49.2684 54.2971 47.3509C55.4703 45.3196 55.2721 42.6384 53.7527 39.9961L33.8172 5.616C32.3255 3.042 30.3803 1.625 28.341 1.625C26.3016 1.625 24.3565 3.042 22.8631 5.616L2.92759 39.9539C1.40659 42.601 1.20997 45.2936 2.39135 47.3411C3.50285 49.2635 5.75185 50.3701 8.56472 50.375H48.1156ZM28.9165 32.262C28.7641 32.4144 28.5575 32.5 28.342 32.5C28.1265 32.5 27.9198 32.4144 27.7675 32.262C27.6151 32.1097 27.5295 31.903 27.5295 31.6875V15.4375C27.5295 15.222 27.6151 15.0154 27.7675 14.863C27.9198 14.7106 28.1265 14.625 28.342 14.625C28.5575 14.625 28.7641 14.7106 28.9165 14.863C29.0689 15.0154 29.1545 15.222 29.1545 15.4375V31.6875C29.1545 31.903 29.0689 32.1097 28.9165 32.262ZM24.988 39.8125C24.988 38.0201 26.4456 36.5625 28.238 36.5625C30.0304 36.5625 31.488 38.0201 31.488 39.8125C31.488 41.6049 30.0304 43.0625 28.238 43.0625C26.4456 43.0625 24.988 41.6049 24.988 39.8125ZM27.1351 40.9367C27.4245 41.2394 27.8196 41.4188 28.238 41.4375C28.6564 41.4188 29.0514 41.2394 29.3409 40.9367C29.6304 40.634 29.7919 40.2313 29.7919 39.8125C29.7919 39.3937 29.6304 38.991 29.3409 38.6883C29.0514 38.3856 28.6564 38.2062 28.238 38.1875C27.8196 38.2062 27.4245 38.3856 27.1351 38.6883C26.8456 38.991 26.684 39.3937 26.684 39.8125C26.684 40.2313 26.8456 40.634 27.1351 40.9367Z" fill="#979A9F"/>
</svg>
