<svg width="16" height="16" viewBox="0 0 16 16" fill="none" xmlns="http://www.w3.org/2000/svg">
<g id="checkmark">
<g id="Group">
<path id="Vector" d="M6.05455 16C6.45386 16 6.76959 15.8332 6.99246 15.5084L15.7678 2.44821C15.935 2.19368 16 2.00059 16 1.79872C16 1.31597 15.6657 1 15.155 1C14.7835 1 14.5792 1.1141 14.3564 1.44763L6.01741 14.0076L1.69007 8.6536C1.45792 8.34637 1.22577 8.22354 0.891469 8.22354C0.362159 8.22354 0 8.56582 0 9.04853C0 9.25045 0.0928617 9.47867 0.269298 9.68928L5.0888 15.4909C5.36739 15.8332 5.65526 16 6.05455 16Z" fill="#EE1171"/>
</g>
</g>
</svg>
