<svg width="28" height="28" viewBox="0 0 28 28" fill="none" xmlns="http://www.w3.org/2000/svg">
<path d="M14 25.9882C20.5648 25.9882 26 20.5439 26 13.9941C26 7.43262 20.553 2 13.9883 2C7.4353 2 2 7.43262 2 13.9941C2 20.5439 7.44707 25.9882 14 25.9882ZM14 23.9892C8.44708 23.9892 4.01177 19.5443 4.01177 13.9941C4.01177 8.4439 8.43531 3.99902 13.9883 3.99902C19.5413 3.99902 24.0001 8.4439 24.0001 13.9941C24.0001 19.5443 19.553 23.9892 14 23.9892Z" fill="#4B4D4F"/>
<path d="M12.706 19.5796C13.0942 19.5796 13.4236 19.3914 13.6589 19.027L19.0354 10.5723C19.1648 10.3371 19.3177 10.0784 19.3177 9.81969C19.3177 9.29053 18.8471 8.94952 18.353 8.94952C18.0589 8.94952 17.7647 9.13767 17.5413 9.47867L12.6589 17.3101L10.3412 14.3116C10.0588 13.9353 9.80003 13.8413 9.47062 13.8413C8.96473 13.8413 8.56473 14.2528 8.56473 14.7702C8.56473 15.0289 8.67061 15.2759 8.83532 15.4992L11.7059 19.027C12 19.415 12.3176 19.5796 12.706 19.5796Z" fill="#4B4D4F"/>
</svg>
