<svg width="18" height="18" viewBox="0 0 18 18" fill="none" xmlns="http://www.w3.org/2000/svg">
<mask id="mask0_7031_4621" style="mask-type:alpha" maskUnits="userSpaceOnUse" x="0" y="0" width="18" height="18">
<rect width="18" height="18" fill="#D9D9D9"/>
</mask>
<g mask="url(#mask0_7031_4621)">
<path d="M7.95 10.3097L6.20775 8.56725C6.10387 8.4635 5.97331 8.41038 5.81606 8.40788C5.65894 8.4055 5.526 8.45863 5.41725 8.56725C5.30863 8.676 5.25431 8.80775 5.25431 8.9625C5.25431 9.11725 5.30863 9.249 5.41725 9.35775L7.47544 11.4159C7.61106 11.5514 7.76925 11.6192 7.95 11.6192C8.13075 11.6192 8.28894 11.5514 8.42456 11.4159L12.5972 7.24331C12.7009 7.13944 12.7541 7.00887 12.7566 6.85162C12.7589 6.6945 12.7058 6.56156 12.5972 6.45281C12.4884 6.34419 12.3567 6.28988 12.2019 6.28988C12.0472 6.28988 11.9154 6.34419 11.8067 6.45281L7.95 10.3097ZM3.98081 15.375C3.60194 15.375 3.28125 15.2438 3.01875 14.9813C2.75625 14.7188 2.625 14.3981 2.625 14.0192V3.98081C2.625 3.60194 2.75625 3.28125 3.01875 3.01875C3.28125 2.75625 3.60194 2.625 3.98081 2.625H14.0192C14.3981 2.625 14.7188 2.75625 14.9813 3.01875C15.2438 3.28125 15.375 3.60194 15.375 3.98081V14.0192C15.375 14.3981 15.2438 14.7188 14.9813 14.9813C14.7188 15.2438 14.3981 15.375 14.0192 15.375H3.98081Z" fill="#EE1171"/>
</g>
</svg>
