<svg width="28" height="28" viewBox="0 0 28 28" fill="none" xmlns="http://www.w3.org/2000/svg">
<path fill-rule="evenodd" clip-rule="evenodd" d="M26 13.9941C26 20.5439 20.5648 25.9882 14 25.9882C7.44707 25.9882 2 20.5439 2 13.9941C2 7.43262 7.4353 2 13.9883 2C20.553 2 26 7.43262 26 13.9941ZM11.6471 19.1681C11.953 19.5796 12.2824 19.7442 12.6823 19.7442C13.0824 19.7442 13.4235 19.5561 13.6706 19.1681L19.2 10.4664C19.3412 10.2195 19.4942 9.94904 19.4942 9.69033C19.4942 9.13767 19.0118 8.7849 18.4942 8.7849C18.1883 8.7849 17.8824 8.97304 17.6589 9.32581L12.6354 17.3924L10.2471 14.3116C9.95296 13.9235 9.69413 13.8177 9.35296 13.8177C8.82355 13.8177 8.41178 14.2528 8.41178 14.782C8.41178 15.0524 8.51766 15.3111 8.69413 15.5463L11.6471 19.1681Z" fill="white"/>
</svg>
