<svg width="14" height="14" viewBox="0 0 14 14" fill="none" xmlns="http://www.w3.org/2000/svg">
<path d="M5.95 8.30969L4.20775 6.56725C4.10387 6.4635 3.97331 6.41038 3.81606 6.40788C3.65894 6.4055 3.526 6.45863 3.41725 6.56725C3.30863 6.676 3.25431 6.80775 3.25431 6.9625C3.25431 7.11725 3.30863 7.249 3.41725 7.35775L5.47544 9.41594C5.61106 9.55144 5.76925 9.61919 5.95 9.61919C6.13075 9.61919 6.28894 9.55144 6.42456 9.41594L10.5972 5.24331C10.7009 5.13944 10.7541 5.00887 10.7566 4.85162C10.7589 4.6945 10.7058 4.56156 10.5972 4.45281C10.4884 4.34419 10.3567 4.28988 10.2019 4.28988C10.0472 4.28988 9.91544 4.34419 9.80669 4.45281L5.95 8.30969ZM1.98081 13.375C1.60194 13.375 1.28125 13.2438 1.01875 12.9813C0.75625 12.7188 0.625 12.3981 0.625 12.0192V1.98081C0.625 1.60194 0.75625 1.28125 1.01875 1.01875C1.28125 0.75625 1.60194 0.625 1.98081 0.625H12.0192C12.3981 0.625 12.7188 0.75625 12.9813 1.01875C13.2438 1.28125 13.375 1.60194 13.375 1.98081V12.0192C13.375 12.3981 13.2438 12.7188 12.9813 12.9813C12.7188 13.2438 12.3981 13.375 12.0192 13.375H1.98081Z" fill="#EE1171"/>
</svg>
