<svg width="12" height="8" viewBox="0 0 12 8" fill="none" xmlns="http://www.w3.org/2000/svg">
<g id="chevron.forward">
<g id="Group">
<path id="Vector" d="M6.00345 7.25637C6.17617 7.25637 6.33507 7.18734 6.45942 7.05605L11.8204 1.58455C11.9378 1.4602 12 1.30821 12 1.1286C12 0.776262 11.7306 0.499924 11.3713 0.499924C11.1986 0.499924 11.0397 0.569008 10.9223 0.679544L6.00345 5.7089L1.08466 0.679543C0.967227 0.569008 0.815189 0.499923 0.635621 0.499923C0.276367 0.499923 0.00689696 0.776261 0.00689695 1.12859C0.00689694 1.30821 0.0690918 1.4602 0.19348 1.58455L5.54751 7.05605C5.67874 7.18734 5.83078 7.25637 6.00345 7.25637Z" fill="#FF4493"/>
</g>
</g>
</svg>
