<svg width="12" height="8" viewBox="0 0 12 8" fill="none" xmlns="http://www.w3.org/2000/svg">
<path d="M6.00345 7.25644C6.17617 7.25644 6.33507 7.18741 6.45942 7.05613L11.8204 1.58462C11.9378 1.46028 12 1.30829 12 1.12867C12 0.776338 11.7306 0.5 11.3713 0.5C11.1986 0.5 11.0397 0.569085 10.9223 0.67962L6.00345 5.70897L1.08466 0.67962C0.967227 0.569084 0.815189 0.5 0.635621 0.5C0.276367 0.499999 0.00689696 0.776338 0.00689695 1.12867C0.00689694 1.30829 0.0690918 1.46028 0.19348 1.58462L5.54751 7.05613C5.67874 7.18741 5.83078 7.25644 6.00345 7.25644Z" fill="#7C7F83"/>
</svg>
