<svg width="20" height="20" viewBox="0 0 20 20" fill="none" xmlns="http://www.w3.org/2000/svg">
<mask id="mask0_7260_7621" style="mask-type:alpha" maskUnits="userSpaceOnUse" x="0" y="0" width="20" height="20">
<rect width="20" height="20" fill="#D9D9D9"/>
</mask>
<g mask="url(#mask0_7260_7621)">
<path d="M9.99993 10.7744L6.4391 14.3354C6.32368 14.4507 6.19945 14.5063 6.06639 14.5021C5.93347 14.4978 5.8066 14.4353 5.68576 14.3146C5.56507 14.1938 5.50472 14.0647 5.50472 13.9275C5.50472 13.7903 5.56507 13.6613 5.68576 13.5404L9.22597 10.0004L5.66493 6.43958C5.54965 6.32417 5.4941 6.19646 5.49826 6.05646C5.50257 5.9166 5.56507 5.78625 5.68576 5.66542C5.8066 5.54472 5.93563 5.48438 6.07285 5.48438C6.21007 5.48438 6.3391 5.54472 6.45993 5.66542L9.99993 9.22646L13.5608 5.66542C13.6762 5.55014 13.8039 5.49111 13.9439 5.48833C14.0838 5.48569 14.2141 5.54472 14.3349 5.66542C14.4556 5.78625 14.516 5.91528 14.516 6.0525C14.516 6.18972 14.4556 6.31875 14.3349 6.43958L10.7739 10.0004L14.3349 13.5613C14.4502 13.6767 14.5092 13.8009 14.512 13.934C14.5147 14.0669 14.4556 14.1938 14.3349 14.3146C14.2141 14.4353 14.0851 14.4956 13.9478 14.4956C13.8106 14.4956 13.6816 14.4353 13.5608 14.3146L9.99993 10.7744Z" fill="#EE1171"/>
</g>
</svg>
