<svg width="65" height="65" viewBox="0 0 65 65" fill="none" xmlns="http://www.w3.org/2000/svg">
<rect x="2.5" y="2.5" width="60" height="60" rx="30" fill="#EE1171"/>
<rect x="2.5" y="2.5" width="60" height="60" rx="30" stroke="#8F0B48" stroke-width="5"/>
<path d="M26.9717 39.1758C24.1768 39.1758 22.1729 37.6289 22.1201 35.4141H24.792C24.8447 36.3633 25.7588 36.9961 26.9893 36.9961C28.2549 36.9961 29.1689 36.2754 29.1514 35.2559C29.1689 34.2188 28.2373 33.4805 26.7432 33.4805H25.5654V31.5293H26.7432C27.9912 31.5293 28.8701 30.8438 28.8701 29.8418C28.8701 28.875 28.1318 28.207 27.0068 28.207C25.8818 28.207 24.9502 28.8398 24.915 29.8066H22.3838C22.4189 27.6094 24.4053 26.0977 27.0068 26.0977C29.6611 26.0977 31.4365 27.6621 31.4189 29.6836C31.4365 31.1074 30.4346 32.127 29.0107 32.373V32.4785C30.874 32.707 31.9111 33.8496 31.8936 35.4316C31.9111 37.6113 29.8369 39.1758 26.9717 39.1758ZM33.7568 39L33.7393 37.084L38.3096 32.8828C39.5049 31.7402 40.1377 31.0371 40.1377 30.0352C40.1377 28.9102 39.2764 28.207 38.1162 28.207C36.9209 28.207 36.1475 28.9629 36.1475 30.1758H33.6338C33.6162 27.6797 35.4619 26.0977 38.1514 26.0977C40.876 26.0977 42.6865 27.6445 42.6865 29.8594C42.6865 31.3008 41.9834 32.4961 39.3643 34.8691L37.4307 36.75V36.8203H42.8623V39H33.7568Z" fill="white"/>
</svg>
