<svg width="224" height="225" viewBox="0 0 224 225" fill="none" xmlns="http://www.w3.org/2000/svg">
<path d="M112 224C173.271 224 224 173.161 224 112C224 50.7295 173.161 0 111.89 0C50.7295 0 0 50.7295 0 112C0 173.161 50.8393 224 112 224Z" fill="#101115"/>
<path d="M99.7024 165.695C95.9694 165.695 92.8948 164.157 90.0399 160.314L62.479 126.494C60.832 124.298 59.8438 121.883 59.8438 119.357C59.8438 114.416 63.6869 110.353 68.6281 110.353C71.8124 110.353 74.2281 111.341 76.9731 114.965L99.2639 143.733L146.15 68.408C148.236 65.1139 151.091 63.357 153.946 63.357C158.777 63.357 163.279 66.6511 163.279 71.8119C163.279 74.2277 161.851 76.7531 160.534 79.059L108.926 160.314C106.62 163.938 103.436 165.695 99.7024 165.695Z" fill="#8F0B48"/>
</svg>
