<svg width="100%" height="68" viewBox="0 0 335 68" fill="none" xmlns="http://www.w3.org/2000/svg" preserveAspectRatio="none">
<!-- 왼쪽 부분 (반응형) - 점선까지 -->
<rect x="0" y="0" width="268" height="68" fill="#28292A"/>
<rect x="0" y="0" width="268" height="68" fill="url(#paint1_linear_9648_22475)"/>

<!-- 오른쪽 부분 (고정) - 점선부터 끝까지 -->
<path d="M268 0H329C332.314 0 335 2.68629 335 6V62C335 65.3137 332.314 68 329 68H268V0Z" fill="#28292A"/>
<path d="M268 0H329C332.314 0 335 2.68629 335 6V62C335 65.3137 332.314 68 329 68H268V0Z" fill="url(#paint0_linear_9648_22475)"/>

<!-- 점선 패턴 (고정 위치) -->
<path d="M268 14.2001H267V12H268V14.2001ZM268 23H267V18.5997H268V23ZM268 31.7999H267V27.4003H268V31.7999ZM268 40.5997H267V36.2001H268V40.5997ZM268 49.4003H267V45H268V49.4003ZM268 56H267V53.7999H268V56Z" fill="#7C7F83"/>

<!-- 텍스트 (고정 위치) -->
<path d="M295.031 23.168C295.02 25.0254 296.104 26.9297 297.668 27.6914L296.977 28.582C295.834 27.9844 294.949 26.8125 294.486 25.4121C294.018 26.9004 293.098 28.1602 291.902 28.7812L291.211 27.8789C292.822 27.1055 293.912 25.0898 293.918 23.168V21.375H295.031V23.168ZM298.453 30.9961V20.4961H299.566V24.6797H301.254V25.6289H299.566V30.9961H298.453Z" fill="#7C7F83"/>
<path d="M311.092 25.6172V26.5195H301.518V25.6172H303.815V24.2051C303 23.877 302.543 23.3496 302.549 22.6523C302.543 21.4043 303.99 20.6777 306.299 20.6836C308.602 20.6777 310.043 21.4043 310.049 22.6523C310.043 23.3496 309.586 23.877 308.772 24.2109V25.6172H311.092ZM302.655 29.0977C302.655 27.8965 304.014 27.2344 306.299 27.2344C308.555 27.2344 309.914 27.8965 309.92 29.0977C309.914 30.3105 308.555 30.9727 306.299 30.9727C304.014 30.9727 302.655 30.3105 302.655 29.0977ZM303.698 22.6523C303.692 23.3555 304.664 23.748 306.299 23.7539C307.922 23.748 308.906 23.3555 308.901 22.6523C308.906 21.9492 307.922 21.5449 306.299 21.5391C304.664 21.5449 303.692 21.9492 303.698 22.6523ZM303.78 29.0977C303.774 29.7539 304.694 30.1289 306.299 30.1172C307.881 30.1289 308.807 29.7539 308.807 29.0977C308.807 28.4531 307.881 28.0898 306.299 28.0898C304.694 28.0898 303.774 28.4531 303.78 29.0977ZM304.94 25.6172H307.67V24.498C307.26 24.5625 306.797 24.5977 306.299 24.5977C305.807 24.5977 305.35 24.5625 304.94 24.5039V25.6172Z" fill="#7C7F83"/>
<path d="M296.707 37.4219V42.3203H291.797V37.4219H296.707ZM292.887 41.4414H295.617V38.3242H292.887V41.4414ZM292.98 46.7734V43.4453H294.094V45.8711H300.082V46.7734H292.98ZM298.523 44.1836V36.4844H299.637V39.625H301.16V40.5625H299.637V44.1836H298.523Z" fill="#7C7F83"/>
<path d="M311.127 44.8047V45.7422H301.518V44.8047H304.143V42.9531H302.69V39.6133H308.854V38.1484H302.666V37.2344H309.955V40.5156H303.791V42.0391H310.201V42.9531H308.608V44.8047H311.127ZM305.221 44.8047H307.518V42.9531H305.221V44.8047Z" fill="#7C7F83"/>

<defs>
<linearGradient id="paint0_linear_9648_22475" x1="268" y1="34" x2="335" y2="34" gradientUnits="userSpaceOnUse">
<stop offset="0.798429" stop-color="#1F2123" stop-opacity="0"/>
<stop offset="0.798756" stop-color="#1F2123"/>
<stop offset="1" stop-color="#1F2123"/>
</linearGradient>
<linearGradient id="paint1_linear_9648_22475" x1="247" y1="34.4096" x2="0" y2="34.4096" gradientUnits="userSpaceOnUse">
<stop stop-color="#EE1171" stop-opacity="0"/>
<stop offset="0.9" stop-color="#EE1171" stop-opacity="0.5"/>
</linearGradient>
</defs>
</svg>
