<svg width="26" height="26" viewBox="0 0 26 26" fill="none" xmlns="http://www.w3.org/2000/svg">
<g id="&#8;icon">
<path id="Vector" d="M25 13H22.3335M22.3335 13C22.3335 15.4756 21.3507 17.8491 19.6002 19.5996C17.8497 21.3501 15.4756 22.3335 13 22.3335M22.3335 13C22.3335 10.5244 21.3507 8.14964 19.6002 6.39916C17.8497 4.64867 15.4756 3.66653 13 3.66653M13 1V3.66653M13 3.66653C10.5246 3.66653 8.1506 4.64861 6.40024 6.39897C4.64987 8.14934 3.66653 10.5233 3.66653 12.9987C3.66653 15.4741 4.64987 17.8481 6.40024 19.5985C8.1506 21.3489 10.5246 22.3335 13 22.3335M1 13H3.66653M13 25V22.3335" stroke="#C3C5C9" stroke-width="1.5" stroke-miterlimit="10" stroke-linecap="round"/>
<path id="Vector_2" d="M13 18.333C14.4145 18.333 15.7709 17.7712 16.7711 16.771C17.7712 15.7709 18.3331 14.4144 18.3331 13C18.3331 11.5856 17.7712 10.2291 16.7711 9.22895C15.7709 8.2288 14.4145 7.66693 13 7.66693C11.5856 7.66693 10.2291 8.2288 9.22901 9.22895C8.22887 10.2291 7.66699 11.5856 7.66699 13C7.66699 14.4144 8.22887 15.7709 9.22901 16.771C10.2291 17.7712 11.5856 18.333 13 18.333Z" stroke="#C3C5C9" stroke-width="1.5" stroke-miterlimit="10" stroke-linecap="round"/>
</g>
</svg>
