<svg width="21" height="20" viewBox="0 0 21 20" fill="none" xmlns="http://www.w3.org/2000/svg">
<mask id="mask0_2889_22638" style="mask-type:alpha" maskUnits="userSpaceOnUse" x="0" y="0" width="21" height="20">
<rect x="0.296875" width="20" height="20" fill="#D9D9D9"/>
</mask>
<g mask="url(#mask0_2889_22638)">
<path d="M10.2962 17.0837C8.27386 17.0837 6.58768 16.7981 5.23768 16.227C3.88782 15.656 3.21289 14.9426 3.21289 14.0868V5.83366C3.21289 5.02921 3.90414 4.34199 5.28664 3.77199C6.66914 3.20199 8.339 2.91699 10.2962 2.91699C12.2534 2.91699 13.9233 3.20199 15.3058 3.77199C16.6883 4.34199 17.3796 5.02921 17.3796 5.83366V14.0868C17.3796 14.9426 16.7046 15.656 15.3548 16.227C14.0048 16.7981 12.3186 17.0837 10.2962 17.0837ZM10.2962 7.46512C11.5109 7.46512 12.734 7.29338 13.9654 6.94991C15.1966 6.60644 15.91 6.23595 16.1056 5.83845C15.9153 5.43039 15.2093 5.04977 13.9877 4.69658C12.766 4.34352 11.5355 4.16699 10.2962 4.16699C9.059 4.16699 7.83275 4.33873 6.61747 4.6822C5.4022 5.02567 4.68664 5.4004 4.47081 5.80637C4.68136 6.22303 5.39157 6.60366 6.60143 6.94824C7.81143 7.29283 9.04303 7.46512 10.2962 7.46512ZM10.2962 11.6349C10.8743 11.6349 11.4368 11.6071 11.9837 11.5516C12.5307 11.496 13.0534 11.4148 13.5519 11.308C14.0502 11.2012 14.5168 11.0687 14.9516 10.9105C15.3865 10.7525 15.7791 10.5735 16.1296 10.3737V7.41699C15.7791 7.61671 15.3865 7.79567 14.9516 7.95387C14.5168 8.11192 14.0502 8.24435 13.5519 8.35116C13.0534 8.4581 12.5307 8.53935 11.9837 8.59491C11.4368 8.65046 10.8743 8.67824 10.2962 8.67824C9.70761 8.67824 9.13414 8.64908 8.57581 8.59074C8.01761 8.53255 7.49067 8.45005 6.99497 8.34324C6.49928 8.23644 6.03747 8.10533 5.60956 7.94991C5.18164 7.79435 4.79942 7.61671 4.46289 7.41699V10.3737C4.79942 10.5735 5.18164 10.7512 5.60956 10.9066C6.03747 11.062 6.49928 11.1931 6.99497 11.2999C7.49067 11.4069 8.01761 11.4894 8.57581 11.5476C9.13414 11.6058 9.70761 11.6349 10.2962 11.6349ZM10.2962 15.8337C10.9725 15.8337 11.6365 15.7891 12.2883 15.6999C12.94 15.6106 13.5329 15.4888 14.0671 15.3345C14.6012 15.18 15.0518 15.0008 15.4187 14.7968C15.7858 14.5928 16.0228 14.3785 16.1296 14.1541V11.6237C15.7791 11.8235 15.3865 12.0025 14.9516 12.1605C14.5168 12.3187 14.0502 12.4512 13.5519 12.558C13.0534 12.6648 12.5307 12.746 11.9837 12.8016C11.4368 12.8571 10.8743 12.8849 10.2962 12.8849C9.70761 12.8849 9.13414 12.8558 8.57581 12.7976C8.01761 12.7394 7.49067 12.6569 6.99497 12.5499C6.49928 12.4431 6.03747 12.312 5.60956 12.1566C5.18164 12.0012 4.79942 11.8235 4.46289 11.6237V14.167C4.5697 14.3967 4.80449 14.6101 5.16727 14.8072C5.5299 15.0043 5.97831 15.18 6.51247 15.3345C7.04678 15.4888 7.64192 15.6106 8.29789 15.6999C8.95386 15.7891 9.61997 15.8337 10.2962 15.8337Z" fill="#7C7F83"/>
</g>
</svg>
