<svg width="32" height="32" viewBox="0 0 32 32" fill="none" xmlns="http://www.w3.org/2000/svg">
<rect width="32" height="32" rx="16" fill="#8F0B48"/>
<circle cx="16" cy="10.4015" r="4" fill="#480522"/>
<path fill-rule="evenodd" clip-rule="evenodd" d="M15.9917 26C17.0104 26 17.9112 25.1626 18.4572 23.8804C18.7687 24.8185 19.2749 25.4288 19.8464 25.4288C20.7932 25.4288 21.5607 23.7542 21.5607 21.6885C21.5607 19.6228 20.7932 17.9482 19.8464 17.9482C19.4155 17.9482 19.0217 18.2952 18.7205 18.868C18.2378 17.1729 17.1974 16 15.9917 16C14.7861 16 13.7457 17.1729 13.263 18.8679C12.9618 18.2951 12.568 17.9482 12.1371 17.9482C11.1904 17.9482 10.4229 19.6228 10.4229 21.6885C10.4229 23.7542 11.1904 25.4288 12.1371 25.4288C12.7086 25.4288 13.2148 24.8186 13.5263 23.8805C14.0723 25.1627 14.9731 26 15.9917 26ZM8.64092 25.4298C9.30716 25.4298 9.84726 24.3832 9.84726 23.0921C9.84726 21.8011 9.30716 20.7545 8.64092 20.7545C7.97467 20.7545 7.43457 21.8011 7.43457 23.0921C7.43457 24.3832 7.97467 25.4298 8.64092 25.4298ZM24.3951 23.0921C24.3951 24.3832 23.8888 25.4298 23.2642 25.4298C22.6396 25.4298 22.1332 24.3832 22.1332 23.0921C22.1332 21.8011 22.6396 20.7545 23.2642 20.7545C23.8888 20.7545 24.3951 21.8011 24.3951 23.0921Z" fill="#480522"/>
</svg>
