<svg width="32" height="32" viewBox="0 0 32 32" fill="none" xmlns="http://www.w3.org/2000/svg">
<path d="M8.75442 16.7655H3.57946C3.15123 16.7655 2.80322 16.4222 2.80322 15.9997C2.80322 15.5772 3.15123 15.2338 3.57946 15.2338H8.33913L10.1788 12.5112C10.4169 12.1589 10.8981 12.0645 11.2552 12.2993C11.3406 12.3555 11.4131 12.4282 11.47 12.5112L14.9644 17.682L16.3888 15.5746C16.5324 15.3615 16.7756 15.2338 17.0344 15.2338H20.1393C20.5676 15.2338 20.9156 15.5772 20.9156 15.9997C20.9156 16.4222 20.5676 16.7655 20.1393 16.7655H17.4496L15.6099 19.4882C15.3719 19.8404 14.8906 19.9349 14.5336 19.7C14.4482 19.6439 14.3757 19.5711 14.3188 19.4882L10.8244 14.3174L9.39999 16.4247C9.25639 16.6379 9.01317 16.7655 8.75442 16.7655ZM22.2093 4.00001C19.7214 3.99618 17.394 5.21134 15.9994 7.24213C13.6693 3.86088 9.00152 2.9827 5.57182 5.28154C3.51736 6.66008 2.28572 8.95254 2.28572 11.4046C2.28572 11.5871 2.2909 11.7734 2.30125 11.9585C2.32453 12.381 2.69066 12.704 3.11889 12.681C3.54712 12.658 3.87443 12.2968 3.85115 11.8743C3.85115 11.8743 3.85115 11.873 3.85115 11.8717C3.84209 11.7173 3.83821 11.5603 3.83821 11.4058C3.83821 8.16243 6.50461 5.53427 9.792 5.53427C12.1932 5.53427 14.3589 6.95749 15.2839 9.144C15.4495 9.53459 15.9036 9.7184 16.2995 9.55501C16.4884 9.47715 16.6372 9.32909 16.7161 9.144C17.9827 6.15079 21.4693 4.73778 24.5031 5.98868C26.718 6.90132 28.1605 9.03806 28.1618 11.4071C28.1618 18.7249 18.0965 25.098 16.0007 26.3464C14.7548 25.6061 10.6963 23.0609 7.61463 19.5826C7.3326 19.2648 6.84227 19.2316 6.51884 19.5099C6.1954 19.7881 6.16306 20.2719 6.44509 20.591C10.2927 24.9334 15.4055 27.7836 15.6216 27.9024C15.857 28.0325 16.1443 28.0325 16.3797 27.9024C18.7382 26.5391 20.9531 24.9449 22.9881 23.1451C27.4515 19.1818 29.7143 15.2326 29.7143 11.4071C29.7078 7.31744 26.3519 4.00511 22.2093 4.00001Z" fill="#EE1171"/>
</svg>
