<svg width="9" height="20" viewBox="0 0 9 20" fill="none" xmlns="http://www.w3.org/2000/svg">
<path d="M4.5 6C3.67157 6 3 5.32843 3 4.5C3 3.67157 3.67157 3 4.5 3C5.32843 3 6 3.67157 6 4.5C6 5.32843 5.32843 6 4.5 6Z" fill="white"/>
<path d="M4.5 11.5C3.67157 11.5 3 10.8284 3 10C3 9.17157 3.67157 8.5 4.5 8.5C5.32843 8.5 6 9.17157 6 10C6 10.8284 5.32843 11.5 4.5 11.5Z" fill="white"/>
<path d="M4.5 17C3.67157 17 3 16.3284 3 15.5C3 14.6716 3.67157 14 4.5 14C5.32843 14 6 14.6716 6 15.5C6 16.3284 5.32843 17 4.5 17Z" fill="white"/>
</svg>
