<svg width="28" height="28" viewBox="0 0 28 28" fill="none" xmlns="http://www.w3.org/2000/svg">
<mask id="mask0_11509_5210" style="mask-type:alpha" maskUnits="userSpaceOnUse" x="0" y="0" width="28" height="28">
<rect width="28" height="28" fill="#D9D9D9"/>
</mask>
<g mask="url(#mask0_11509_5210)">
<path d="M23.5 18.2285C23.733 18.2285 23.9333 18.3083 24.0928 18.4678C24.2519 18.6271 24.3311 18.8268 24.3311 19.0596V21.8701C24.331 22.5677 24.0965 23.1555 23.626 23.626C23.1555 24.0965 22.5677 24.331 21.8701 24.3311H6.13086C5.43328 24.3311 4.84549 24.0964 4.375 23.626C3.90451 23.1555 3.66996 22.5677 3.66992 21.8701V19.0596C3.66992 18.8267 3.74893 18.6272 3.9082 18.4678C4.06756 18.3084 4.26717 18.2286 4.5 18.2285C4.73296 18.2285 4.93335 18.3083 5.09277 18.4678C5.25192 18.6271 5.33105 18.8268 5.33105 19.0596V21.8701C5.3311 22.064 5.41091 22.2459 5.58301 22.418C5.75509 22.59 5.93703 22.6699 6.13086 22.6699H21.8701C22.064 22.6699 22.2459 22.5901 22.418 22.418C22.5901 22.2459 22.6699 22.064 22.6699 21.8701V19.0596C22.6699 18.8267 22.7489 18.6272 22.9082 18.4678C23.0676 18.3084 23.2672 18.2286 23.5 18.2285ZM14 3.66992C14.1683 3.66992 14.3261 3.69673 14.4717 3.75293C14.6204 3.81069 14.7626 3.90937 14.8975 4.04395V4.04492L18.7246 7.87207C18.8783 8.02553 18.9711 8.19619 18.9893 8.38184L18.9922 8.46191C18.989 8.67621 18.8956 8.87166 18.7266 9.04688L18.7256 9.04883C18.5485 9.22585 18.3441 9.31714 18.1162 9.30957C17.8943 9.30212 17.7007 9.2163 17.541 9.05664L14.8311 6.34668V18.0166C14.8311 18.2494 14.752 18.449 14.5928 18.6084C14.4333 18.7678 14.233 18.8477 14 18.8477C13.7672 18.8476 13.5676 18.7678 13.4082 18.6084C13.2489 18.449 13.1699 18.2495 13.1699 18.0166V6.3457L10.459 9.05664C10.2834 9.23226 10.0846 9.32639 9.86523 9.32324C9.6476 9.31975 9.45033 9.22368 9.27539 9.04883L9.27441 9.04688C9.10332 8.86962 9.0149 8.66763 9.02246 8.44336C9.02807 8.27854 9.07803 8.12946 9.16992 7.99805L9.27539 7.87207L13.1035 4.04492V4.04395C13.2383 3.90948 13.3796 3.81067 13.5283 3.75293C13.6739 3.69668 13.8317 3.66995 14 3.66992Z" fill="white" stroke="white" stroke-width="0.2"/>
</g>
</svg>
