<svg width="19" height="19" viewBox="0 0 19 19" fill="none" xmlns="http://www.w3.org/2000/svg">
<path d="M9.5 13.908C9.35433 13.908 9.21952 13.884 9.09557 13.8361C8.97162 13.7881 8.85083 13.7049 8.73321 13.5864L5.1775 10.032C5.0454 9.89991 4.97664 9.74429 4.97121 9.56515C4.96579 9.38601 5.03455 9.22179 5.1775 9.0725C5.32769 8.92231 5.48919 8.84586 5.662 8.84315C5.83571 8.84043 5.99721 8.91417 6.1465 9.06436L8.82143 11.7393V0.67858C8.82143 0.485866 8.88612 0.324367 9.0155 0.194081C9.14488 0.0637952 9.30638 -0.000895402 9.5 9.35958e-06C9.69362 0.000914121 9.85512 0.0656047 9.9845 0.194081C10.1139 0.322557 10.1786 0.484057 10.1786 0.67858V11.7393L12.8535 9.06436C12.9856 8.93227 13.1426 8.86305 13.3244 8.85672C13.5063 8.85039 13.6719 8.92231 13.8211 9.0725C13.9659 9.22179 14.0396 9.38193 14.0424 9.55293C14.0451 9.72393 13.9718 9.88362 13.8225 10.032L10.2668 13.5877C10.1492 13.7053 10.0284 13.7881 9.90443 13.8361C9.78138 13.884 9.64657 13.908 9.5 13.908ZM2.19314 19C1.56795 19 1.04636 18.791 0.628357 18.373C0.210357 17.955 0.000904762 17.433 0 16.8069V14.1971C0 14.0044 0.0646906 13.8433 0.194072 13.7139C0.323453 13.5845 0.484952 13.5194 0.678571 13.5185C0.87219 13.5176 1.03369 13.5827 1.16307 13.7139C1.29245 13.8451 1.35714 14.0062 1.35714 14.1971V16.8069C1.35714 17.0159 1.444 17.2077 1.61771 17.3823C1.79143 17.5569 1.98279 17.6438 2.19179 17.6429H16.8082C17.0163 17.6429 17.2077 17.556 17.3823 17.3823C17.5569 17.2086 17.6438 17.0168 17.6429 16.8069V14.1971C17.6429 14.0044 17.7075 13.8433 17.8369 13.7139C17.9663 13.5845 18.1278 13.5194 18.3214 13.5185C18.515 13.5176 18.6765 13.5827 18.8059 13.7139C18.9353 13.8451 19 14.0062 19 14.1971V16.8069C19 17.432 18.791 17.9536 18.373 18.3716C17.955 18.7896 17.433 18.9991 16.8069 19H2.19314Z" fill="#EE1171"/>
</svg>
