<svg width="17" height="17" viewBox="0 0 17 17" fill="none" xmlns="http://www.w3.org/2000/svg">
<path d="M10.35 2.85044L11.6755 1.52491C11.8419 1.35849 12.0394 1.22649 12.2567 1.13642C12.4741 1.04636 12.7071 1 12.9424 1C13.1776 1 13.4106 1.04636 13.628 1.13642C13.8453 1.22649 14.0428 1.35849 14.2092 1.52491L15.4756 2.79133C15.8114 3.12724 16 3.58277 16 4.05775C16 4.53273 15.8114 4.98826 15.4756 5.32418L14.1501 6.64971M10.35 2.85044L1.73794 11.4619C1.44058 11.7593 1.25733 12.1518 1.22028 12.5707L1.00354 15.0248C0.991904 15.1552 1.00902 15.2866 1.05368 15.4098C1.09834 15.5329 1.16946 15.6447 1.26202 15.7374C1.35459 15.83 1.46635 15.9013 1.58943 15.946C1.71251 15.9908 1.84391 16.008 1.97438 15.9965L4.42832 15.7798C4.84785 15.7431 5.24105 15.5599 5.53887 15.2621L14.1501 6.64971M10.35 2.85044L14.1501 6.64971" stroke="#C3C5C9" stroke-width="1.5" stroke-linecap="round" stroke-linejoin="round"/>
</svg>
