<svg width="24" height="24" viewBox="0 0 24 24" fill="none" xmlns="http://www.w3.org/2000/svg">
<path d="M16.6592 2.79981C19.8736 2.804 22.4821 5.3751 22.4873 8.55469V8.55567C22.4872 11.5073 20.7414 14.5195 17.375 17.5088C15.8388 18.8673 14.1669 20.0706 12.3867 21.0996L12.3828 21.1016C12.1756 21.2161 11.929 21.2305 11.7119 21.1445L11.6211 21.1016C11.4533 21.0093 7.82989 18.9886 4.96094 15.8799L4.68555 15.5762C4.40036 15.2535 4.4326 14.762 4.75977 14.4805C5.085 14.2007 5.57812 14.2344 5.8623 14.5547C8.074 17.0509 10.9689 18.9037 12.002 19.5254C12.8641 19.0054 15.0302 17.6226 17.0137 15.7207C19.0898 13.7299 20.9227 11.2129 20.9229 8.55567C20.9219 6.8611 19.89 5.33088 18.3027 4.67676C16.1273 3.77979 13.6292 4.79353 12.7227 6.93555V6.93653C12.643 7.1234 12.4929 7.27312 12.3027 7.35157C11.9061 7.51525 11.4481 7.33182 11.2803 6.93653V6.93555C10.6182 5.37103 9.06728 4.35066 7.3457 4.35059C4.98796 4.35059 3.08008 6.23525 3.08008 8.55469C3.08008 8.667 3.08334 8.78051 3.08984 8.89161V8.97462C3.07114 9.36828 2.75398 9.68829 2.35156 9.70997C1.92328 9.73295 1.55132 9.41013 1.52734 8.98048L1.51562 8.55372C1.51563 6.64721 2.47384 4.8655 4.06934 3.79493C6.65358 2.06297 10.1439 2.65339 12.002 5.0918C13.0987 3.65095 14.8227 2.79699 16.6592 2.79981ZM7.46973 9.27149C7.71023 8.91557 8.19446 8.82197 8.55273 9.05762C8.59607 9.08613 8.63585 9.11863 8.67188 9.1543L8.76855 9.27051L8.76953 9.27149L11.2246 12.9043L12.127 11.5693C12.2725 11.3533 12.5179 11.2256 12.7773 11.2256H15.1064C15.5353 11.2258 15.8887 11.5703 15.8887 12C15.8885 12.4296 15.5353 12.7742 15.1064 12.7744H13.1953L11.875 14.7285C11.6345 15.0842 11.1502 15.1778 10.792 14.9424C10.7052 14.8853 10.6327 14.8118 10.5762 14.7295L10.5752 14.7285L8.11914 11.0938L7.2168 12.4297L7.21777 12.4307C7.07224 12.6466 6.82674 12.7744 6.56738 12.7744H2.68652C2.25752 12.7744 1.90443 12.4298 1.9043 12C1.9043 11.5701 2.25745 11.2256 2.68652 11.2256H6.14941L7.46973 9.27149ZM4.75586 14.8018C4.75471 14.804 4.75405 14.8064 4.75293 14.8086C4.76888 14.7771 4.78745 14.7465 4.80957 14.7178L4.75586 14.8018ZM15.2236 12.5625L15.3066 12.5391C15.3114 12.5373 15.3156 12.5341 15.3203 12.5322C15.2891 12.5445 15.2572 12.5557 15.2236 12.5625ZM2.13965 12.1973C2.14076 12.2003 2.14239 12.2031 2.14355 12.2061C2.1321 12.1768 2.12272 12.1466 2.11621 12.1152L2.13965 12.1973ZM15.6885 12L15.6797 11.8984C15.6791 11.8954 15.6774 11.8927 15.6768 11.8897C15.6838 11.9253 15.6885 11.9623 15.6885 12ZM1.74219 9.06934C1.7429 9.07234 1.74436 9.07515 1.74512 9.07813C1.73614 9.04291 1.72961 9.0064 1.72754 8.96876L1.74219 9.06934ZM12.2266 7.16602L12.3027 7.12794C12.3073 7.1252 12.311 7.12102 12.3154 7.11817C12.2872 7.1361 12.258 7.15302 12.2266 7.16602ZM11.5127 6.94825C11.5138 6.94999 11.5154 6.95141 11.5166 6.95313C11.4969 6.92363 11.4792 6.89221 11.4648 6.85841L11.5127 6.94825ZM14.5732 4.66016C14.0676 4.92323 13.6112 5.28271 13.2354 5.72559L13.3809 5.56348C13.4797 5.45809 13.5835 5.35824 13.6914 5.26368C13.7454 5.21639 13.8004 5.17049 13.8564 5.12598C14.0247 4.99239 14.2019 4.87131 14.3867 4.76368C14.4485 4.72775 14.5109 4.6931 14.5742 4.66016H14.5732Z" fill="white"/>
</svg>
