<svg width="22" height="20" viewBox="0 0 22 20" fill="none" xmlns="http://www.w3.org/2000/svg">
<path d="M15.6592 0.799812C18.8736 0.803998 21.4821 3.3751 21.4873 6.55469V6.55567C21.4872 9.50729 19.7414 12.5195 16.375 15.5088C14.8388 16.8673 13.1669 18.0706 11.3867 19.0996L11.3828 19.1016C11.1756 19.2161 10.929 19.2305 10.7119 19.1445L10.6211 19.1016C10.4533 19.0093 6.82989 16.9886 3.96094 13.8799L3.68555 13.5762C3.40036 13.2535 3.4326 12.762 3.75977 12.4805C4.085 12.2007 4.57812 12.2344 4.8623 12.5547C7.074 15.0509 9.96888 16.9037 11.002 17.5254C11.8641 17.0054 14.0302 15.6226 16.0137 13.7207C18.0898 11.7299 19.9227 9.21292 19.9229 6.55567C19.9219 4.8611 18.89 3.33088 17.3027 2.67676C15.1273 1.77979 12.6292 2.79353 11.7227 4.93555V4.93653C11.643 5.1234 11.4929 5.27312 11.3027 5.35157C10.9061 5.51525 10.4481 5.33182 10.2803 4.93653V4.93555C9.61823 3.37103 8.06728 2.35066 6.3457 2.35059C3.98796 2.35059 2.08008 4.23525 2.08008 6.55469C2.08008 6.667 2.08334 6.78051 2.08984 6.89161V6.97462C2.07114 7.36828 1.75398 7.68829 1.35156 7.70997C0.923284 7.73295 0.551324 7.41013 0.527344 6.98048L0.515625 6.55372C0.515627 4.64721 1.47384 2.8655 3.06934 1.79493C5.65358 0.0629659 9.14395 0.653388 11.002 3.0918C12.0987 1.65095 13.8227 0.796985 15.6592 0.799812ZM6.46973 7.27149C6.71023 6.91557 7.19446 6.82197 7.55273 7.05762C7.59607 7.08613 7.63585 7.11863 7.67188 7.1543L7.76855 7.27051L7.76953 7.27149L10.2246 10.9043L11.127 9.56934C11.2725 9.35332 11.5179 9.22559 11.7773 9.22559H14.1064C14.5353 9.22582 14.8887 9.57029 14.8887 10C14.8885 10.4296 14.5353 10.7742 14.1064 10.7744H12.1953L10.875 12.7285C10.6345 13.0842 10.1502 13.1778 9.79199 12.9424C9.70524 12.8853 9.63267 12.8118 9.57617 12.7295L9.5752 12.7285L7.11914 9.09376L6.2168 10.4297L6.21777 10.4307C6.07224 10.6466 5.82674 10.7744 5.56738 10.7744H1.68652C1.25752 10.7744 0.904426 10.4298 0.904297 10C0.904301 9.57015 1.25745 9.22559 1.68652 9.22559H5.14941L6.46973 7.27149ZM3.75586 12.8018C3.75471 12.804 3.75405 12.8064 3.75293 12.8086C3.76888 12.7771 3.78745 12.7465 3.80957 12.7178L3.75586 12.8018ZM14.2236 10.5625L14.3066 10.5391C14.3114 10.5373 14.3156 10.5341 14.3203 10.5322C14.2891 10.5445 14.2572 10.5557 14.2236 10.5625ZM1.13965 10.1973C1.14076 10.2003 1.14239 10.2031 1.14355 10.2061C1.1321 10.1768 1.12272 10.1466 1.11621 10.1152L1.13965 10.1973ZM14.6885 10L14.6797 9.89844C14.6791 9.89543 14.6774 9.89266 14.6768 9.88966C14.6838 9.92535 14.6885 9.9623 14.6885 10ZM0.742188 7.06934C0.7429 7.07234 0.744357 7.07515 0.745117 7.07813C0.736138 7.04291 0.729614 7.0064 0.727539 6.96876L0.742188 7.06934ZM11.2266 5.16602L11.3027 5.12794C11.3073 5.1252 11.311 5.12102 11.3154 5.11817C11.2872 5.1361 11.258 5.15302 11.2266 5.16602ZM10.5127 4.94825C10.5138 4.94999 10.5154 4.95141 10.5166 4.95313C10.4969 4.92363 10.4792 4.89221 10.4648 4.85841L10.5127 4.94825ZM13.5732 2.66016C13.0676 2.92323 12.6112 3.28271 12.2354 3.72559L12.3809 3.56348C12.4797 3.45809 12.5835 3.35824 12.6914 3.26368C12.7454 3.21639 12.8004 3.17049 12.8564 3.12598C13.0247 2.99239 13.2019 2.87131 13.3867 2.76368C13.4485 2.72775 13.5109 2.6931 13.5742 2.66016H13.5732Z" fill="white"/>
</svg>
