<svg width="28" height="28" viewBox="0 0 28 28" fill="none" xmlns="http://www.w3.org/2000/svg">
<path d="M19.0449 4.04981C22.5183 4.05426 25.3362 6.83238 25.3418 10.2676V10.2686C25.3417 13.2599 23.6837 16.3108 20.4727 19.3477L19.8096 19.9551C18.1462 21.4261 16.3358 22.7296 14.4082 23.8438L14.4043 23.8457C14.1529 23.9845 13.8461 23.9847 13.5947 23.8457V23.8447C13.3955 23.7351 9.22806 21.4095 6.08594 17.8633V17.8623C5.78361 17.5198 5.81809 16.9991 6.16504 16.7002C6.51044 16.403 7.0341 16.4384 7.33594 16.7783C9.73921 19.4908 12.8861 21.5027 13.999 22.1719C14.9273 21.6125 17.2834 20.1103 19.4404 18.042C21.6902 15.8847 23.6805 13.1545 23.6807 10.2686C23.6797 8.42592 22.5577 6.76194 20.832 6.05079C18.4669 5.07579 15.7512 6.17861 14.7656 8.50782H14.7646C14.6801 8.70611 14.5211 8.86492 14.3193 8.94825C13.898 9.12196 13.4115 8.92752 13.2334 8.50782C12.5136 6.80647 10.8269 5.6963 8.95508 5.6963C6.39212 5.69659 4.31739 7.74561 4.31738 10.2676C4.31739 10.3896 4.32105 10.513 4.32812 10.6338L4.3291 10.6455H4.32812C4.34835 11.0976 3.99724 11.4786 3.54395 11.5029C3.089 11.5271 2.6942 11.1836 2.66895 10.7275C2.66034 10.5736 2.65626 10.4185 2.65625 10.2666C2.65625 8.20694 3.69127 6.28176 5.41504 5.12501L5.6875 4.95216C8.45461 3.29272 12.0592 3.98045 13.999 6.54493C15.1832 4.977 17.0528 4.04685 19.0449 4.04981ZM13.166 23.3623C13.4686 23.5448 13.6556 23.6512 13.6914 23.6709C13.7135 23.6831 13.7365 23.6931 13.7598 23.7022C13.7368 23.6931 13.7142 23.683 13.6924 23.6709C13.6579 23.6519 13.4702 23.5457 13.166 23.3623ZM11.2949 22.1436C11.6288 22.3771 11.9402 22.5863 12.2207 22.7695C11.9401 22.5863 11.6288 22.3771 11.2949 22.1436ZM9.10352 11.0537C9.35883 10.6759 9.87334 10.5761 10.2539 10.8262C10.3459 10.8867 10.4234 10.9644 10.4834 11.0518L10.4844 11.0537L13.1572 15.0098L14.1494 13.542C14.3039 13.313 14.5646 13.1778 14.8398 13.1777H17.3623C17.8181 13.1777 18.1934 13.5437 18.1934 14C18.1932 14.4562 17.8181 14.8223 17.3623 14.8223H15.2832L13.8477 16.9463C13.5923 17.3237 13.0786 17.4237 12.6982 17.1738C12.6062 17.1132 12.5288 17.0347 12.4688 16.9473L12.4678 16.9463L9.79297 12.9902L8.80273 14.457C8.64821 14.6862 8.38776 14.8223 8.1123 14.8223H3.90723C3.45179 14.8219 3.07729 14.4559 3.07715 14C3.07715 13.544 3.45171 13.1781 3.90723 13.1777H7.66895L9.10352 11.0537ZM3.78027 14.6094H3.78613C3.74805 14.6017 3.71111 14.591 3.67578 14.5772C3.70944 14.5904 3.74406 14.602 3.78027 14.6094ZM17.9932 14L17.9834 13.8897C17.9828 13.8866 17.9811 13.8839 17.9805 13.8809C17.9881 13.9194 17.9932 13.9593 17.9932 14ZM9.35059 11.0674C9.32067 11.0964 9.29372 11.1293 9.26953 11.165L7.77441 13.3779H7.77539L9.26953 11.165C9.31783 11.0936 9.37898 11.0357 9.44727 10.9912V10.9902C9.41299 11.0125 9.38044 11.0382 9.35059 11.0674ZM3.40527 11.2979L3.5332 11.3037V11.3027C3.44824 11.3072 3.36663 11.2947 3.29102 11.2686C3.32787 11.2813 3.36579 11.292 3.40527 11.2979ZM5.49512 6.93555C5.46896 6.96214 5.44253 6.98845 5.41699 7.01563C5.44256 6.98849 5.46889 6.96208 5.49512 6.93555ZM13.4189 6.16602C13.523 6.27653 13.624 6.39124 13.7207 6.51075C13.6239 6.39093 13.5232 6.27572 13.4189 6.16505V6.16602ZM7.4707 5.72657C7.4264 5.74074 7.3826 5.7561 7.33887 5.77149C7.38263 5.75621 7.42637 5.74065 7.4707 5.72657ZM19.0244 5.4961C19.1814 5.49542 19.3392 5.50189 19.4971 5.51661L19.2607 5.50001L19.0244 5.4961ZM10.9463 4.58009C11.0387 4.61147 11.1308 4.64392 11.2217 4.67969C11.0398 4.60812 10.8545 4.54613 10.667 4.49219L10.9463 4.58009Z" fill="white"/>
</svg>
