<svg width="20" height="20" viewBox="0 0 20 20" fill="none" xmlns="http://www.w3.org/2000/svg">
<mask id="mask0_9981_9893" style="mask-type:alpha" maskUnits="userSpaceOnUse" x="0" y="0" width="20" height="20">
<rect width="20" height="20" fill="#D9D9D9"/>
</mask>
<g mask="url(#mask0_9981_9893)">
<path d="M10 16.7627L9.12862 15.9794C7.81993 14.7921 6.7377 13.772 5.88191 12.9188C5.02612 12.0655 4.34796 11.3061 3.84743 10.6406C3.34691 9.97517 2.99724 9.36813 2.79842 8.81945C2.59947 8.2709 2.5 7.71425 2.5 7.14952C2.5 6.02912 2.87776 5.0911 3.63329 4.33544C4.38895 3.57991 5.32697 3.20215 6.44737 3.20215C7.13658 3.20215 7.78789 3.36333 8.40132 3.6857C9.01474 4.00807 9.54763 4.47037 10 5.07261C10.4524 4.47037 10.9853 4.00807 11.5987 3.6857C12.2121 3.36333 12.8634 3.20215 13.5526 3.20215C14.673 3.20215 15.6111 3.57991 16.3667 4.33544C17.1222 5.0911 17.5 6.02912 17.5 7.14952C17.5 7.71425 17.4005 8.2709 17.2016 8.81945C17.0028 9.36813 16.6531 9.97517 16.1526 10.6406C15.652 11.3061 14.9751 12.0655 14.1218 12.9188C13.2687 13.772 12.1852 14.7921 10.8714 15.9794L10 16.7627ZM10 15.1627C11.2632 14.0261 12.3026 13.0519 13.1184 12.24C13.9342 11.4283 14.5789 10.7231 15.0526 10.1245C15.5263 9.52577 15.8553 8.99412 16.0395 8.52952C16.2237 8.06504 16.3158 7.60504 16.3158 7.14952C16.3158 6.36004 16.0526 5.70215 15.5263 5.17583C15 4.64952 14.3421 4.38636 13.5526 4.38636C12.9292 4.38636 12.353 4.5632 11.8241 4.91689C11.2953 5.2707 10.8765 5.76287 10.5678 6.3934H9.43217C9.11836 5.75774 8.69829 5.26432 8.17197 4.91314C7.64566 4.56195 7.07079 4.38636 6.44737 4.38636C5.66289 4.38636 5.00625 4.64952 4.47743 5.17583C3.94862 5.70215 3.68421 6.36004 3.68421 7.14952C3.68421 7.60504 3.77632 8.06504 3.96053 8.52952C4.14474 8.99412 4.47368 9.52577 4.94737 10.1245C5.42105 10.7231 6.06579 11.4271 6.88158 12.2363C7.69737 13.0455 8.73684 14.021 10 15.1627Z" fill="#7C7F83"/>
</g>
</svg>
