<svg width="28" height="28" viewBox="0 0 28 28" fill="none" xmlns="http://www.w3.org/2000/svg">
<mask id="mask0_3074_15453" style="mask-type:alpha" maskUnits="userSpaceOnUse" x="0" y="0" width="28" height="28">
<rect width="28" height="28" fill="#D9D9D9"/>
</mask>
<g mask="url(#mask0_3074_15453)">
<path d="M13.7083 24.4145L12.4206 23.2569C10.4867 21.5024 8.88737 19.9948 7.62271 18.734C6.35804 17.4731 5.35588 16.3508 4.61621 15.3673C3.87654 14.384 3.35981 13.487 3.066 12.6761C2.772 11.8655 2.625 11.0429 2.625 10.2083C2.625 8.55264 3.18325 7.16644 4.29975 6.04975C5.41644 4.93325 6.80264 4.375 8.45833 4.375C9.47683 4.375 10.4393 4.61319 11.3458 5.08958C12.2523 5.56597 13.0398 6.24915 13.7083 7.13913C14.3768 6.24915 15.1643 5.56597 16.0708 5.08958C16.9773 4.61319 17.9398 4.375 18.9583 4.375C20.614 4.375 22.0002 4.93325 23.1169 6.04975C24.2334 7.16644 24.7917 8.55264 24.7917 10.2083C24.7917 11.0429 24.6447 11.8655 24.3507 12.6761C24.0569 13.487 23.5401 14.384 22.8005 15.3673C22.0608 16.3508 21.0605 17.4731 19.7995 18.734C18.5387 19.9948 16.9376 21.5024 14.996 23.2569L13.7083 24.4145ZM13.7083 22.05C15.575 20.3704 17.1111 18.9307 18.3167 17.731C19.5222 16.5315 20.475 15.4893 21.175 14.6046C21.875 13.7199 22.3611 12.9342 22.6333 12.2477C22.9056 11.5613 23.0417 10.8815 23.0417 10.2083C23.0417 9.04167 22.6528 8.06944 21.875 7.29167C21.0972 6.51389 20.125 6.125 18.9583 6.125C18.0371 6.125 17.1856 6.38633 16.4039 6.909C15.6224 7.43186 15.0036 8.15918 14.5475 9.09096H12.8692C12.4055 8.1516 11.7847 7.42243 11.0069 6.90346C10.2291 6.38449 9.37961 6.125 8.45833 6.125C7.29906 6.125 6.32868 6.51389 5.54721 7.29167C4.76574 8.06944 4.375 9.04167 4.375 10.2083C4.375 10.8815 4.51111 11.5613 4.78333 12.2477C5.05556 12.9342 5.54167 13.7199 6.24167 14.6046C6.94167 15.4893 7.89444 16.5296 9.1 17.7255C10.3056 18.9213 11.8417 20.3628 13.7083 22.05Z" fill="#EE1171"/>
</g>
</svg>
