<svg width="21" height="20" viewBox="0 0 21 20" fill="none" xmlns="http://www.w3.org/2000/svg">
<mask id="mask0_3053_14077" style="mask-type:alpha" maskUnits="userSpaceOnUse" x="0" y="0" width="21" height="20">
<rect x="0.5" width="20" height="20" fill="#D9D9D9"/>
</mask>
<g mask="url(#mask0_3053_14077)">
<path d="M10.9167 17.314L9.99688 16.4871C8.61549 15.2339 7.47312 14.157 6.56979 13.2565C5.66646 12.3558 4.95063 11.5542 4.42229 10.8517C3.89396 10.1493 3.52486 9.50854 3.315 8.92937C3.105 8.35035 3 7.76278 3 7.16667C3 5.98403 3.39875 4.99389 4.19625 4.19625C4.99389 3.39875 5.98403 3 7.16667 3C7.89417 3 8.58167 3.17014 9.22917 3.51042C9.87667 3.85069 10.4392 4.33868 10.9167 4.97438C11.3942 4.33868 11.9567 3.85069 12.6042 3.51042C13.2517 3.17014 13.9392 3 14.6667 3C15.8493 3 16.8394 3.39875 17.6371 4.19625C18.4346 4.99389 18.8333 5.98403 18.8333 7.16667C18.8333 7.76278 18.7283 8.35035 18.5183 8.92937C18.3085 9.50854 17.9394 10.1493 17.411 10.8517C16.8827 11.5542 16.1682 12.3558 15.2675 13.2565C14.3669 14.157 13.2233 15.2339 11.8365 16.4871L10.9167 17.314ZM10.9167 15.625C12.25 14.4253 13.3472 13.3969 14.2083 12.54C15.0694 11.6832 15.75 10.9388 16.25 10.3069C16.75 9.67493 17.0972 9.11375 17.2917 8.62333C17.4861 8.13306 17.5833 7.6475 17.5833 7.16667C17.5833 6.33333 17.3056 5.63889 16.75 5.08333C16.1944 4.52778 15.5 4.25 14.6667 4.25C14.0086 4.25 13.4004 4.43667 12.8421 4.81C12.2839 5.18347 11.8419 5.70299 11.516 6.36854H10.3173C9.98604 5.69757 9.54264 5.17674 8.98708 4.80604C8.43153 4.43535 7.82472 4.25 7.16667 4.25C6.33861 4.25 5.64549 4.52778 5.08729 5.08333C4.5291 5.63889 4.25 6.33333 4.25 7.16667C4.25 7.6475 4.34722 8.13306 4.54167 8.62333C4.73611 9.11375 5.08333 9.67493 5.58333 10.3069C6.08333 10.9388 6.76389 11.6819 7.625 12.536C8.48611 13.3902 9.58333 14.4199 10.9167 15.625Z" fill="#EE1171"/>
</g>
</svg>
