<svg width="20" height="21" viewBox="0 0 20 21" fill="none" xmlns="http://www.w3.org/2000/svg">
<mask id="mask0_2970_11186" style="mask-type:alpha" maskUnits="userSpaceOnUse" x="0" y="0" width="20" height="21">
<rect y="0.5" width="20" height="20" fill="#D9D9D9"/>
</mask>
<g mask="url(#mask0_2970_11186)">
<path d="M10.0007 17.439L9.08086 16.6121C7.69947 15.3589 6.55711 14.282 5.65378 13.3815C4.75044 12.4808 4.03461 11.6792 3.50628 10.9767C2.97794 10.2743 2.60885 9.63354 2.39898 9.05437C2.18898 8.47535 2.08398 7.88778 2.08398 7.29167C2.08398 6.10903 2.48273 5.11889 3.28023 4.32125C4.07787 3.52375 5.06801 3.125 6.25065 3.125C6.97815 3.125 7.66565 3.29514 8.31315 3.63542C8.96065 3.97569 9.52315 4.46368 10.0007 5.09938C10.4782 4.46368 11.0407 3.97569 11.6882 3.63542C12.3357 3.29514 13.0232 3.125 13.7507 3.125C14.9333 3.125 15.9234 3.52375 16.7211 4.32125C17.5186 5.11889 17.9173 6.10903 17.9173 7.29167C17.9173 7.88778 17.8123 8.47535 17.6023 9.05437C17.3925 9.63354 17.0234 10.2743 16.495 10.9767C15.9667 11.6792 15.2522 12.4808 14.3515 13.3815C13.4509 14.282 12.3072 15.3589 10.9204 16.6121L10.0007 17.439ZM10.0007 15.75C11.334 14.5503 12.4312 13.5219 13.2923 12.665C14.1534 11.8082 14.834 11.0638 15.334 10.4319C15.834 9.79993 16.1812 9.23875 16.3757 8.74833C16.5701 8.25806 16.6673 7.7725 16.6673 7.29167C16.6673 6.45833 16.3895 5.76389 15.834 5.20833C15.2784 4.65278 14.584 4.375 13.7507 4.375C13.0926 4.375 12.4844 4.56167 11.9261 4.935C11.3679 5.30847 10.9259 5.82799 10.6 6.49354H9.40128C9.07003 5.82257 8.62662 5.30174 8.07107 4.93104C7.51551 4.56035 6.90871 4.375 6.25065 4.375C5.4226 4.375 4.72947 4.65278 4.17128 5.20833C3.61308 5.76389 3.33398 6.45833 3.33398 7.29167C3.33398 7.7725 3.43121 8.25806 3.62565 8.74833C3.8201 9.23875 4.16732 9.79993 4.66732 10.4319C5.16732 11.0638 5.84787 11.8069 6.70898 12.661C7.5701 13.5152 8.66732 14.5449 10.0007 15.75Z" fill="#7C7F83"/>
</g>
</svg>
