<svg width="19" height="21" viewBox="0 0 19 21" fill="none" xmlns="http://www.w3.org/2000/svg">
<g id="file-05">
<g id="Icon">
<path d="M13.1117 3.70699C12.9274 3.51307 12.6727 3.40039 12.4052 3.40039H5.22502C4.17569 3.40039 3.32503 4.25104 3.32502 5.30038L3.32495 16.7003C3.32494 17.7497 4.1756 18.6003 5.22494 18.6003L13.775 18.6004C14.8243 18.6004 15.675 17.7498 15.675 16.7004L15.6752 6.62867C15.6752 6.38576 15.5826 6.15225 15.414 5.97737C15.1022 5.65399 14.5816 5.12188 14.2502 4.82539C13.8274 4.44709 13.3887 3.9984 13.1117 3.70699Z" fill="#313335"/>
<path d="M11.8752 3.40039V6.25039C11.8752 6.77506 12.3006 7.20039 12.8252 7.20039H15.6752M6.65025 7.20039H8.55025M6.65025 10.0504H12.3502M6.65025 12.9004H12.3502M14.2502 4.82539C13.8274 4.44709 13.3887 3.9984 13.1117 3.70699C12.9274 3.51307 12.6727 3.40039 12.4052 3.40039H5.22502C4.17569 3.40039 3.32503 4.25104 3.32502 5.30038L3.32495 16.7003C3.32494 17.7497 4.1756 18.6003 5.22494 18.6003L13.775 18.6004C14.8243 18.6004 15.675 17.7498 15.675 16.7004L15.6752 6.62867C15.6752 6.38576 15.5826 6.15225 15.414 5.97737C15.1022 5.65399 14.5816 5.12188 14.2502 4.82539Z" stroke="#313335" stroke-width="1.5" stroke-linecap="round" stroke-linejoin="round"/>
</g>
<path id="Icon_2" d="M11.8753 1.40039V6.25039C11.8753 6.77506 12.3006 7.20039 12.8253 7.20039H17.6753M5.65027 7.20039H7.55027M5.65027 10.0504H11.3503M5.65027 12.9004H11.3503" stroke="#7C7F83" stroke-width="1.2" stroke-linecap="round" stroke-linejoin="round"/>
</g>
</svg>
