<svg width="32" height="32" viewBox="0 0 32 32" fill="none" xmlns="http://www.w3.org/2000/svg">
<path d="M29.7142 11.5001C29.7142 15.3201 27.4653 19.2501 23.0285 23.1813C21.0158 24.9563 18.8279 26.5288 16.4965 27.8725C16.1879 28.0425 15.8121 28.0425 15.5035 27.8725C15.0806 27.6388 7.19118 23.2263 3.80708 17.0001H8.88895C9.22799 17.0001 9.54545 16.8326 9.73465 16.5551L10.9207 14.8026L14.1384 19.5551C14.4495 20.0151 15.0806 20.1388 15.5467 19.8326C15.6584 19.7588 15.7537 19.6651 15.8286 19.5551L17.5581 17.0001H20.0622C20.6235 17.0001 21.0781 16.5526 21.0781 16.0001C21.0781 15.4476 20.6235 15.0001 20.0622 15.0001H17.0146C16.6755 15.0001 16.3581 15.1676 16.1689 15.4451L14.9829 17.1976L11.7651 12.4451C11.454 11.9851 10.8229 11.8614 10.3569 12.1676C10.2451 12.2414 10.1499 12.3351 10.075 12.4451L8.34546 15.0001H2.91185C2.50551 13.8764 2.29345 12.6939 2.28583 11.5001C2.2871 7.35767 5.7004 4.0002 9.90989 4.0002C12.3048 4.0002 14.5613 5.11019 16 6.99518C18.5295 3.6827 23.3066 3.01646 26.6717 5.50519C28.5866 6.92143 29.7129 9.14266 29.7142 11.5001Z" fill="white"/>
</svg>
