<svg width="32" height="32" viewBox="0 0 32 32" fill="none" xmlns="http://www.w3.org/2000/svg">
<path d="M29.7135 11.5001C29.7135 15.3201 27.4646 19.2501 23.0278 23.1813C21.0152 24.9563 18.8272 26.5288 16.4958 27.8725C16.1873 28.0425 15.8114 28.0425 15.5028 27.8725C15.08 27.6388 7.19051 23.2263 3.80641 17.0001H8.88828C9.22732 17.0001 9.54478 16.8326 9.73398 16.5551L10.92 14.8026L14.1378 19.5551C14.4489 20.0151 15.08 20.1388 15.546 19.8326C15.6577 19.7588 15.753 19.6651 15.8279 19.5551L17.5574 17.0001H20.0615C20.6228 17.0001 21.0774 16.5526 21.0774 16.0001C21.0774 15.4476 20.6228 15.0001 20.0615 15.0001H17.0139C16.6749 15.0001 16.3574 15.1676 16.1682 15.4451L14.9822 17.1976L11.7644 12.4451C11.4533 11.9851 10.8222 11.8614 10.3562 12.1676C10.2445 12.2414 10.1492 12.3351 10.0743 12.4451L8.34479 15.0001H2.91118C2.50484 13.8764 2.29278 12.6939 2.28516 11.5001C2.28643 7.35767 5.69973 4.0002 9.90922 4.0002C12.3041 4.0002 14.5606 5.11019 15.9993 6.99518C18.5288 3.6827 23.3059 3.01646 26.671 5.50519C28.5859 6.92143 29.7122 9.14266 29.7135 11.5001Z" fill="#EE1171"/>
</svg>
