<svg width="33" height="33" viewBox="0 0 33 33" fill="none" xmlns="http://www.w3.org/2000/svg">
<path d="M21.6625 6.0605C21.3984 5.78259 21.0334 5.62109 20.65 5.62109H10.3598C8.85595 5.62109 7.63683 6.84023 7.63682 8.34411L7.63672 24.6823C7.63671 26.1861 8.85582 27.4053 10.3597 27.4053L22.6131 27.4054C24.1169 27.4054 25.3361 26.1863 25.3361 24.6824L25.3364 10.2478C25.3365 9.89965 25.2037 9.56499 24.962 9.31436C24.5152 8.85089 23.7691 8.08829 23.2942 7.66337C22.6883 7.12119 22.0595 6.47814 21.6625 6.0605Z" fill="#C3C5C9"/>
<path d="M19.8905 5.62109V9.70564C19.8905 10.4576 20.5001 11.0672 21.252 11.0672H25.3365M12.4023 11.0672H15.1253M12.4023 15.1517H20.5713M12.4023 19.2363H20.5713M23.2942 7.66337C22.6883 7.12119 22.0595 6.47814 21.6625 6.0605C21.3984 5.78259 21.0334 5.62109 20.65 5.62109H10.3598C8.85595 5.62109 7.63683 6.84023 7.63682 8.34411L7.63672 24.6823C7.63671 26.1861 8.85582 27.4053 10.3597 27.4053L22.6131 27.4054C24.1169 27.4054 25.3361 26.1863 25.3361 24.6824L25.3364 10.2478C25.3365 9.89965 25.2037 9.56499 24.962 9.31436C24.5152 8.85089 23.7691 8.08829 23.2942 7.66337Z" stroke="#C3C5C9" stroke-width="2.14974" stroke-linecap="round" stroke-linejoin="round"/>
<path d="M20.75 5.40625V4.54635H19.0302V5.40625H20.75ZM25.5576 11.9275H26.4175V10.2077H25.5576V11.9275ZM10.9688 10.2077C10.4938 10.2077 10.1089 10.5927 10.1089 11.0676C10.1089 11.5425 10.4938 11.9275 10.9688 11.9275V10.2077ZM13.6917 11.9275C14.1666 11.9275 14.5516 11.5425 14.5516 11.0676C14.5516 10.5927 14.1666 10.2077 13.6917 10.2077V11.9275ZM10.9688 14.2922C10.4938 14.2922 10.1089 14.6772 10.1089 15.1521C10.1089 15.627 10.4938 16.012 10.9688 16.012V14.2922ZM19.1377 16.012C19.6126 16.012 19.9976 15.627 19.9976 15.1521C19.9976 14.6772 19.6126 14.2922 19.1377 14.2922V16.012ZM10.9688 18.3768C10.4938 18.3768 10.1089 18.7618 10.1089 19.2367C10.1089 19.7116 10.4938 20.0966 10.9688 20.0966V18.3768ZM19.1377 20.0966C19.6126 20.0966 19.9976 19.7116 19.9976 19.2367C19.9976 18.7618 19.6126 18.3768 19.1377 18.3768V20.0966ZM19.8901 5.40625H19.0302V9.70606H19.8901H20.75V5.40625H19.8901ZM21.2516 11.0676V11.9275H25.5576V11.0676V10.2077H21.2516V11.0676ZM19.8901 9.70606H19.0302C19.0302 10.9329 20.0247 11.9275 21.2516 11.9275V11.0676V10.2077C20.9745 10.2077 20.75 9.98311 20.75 9.70606H19.8901ZM10.9688 11.0676V11.9275H13.6917V11.0676V10.2077H10.9688V11.0676ZM10.9688 15.1521V16.012H19.1377V15.1521V14.2922H10.9688V15.1521ZM10.9688 19.2367V20.0966H19.1377V19.2367V18.3768H10.9688V19.2367Z" fill="#17181C"/>
</svg>
