<svg width="33" height="33" viewBox="0 0 33 33" fill="none" xmlns="http://www.w3.org/2000/svg">
<ellipse cx="16.5195" cy="9.59752" rx="4.89842" ry="4.8983" fill="#7C7F83"/>
<path d="M16.5088 16.4531C17.9862 16.4531 19.26 17.8917 19.8506 19.9697C20.2197 19.2661 20.7009 18.8389 21.2295 18.8389C22.3889 18.8389 23.3291 20.8894 23.3291 23.4189C23.3291 25.9485 22.3889 27.999 21.2295 27.999C20.5286 27.999 19.9096 27.2493 19.5283 26.0977C18.8599 27.6705 17.7576 28.6992 16.5088 28.6992C15.2603 28.6991 14.1577 27.671 13.4893 26.0986C13.1079 27.2496 12.4897 27.999 11.7891 27.999C10.6296 27.999 9.68945 25.9485 9.68945 23.4189C9.6895 20.8894 10.6297 18.8389 11.7891 18.8389C12.3173 18.8389 12.797 19.2661 13.166 19.9688C13.7566 17.8911 15.0316 16.4533 16.5088 16.4531ZM7.50781 22.2754C8.32359 22.2756 8.98535 23.5578 8.98535 25.1387C8.9853 26.7194 8.32356 28.0007 7.50781 28.001C6.69196 28.001 6.03033 26.7196 6.03027 25.1387C6.03027 23.5577 6.69192 22.2754 7.50781 22.2754ZM25.415 22.2754C26.1798 22.2757 26.7998 23.5579 26.7998 25.1387C26.7998 26.7194 26.1798 28.0007 25.415 28.001C24.6502 28.001 24.0303 26.7196 24.0303 25.1387C24.0303 23.5577 24.6501 22.2754 25.415 22.2754Z" fill="#7C7F83"/>
</svg>
