<svg width="33" height="32" viewBox="0 0 33 32" fill="none" xmlns="http://www.w3.org/2000/svg">
<path d="M21.6625 5.5605C21.3984 5.28259 21.0334 5.12109 20.65 5.12109H10.3598C8.85595 5.12109 7.63683 6.34023 7.63682 7.84411L7.63672 24.1823C7.63671 25.6861 8.85582 26.9053 10.3597 26.9053L22.6131 26.9054C24.1169 26.9054 25.3361 25.6863 25.3361 24.1824L25.3364 9.74779C25.3365 9.39965 25.2037 9.06499 24.962 8.81436C24.5152 8.35089 23.7691 7.58829 23.2942 7.16337C22.6883 6.62119 22.0595 5.97814 21.6625 5.5605Z" fill="#7C7F83"/>
<path d="M19.8905 5.12109V9.20564C19.8905 9.95759 20.5001 10.5672 21.252 10.5672H25.3365M12.4023 10.5672H15.1253M12.4023 14.6517H20.5713M12.4023 18.7363H20.5713M23.2942 7.16337C22.6883 6.62119 22.0595 5.97814 21.6625 5.5605C21.3984 5.28259 21.0334 5.12109 20.65 5.12109H10.3598C8.85595 5.12109 7.63683 6.34023 7.63682 7.84411L7.63672 24.1823C7.63671 25.6861 8.85582 26.9053 10.3597 26.9053L22.6131 26.9054C24.1169 26.9054 25.3361 25.6863 25.3361 24.1824L25.3364 9.74779C25.3365 9.39965 25.2037 9.06499 24.962 8.81436C24.5152 8.35089 23.7691 7.58829 23.2942 7.16337Z" stroke="#7C7F83" stroke-width="2.14974" stroke-linecap="round" stroke-linejoin="round"/>
<path d="M20.75 4.9043V4.0444H19.0302V4.9043H20.75ZM25.5576 11.4255H26.4175V9.70573H25.5576V11.4255ZM10.9688 9.70573C10.4938 9.70573 10.1089 10.0907 10.1089 10.5656C10.1089 11.0405 10.4938 11.4255 10.9688 11.4255V9.70573ZM13.6917 11.4255C14.1666 11.4255 14.5516 11.0405 14.5516 10.5656C14.5516 10.0907 14.1666 9.70573 13.6917 9.70573V11.4255ZM10.9688 13.7903C10.4938 13.7903 10.1089 14.1753 10.1089 14.6502C10.1089 15.1251 10.4938 15.5101 10.9688 15.5101V13.7903ZM19.1377 15.5101C19.6126 15.5101 19.9976 15.1251 19.9976 14.6502C19.9976 14.1753 19.6126 13.7903 19.1377 13.7903V15.5101ZM10.9688 17.8748C10.4938 17.8748 10.1089 18.2598 10.1089 18.7347C10.1089 19.2096 10.4938 19.5946 10.9688 19.5946V17.8748ZM19.1377 19.5946C19.6126 19.5946 19.9976 19.2096 19.9976 18.7347C19.9976 18.2598 19.6126 17.8748 19.1377 17.8748V19.5946ZM19.8901 4.9043H19.0302V9.2041H19.8901H20.75V4.9043H19.8901ZM21.2516 10.5656V11.4255H25.5576V10.5656V9.70573H21.2516V10.5656ZM19.8901 9.2041H19.0302C19.0302 10.4309 20.0247 11.4255 21.2516 11.4255V10.5656V9.70573C20.9745 9.70573 20.75 9.48116 20.75 9.2041H19.8901ZM10.9688 10.5656V11.4255H13.6917V10.5656V9.70573H10.9688V10.5656ZM10.9688 14.6502V15.5101H19.1377V14.6502V13.7903H10.9688V14.6502ZM10.9688 18.7347V19.5946H19.1377V18.7347V17.8748H10.9688V18.7347Z" fill="#17181C"/>
</svg>
