<svg width="33" height="33" viewBox="0 0 33 33" fill="none" xmlns="http://www.w3.org/2000/svg">
<path fill-rule="evenodd" clip-rule="evenodd" d="M5.1084 6.67901C5.3988 6.48551 5.76671 6.45 6.08876 6.58437L12.3812 9.20977L19.6196 6.56719C19.8507 6.48282 20.1041 6.48282 20.3352 6.56719L20.4017 6.59145C20.417 6.59665 20.4322 6.60219 20.4472 6.60807L27.9568 9.34966C28.3685 9.49996 28.6424 9.89153 28.6424 10.3298V27.0246C28.6424 27.3652 28.4761 27.6844 28.197 27.8797C27.9179 28.0749 27.5611 28.1216 27.2411 28.0048L19.9774 25.3529L12.7137 28.0048C12.4673 28.0947 12.1961 28.0886 11.9541 27.9876L5.2852 25.2051C4.89662 25.043 4.64355 24.6632 4.64355 24.2422V7.54734C4.64355 7.19837 4.818 6.87251 5.1084 6.67901ZM21.1101 23.5449L26.5555 25.5329V11.0597L21.1101 9.07167V23.5449ZM19.0233 9.00645L13.5779 10.9944V25.4677L19.0233 23.4797V9.00645ZM11.491 25.5332L6.73041 23.5469V9.1133L11.491 11.0996V25.5332Z" fill="#7C7F83"/>
<path d="M5.10742 6.67847C5.39779 6.48508 5.76591 6.45038 6.08789 6.58472L12.3799 9.20972L12.6416 9.11402V28.0261C12.4148 28.0911 12.1722 28.0785 11.9531 27.9871L5.28418 25.2048C4.89565 25.0427 4.64258 24.663 4.64258 24.242V7.54761C4.64258 7.19865 4.81702 6.87197 5.10742 6.67847ZM19.6182 6.56715C19.8492 6.4828 20.1029 6.48285 20.334 6.56715L20.4004 6.59156C20.4157 6.59676 20.4313 6.60228 20.4463 6.60816L27.9561 9.34937C28.3677 9.49972 28.6416 9.89162 28.6416 10.3298V27.0242C28.6416 27.3647 28.4753 27.6844 28.1963 27.8796C27.9172 28.0749 27.5602 28.1214 27.2402 28.0046L19.9766 25.3533L19.5986 25.491V6.57398L19.6182 6.56715Z" fill="#7C7F83"/>
</svg>
