<svg width="33" height="33" viewBox="0 0 33 33" fill="none" xmlns="http://www.w3.org/2000/svg">
<path fill-rule="evenodd" clip-rule="evenodd" d="M5.10938 6.67877C5.39978 6.48527 5.76769 6.44975 6.08974 6.58412L12.3821 9.20953L19.6205 6.56694C19.8516 6.48257 20.1051 6.48257 20.3362 6.56694L20.4027 6.59121C20.418 6.59641 20.4332 6.60195 20.4482 6.60783L27.9578 9.34941C28.3695 9.49972 28.6433 9.89128 28.6433 10.3296V27.0244C28.6433 27.365 28.4771 27.6842 28.198 27.8794C27.9189 28.0746 27.562 28.1214 27.2421 28.0045L19.9784 25.3527L12.7146 28.0045C12.4683 28.0945 12.1971 28.0883 11.955 27.9874L5.28617 25.2049C4.89759 25.0428 4.64453 24.663 4.64453 24.2419V7.54709C4.64453 7.19813 4.81898 6.87227 5.10938 6.67877ZM21.1111 23.5447L26.5565 25.5327V11.0594L21.1111 9.07142V23.5447ZM19.0243 9.00621L13.5789 10.9942V25.4675L19.0243 23.4795V9.00621ZM11.492 25.533L6.73138 23.5467V9.11305L11.492 11.0993V25.533Z" fill="#7C7F83"/>
<path d="M5.10742 6.67823C5.39779 6.48484 5.76591 6.45014 6.08789 6.58448L12.3799 9.20948L12.6416 9.11378V28.0259C12.4148 28.0908 12.1722 28.0782 11.9531 27.9868L5.28418 25.2046C4.89565 25.0424 4.64258 24.6627 4.64258 24.2417V7.54737C4.64258 7.19841 4.81702 6.87173 5.10742 6.67823ZM19.6182 6.5669C19.8492 6.48256 20.1029 6.48261 20.334 6.5669L20.4004 6.59132C20.4157 6.59651 20.4313 6.60204 20.4463 6.60792L27.9561 9.34913C28.3677 9.49948 28.6416 9.89138 28.6416 10.3296V27.0239C28.6416 27.3645 28.4753 27.6842 28.1963 27.8794C27.9172 28.0746 27.5602 28.1212 27.2402 28.0044L19.9766 25.353L19.5986 25.4907V6.57374L19.6182 6.5669Z" fill="#7C7F83"/>
</svg>
