<svg width="33" height="33" viewBox="0 0 33 33" fill="none" xmlns="http://www.w3.org/2000/svg">
<path d="M16.5006 28.2008C11.8689 28.2008 8.10059 24.6517 8.10059 20.2893C8.10059 14.2008 16.5007 5.80078 16.5007 5.80078C16.5007 5.80078 24.9006 14.2008 24.9006 20.2893C24.9006 24.6517 21.1324 28.2008 16.5006 28.2008Z" fill="#7C7F83"/>
<path d="M16.5006 28.2008C14.1848 28.2008 12.3006 26.4262 12.3006 24.245C12.3006 21.2008 16.5006 17.0008 16.5006 17.0008C16.5006 17.0008 20.7006 21.2008 20.7006 24.245C20.7006 26.4263 18.8165 28.2008 16.5006 28.2008Z" fill="#7C7F83"/>
<path d="M16.5006 28.2008C11.8689 28.2008 8.10059 24.6517 8.10059 20.2893C8.10059 14.2008 16.5007 5.80078 16.5007 5.80078C16.5007 5.80078 24.9006 14.2008 24.9006 20.2893C24.9006 24.6517 21.1324 28.2008 16.5006 28.2008ZM16.5006 28.2008C14.1848 28.2008 12.3006 26.4262 12.3006 24.245C12.3006 21.2008 16.5006 17.0008 16.5006 17.0008C16.5006 17.0008 20.7006 21.2008 20.7006 24.245C20.7006 26.4263 18.8165 28.2008 16.5006 28.2008Z" stroke="#7C7F83" stroke-width="2.1" stroke-linejoin="round"/>
<path d="M16.4999 26.7254C14.184 26.7254 12.2998 24.9508 12.2998 22.7696C12.2998 19.7254 16.4999 15.5254 16.4999 15.5254C16.4999 15.5254 20.6998 19.7254 20.6998 22.7696C20.6998 24.9509 18.8157 26.7254 16.4999 26.7254Z" fill="#17181C" stroke="#17181C" stroke-width="1.76842" stroke-linejoin="round"/>
</svg>
