<svg width="33" height="32" viewBox="0 0 33 32" fill="none" xmlns="http://www.w3.org/2000/svg">
<ellipse cx="16.5195" cy="9.09752" rx="4.89842" ry="4.8983" fill="#7C7F83"/>
<path d="M16.5088 15.9531C17.986 15.9532 19.2599 17.3912 19.8506 19.4688C20.2196 18.7657 20.7011 18.3389 21.2295 18.3389C22.3888 18.3392 23.3281 20.3896 23.3281 22.9189C23.3281 25.4483 22.3888 27.4987 21.2295 27.499C20.5286 27.499 19.9096 26.7493 19.5283 25.5977C18.8599 27.1706 17.7576 28.1992 16.5088 28.1992C15.2601 28.1992 14.1567 27.1713 13.4883 25.5986C13.107 26.7493 12.4896 27.4988 11.7891 27.499C10.6296 27.499 9.68945 25.4485 9.68945 22.9189C9.68949 20.3894 10.6297 18.3389 11.7891 18.3389C12.3172 18.339 12.7971 18.7661 13.166 19.4688C13.7567 17.3911 15.0315 15.9531 16.5088 15.9531ZM7.50781 21.7754C8.32353 21.7756 8.98526 23.057 8.98535 24.6377C8.98535 26.2185 8.32359 27.5007 7.50781 27.501C6.69192 27.501 6.03027 26.2187 6.03027 24.6377C6.03037 23.0569 6.69198 21.7754 7.50781 21.7754ZM25.415 21.7754C26.1799 21.7754 26.7997 23.0569 26.7998 24.6377C26.7998 26.2187 26.1799 27.501 25.415 27.501C24.6502 27.5008 24.0303 26.2186 24.0303 24.6377C24.0304 23.057 24.6503 21.7756 25.415 21.7754Z" fill="#7C7F83"/>
</svg>
