<svg width="29" height="29" viewBox="0 0 29 29" fill="none" xmlns="http://www.w3.org/2000/svg">
<path d="M14.5016 25.7008C9.8699 25.7008 6.10156 22.1517 6.10156 17.7893C6.10156 11.7008 14.5017 3.30078 14.5017 3.30078C14.5017 3.30078 22.9016 11.7008 22.9016 17.7893C22.9016 22.1517 19.1334 25.7008 14.5016 25.7008Z" fill="#C3C5C9"/>
<path d="M14.5016 25.7008C12.1858 25.7008 10.3016 23.9262 10.3016 21.745C10.3016 18.7008 14.5016 14.5008 14.5016 14.5008C14.5016 14.5008 18.7016 18.7008 18.7016 21.745C18.7016 23.9263 16.8175 25.7008 14.5016 25.7008Z" fill="#C3C5C9"/>
<path d="M14.5016 25.7008C9.8699 25.7008 6.10156 22.1517 6.10156 17.7893C6.10156 11.7008 14.5017 3.30078 14.5017 3.30078C14.5017 3.30078 22.9016 11.7008 22.9016 17.7893C22.9016 22.1517 19.1334 25.7008 14.5016 25.7008ZM14.5016 25.7008C12.1858 25.7008 10.3016 23.9262 10.3016 21.745C10.3016 18.7008 14.5016 14.5008 14.5016 14.5008C14.5016 14.5008 18.7016 18.7008 18.7016 21.745C18.7016 23.9263 16.8175 25.7008 14.5016 25.7008Z" stroke="#C3C5C9" stroke-width="2.1" stroke-linejoin="round"/>
</svg>
