<svg width="78" height="16" viewBox="0 0 78 16" fill="none" xmlns="http://www.w3.org/2000/svg">
<g clip-path="url(#clip0_7057_21561)">
<path d="M8.34281 7.01321C8.73608 7.51728 8.93301 8.09302 8.93301 8.74044C8.93301 9.67458 8.60576 10.4151 7.95185 10.9613C7.29793 11.5082 6.38569 11.781 5.21628 11.781H0V0.605469H5.04078C6.17833 0.605469 7.06914 0.865594 7.71264 1.38584C8.35613 1.90609 8.67758 2.6119 8.67758 3.50326C8.67758 4.16167 8.5044 4.70793 8.1592 5.1432C7.81342 5.57848 7.35353 5.8808 6.77954 6.05075C7.42825 6.18891 7.94953 6.50973 8.34281 7.01379V7.01321ZM2.72804 5.12644H4.51487C4.96143 5.12644 5.30432 5.02817 5.54353 4.83163C5.78274 4.63509 5.90263 4.34607 5.90263 3.96397C5.90263 3.58188 5.78274 3.28996 5.54353 3.08822C5.30432 2.88648 4.96143 2.78589 4.51487 2.78589H2.72804V5.12644ZM5.79838 9.27399C6.04801 9.06705 6.17312 8.76703 6.17312 8.37453C6.17312 7.98204 6.0428 7.67393 5.78216 7.45138C5.52152 7.22825 5.16242 7.11726 4.70543 7.11726H2.72746V9.58498H4.73728C5.19427 9.58498 5.54816 9.48151 5.7978 9.27457L5.79838 9.27399Z" fill="#7C7F83"/>
<path d="M16.9406 7.99248H10.7675C10.8098 8.54453 10.9882 8.96651 11.3021 9.25842C11.6154 9.55034 12.0012 9.69601 12.4587 9.69601C13.1393 9.69601 13.6125 9.4093 13.8784 8.83644H16.7813C16.6325 9.42028 16.3637 9.94573 15.9757 10.4128C15.5876 10.8799 15.1011 11.2464 14.5161 11.5111C13.9311 11.7764 13.2772 11.9094 12.5537 11.9094C11.6815 11.9094 10.9053 11.7238 10.2248 11.3521C9.54421 10.981 9.0125 10.4504 8.62965 9.76018C8.2468 9.07056 8.05566 8.26359 8.05566 7.34044C8.05566 6.41728 8.24448 5.61032 8.62212 4.9207C8.99976 4.23108 9.52857 3.70042 10.2091 3.32873C10.8897 2.95762 11.671 2.77148 12.5543 2.77148C13.4376 2.77148 14.1813 2.95184 14.8514 3.31254C15.5216 3.67325 16.0452 4.1883 16.4228 4.85653C16.7999 5.52534 16.9893 6.30514 16.9893 7.19708C16.9893 7.452 16.973 7.71733 16.9412 7.99306L16.9406 7.99248ZM14.1969 6.47971C14.1969 6.01264 14.0376 5.64153 13.7185 5.36522C13.3994 5.08949 13.0009 4.95133 12.5219 4.95133C12.0429 4.95133 11.6791 5.08429 11.3652 5.34961C11.0513 5.61494 10.8573 5.99183 10.7831 6.47971H14.1969Z" fill="#7C7F83"/>
<path d="M16.4856 4.91874C16.8308 4.22912 17.3017 3.69847 17.8971 3.32678C18.4925 2.95567 19.1574 2.76953 19.8913 2.76953C20.5186 2.76953 21.0688 2.8967 21.542 3.15163C22.0152 3.40655 22.3795 3.74066 22.635 4.15455V2.8967H25.363V11.7803H22.635V10.5224C22.3691 10.9363 21.9996 11.2704 21.5264 11.5253C21.0532 11.7803 20.5029 11.9074 19.8756 11.9074C19.1522 11.9074 18.4931 11.719 17.8977 11.3421C17.3017 10.9652 16.8314 10.4293 16.4862 9.73394C16.1404 9.03912 15.9678 8.23505 15.9678 7.3223C15.9678 6.40955 16.1404 5.60836 16.4862 4.91816L16.4856 4.91874ZM22.0685 5.73091C21.6909 5.33841 21.231 5.14187 20.6888 5.14187C20.1467 5.14187 19.6862 5.33552 19.3092 5.72282C18.9315 6.11011 18.7427 6.64366 18.7427 7.32288C18.7427 8.00209 18.9315 8.54084 19.3092 8.93854C19.6868 9.33682 20.1467 9.53567 20.6888 9.53567C21.231 9.53567 21.6909 9.33913 22.0685 8.94663C22.4456 8.55413 22.635 8.01828 22.635 7.33848C22.635 6.65869 22.4461 6.12341 22.0685 5.73033V5.73091Z" fill="#7C7F83"/>
<path d="M30.9663 9.56049V11.8918H29.5786C28.5893 11.8918 27.8184 11.6478 27.2658 11.16C26.7127 10.6721 26.4364 9.87611 26.4364 8.77202V5.20253H25.3516V2.91921H26.4364V0.732422H29.1639V2.91921H30.9507V5.20253H29.1639V8.80439C29.1639 9.07261 29.2276 9.26568 29.3556 9.38302C29.483 9.50095 29.6956 9.55991 29.9939 9.55991H30.9669L30.9663 9.56049Z" fill="#7C7F83"/>
<path d="M41.5371 7.01321C41.9304 7.51728 42.1274 8.09302 42.1274 8.74044C42.1274 9.67458 41.8001 10.4151 41.1462 10.9613C40.4923 11.5082 39.58 11.781 38.4106 11.781H33.1943V0.605469H38.2351C39.3727 0.605469 40.2635 0.865594 40.907 1.38584C41.5505 1.90609 41.8719 2.6119 41.8719 3.50326C41.8719 4.16167 41.6987 4.70793 41.3535 5.1432C41.0078 5.57848 40.5479 5.8808 39.9739 6.05075C40.6226 6.18891 41.1439 6.50973 41.5371 7.01379V7.01321ZM35.9224 5.12644H37.7092C38.1558 5.12644 38.4987 5.02817 38.7379 4.83163C38.9771 4.63509 39.097 4.34607 39.097 3.96397C39.097 3.58188 38.9771 3.28996 38.7379 3.08822C38.4987 2.88648 38.1558 2.78589 37.7092 2.78589H35.9224V5.12644ZM38.9927 9.27399C39.2424 9.06705 39.3675 8.76703 39.3675 8.37453C39.3675 7.98204 39.2371 7.67393 38.9765 7.45138C38.7159 7.22825 38.3568 7.11726 37.8998 7.11726H35.9218V9.58498H37.9316C38.3886 9.58498 38.7425 9.48151 38.9921 9.27457L38.9927 9.27399Z" fill="#7C7F83"/>
<path d="M50.5808 2.89648V11.78H47.8528V10.5702C47.5759 10.9627 47.2012 11.2789 46.728 11.5176C46.2548 11.7563 45.7312 11.876 45.1566 11.876C44.476 11.876 43.8748 11.7245 43.3541 11.4222C42.8329 11.1199 42.4291 10.6817 42.1419 10.1089C41.8546 9.53603 41.7109 8.86202 41.7109 8.08685V2.89648H44.4228V7.72036C44.4228 8.3146 44.5768 8.77647 44.8855 9.10538C45.1937 9.43429 45.6084 9.59904 46.1297 9.59904C46.6509 9.59904 47.0813 9.43487 47.39 9.10538C47.6981 8.77647 47.8528 8.3146 47.8528 7.72036V2.89648H50.5808Z" fill="#7C7F83"/>
<path d="M50.6053 4.91925C50.9505 4.22963 51.4214 3.69898 52.0168 3.32729C52.6122 2.95618 53.2772 2.77004 54.011 2.77004C54.596 2.77004 55.13 2.89201 55.6142 3.13595C56.0979 3.38047 56.4784 3.7088 56.7547 4.12327V0H59.4827V11.7808H56.7547V10.5073C56.4992 10.9322 56.1349 11.2715 55.6617 11.5264C55.1885 11.7813 54.6383 11.9085 54.011 11.9085C53.2772 11.9085 52.6122 11.7201 52.0168 11.3432C51.4208 10.9663 50.9505 10.4304 50.6053 9.73503C50.2595 9.04021 50.0869 8.23614 50.0869 7.32339C50.0869 6.41064 50.2595 5.60945 50.6053 4.91925ZM56.1882 5.73142C55.8106 5.33892 55.3507 5.14238 54.8086 5.14238C54.2664 5.14238 53.806 5.33603 53.4289 5.72333C53.0513 6.11063 52.8624 6.64417 52.8624 7.32339C52.8624 8.0026 53.0513 8.54135 53.4289 8.93905C53.8065 9.33733 54.2664 9.53618 54.8086 9.53618C55.3507 9.53618 55.8106 9.33964 56.1882 8.94714C56.5653 8.55464 56.7547 8.01879 56.7547 7.33899C56.7547 6.6592 56.5659 6.12392 56.1882 5.73084V5.73142Z" fill="#7C7F83"/>
<path d="M59.5213 4.91925C59.8665 4.22963 60.3374 3.69898 60.9328 3.32729C61.5282 2.95618 62.1932 2.77004 62.927 2.77004C63.512 2.77004 64.046 2.89201 64.5302 3.13595C65.0139 3.38047 65.3944 3.7088 65.6707 4.12327V0H68.3987V11.7808H65.6707V10.5073C65.4153 10.9322 65.0509 11.2715 64.5777 11.5264C64.1045 11.7813 63.5543 11.9085 62.927 11.9085C62.1932 11.9085 61.5282 11.7201 60.9328 11.3432C60.3368 10.9663 59.8665 10.4304 59.5213 9.73503C59.1755 9.04021 59.0029 8.23614 59.0029 7.32339C59.0029 6.41064 59.1755 5.60945 59.5213 4.91925ZM65.1042 5.73142C64.7266 5.33892 64.2667 5.14238 63.7246 5.14238C63.1824 5.14238 62.722 5.33603 62.3449 5.72333C61.9673 6.11063 61.7785 6.64417 61.7785 7.32339C61.7785 8.0026 61.9673 8.54135 62.3449 8.93905C62.7226 9.33733 63.1824 9.53618 63.7246 9.53618C64.2667 9.53618 64.7266 9.33964 65.1042 8.94714C65.4813 8.55464 65.6707 8.01879 65.6707 7.33899C65.6707 6.6592 65.4819 6.12392 65.1042 5.73084V5.73142Z" fill="#7C7F83"/>
<path d="M77.5548 2.89706L71.9719 15.9993H69.0365L71.0782 11.4777L67.457 2.89648H70.5036L72.5615 8.45275L74.6032 2.89648H77.5542L77.5548 2.89706Z" fill="#7C7F83"/>
</g>
<defs>
<clipPath id="clip0_7057_21561">
<rect width="77.5556" height="16" fill="white"/>
</clipPath>
</defs>
</svg>
