<svg width="33" height="33" viewBox="0 0 33 33" fill="none" xmlns="http://www.w3.org/2000/svg">
<path d="M16.2506 28.2008C11.6189 28.2008 7.85059 24.6517 7.85059 20.2893C7.85059 14.2008 16.2507 5.80078 16.2507 5.80078C16.2507 5.80078 24.6506 14.2008 24.6506 20.2893C24.6506 24.6517 20.8824 28.2008 16.2506 28.2008Z" fill="#C3C5C9"/>
<path d="M16.2506 28.2008C13.9348 28.2008 12.0506 26.4262 12.0506 24.245C12.0506 21.2008 16.2506 17.0008 16.2506 17.0008C16.2506 17.0008 20.4506 21.2008 20.4506 24.245C20.4506 26.4263 18.5665 28.2008 16.2506 28.2008Z" fill="#C3C5C9"/>
<path d="M16.2506 28.2008C11.6189 28.2008 7.85059 24.6517 7.85059 20.2893C7.85059 14.2008 16.2507 5.80078 16.2507 5.80078C16.2507 5.80078 24.6506 14.2008 24.6506 20.2893C24.6506 24.6517 20.8824 28.2008 16.2506 28.2008ZM16.2506 28.2008C13.9348 28.2008 12.0506 26.4262 12.0506 24.245C12.0506 21.2008 16.2506 17.0008 16.2506 17.0008C16.2506 17.0008 20.4506 21.2008 20.4506 24.245C20.4506 26.4263 18.5665 28.2008 16.2506 28.2008Z" stroke="#C3C5C9" stroke-width="2.1" stroke-linejoin="round"/>
<path d="M16.2499 26.7254C13.934 26.7254 12.0498 24.9508 12.0498 22.7696C12.0498 19.7254 16.2499 15.5254 16.2499 15.5254C16.2499 15.5254 20.4498 19.7254 20.4498 22.7696C20.4498 24.9509 18.5657 26.7254 16.2499 26.7254Z" fill="#17181C" stroke="#17181C" stroke-width="1.76842" stroke-linejoin="round"/>
</svg>
