<svg width="25" height="24" viewBox="0 0 25 24" fill="none" xmlns="http://www.w3.org/2000/svg">
<path fill-rule="evenodd" clip-rule="evenodd" d="M1.1084 1.67901C1.3988 1.48551 1.76671 1.45 2.08876 1.58437L8.38117 4.20977L15.6196 1.56719C15.8507 1.48282 16.1041 1.48282 16.3352 1.56719L16.4017 1.59145C16.417 1.59665 16.4322 1.60219 16.4472 1.60807L23.9568 4.34966C24.3685 4.49996 24.6424 4.89153 24.6424 5.32981V22.0246C24.6424 22.3652 24.4761 22.6844 24.197 22.8797C23.9179 23.0749 23.5611 23.1216 23.2411 23.0048L15.9774 20.3529L8.71367 23.0048C8.46731 23.0947 8.1961 23.0886 7.95406 22.9876L1.2852 20.2051C0.896616 20.043 0.643555 19.6632 0.643555 19.2422V2.54734C0.643555 2.19837 0.818001 1.87251 1.1084 1.67901ZM17.1101 18.5449L22.5555 20.5329V6.05966L17.1101 4.07167V18.5449ZM15.0233 4.00645L9.5779 5.99445V20.4677L15.0233 18.4797V4.00645ZM7.49104 20.5332L2.73041 18.5469V4.1133L7.49104 6.09959V20.5332Z" fill="#7C7F83"/>
<path d="M1.10742 1.67847C1.39779 1.48508 1.76591 1.45038 2.08789 1.58472L8.37988 4.20972L8.6416 4.11402V23.0261C8.41476 23.0911 8.17224 23.0785 7.95312 22.9871L1.28418 20.2048C0.895649 20.0427 0.642578 19.663 0.642578 19.242V2.54761C0.642578 2.19865 0.817021 1.87197 1.10742 1.67847ZM15.6182 1.56715C15.8492 1.4828 16.1029 1.48285 16.334 1.56715L16.4004 1.59156C16.4157 1.59676 16.4313 1.60228 16.4463 1.60816L23.9561 4.34937C24.3677 4.49972 24.6416 4.89162 24.6416 5.32984V22.0242C24.6416 22.3647 24.4753 22.6844 24.1963 22.8796C23.9172 23.0749 23.5602 23.1214 23.2402 23.0046L15.9766 20.3533L15.5986 20.491V1.57398L15.6182 1.56715Z" fill="#7C7F83"/>
</svg>
