<svg width="32" height="32" viewBox="0 0 32 32" fill="none" xmlns="http://www.w3.org/2000/svg">
<ellipse cx="16.0155" cy="9.39336" rx="4.69425" ry="4.69414" fill="#C3C5C9"/>
<path d="M16.0049 15.9648C17.4209 15.9649 18.6422 17.3432 19.208 19.335C19.5616 18.6612 20.022 18.2521 20.5283 18.252C21.6394 18.252 22.54 20.2166 22.54 22.6406C22.54 25.0648 21.6394 27.0303 20.5283 27.0303C19.8564 27.0301 19.2638 26.3105 18.8984 25.2061C18.2579 26.7138 17.2018 27.7001 16.0049 27.7002C14.8081 27.7002 13.7509 26.7145 13.1104 25.207C12.745 26.3108 12.1532 27.0303 11.4814 27.0303C10.3704 27.0301 9.46973 25.0647 9.46973 22.6406C9.4698 20.2167 10.3705 18.2521 11.4814 18.252C11.9875 18.252 12.4482 18.6601 12.8018 19.333C13.3679 17.3422 14.5893 15.9648 16.0049 15.9648ZM7.37891 21.5439C8.16073 21.544 8.79487 22.7721 8.79492 24.2871C8.79492 25.8022 8.16076 27.0302 7.37891 27.0303C6.59702 27.0303 5.96289 25.8022 5.96289 24.2871C5.96294 22.7721 6.59705 21.5439 7.37891 21.5439ZM24.54 21.5439C25.273 21.5439 25.8671 22.7721 25.8672 24.2871C25.8672 25.8022 25.2731 27.0303 24.54 27.0303C23.8071 27.0302 23.2129 25.8022 23.2129 24.2871C23.2129 22.7721 23.8071 21.544 24.54 21.5439Z" fill="#C3C5C9"/>
</svg>
