<svg width="16" height="19" viewBox="0 0 16 19" fill="none" xmlns="http://www.w3.org/2000/svg">
<g id="goforward">
<g id="Group">
<path id="Vector" d="M0.5 9.63782C0.5 13.7046 3.87441 17.0718 7.9339 17.0718C12.0007 17.0718 15.3678 13.7046 15.3678 9.63782C15.3678 7.189 14.1289 4.988 12.2558 3.62511C11.9351 3.37731 11.5343 3.45749 11.352 3.7563C11.1698 4.0624 11.2646 4.40495 11.5634 4.63088C13.1158 5.73868 14.1215 7.568 14.1289 9.63782C14.1361 13.0779 11.3739 15.8328 7.9339 15.8328C4.49391 15.8328 1.74628 13.0779 1.74628 9.63782C1.74628 6.68613 3.77238 4.23731 6.5273 3.61053V4.65274C6.5273 5.1702 6.8844 5.30867 7.28529 5.02444L9.61016 3.39189C9.93817 3.16596 9.94544 2.81613 9.61016 2.57562L7.29257 0.943073C6.8844 0.651547 6.5273 0.790022 6.5273 1.31477V2.3424C3.11645 3.0129 0.5 6.05206 0.5 9.63782Z" fill="#FF4493"/>
</g>
</g>
</svg>
