<svg width="15" height="19" viewBox="0 0 15 19" fill="none" xmlns="http://www.w3.org/2000/svg">
<path d="M0 9.6377C0 13.7045 3.37441 17.0717 7.4339 17.0717C11.5007 17.0717 14.8678 13.7045 14.8678 9.6377C14.8678 7.18888 13.6289 4.98788 11.7558 3.62499C11.4351 3.37719 11.0343 3.45736 10.852 3.75618C10.6698 4.06228 10.7646 4.40482 11.0634 4.63076C12.6158 5.73855 13.6215 7.56788 13.6289 9.6377C13.6361 13.0777 10.8739 15.8327 7.4339 15.8327C3.99391 15.8327 1.24628 13.0777 1.24628 9.6377C1.24628 6.68601 3.27238 4.23719 6.0273 3.61041V4.65262C6.0273 5.17007 6.3844 5.30855 6.78529 5.02431L9.11016 3.39177C9.43817 3.16584 9.44544 2.81601 9.11016 2.5755L6.79257 0.942951C6.3844 0.651425 6.0273 0.7899 6.0273 1.31465V2.34228C2.61645 3.01278 0 6.05194 0 9.6377Z" fill="#EE1171"/>
</svg>
