<svg width="121" height="120" viewBox="0 0 121 120" fill="none" xmlns="http://www.w3.org/2000/svg">
<g id="img">
<path id="Vector" fill-rule="evenodd" clip-rule="evenodd" d="M29.7749 110C38.3386 110 45.6921 97.5293 48.8712 79.7216C50.4829 94.8933 53.8959 105.358 57.8462 105.358C62.0245 105.358 65.6026 93.6468 67.0823 77.041C68.4068 89.2656 71.1122 97.6407 74.2343 97.6407C78.6631 97.6407 82.2532 80.7892 82.2532 60.0024C82.2532 39.2151 78.6631 22.3638 74.2343 22.3638C71.1127 22.3638 68.4072 30.737 67.0827 42.9597C65.603 26.3516 62.0249 14.6388 57.8462 14.6388C53.8959 14.6388 50.4825 25.1042 48.871 40.2769C45.6917 22.4701 38.3384 10 29.7749 10C18.3012 10 9 32.3858 9 60.0002C9 87.6144 18.3012 110 29.7749 110ZM92.4535 88.2002C95.6748 88.2002 98.2857 75.5748 98.2857 60.0011C98.2857 44.427 95.6748 31.8019 92.4535 31.8019C89.2327 31.8019 86.6213 44.427 86.6213 60.0011C86.6213 75.5748 89.2327 88.2002 92.4535 88.2002ZM112.75 59.9981C112.75 67.7851 110.816 74.0978 108.431 74.0978C106.046 74.0978 104.113 67.7851 104.113 59.9981C104.113 52.2112 106.046 45.8986 108.431 45.8986C110.816 45.8986 112.75 52.2112 112.75 59.9981Z" fill="#2F3237"/>
</g>
</svg>
