<svg width="28" height="24" viewBox="0 0 28 24" fill="none" xmlns="http://www.w3.org/2000/svg">
<path d="M6.75385 12.7655H1.5789C1.15067 12.7655 0.802652 12.4222 0.802652 11.9997C0.802652 11.5772 1.15067 11.2338 1.5789 11.2338H6.33856L8.17826 8.51121C8.41631 8.15892 8.89758 8.06447 9.25465 8.29933C9.34004 8.35549 9.41249 8.42825 9.46941 8.51121L12.9638 13.682L14.3882 11.5746C14.5318 11.3615 14.775 11.2338 15.0338 11.2338H18.1388C18.567 11.2338 18.915 11.5772 18.915 11.9997C18.915 12.4222 18.567 12.7655 18.1388 12.7655H15.4491L13.6094 15.4882C13.3713 15.8404 12.8901 15.9349 12.533 15.7C12.4476 15.6439 12.3752 15.5711 12.3182 15.4882L8.82384 10.3174L7.39943 12.4247C7.25583 12.6379 7.0126 12.7655 6.75385 12.7655ZM20.2087 9.02342e-06C17.7209 -0.00382025 15.3934 1.21134 13.9988 3.24213C11.6688 -0.139121 7.00096 -1.0173 3.57125 1.28154C1.5168 2.66008 0.285156 4.95254 0.285156 7.40455C0.285156 7.58708 0.290331 7.77344 0.300681 7.95852C0.323968 8.38102 0.690097 8.70395 1.11832 8.68098C1.54655 8.658 1.87387 8.29677 1.85058 7.87428C1.85058 7.87428 1.85058 7.873 1.85058 7.87173C1.84152 7.71728 1.83764 7.56028 1.83764 7.40583C1.83764 4.16243 4.50404 1.53427 7.79143 1.53427C10.1926 1.53427 12.3583 2.95749 13.2834 5.144C13.449 5.53459 13.9031 5.7184 14.2989 5.55501C14.4878 5.47715 14.6366 5.32909 14.7155 5.144C15.9821 2.15079 19.4687 0.737783 22.5025 1.98868C24.7174 2.90132 26.1599 5.03806 26.1612 7.40711C26.1612 14.7249 16.0959 21.098 14.0001 22.3464C12.7542 21.6061 8.69576 19.0609 5.61407 15.5826C5.33203 15.2648 4.84171 15.2316 4.51827 15.5099C4.19484 15.7881 4.16249 16.2719 4.44453 16.591C8.29211 20.9334 13.405 23.7836 13.621 23.9024C13.8565 24.0325 14.1437 24.0325 14.3792 23.9024C16.7376 22.5391 18.9525 20.9449 20.9876 19.1451C25.451 15.1818 27.7137 11.2326 27.7137 7.40711C27.7073 3.31744 24.3513 0.00511473 20.2087 9.02342e-06Z" fill="#979A9F"/>
</svg>
