<svg width="32" height="32" viewBox="0 0 32 32" fill="none" xmlns="http://www.w3.org/2000/svg">
<path d="M8.7544 16.7655H3.57945C3.15122 16.7655 2.8032 16.4222 2.8032 15.9997C2.8032 15.5772 3.15122 15.2338 3.57945 15.2338H8.33911L10.1788 12.5112C10.4169 12.1589 10.8981 12.0645 11.2552 12.2993C11.3406 12.3555 11.413 12.4282 11.47 12.5112L14.9644 17.682L16.3888 15.5746C16.5324 15.3615 16.7756 15.2338 17.0343 15.2338H20.1393C20.5675 15.2338 20.9156 15.5772 20.9156 15.9997C20.9156 16.4222 20.5675 16.7655 20.1393 16.7655H17.4496L15.6099 19.4882C15.3719 19.8404 14.8906 19.9349 14.5335 19.7C14.4482 19.6439 14.3757 19.5711 14.3188 19.4882L10.8244 14.3174L9.39998 16.4247C9.25637 16.6379 9.01315 16.7655 8.7544 16.7655ZM22.2093 4.00001C19.7214 3.99618 17.394 5.21134 15.9993 7.24213C13.6693 3.86088 9.00151 2.9827 5.5718 5.28154C3.51735 6.66008 2.28571 8.95254 2.28571 11.4046C2.28571 11.5871 2.29088 11.7734 2.30123 11.9585C2.32452 12.381 2.69065 12.704 3.11887 12.681C3.5471 12.658 3.87442 12.2968 3.85113 11.8743C3.85113 11.8743 3.85113 11.873 3.85113 11.8717C3.84207 11.7173 3.83819 11.5603 3.83819 11.4058C3.83819 8.16243 6.50459 5.53427 9.79198 5.53427C12.1932 5.53427 14.3589 6.95749 15.2839 9.144C15.4495 9.53459 15.9036 9.7184 16.2995 9.55501C16.4884 9.47715 16.6372 9.32909 16.7161 9.144C17.9826 6.15079 21.4693 4.73778 24.5031 5.98868C26.718 6.90132 28.1605 9.03806 28.1618 11.4071C28.1618 18.7249 18.0965 25.098 16.0006 26.3464C14.7548 25.6061 10.6963 23.0609 7.61462 19.5826C7.33258 19.2648 6.84226 19.2316 6.51882 19.5099C6.19539 19.7881 6.16304 20.2719 6.44508 20.591C10.2927 24.9334 15.4055 27.7836 15.6216 27.9024C15.857 28.0325 16.1442 28.0325 16.3797 27.9024C18.7382 26.5391 20.9531 24.9449 22.9881 23.1451C27.4515 19.1818 29.7143 15.2326 29.7143 11.4071C29.7078 7.31744 26.3518 4.00511 22.2093 4.00001Z" fill="white"/>
</svg>
