<svg width="32" height="32" viewBox="0 0 32 32" fill="none" xmlns="http://www.w3.org/2000/svg">
<path d="M8.75385 16.7655H3.5789C3.15067 16.7655 2.80265 16.4222 2.80265 15.9997C2.80265 15.5772 3.15067 15.2338 3.5789 15.2338H8.33856L10.1783 12.5112C10.4163 12.1589 10.8976 12.0645 11.2547 12.2993C11.34 12.3555 11.4125 12.4282 11.4694 12.5112L14.9638 17.682L16.3882 15.5746C16.5318 15.3615 16.775 15.2338 17.0338 15.2338H20.1388C20.567 15.2338 20.915 15.5772 20.915 15.9997C20.915 16.4222 20.567 16.7655 20.1388 16.7655H17.4491L15.6094 19.4882C15.3713 19.8404 14.8901 19.9349 14.533 19.7C14.4476 19.6439 14.3752 19.5711 14.3182 19.4882L10.8238 14.3174L9.39943 16.4247C9.25583 16.6379 9.0126 16.7655 8.75385 16.7655ZM22.2087 4.00001C19.7209 3.99618 17.3934 5.21134 15.9988 7.24213C13.6688 3.86088 9.00096 2.9827 5.57125 5.28154C3.5168 6.66008 2.28516 8.95254 2.28516 11.4046C2.28516 11.5871 2.29033 11.7734 2.30068 11.9585C2.32397 12.381 2.6901 12.704 3.11832 12.681C3.54655 12.658 3.87387 12.2968 3.85058 11.8743C3.85058 11.8743 3.85058 11.873 3.85058 11.8717C3.84152 11.7173 3.83764 11.5603 3.83764 11.4058C3.83764 8.16243 6.50404 5.53427 9.79143 5.53427C12.1926 5.53427 14.3583 6.95749 15.2834 9.144C15.449 9.53459 15.9031 9.7184 16.2989 9.55501C16.4878 9.47715 16.6366 9.32909 16.7155 9.144C17.9821 6.15079 21.4687 4.73778 24.5025 5.98868C26.7174 6.90132 28.1599 9.03806 28.1612 11.4071C28.1612 18.7249 18.0959 25.098 16.0001 26.3464C14.7542 25.6061 10.6958 23.0609 7.61407 19.5826C7.33203 19.2648 6.84171 19.2316 6.51827 19.5099C6.19484 19.7881 6.16249 20.2719 6.44453 20.591C10.2921 24.9334 15.405 27.7836 15.621 27.9024C15.8565 28.0325 16.1437 28.0325 16.3792 27.9024C18.7376 26.5391 20.9525 24.9449 22.9876 23.1451C27.451 19.1818 29.7137 15.2326 29.7137 11.4071C29.7073 7.31744 26.3513 4.00511 22.2087 4.00001Z" fill="#979A9F"/>
</svg>
