<svg width="21" height="20" viewBox="0 0 21 20" fill="none" xmlns="http://www.w3.org/2000/svg">
<g clip-path="url(#clip0_2876_7956)">
<path d="M5.98003 14.6915C9.09761 17.6879 12.884 20 15.98 20C17.3716 20 18.5905 19.5334 19.5723 18.4966C20.1439 17.8848 20.5 17.1694 20.5 16.4645C20.5 15.946 20.295 15.4484 19.788 15.0959L16.4763 12.8356C15.98 12.5039 15.5486 12.338 15.1602 12.338C14.6747 12.338 14.2325 12.6075 13.7362 13.0741L12.9703 13.7999C12.8517 13.914 12.7006 13.9658 12.5604 13.9658C12.3986 13.9658 12.2368 13.9035 12.1289 13.8517C11.46 13.5095 10.3166 12.566 9.24864 11.55C8.19147 10.5339 7.2098 9.43495 6.8646 8.7921C6.81067 8.67805 6.74595 8.5329 6.74595 8.37738C6.74595 8.2426 6.78909 8.10781 6.90776 7.99376L7.67367 7.23689C8.14831 6.75996 8.43958 6.34524 8.43958 5.86831C8.43958 5.49506 8.26698 5.09071 7.9002 4.6034L5.5809 1.46188C5.21412 0.964216 4.67475 0.74649 4.09222 0.74649C3.38026 0.74649 2.6467 1.05753 2.01024 1.64851C0.963861 2.61274 0.5 3.80506 0.5 5.12181C0.5 8.09744 2.86246 11.7055 5.98003 14.6915Z" fill="#4B4D4F"/>
</g>
<defs>
<clipPath id="clip0_2876_7956">
<rect width="20" height="20" fill="white" transform="translate(0.5)"/>
</clipPath>
</defs>
</svg>
