<svg width="20" height="20" viewBox="0 0 20 20" fill="none" xmlns="http://www.w3.org/2000/svg">
<path d="M8.39068 16.59C13.0047 16.59 16.7442 12.8848 16.7442 8.3133C16.7442 3.70513 13.0047 0 8.39068 0C3.7768 0 0 3.74194 0 8.3133C0 12.8848 3.7768 16.59 8.39068 16.59ZM8.39068 13.954C5.22787 13.954 2.6604 11.4102 2.6604 8.3133C2.6604 5.2166 5.22787 2.65439 8.39068 2.65439C11.4976 2.65439 14.0651 5.2166 14.0651 8.3133C14.0651 11.4102 11.5163 13.954 8.39068 13.954ZM18.4931 20C19.3489 20 20 19.3365 20 18.3964C20 17.9908 19.7954 17.5853 19.4791 17.272L14.2697 12.0922L11.9071 14.1935L17.1349 19.3917C17.5815 19.8342 17.9907 20 18.4931 20Z" fill="#4B4D4F"/>
</svg>
