<svg width="28" height="24" viewBox="0 0 28 24" fill="none" xmlns="http://www.w3.org/2000/svg">
<path id="Vector" d="M6.75446 12.7655H1.57951C1.15128 12.7655 0.803262 12.4222 0.803262 11.9997C0.803262 11.5772 1.15128 11.2338 1.57951 11.2338H6.33917L8.17887 8.51121C8.41692 8.15892 8.89819 8.06447 9.25526 8.29933C9.34065 8.35549 9.4131 8.42825 9.47002 8.51121L12.9644 13.682L14.3888 11.5746C14.5324 11.3615 14.7756 11.2338 15.0344 11.2338H18.1394C18.5676 11.2338 18.9156 11.5772 18.9156 11.9997C18.9156 12.4222 18.5676 12.7655 18.1394 12.7655H15.4497L13.61 15.4882C13.3719 15.8404 12.8907 15.9349 12.5336 15.7C12.4482 15.6439 12.3758 15.5711 12.3188 15.4882L8.82445 10.3174L7.40004 12.4247C7.25644 12.6379 7.01321 12.7655 6.75446 12.7655ZM20.2094 9.02342e-06C17.7215 -0.00382025 15.3941 1.21134 13.9994 3.24213C11.6694 -0.139121 7.00157 -1.0173 3.57186 1.28154C1.51741 2.66008 0.285767 4.95254 0.285767 7.40455C0.285767 7.58708 0.290942 7.77344 0.301291 7.95852C0.324579 8.38102 0.690707 8.70395 1.11893 8.68098C1.54716 8.658 1.87448 8.29677 1.85119 7.87428C1.85119 7.87428 1.85119 7.873 1.85119 7.87173C1.84214 7.71728 1.83825 7.56028 1.83825 7.40583C1.83825 4.16243 4.50465 1.53427 7.79204 1.53427C10.1932 1.53427 12.3589 2.95749 13.284 5.144C13.4496 5.53459 13.9037 5.7184 14.2996 5.55501C14.4884 5.47715 14.6372 5.32909 14.7161 5.144C15.9827 2.15079 19.4693 0.737783 22.5032 1.98868C24.718 2.90132 26.1606 5.03806 26.1618 7.40711C26.1618 14.7249 16.0966 21.098 14.0007 22.3464C12.7548 21.6061 8.69637 19.0609 5.61468 15.5826C5.33264 15.2648 4.84232 15.2316 4.51888 15.5099C4.19545 15.7881 4.1631 16.2719 4.44514 16.591C8.29272 20.9334 13.4056 23.7836 13.6216 23.9024C13.8571 24.0325 14.1443 24.0325 14.3798 23.9024C16.7383 22.5391 18.9531 20.9449 20.9882 19.1451C25.4516 15.1818 27.7143 11.2326 27.7143 7.40711C27.7079 3.31744 24.3519 0.00511473 20.2094 9.02342e-06Z" fill="#C3C5C9"/>
</svg>
