<svg width="28" height="24" viewBox="0 0 28 24" fill="none" xmlns="http://www.w3.org/2000/svg">
<path d="M6.60346 12.7655H1.32069C0.883543 12.7655 0.528277 12.4222 0.528277 11.9997C0.528277 11.5772 0.883543 11.2338 1.32069 11.2338H6.17952L8.05754 8.51121C8.30055 8.15892 8.79185 8.06447 9.15636 8.29933C9.24353 8.35549 9.31748 8.42825 9.3756 8.51121L12.9428 13.682L14.3969 11.5746C14.5435 11.3615 14.7918 11.2338 15.0559 11.2338H18.2256C18.6627 11.2338 19.018 11.5772 19.018 11.9997C19.018 12.4222 18.6627 12.7655 18.2256 12.7655H15.4798L13.6018 15.4882C13.3588 15.8404 12.8675 15.9349 12.503 15.7C12.4158 15.6439 12.3419 15.5711 12.2838 15.4882L8.71657 10.3174L7.26249 12.4247C7.11589 12.6379 6.8676 12.7655 6.60346 12.7655ZM20.3387 9.02342e-06C17.799 -0.00382025 15.423 1.21134 13.9993 3.24213C11.6208 -0.139121 6.85571 -1.0173 3.35456 1.28154C1.2573 2.66008 0 4.95254 0 7.40455C0 7.58708 0.00528277 7.77344 0.0158483 7.95852C0.0396208 8.38102 0.413377 8.70395 0.850526 8.68098C1.28768 8.658 1.62181 8.29677 1.59804 7.87428C1.59804 7.87428 1.59804 7.873 1.59804 7.87173C1.58879 7.71728 1.58483 7.56028 1.58483 7.40583C1.58483 4.16243 4.30678 1.53427 7.66266 1.53427C10.1139 1.53427 12.3247 2.95749 13.269 5.144C13.438 5.53459 13.9016 5.7184 14.3057 5.55501C14.4986 5.47715 14.6504 5.32909 14.731 5.144C16.024 2.15079 19.5832 0.737783 22.6803 1.98868C24.9413 2.90132 26.4138 5.03806 26.4152 7.40711C26.4152 14.7249 16.1402 21.098 14.0007 22.3464C12.7288 21.6061 8.58582 19.0609 5.43993 15.5826C5.15202 15.2648 4.65148 15.2316 4.32131 15.5099C3.99113 15.7881 3.95812 16.2719 4.24603 16.591C8.17377 20.9334 13.3931 23.7836 13.6137 23.9024C13.8541 24.0325 14.1473 24.0325 14.3876 23.9024C16.7952 22.5391 19.0563 20.9449 21.1337 19.1451C25.6901 15.1818 28 11.2326 28 7.40711C27.9934 3.31744 24.5675 0.00511473 20.3387 9.02342e-06Z" fill="white"/>
</svg>
