<svg width="20" height="20" viewBox="0 0 20 20" fill="none" xmlns="http://www.w3.org/2000/svg">
<path d="M5.86046 10.4372H2.90334C2.65864 10.4372 2.45977 10.241 2.45977 9.99954C2.45977 9.75811 2.65864 9.56191 2.90334 9.56191H5.62315L6.67441 8.00613C6.81044 7.80482 7.08545 7.75084 7.28949 7.88505C7.33828 7.91714 7.37968 7.95872 7.41221 8.00613L9.409 10.9609L10.223 9.75666C10.305 9.63485 10.444 9.56191 10.5919 9.56191H12.3661C12.6108 9.56191 12.8097 9.75811 12.8097 9.99954C12.8097 10.241 12.6108 10.4372 12.3661 10.4372H10.8292L9.7779 11.993C9.64188 12.1943 9.36686 12.2482 9.16282 12.114C9.11403 12.0819 9.07263 12.0404 9.0401 11.993L7.04331 9.03821L6.22936 10.2424C6.1473 10.3642 6.00832 10.4372 5.86046 10.4372ZM13.549 3.14258C12.1273 3.1404 10.7974 3.83477 10.0004 4.99522C8.66898 3.06308 6.00166 2.56126 4.04183 3.87489C2.86786 4.66262 2.16406 5.9726 2.16406 7.37375C2.16406 7.47805 2.16702 7.58454 2.17293 7.6903C2.18624 7.93173 2.39546 8.11627 2.64016 8.10314C2.88486 8.09001 3.0719 7.88359 3.05859 7.64217C3.05859 7.64217 3.05859 7.64144 3.05859 7.64071C3.05342 7.55245 3.0512 7.46274 3.0512 7.37448C3.0512 5.52111 4.57485 4.01931 6.45336 4.01931C7.82547 4.01931 9.06302 4.83257 9.59161 6.08201C9.68623 6.3052 9.94572 6.41023 10.1719 6.31687C10.2799 6.27238 10.3649 6.18777 10.41 6.08201C11.1337 4.3716 13.1261 3.56417 14.8597 4.27897C16.1254 4.80048 16.9497 6.02147 16.9504 7.37521C16.9504 11.5568 11.1988 15.1986 10.0012 15.9119C9.28924 15.4889 6.97012 14.0345 5.20916 12.0469C5.04799 11.8653 4.76781 11.8463 4.58299 12.0054C4.39817 12.1644 4.37968 12.4408 4.54085 12.6231C6.73946 15.1045 9.6611 16.7332 9.78456 16.8011C9.91911 16.8755 10.0832 16.8755 10.2178 16.8011C11.5655 16.0221 12.8311 15.1111 13.994 14.0826C16.5445 11.8179 17.8375 9.56118 17.8375 7.37521C17.8338 5.03826 15.9161 3.1455 13.549 3.14258Z" fill="#EE1171"/>
</svg>
