<svg width="21" height="20" viewBox="0 0 21 20" fill="none" xmlns="http://www.w3.org/2000/svg">
<g id="icon-smoking" clip-path="url(#clip0_3156_19114)">
<path id="Vector" d="M0.375 14H15.375V17H0.375V14ZM18.875 14H20.375V17H18.875V14ZM16.375 14H17.875V17H16.375V14ZM17.225 5.73C17.845 5.12 18.225 4.28 18.225 3.35C18.225 1.5 16.725 0 14.875 0V1.5C15.875 1.5 16.725 2.33 16.725 3.35C16.725 4.37 15.875 5.2 14.875 5.2V6.7C17.115 6.7 18.875 8.53 18.875 10.77V13H20.375V10.76C20.375 8.54 19.095 6.62 17.225 5.73ZM14.405 8.2H12.875C11.875 8.2 11.025 7.22 11.025 6.2C11.025 5.18 11.875 4.45 12.875 4.45V2.95C11.9865 2.95 11.1344 3.30295 10.5062 3.93119C9.87794 4.55944 9.525 5.41153 9.525 6.3C9.525 7.18848 9.87794 8.04056 10.5062 8.66881C11.1344 9.29706 11.9865 9.65 12.875 9.65H14.405C15.455 9.65 16.375 10.39 16.375 11.7V13H17.875V11.36C17.875 9.55 16.275 8.2 14.405 8.2Z" fill="#4B4D4F"/>
</g>
<defs>
<clipPath id="clip0_3156_19114">
<rect width="20" height="20" fill="white" transform="translate(0.5)"/>
</clipPath>
</defs>
</svg>
