<svg width="21" height="20" viewBox="0 0 21 20" fill="none" xmlns="http://www.w3.org/2000/svg">
<g id="icon-nonsmoking" clip-path="url(#clip0_2876_8117)">
<path id="Union" fill-rule="evenodd" clip-rule="evenodd" d="M13.7974 14H0.375V17H15.375V15.5776L16.375 16.5776V17H16.7974L18.8984 19.101L20.1005 17.899L19.2016 17H20.375V14H18.875V16.6734L17.875 15.6734V14H16.375V14.1734L11.5991 9.3975C12 9.56265 12.433 9.65 12.875 9.65H14.405C15.455 9.65 16.375 10.39 16.375 11.7V13H17.875V11.36C17.875 9.55 16.275 8.2 14.405 8.2H12.875C11.875 8.2 11.025 7.22 11.025 6.2C11.025 5.18 11.875 4.45 12.875 4.45V2.95C11.9865 2.95 11.1344 3.30295 10.5062 3.93119C9.87794 4.55944 9.525 5.41153 9.525 6.3C9.525 6.74202 9.61235 7.17502 9.7775 7.57594L2.60052 0.398956L1.39844 1.60104L13.7974 14ZM18.225 3.35C18.225 4.28 17.845 5.12 17.225 5.73C19.095 6.62 20.375 8.54 20.375 10.76V13H18.875V10.77C18.875 8.53 17.115 6.7 14.875 6.7V5.2C15.875 5.2 16.725 4.37 16.725 3.35C16.725 2.33 15.875 1.5 14.875 1.5V0C16.725 0 18.225 1.5 18.225 3.35Z" fill="#EE1171"/>
</g>
<defs>
<clipPath id="clip0_2876_8117">
<rect width="20" height="20" fill="white" transform="translate(0.5)"/>
</clipPath>
</defs>
</svg>
