<svg width="21" height="21" viewBox="0 0 21 21" fill="none" xmlns="http://www.w3.org/2000/svg">
<path d="M4.64062 19.875C2.699 19.875 1.125 18.301 1.125 16.3594V4.6406C1.125 2.69899 2.699 1.125 4.64062 1.125H16.3594C18.301 1.125 19.875 2.69899 19.875 4.6406L19.875 16.3594C19.875 18.301 18.301 19.875 16.3594 19.875H4.64062Z" fill="#28292A"/>
<path d="M13.8146 7.1854L10.5 10.4999M10.5 10.4999L7.18544 13.8145M10.5 10.4999L13.8146 13.8145M10.5 10.4999L7.18544 7.1854M19.875 4.6406L19.875 16.3594C19.875 18.301 18.301 19.875 16.3594 19.875H4.64062C2.699 19.875 1.125 18.301 1.125 16.3594V4.6406C1.125 2.69899 2.699 1.125 4.64062 1.125H16.3594C18.301 1.125 19.875 2.69899 19.875 4.6406Z" stroke="#979A9F" stroke-linecap="round"/>
</svg>
