<svg width="22" height="22" viewBox="0 0 22 22" fill="none" xmlns="http://www.w3.org/2000/svg">
<path d="M12.0286 7.91428H9.9715V5.85714H12.0286M12.0286 16.1428H9.9715V9.97142H12.0286M11.0001 0.714279C9.64933 0.714279 8.31182 0.980327 7.0639 1.49723C5.81598 2.01414 4.68209 2.77178 3.72697 3.72689C1.79803 5.65584 0.714355 8.27205 0.714355 11C0.714355 13.7279 1.79803 16.3441 3.72697 18.2731C4.68209 19.2282 5.81598 19.9858 7.0639 20.5028C8.31182 21.0197 9.64933 21.2857 11.0001 21.2857C13.728 21.2857 16.3442 20.202 18.2732 18.2731C20.2021 16.3441 21.2858 13.7279 21.2858 11C21.2858 9.64925 21.0197 8.31174 20.5028 7.06382C19.9859 5.8159 19.2283 4.68201 18.2732 3.72689C17.3181 2.77178 16.1842 2.01414 14.9362 1.49723C13.6883 0.980327 12.3508 0.714279 11.0001 0.714279Z" fill="#7C7F83"/>
</svg>
