<svg width="21" height="20" viewBox="0 0 21 20" fill="none" xmlns="http://www.w3.org/2000/svg">
<path id="Vector" d="M10.5007 0C7.78487 0 7.44403 0.0118752 6.37735 0.0604169C5.31276 0.109167 4.58608 0.277708 3.95024 0.525C3.29253 0.780417 2.73461 1.12208 2.17877 1.67813C1.62251 2.23396 1.28084 2.79187 1.02459 3.44937C0.776669 4.08542 0.607918 4.81229 0.560001 5.87646C0.5125 6.94312 0.5 7.28417 0.5 10C0.5 12.7158 0.512084 13.0556 0.560417 14.1223C0.609376 15.1869 0.77792 15.9135 1.02501 16.5494C1.28063 17.2071 1.6223 17.765 2.17835 18.3208C2.73398 18.8771 3.2919 19.2196 3.9492 19.475C4.58546 19.7223 5.31234 19.8908 6.37673 19.9396C7.44341 19.9881 7.78403 20 10.4997 20C13.2158 20 13.5556 19.9881 14.6222 19.9396C15.6868 19.8908 16.4143 19.7223 17.0506 19.475C17.7081 19.2196 18.2652 18.8771 18.8208 18.3208C19.3771 17.765 19.7187 17.2071 19.975 16.5496C20.2208 15.9135 20.3896 15.1867 20.4396 14.1225C20.4875 13.0558 20.5 12.7158 20.5 10C20.5 7.28417 20.4875 6.94333 20.4396 5.87667C20.3896 4.81208 20.2208 4.08542 19.975 3.44958C19.7187 2.79187 19.3771 2.23396 18.8208 1.67813C18.2646 1.12188 17.7083 0.780208 17.05 0.525C16.4125 0.277708 15.6854 0.109167 14.6208 0.0604169C13.5541 0.0118752 13.2145 0 10.4978 0H10.5007ZM9.60364 1.80208C9.86989 1.80167 10.167 1.80208 10.5007 1.80208C13.1708 1.80208 13.4872 1.81167 14.5416 1.85958C15.5166 1.90417 16.0458 2.06708 16.3983 2.20396C16.865 2.38521 17.1977 2.60188 17.5475 2.95187C17.8975 3.30187 18.1141 3.63521 18.2958 4.10187C18.4327 4.45396 18.5958 4.98312 18.6402 5.95812C18.6881 7.01229 18.6985 7.32896 18.6985 9.99771C18.6985 12.6665 18.6881 12.9831 18.6402 14.0373C18.5956 15.0123 18.4327 15.5415 18.2958 15.8935C18.1146 16.3602 17.8975 16.6925 17.5475 17.0423C17.1975 17.3923 16.8652 17.609 16.3983 17.7902C16.0462 17.9277 15.5166 18.0902 14.5416 18.1348C13.4874 18.1827 13.1708 18.1931 10.5007 18.1931C7.83049 18.1931 7.51403 18.1827 6.45985 18.1348C5.48484 18.0898 4.95567 17.9269 4.60296 17.79C4.13629 17.6087 3.80295 17.3921 3.45295 17.0421C3.10294 16.6921 2.88628 16.3596 2.70461 15.8927C2.56773 15.5406 2.4046 15.0115 2.36023 14.0365C2.31231 12.9823 2.30273 12.6656 2.30273 9.99521C2.30273 7.32479 2.31231 7.00979 2.36023 5.95563C2.40481 4.98063 2.56773 4.45146 2.70461 4.09896C2.88586 3.63229 3.10294 3.29896 3.45295 2.94896C3.80295 2.59896 4.13629 2.38229 4.60296 2.20062C4.95546 2.06312 5.48484 1.90063 6.45985 1.85583C7.38236 1.81417 7.73987 1.80167 9.60364 1.79958V1.80208ZM15.8387 3.4625C15.6013 3.4625 15.3693 3.53289 15.172 3.66477C14.9746 3.79664 14.8208 3.98408 14.73 4.20338C14.6392 4.42267 14.6154 4.66397 14.6618 4.89676C14.7081 5.12955 14.8224 5.34337 14.9903 5.51118C15.1582 5.67898 15.372 5.79324 15.6048 5.83949C15.8377 5.88575 16.0789 5.86192 16.2982 5.77104C16.5175 5.68015 16.7049 5.52627 16.8367 5.32888C16.9685 5.13149 17.0388 4.89944 17.0387 4.66208C17.0387 3.99958 16.5012 3.46208 15.8387 3.46208V3.4625ZM10.5007 4.86458C7.66466 4.86458 5.36526 7.16396 5.36526 10C5.36526 12.836 7.66466 15.1344 10.5007 15.1344C13.3368 15.1344 15.6356 12.836 15.6356 10C15.6356 7.16396 13.3366 4.86458 10.5005 4.86458H10.5007ZM10.5007 6.66667C12.3416 6.66667 13.8341 8.15896 13.8341 10C13.8341 11.8408 12.3416 13.3333 10.5007 13.3333C8.65967 13.3333 7.16736 11.8408 7.16736 10C7.16736 8.15896 8.65967 6.66667 10.5007 6.66667Z" fill="#EE1171"/>
</svg>
