<svg width="24" height="24" viewBox="0 0 24 24" fill="none" xmlns="http://www.w3.org/2000/svg">
<path d="M11.8139 0C8.60564 0 8.20301 0.0140322 6.94294 0.0713909C5.68533 0.128996 4.82691 0.328151 4.07579 0.62036C3.29883 0.92217 2.63975 1.3259 1.98313 1.98294C1.32603 2.63973 0.922411 3.29899 0.619699 4.07591C0.326831 4.82748 0.127484 5.68639 0.070879 6.94385C0.0147665 8.20426 0 8.60725 0 11.8164C0 15.0255 0.0142745 15.427 0.0713714 16.6874C0.129207 17.9454 0.328308 18.804 0.620191 19.5554C0.922165 20.3325 1.32578 20.9918 1.98264 21.6486C2.63901 22.3059 3.29809 22.7106 4.07456 23.0124C4.82617 23.3046 5.68484 23.5038 6.9422 23.5614C8.20227 23.6187 8.60466 23.6328 11.8127 23.6328C15.0212 23.6328 15.4226 23.6187 16.6826 23.5614C17.9403 23.5038 18.7997 23.3046 19.5513 23.0124C20.328 22.7106 20.9861 22.3059 21.6425 21.6486C22.2996 20.9918 22.7032 20.3325 23.0059 19.5556C23.2963 18.8041 23.4956 17.9451 23.5547 16.6877C23.6113 15.4273 23.6261 15.0255 23.6261 11.8164C23.6261 8.60725 23.6113 8.20451 23.5547 6.94409C23.4956 5.68614 23.2963 4.82748 23.0059 4.07616C22.7032 3.29899 22.2996 2.63973 21.6425 1.98294C20.9853 1.32565 20.3282 0.921924 19.5505 0.62036C18.7974 0.328151 17.9385 0.128996 16.6809 0.0713909C15.4209 0.0140322 15.0197 0 11.8105 0H11.8139ZM10.7542 2.12941C11.0687 2.12892 11.4196 2.12941 11.8139 2.12941C14.968 2.12941 15.3419 2.14073 16.5874 2.19735C17.7392 2.25004 18.3643 2.44254 18.7807 2.60428C19.332 2.81845 19.725 3.07448 20.1382 3.48805C20.5517 3.90162 20.8077 4.2955 21.0223 4.84693C21.184 5.26297 21.3767 5.88825 21.4291 7.04035C21.4857 8.28599 21.498 8.66018 21.498 11.8137C21.498 14.9672 21.4857 15.3414 21.4291 16.587C21.3764 17.7391 21.184 18.3644 21.0223 18.7804C20.8081 19.3318 20.5517 19.7245 20.1382 20.1378C19.7248 20.5514 19.3322 20.8074 18.7807 21.0216C18.3648 21.1841 17.7392 21.3761 16.5874 21.4288C15.3421 21.4854 14.968 21.4977 11.8139 21.4977C8.65954 21.4977 8.2857 21.4854 7.0404 21.4288C5.88861 21.3756 5.2635 21.1831 4.84684 21.0213C4.29556 20.8072 3.90179 20.5512 3.48833 20.1376C3.07487 19.724 2.81892 19.3311 2.60431 18.7794C2.44262 18.3634 2.24992 17.7381 2.19749 16.586C2.14089 15.3404 2.12957 14.9662 2.12957 11.8107C2.12957 8.65525 2.14089 8.28304 2.19749 7.0374C2.25016 5.8853 2.44262 5.26001 2.60431 4.84349C2.81842 4.29205 3.07487 3.89818 3.48833 3.4846C3.90179 3.07103 4.29556 2.81501 4.84684 2.60034C5.26326 2.43787 5.88861 2.24585 7.0404 2.19292C8.13016 2.14369 8.55248 2.12892 10.7542 2.12646V2.12941ZM18.1197 4.09142C17.8393 4.09142 17.5652 4.1746 17.3321 4.33043C17.0989 4.48626 16.9172 4.70774 16.8099 4.96687C16.7027 5.226 16.6746 5.51113 16.7294 5.7862C16.7841 6.06127 16.9192 6.31393 17.1175 6.51222C17.3158 6.7105 17.5684 6.84551 17.8434 6.90017C18.1184 6.95483 18.4035 6.92667 18.6625 6.81928C18.9215 6.71188 19.1429 6.53006 19.2986 6.29681C19.4543 6.06356 19.5373 5.78936 19.5372 5.5089C19.5372 4.72606 18.9023 4.09093 18.1197 4.09093V4.09142ZM11.8139 5.74818C8.46364 5.74818 5.74735 8.46521 5.74735 11.8164C5.74735 15.1676 8.46364 17.8834 11.8139 17.8834C15.1642 17.8834 17.8797 15.1676 17.8797 11.8164C17.8797 8.46521 15.1639 5.74818 11.8137 5.74818H11.8139ZM11.8139 7.87759C13.9885 7.87759 15.7516 9.64094 15.7516 11.8164C15.7516 13.9916 13.9885 15.7552 11.8139 15.7552C9.63905 15.7552 7.87618 13.9916 7.87618 11.8164C7.87618 9.64094 9.63905 7.87759 11.8139 7.87759Z" fill="#C3C5C9"/>
</svg>
