<svg width="43" height="42" viewBox="0 0 43 42" fill="none" xmlns="http://www.w3.org/2000/svg">
<circle cx="21.5" cy="21" r="21" fill="#FFE812"/>
<circle cx="21.5" cy="21" r="21" fill="url(#paint0_linear_7254_22762)"/>
<circle cx="21.5" cy="21" r="21" fill="url(#paint1_radial_7254_22762)"/>
<path fill-rule="evenodd" clip-rule="evenodd" d="M15.3378 21C15.3378 17.5967 18.0967 14.8378 21.5 14.8378C24.9033 14.8378 27.6622 17.5967 27.6622 21C27.6622 24.4033 24.9033 27.1622 21.5 27.1622C18.0967 27.1622 15.3378 24.4033 15.3378 21ZM21.5 25C19.2908 25 17.5 23.2092 17.5 21C17.5 18.7909 19.2908 17 21.5 17C23.7091 17 25.5 18.7909 25.5 21C25.5 23.2092 23.7091 25 21.5 25Z" fill="white"/>
<path d="M27.9056 16.0344C28.7009 16.0344 29.3456 15.3897 29.3456 14.5944C29.3456 13.7991 28.7009 13.1544 27.9056 13.1544C27.1104 13.1544 26.4656 13.7991 26.4656 14.5944C26.4656 15.3897 27.1104 16.0344 27.9056 16.0344Z" fill="white"/>
<path fill-rule="evenodd" clip-rule="evenodd" d="M21.5 9C18.241 9 17.8323 9.01381 16.5524 9.07221C15.2752 9.13047 14.4028 9.33334 13.6395 9.63001C12.8504 9.93663 12.1812 10.3469 11.5141 11.0141C10.8469 11.6812 10.4366 12.3504 10.13 13.1395C9.83334 13.9028 9.63047 14.7752 9.57221 16.0524C9.51381 17.3323 9.5 17.741 9.5 21C9.5 24.259 9.51381 24.6677 9.57221 25.9476C9.63047 27.2248 9.83334 28.0972 10.13 28.8605C10.4366 29.6496 10.8469 30.3188 11.5141 30.9859C12.1812 31.6531 12.8504 32.0634 13.6395 32.37C14.4028 32.6667 15.2752 32.8695 16.5524 32.9278C17.8323 32.9862 18.241 33 21.5 33C24.759 33 25.1677 32.9862 26.4476 32.9278C27.7248 32.8695 28.5972 32.6667 29.3605 32.37C30.1496 32.0634 30.8188 31.6531 31.4859 30.9859C32.1531 30.3188 32.5634 29.6496 32.87 28.8605C33.1667 28.0972 33.3695 27.2248 33.4278 25.9476C33.4862 24.6677 33.5 24.259 33.5 21C33.5 17.741 33.4862 17.3323 33.4278 16.0524C33.3695 14.7752 33.1667 13.9028 32.87 13.1395C32.5634 12.3504 32.1531 11.6812 31.4859 11.0141C30.8188 10.3469 30.1496 9.93663 29.3605 9.63001C28.5972 9.33334 27.7248 9.13047 26.4476 9.07221C25.1677 9.01381 24.759 9 21.5 9ZM21.5 11.1622C24.7041 11.1622 25.0837 11.1744 26.349 11.2321C27.519 11.2855 28.1544 11.481 28.5773 11.6453C29.1374 11.863 29.5371 12.123 29.957 12.543C30.377 12.9629 30.637 13.3626 30.8547 13.9227C31.019 14.3456 31.2145 14.981 31.2679 16.151C31.3256 17.4163 31.3378 17.7959 31.3378 21C31.3378 24.2041 31.3256 24.5837 31.2679 25.849C31.2145 27.019 31.019 27.6544 30.8547 28.0773C30.637 28.6374 30.377 29.0371 29.957 29.457C29.5371 29.877 29.1374 30.137 28.5773 30.3547C28.1544 30.519 27.519 30.7145 26.349 30.7679C25.0839 30.8256 24.7044 30.8378 21.5 30.8378C18.2956 30.8378 17.9162 30.8256 16.651 30.7679C15.481 30.7145 14.8456 30.519 14.4227 30.3547C13.8626 30.137 13.4629 29.877 13.043 29.457C12.6231 29.0371 12.363 28.6374 12.1453 28.0773C11.981 27.6544 11.7855 27.019 11.7321 25.849C11.6744 24.5837 11.6622 24.2041 11.6622 21C11.6622 17.7959 11.6744 17.4163 11.7321 16.151C11.7855 14.981 11.981 14.3456 12.1453 13.9227C12.363 13.3626 12.623 12.9629 13.043 12.543C13.4629 12.123 13.8626 11.863 14.4227 11.6453C14.8456 11.481 15.481 11.2855 16.651 11.2321C17.9163 11.1744 18.2959 11.1622 21.5 11.1622Z" fill="white"/>
<defs>
<linearGradient id="paint0_linear_7254_22762" x1="2.95057" y1="2.20806" x2="16.1928" y2="53.4307" gradientUnits="userSpaceOnUse">
<stop stop-color="#4E60D3"/>
<stop offset="0.142763" stop-color="#913BAF"/>
<stop offset="0.761458" stop-color="#D52D88"/>
<stop offset="1" stop-color="#F26D4F"/>
</linearGradient>
<radialGradient id="paint1_radial_7254_22762" cx="0" cy="0" r="1" gradientUnits="userSpaceOnUse" gradientTransform="translate(13.2152 42) rotate(32.1601) scale(39.2257 28.2295)">
<stop stop-color="#FED276"/>
<stop offset="0.17024" stop-color="#FDBD61" stop-opacity="0.975006"/>
<stop offset="0.454081" stop-color="#F6804D"/>
<stop offset="1" stop-color="#E83D5C" stop-opacity="0.01"/>
</radialGradient>
</defs>
</svg>
