<svg width="20" height="20" viewBox="0 0 20 20" fill="none" xmlns="http://www.w3.org/2000/svg">
<mask id="mask0_7103_35165" style="mask-type:alpha" maskUnits="userSpaceOnUse" x="0" y="0" width="20" height="20">
<rect width="20" height="20" fill="#D9D9D9"/>
</mask>
<g mask="url(#mask0_7103_35165)">
<path d="M9.99576 12.5021C9.90645 12.5021 9.8234 12.486 9.74659 12.454C9.66978 12.4219 9.5993 12.3738 9.53513 12.3098L5.67201 8.44646C5.55201 8.32646 5.49409 8.19646 5.49826 8.05646C5.50256 7.9166 5.56506 7.78625 5.68576 7.66542C5.80659 7.54472 5.93562 7.48438 6.07284 7.48438C6.21006 7.48438 6.33909 7.54472 6.45992 7.66542L9.99992 11.2265L13.5608 7.66542C13.6762 7.55014 13.8039 7.49458 13.9439 7.49875C14.0837 7.50306 14.2141 7.56556 14.3349 7.68625C14.4556 7.80708 14.516 7.93611 14.516 8.07333C14.516 8.21056 14.4533 8.34153 14.3278 8.46625L10.4647 12.3098C10.395 12.3738 10.3217 12.4219 10.2449 12.454C10.1681 12.486 10.0851 12.5021 9.99576 12.5021Z" fill="#7C7F83"/>
</g>
</svg>
