<svg width="20" height="21" viewBox="0 0 20 21" fill="none" xmlns="http://www.w3.org/2000/svg">
<mask id="mask0_10314_7218" style="mask-type:alpha" maskUnits="userSpaceOnUse" x="0" y="0" width="20" height="21">
<rect y="0.5" width="20" height="20" fill="#D9D9D9"/>
</mask>
<g mask="url(#mask0_10314_7218)">
<path d="M9.99576 13.0021C9.90645 13.0021 9.8234 12.986 9.74659 12.954C9.66978 12.9219 9.5993 12.8738 9.53513 12.8098L5.67201 8.94646C5.55201 8.82646 5.49409 8.69646 5.49826 8.55646C5.50256 8.4166 5.56506 8.28625 5.68576 8.16542C5.80659 8.04472 5.93562 7.98438 6.07284 7.98438C6.21006 7.98438 6.33909 8.04472 6.45992 8.16542L9.99992 11.7265L13.5608 8.16542C13.6762 8.05014 13.8039 7.99458 13.9439 7.99875C14.0837 8.00306 14.2141 8.06556 14.3349 8.18625C14.4556 8.30708 14.516 8.43611 14.516 8.57333C14.516 8.71056 14.4533 8.84153 14.3278 8.96625L10.4647 12.8098C10.395 12.8738 10.3217 12.9219 10.2449 12.954C10.1681 12.986 10.0851 13.0021 9.99576 13.0021Z" fill="#7C7F83"/>
</g>
</svg>
