<svg width="81" height="78" viewBox="0 0 81 78" fill="none" xmlns="http://www.w3.org/2000/svg">
<g filter="url(#filter0_d_6878_31037)">
<path d="M26.0537 17C30.0124 17 33.4102 22.4872 34.8799 30.3223C35.6248 23.6459 37.2041 19.041 39.0303 19.041C40.9632 19.0415 42.6166 24.2014 43.2998 31.5156C43.9116 26.1306 45.1622 22.4398 46.6064 22.4395C48.6537 22.4395 50.3135 29.8547 50.3135 39.001C50.3135 48.1472 48.6537 55.5615 46.6064 55.5615C45.162 55.5612 43.9115 51.8698 43.2998 46.4834C42.6166 53.7972 40.9631 58.9566 39.0303 58.957C37.2042 58.957 35.6259 54.3526 34.8809 47.6768C33.4113 55.5124 30.0126 61 26.0537 61C20.7498 60.9997 16.4502 51.1501 16.4502 39C16.4502 26.8499 20.7498 17.0003 26.0537 17ZM55.0293 26.5918C56.5181 26.5929 57.7246 32.1482 57.7246 39C57.7246 45.8516 56.5181 51.4061 55.0293 51.4072C53.5403 51.4072 52.3331 45.8523 52.333 39C52.333 32.1475 53.5403 26.5918 55.0293 26.5918ZM62.415 32.7959C63.5174 32.7965 64.4111 35.5741 64.4111 39C64.4111 42.4259 63.5174 45.2035 62.415 45.2041C61.3125 45.2041 60.418 42.4262 60.418 39C60.418 35.5737 61.3125 32.7959 62.415 32.7959Z" fill="white"/>
</g>
<defs>
<filter id="filter0_d_6878_31037" x="0.1539" y="0.703705" width="80.5535" height="76.5926" filterUnits="userSpaceOnUse" color-interpolation-filters="sRGB">
<feFlood flood-opacity="0" result="BackgroundImageFix"/>
<feColorMatrix in="SourceAlpha" type="matrix" values="0 0 0 0 0 0 0 0 0 0 0 0 0 0 0 0 0 0 127 0" result="hardAlpha"/>
<feOffset/>
<feGaussianBlur stdDeviation="8.14815"/>
<feComposite in2="hardAlpha" operator="out"/>
<feColorMatrix type="matrix" values="0 0 0 0 0.933673 0 0 0 0 0.0663265 0 0 0 0 0.44898 0 0 0 1 0"/>
<feBlend mode="normal" in2="BackgroundImageFix" result="effect1_dropShadow_6878_31037"/>
<feBlend mode="normal" in="SourceGraphic" in2="effect1_dropShadow_6878_31037" result="shape"/>
</filter>
</defs>
</svg>
