<svg width="20" height="21" viewBox="0 0 20 21" fill="none" xmlns="http://www.w3.org/2000/svg">
<mask id="mask0_11154_9885" style="mask-type:alpha" maskUnits="userSpaceOnUse" x="0" y="0" width="20" height="21">
<rect y="0.5" width="20" height="20" fill="#D9D9D9"/>
</mask>
<g mask="url(#mask0_11154_9885)">
<path d="M10.0071 10.3737C10.4216 10.3737 10.7743 10.2261 11.0651 9.93092C11.356 9.63576 11.5015 9.28092 11.5015 8.86641C11.5015 8.4519 11.3539 8.09916 11.0585 7.8082C10.7634 7.51739 10.4085 7.37198 9.99403 7.37198C9.57952 7.37198 9.22686 7.51957 8.93605 7.81473C8.64508 8.11005 8.4996 8.46497 8.4996 8.87948C8.4996 9.29399 8.64726 9.64665 8.94258 9.93746C9.23775 10.2283 9.59259 10.3737 10.0071 10.3737ZM10.0006 17.3972C11.7803 15.84 13.1662 14.3223 14.1585 12.8442C15.1507 11.366 15.6468 10.0626 15.6468 8.93386C15.6468 7.29418 15.1139 5.93007 14.0481 4.84152C12.9823 3.75297 11.6331 3.20869 10.0006 3.20869C8.36804 3.20869 7.01887 3.75297 5.95303 4.84152C4.88719 5.93007 4.35428 7.29418 4.35428 8.93386C4.35428 10.0626 4.8504 11.366 5.84264 12.8442C6.83487 14.3223 8.22085 15.84 10.0006 17.3972ZM10.0006 19.0039C7.71376 17.0597 5.9987 15.2502 4.85538 13.5754C3.71221 11.9005 3.14062 10.3534 3.14062 8.93386C3.14062 7.02843 3.77911 5.39708 5.05609 4.03981C6.33323 2.68254 7.9775 2.00391 9.98889 2.00391C12.0003 2.00391 13.6484 2.68254 14.9334 4.03981C16.2181 5.39708 16.8605 7.02843 16.8605 8.93386C16.8605 10.3534 16.2929 11.8971 15.1576 13.5651C14.0224 15.2329 12.3034 17.0459 10.0006 19.0039Z" fill="#7C7F83"/>
</g>
</svg>
