<svg width="16" height="16" viewBox="0 0 16 16" fill="none" xmlns="http://www.w3.org/2000/svg">
<mask id="mask0_9984_10820" style="mask-type:alpha" maskUnits="userSpaceOnUse" x="0" y="0" width="16" height="16">
<rect width="16" height="16" fill="#D9D9D9"/>
</mask>
<g mask="url(#mask0_9984_10820)">
<path d="M7.99859 1.5C6.68842 1.5 5.43192 2.02046 4.50549 2.94689C3.57906 3.87332 3.05859 5.12983 3.05859 6.44V6.8C3.25859 9.50667 5.50526 11.6833 7.99859 14.5C10.6019 11.56 12.9386 9.33333 12.9386 6.44C12.9386 5.12983 12.4181 3.87332 11.4917 2.94689C10.5653 2.02046 9.30876 1.5 7.99859 1.5ZM7.99859 4.06667C8.4688 4.06667 8.92843 4.20614 9.31934 4.46744C9.71026 4.72874 10.0149 5.10012 10.1947 5.53459C10.3745 5.96907 10.4213 6.44711 10.3293 6.90823C10.2374 7.36934 10.0107 7.79282 9.67797 8.12507C9.34525 8.45732 8.92146 8.68341 8.46021 8.77474C7.99896 8.86607 7.52099 8.81852 7.08677 8.63813C6.65255 8.45773 6.2816 8.15259 6.02085 7.76131C5.7601 7.37003 5.62127 6.9102 5.62193 6.44C5.62281 5.81025 5.8736 5.20659 6.31921 4.7616C6.76483 4.31661 7.36884 4.06667 7.99859 4.06667Z" stroke="#979A9F" stroke-linecap="round"/>
</g>
</svg>
