<svg width="20" height="21" viewBox="0 0 20 21" fill="none" xmlns="http://www.w3.org/2000/svg">
<mask id="mask0_7216_14294" style="mask-type:alpha" maskUnits="userSpaceOnUse" x="0" y="0" width="20" height="21">
<rect y="0.5" width="20" height="20" fill="#D9D9D9"/>
</mask>
<g mask="url(#mask0_7216_14294)">
<path d="M9.99922 2.375C8.36151 2.375 6.79087 3.02558 5.63283 4.18362C4.4748 5.34165 3.82422 6.91229 3.82422 8.55V9C4.07422 12.3833 6.88255 15.1042 9.99922 18.625C13.2534 14.95 16.1742 12.1667 16.1742 8.55C16.1742 6.91229 15.5236 5.34165 14.3656 4.18362C13.2076 3.02558 11.6369 2.375 9.99922 2.375ZM9.99922 5.58333C10.587 5.58333 11.1615 5.75768 11.6502 6.0843C12.1388 6.41092 12.5196 6.87515 12.7443 7.41824C12.969 7.96133 13.0276 8.55888 12.9127 9.13528C12.7977 9.71168 12.5143 10.241 12.0984 10.6563C11.6825 11.0716 11.1528 11.3543 10.5762 11.4684C9.99968 11.5826 9.40222 11.5232 8.85944 11.2977C8.31666 11.0722 7.85297 10.6907 7.52703 10.2016C7.2011 9.71254 7.02756 9.13775 7.02839 8.55C7.02949 7.76281 7.34297 7.00824 7.89999 6.452C8.45701 5.89576 9.21203 5.58333 9.99922 5.58333Z" stroke="#979A9F" stroke-linecap="round"/>
</g>
</svg>
