<svg width="409" height="386" viewBox="0 0 409 386" fill="none" xmlns="http://www.w3.org/2000/svg">
<path fill-rule="evenodd" clip-rule="evenodd" d="M82.5045 385.274C116.159 385.274 145.057 337.331 157.55 268.87C163.884 327.195 177.297 367.424 192.82 367.424C209.242 367.424 223.303 322.398 229.118 258.554C234.323 305.556 244.955 337.757 257.226 337.757C274.63 337.757 288.739 272.973 288.739 193.058C288.739 113.143 274.63 48.3585 257.226 48.3585C244.957 48.3585 234.325 80.5531 229.12 127.548C223.305 63.6941 209.244 18.6605 192.82 18.6605C177.296 18.6605 163.882 58.8941 157.549 117.225C145.055 48.7679 116.158 0.827637 82.5045 0.827637C37.4146 0.827637 0.862061 86.8888 0.862061 193.051C0.862061 299.213 37.4146 385.274 82.5045 385.274ZM328.822 301.465C341.48 301.465 351.742 252.928 351.742 193.055C351.742 133.182 341.48 84.645 328.822 84.645C316.164 84.645 305.902 133.182 305.902 193.055C305.902 252.928 316.164 301.465 328.822 301.465ZM408.586 193.043C408.586 222.98 400.988 247.248 391.616 247.248C382.243 247.248 374.645 222.98 374.645 193.043C374.645 163.106 382.243 138.838 391.616 138.838C400.988 138.838 408.586 163.106 408.586 193.043Z" fill="#EE1171"/>
</svg>
