<svg width="33" height="32" viewBox="0 0 33 32" fill="none" xmlns="http://www.w3.org/2000/svg">
<mask id="mask0_7117_22921" style="mask-type:alpha" maskUnits="userSpaceOnUse" x="0" y="0" width="33" height="32">
<rect x="0.5" width="32" height="32" fill="#D9D9D9"/>
</mask>
<g mask="url(#mask0_7117_22921)">
<path d="M20.2634 27.1519L12.0714 24.2668L6.43319 26.4701C6.25182 26.5468 6.07693 26.5705 5.9085 26.5413C5.73983 26.5123 5.58794 26.451 5.45281 26.3573C5.30547 26.2758 5.1931 26.1631 5.11572 26.0191C5.03857 25.8754 5 25.7019 5 25.4988V7.96053C5 7.69004 5.06217 7.45082 5.18652 7.24286C5.31086 7.03514 5.49007 6.88971 5.72414 6.80658L11.3728 4.8505C11.4751 4.8148 11.5845 4.78593 11.7009 4.76389C11.8173 4.74161 11.9408 4.73047 12.0714 4.73047C12.202 4.73047 12.3255 4.74161 12.4419 4.76389C12.5584 4.78593 12.6676 4.8148 12.7697 4.8505L20.9527 7.71148L26.5668 5.50816C26.7482 5.44371 26.9231 5.42514 27.0915 5.45245C27.2602 5.48 27.4121 5.53439 27.5472 5.61561C27.6945 5.70929 27.8069 5.82896 27.8843 5.97462C27.9614 6.12053 28 6.29495 28 6.49787V24.2355C28 24.4881 27.9239 24.7088 27.7718 24.8979C27.6199 25.0871 27.4257 25.2214 27.1892 25.3007L21.6233 27.1795C21.514 27.2152 21.402 27.2396 21.2872 27.2525C21.1725 27.2654 21.0602 27.2719 20.9505 27.2719C20.8408 27.2719 20.7261 27.2608 20.6066 27.2385C20.487 27.2164 20.3726 27.1876 20.2634 27.1519ZM20.2853 25.8941V8.66814L12.7147 6.04758V23.2735L20.2853 25.8941Z" fill="#480522"/>
</g>
</svg>
