<svg width="23" height="24" viewBox="0 0 23 24" fill="none" xmlns="http://www.w3.org/2000/svg">
<path d="M15.2634 23.1519L7.07142 20.2668L1.43319 22.4701C1.25182 22.5468 1.07693 22.5705 0.9085 22.5413C0.739833 22.5123 0.587938 22.451 0.452813 22.3573C0.305469 22.2758 0.193104 22.1631 0.115719 22.0191C0.038573 21.8754 0 21.7019 0 21.4988V3.96053C0 3.69004 0.062172 3.45082 0.186516 3.24286C0.310859 3.03514 0.490067 2.88971 0.72414 2.80658L6.3728 0.850499C6.4751 0.814801 6.58447 0.785932 6.70091 0.76389C6.81734 0.741609 6.94085 0.730469 7.07142 0.730469C7.20199 0.730469 7.3255 0.741609 7.44194 0.76389C7.55837 0.785932 7.66763 0.814801 7.76969 0.850499L15.9527 3.71148L21.5668 1.50816C21.7482 1.44371 21.9231 1.42514 22.0915 1.45245C22.2602 1.48 22.4121 1.53439 22.5472 1.61561C22.6945 1.70929 22.8069 1.82896 22.8843 1.97462C22.9614 2.12053 23 2.29495 23 2.49787V20.2355C23 20.4881 22.9239 20.7088 22.7718 20.8979C22.6199 21.0871 22.4257 21.2214 22.1892 21.3007L16.6233 23.1795C16.514 23.2152 16.402 23.2396 16.2872 23.2525C16.1725 23.2654 16.0602 23.2719 15.9505 23.2719C15.8408 23.2719 15.7261 23.2608 15.6066 23.2385C15.487 23.2164 15.3726 23.1876 15.2634 23.1519ZM15.2853 21.8941V4.66814L7.7147 2.04758V19.2735L15.2853 21.8941Z" fill="white"/>
</svg>
