<svg width="33" height="32" viewBox="0 0 33 32" fill="none" xmlns="http://www.w3.org/2000/svg">
<path fill-rule="evenodd" clip-rule="evenodd" d="M5.10889 6.17901C5.39929 5.98551 5.7672 5.95 6.08925 6.08437L12.3817 8.70977L19.62 6.06719C19.8511 5.98282 20.1046 5.98282 20.3357 6.06719L20.4022 6.09145C20.4175 6.09665 20.4327 6.10219 20.4477 6.10807L27.9573 8.84966C28.369 8.99996 28.6429 9.39153 28.6429 9.82981V26.5246C28.6429 26.8652 28.4766 27.1844 28.1975 27.3797C27.9184 27.5749 27.5616 27.6216 27.2416 27.5048L19.9779 24.8529L12.7142 27.5048C12.4678 27.5947 12.1966 27.5886 11.9545 27.4876L5.28569 24.7051C4.8971 24.543 4.64404 24.1632 4.64404 23.7422V7.04734C4.64404 6.69837 4.81849 6.37251 5.10889 6.17901ZM21.1106 23.0449L26.556 25.0329V10.5597L21.1106 8.57167V23.0449ZM19.0238 8.50645L13.5784 10.4944V24.9677L19.0238 22.9797V8.50645ZM11.4915 25.0332L6.7309 23.0469V8.6133L11.4915 10.5996V25.0332Z" fill="#7C7F83"/>
<path fill-rule="evenodd" clip-rule="evenodd" d="M12.6423 8.61419L12.3804 8.70977L6.08803 6.08437C5.76598 5.95 5.39807 5.98551 5.10767 6.17901C4.81727 6.37251 4.64282 6.69837 4.64282 7.04734V23.7422C4.64282 24.1632 4.89588 24.543 5.28447 24.7051L11.9533 27.4876C12.1724 27.579 12.4154 27.5927 12.6423 27.5278V8.61419ZM19.5984 24.991L19.9767 24.8529L27.2404 27.5048C27.5603 27.6216 27.9172 27.5749 28.1963 27.3797C28.4754 27.1844 28.6416 26.8652 28.6416 26.5246V9.82981C28.6416 9.39153 28.3677 8.99996 27.956 8.84966L20.4465 6.10807C20.4315 6.10219 20.4163 6.09665 20.401 6.09145L20.3345 6.06719C20.1034 5.98282 19.8499 5.98282 19.6188 6.06719L19.5984 6.07463V24.991Z" fill="#7C7F83"/>
</svg>
