<svg width="16" height="17" viewBox="0 0 16 17" fill="none" xmlns="http://www.w3.org/2000/svg">
<g id="Group">
<path id="Vector" d="M0 14.8962C0 15.4576 0.323077 15.7807 0.876925 15.7807C1.07692 15.7807 1.26923 15.7192 1.52308 15.5807L4.75385 13.8346V1.08844C4.61538 1.15767 4.46154 1.2346 4.32308 1.31152L0.676923 3.40382C0.215385 3.65767 0 4.0269 0 4.54229V14.8962ZM5.80769 13.6884L9.68461 15.8653C9.80001 15.9269 9.92309 15.9807 10.0385 16.0115V3.45767L6.23846 1.1346C6.10769 1.04998 5.95384 0.988441 5.80769 0.957672V13.6884ZM11.0846 15.9884C11.1615 15.9654 11.2461 15.9346 11.3154 15.8884L15.3231 13.6115C15.7846 13.3577 16 12.9884 16 12.4731V2.11152C16 1.54229 15.6769 1.2269 15.1231 1.2269C14.9231 1.2269 14.7308 1.28844 14.4769 1.4269L11.0846 3.31152V15.9884Z" fill="#17181C"/>
</g>
</svg>
