<svg width="24" height="32" viewBox="0 0 24 32" fill="none" xmlns="http://www.w3.org/2000/svg">
<g id="Group 4">
<path id="Vector" fill-rule="evenodd" clip-rule="evenodd" d="M0.3634 12.792C0.3634 5.7424 5.5837 0 11.9996 0C18.4156 0 23.6359 5.7424 23.6359 12.8C23.6781 23.104 11.9996 32 11.9996 32C11.9927 31.9946 11.9831 31.9872 11.9709 31.9778C11.2076 31.3856 0.32188 22.9422 0.3634 12.792Z" fill="#EE1171"/>
<path id="Vector_2" fill-rule="evenodd" clip-rule="evenodd" d="M8.53662 18.9091C9.52178 18.9091 10.3656 17.4146 10.717 15.2933C10.8931 17.0849 11.2772 18.3273 11.7228 18.3273C12.1456 18.3273 12.5132 17.2082 12.7 15.5625C12.8499 16.7054 13.1008 17.4546 13.3851 17.4546C13.8442 17.4546 14.2163 15.5009 14.2163 13.0909C14.2163 10.681 13.8442 8.7273 13.3851 8.7273C13.1008 8.7273 12.8499 9.47652 12.7 10.6194C12.5132 8.97371 12.1456 7.85457 11.7228 7.85457C11.2772 7.85457 10.8931 9.09698 10.717 10.8886C10.3656 8.76723 9.52178 7.27275 8.53662 7.27275C7.236 7.27275 6.18164 9.87764 6.18164 13.0909C6.18164 16.3042 7.236 18.9091 8.53662 18.9091ZM15.463 16.5818C15.8456 16.5818 16.1557 15.084 16.1557 13.2364C16.1557 11.3887 15.8456 9.89094 15.463 9.89094C15.0805 9.89094 14.7704 11.3887 14.7704 13.2364C14.7704 15.084 15.0805 16.5818 15.463 16.5818ZM17.818 12.9455C17.818 13.8291 17.6319 14.5455 17.4024 14.5455C17.1729 14.5455 16.9868 13.8291 16.9868 12.9455C16.9868 12.0618 17.1729 11.3455 17.4024 11.3455C17.6319 11.3455 17.818 12.0618 17.818 12.9455Z" fill="#17181C"/>
</g>
</svg>
