<svg width="26" height="26" viewBox="0 0 26 26" fill="none" xmlns="http://www.w3.org/2000/svg">
<path d="M25 13H22.3335M22.3335 13C22.3335 15.4756 21.3507 17.8491 19.6002 19.5996C17.8497 21.3501 15.4756 22.3335 13 22.3335M22.3335 13C22.3335 10.5244 21.3507 8.14964 19.6002 6.39916C17.8497 4.64867 15.4756 3.66653 13 3.66653M13 1V3.66653M13 3.66653C10.5246 3.66653 8.1506 4.64861 6.40024 6.39897C4.64987 8.14934 3.66653 10.5233 3.66653 12.9987C3.66653 15.4741 4.64987 17.8481 6.40024 19.5985C8.1506 21.3489 10.5246 22.3335 13 22.3335M1 13H3.66653M13 25V22.3335" stroke="#EE1171" stroke-width="1.5" stroke-miterlimit="10" stroke-linecap="round"/>
<path d="M12.9991 18.3331C14.4135 18.3331 15.77 17.7712 16.7701 16.7711C17.7702 15.7709 18.3321 14.4145 18.3321 13C18.3321 11.5856 17.7702 10.2291 16.7701 9.22901C15.77 8.22887 14.4135 7.66699 12.9991 7.66699C11.5847 7.66699 10.2282 8.22887 9.22803 9.22901C8.22789 10.2291 7.66602 11.5856 7.66602 13C7.66602 14.4145 8.22789 15.7709 9.22803 16.7711C10.2282 17.7712 11.5847 18.3331 12.9991 18.3331Z" stroke="#EE1171" stroke-width="1.5" stroke-miterlimit="10" stroke-linecap="round"/>
</svg>
