<svg width="20" height="21" viewBox="0 0 20 21" fill="none" xmlns="http://www.w3.org/2000/svg">
<mask id="mask0_2970_11191" style="mask-type:alpha" maskUnits="userSpaceOnUse" x="0" y="0" width="20" height="21">
<rect y="0.5" width="20" height="20" fill="#D9D9D9"/>
</mask>
<g mask="url(#mask0_2970_11191)">
<path d="M2.44141 18.084L3.81956 13.3736C3.57128 12.843 3.38004 12.2991 3.24584 11.742C3.11163 11.1851 3.04453 10.6152 3.04453 10.0324C3.04453 9.00205 3.24002 8.03376 3.631 7.12753C4.02198 6.2213 4.55258 5.43301 5.22281 4.76265C5.89304 4.09229 6.6812 3.56162 7.5873 3.17065C8.49339 2.77954 9.46149 2.58398 10.4916 2.58398C11.5218 2.58398 12.4902 2.77947 13.3967 3.17045C14.3032 3.56143 15.0917 4.09203 15.7622 4.76226C16.4326 5.43249 16.9635 6.22065 17.3547 7.12675C17.7459 8.03284 17.9414 9.00094 17.9414 10.031C17.9414 11.0613 17.7459 12.0296 17.3547 12.9361C16.9638 13.8426 16.4331 14.6311 15.7627 15.3016C15.0924 15.9721 14.3041 16.503 13.3979 16.8942C12.4916 17.2853 11.5233 17.4809 10.493 17.4809C9.91016 17.4809 9.34029 17.4138 8.78336 17.2796C8.22629 17.1453 7.68243 16.9541 7.15176 16.7058L2.44141 18.084ZM4.1814 16.344L6.69035 15.5991C6.88335 15.5469 7.06956 15.5248 7.24898 15.5329C7.4284 15.5409 7.60807 15.5891 7.78801 15.6776C8.20617 15.8866 8.64393 16.0434 9.10129 16.148C9.55865 16.2525 10.0225 16.3048 10.493 16.3048C12.244 16.3048 13.7272 15.6972 14.9424 14.4819C16.1577 13.2666 16.7653 11.7835 16.7653 10.0324C16.7653 8.28138 16.1577 6.79823 14.9424 5.58296C13.7272 4.36769 12.244 3.76005 10.493 3.76005C8.74193 3.76005 7.25878 4.36769 6.04351 5.58296C4.82824 6.79823 4.2206 8.28138 4.2206 10.0324C4.2206 10.5028 4.27287 10.9667 4.37741 11.4241C4.48195 11.8815 4.63876 12.3192 4.84784 12.7374C4.93931 12.9073 4.98956 13.0869 4.99857 13.2764C5.00759 13.4659 4.98348 13.6521 4.92624 13.835L4.1814 16.344Z" fill="#7C7F83"/>
</g>
</svg>
