<svg width="28" height="28" viewBox="0 0 28 28" fill="none" xmlns="http://www.w3.org/2000/svg">
<mask id="mask0_3074_15540" style="mask-type:alpha" maskUnits="userSpaceOnUse" x="0" y="0" width="28" height="28">
<rect width="28" height="28" fill="#D9D9D9"/>
</mask>
<g mask="url(#mask0_3074_15540)">
<path d="M3.5 25.2L5.42942 18.6055C5.08183 17.8626 4.81409 17.1012 4.6262 16.3213C4.43832 15.5416 4.34438 14.7437 4.34438 13.9278C4.34438 12.4853 4.61806 11.1297 5.16543 9.86096C5.7128 8.59225 6.45564 7.48864 7.39396 6.55014C8.33228 5.61163 9.43571 4.8687 10.7042 4.32133C11.9728 3.77378 13.3281 3.5 14.7703 3.5C16.2126 3.5 17.5683 3.77368 18.8374 4.32105C20.1065 4.86842 21.2104 5.61127 22.149 6.54959C23.0877 7.48791 23.8309 8.59133 24.3787 9.85987C24.9262 11.1284 25.2 12.4837 25.2 13.9259C25.2 15.3682 24.9262 16.7239 24.3787 17.993C23.8313 19.2621 23.0884 20.366 22.1499 21.3047C21.2114 22.2433 20.1078 22.9866 18.839 23.5343C17.5703 24.0818 16.2147 24.3556 14.7722 24.3556C13.9563 24.3556 13.1584 24.2617 12.3787 24.0738C11.5988 23.8859 10.8374 23.6182 10.0945 23.2706L3.5 25.2ZM5.93599 22.764L9.44852 21.7212C9.71873 21.648 9.97942 21.6171 10.2306 21.6285C10.4818 21.6396 10.7333 21.7071 10.9852 21.831C11.5707 22.1237 12.1835 22.3432 12.8238 22.4896C13.4641 22.6359 14.1136 22.7091 14.7722 22.7091C17.2236 22.7091 19.3001 21.8584 21.0014 20.1571C22.7028 18.4557 23.5535 16.3793 23.5535 13.9278C23.5535 11.4764 22.7028 9.39995 21.0014 7.69857C19.3001 5.99719 17.2236 5.1465 14.7722 5.1465C12.3207 5.1465 10.2443 5.99719 8.54294 7.69857C6.84156 9.39995 5.99087 11.4764 5.99087 13.9278C5.99087 14.5864 6.06405 15.2359 6.21041 15.8762C6.35676 16.5165 6.5763 17.1293 6.86901 17.7148C6.99707 17.9526 7.06741 18.2041 7.08003 18.4694C7.09265 18.7347 7.0589 18.9954 6.97877 19.2515L5.93599 22.764Z" fill="#EE1171"/>
</g>
</svg>
