<svg width="51" height="51" viewBox="0 0 51 51" fill="none" xmlns="http://www.w3.org/2000/svg">
<mask id="mask0_10297_7744" style="mask-type:alpha" maskUnits="userSpaceOnUse" x="0" y="0" width="51" height="51">
<rect x="0.5" y="0.5" width="50" height="50" fill="#D9D9D9"/>
</mask>
<g mask="url(#mask0_10297_7744)">
<path d="M6.60352 44.4609L10.0489 32.6851C9.4282 31.3584 8.9501 29.9987 8.61459 28.6061C8.27909 27.2137 8.11133 25.789 8.11133 24.332C8.11133 21.7561 8.60006 19.3354 9.5775 17.0698C10.5549 14.8042 11.8815 12.8335 13.557 11.1576C15.2326 9.48171 17.203 8.15504 19.4682 7.17759C21.7335 6.19982 24.1537 5.71094 26.729 5.71094C29.3046 5.71094 31.7255 6.19966 33.9917 7.1771C36.2579 8.15455 38.2292 9.48106 39.9054 11.1566C41.5816 12.8322 42.9088 14.8026 43.8869 17.0678C44.8646 19.3331 45.3535 21.7533 45.3535 24.3286C45.3535 26.9042 44.8646 29.3251 43.8869 31.5913C42.9094 33.8575 41.5827 35.8288 39.9068 37.505C38.2309 39.1812 36.2602 40.5084 33.9946 41.4865C31.7291 42.4642 29.3083 42.9531 26.7324 42.9531C25.2754 42.9531 23.8507 42.7854 22.4584 42.4499C21.0657 42.1143 19.7061 41.6362 18.3794 41.0155L6.60352 44.4609ZM10.9535 40.111L17.2259 38.2488C17.7084 38.1182 18.1739 38.063 18.6224 38.0832C19.071 38.1031 19.5202 38.2237 19.97 38.4449C21.0154 38.9676 22.1098 39.3596 23.2532 39.6209C24.3966 39.8823 25.5564 40.0129 26.7324 40.0129C31.11 40.0129 34.8179 38.4939 37.8561 35.4557C40.8943 32.4175 42.4133 28.7096 42.4133 24.332C42.4133 19.9544 40.8943 16.2466 37.8561 13.2084C34.8179 10.1702 31.11 8.65111 26.7324 8.65111C22.3548 8.65111 18.6469 10.1702 15.6088 13.2084C12.5706 16.2466 11.0515 19.9544 11.0515 24.332C11.0515 25.5081 11.1822 26.6678 11.4435 27.8112C11.7049 28.9546 12.0969 30.049 12.6196 31.0944C12.8483 31.5191 12.9739 31.9683 12.9964 32.442C13.019 32.9157 12.9587 33.3812 12.8156 33.8386L10.9535 40.111Z" fill="#4B4D4F"/>
</g>
</svg>
