<svg width="20" height="20" viewBox="0 0 20 20" fill="none" xmlns="http://www.w3.org/2000/svg">
<mask id="mask0_9981_9898" style="mask-type:alpha" maskUnits="userSpaceOnUse" x="0" y="0" width="20" height="20">
<rect width="20" height="20" fill="#D9D9D9"/>
</mask>
<g mask="url(#mask0_9981_9898)">
<path d="M2.5 17.5L3.8337 12.9416C3.59343 12.428 3.40835 11.9017 3.27848 11.3626C3.14861 10.8237 3.08367 10.2722 3.08367 9.70816C3.08367 8.71103 3.27285 7.77397 3.65122 6.89698C4.02959 6.01999 4.54307 5.25712 5.19168 4.60839C5.84029 3.95965 6.60303 3.4461 7.47989 3.06774C8.35676 2.68925 9.29363 2.5 10.2905 2.5C11.2875 2.5 12.2246 2.68918 13.1019 3.06755C13.9791 3.44591 14.7422 3.9594 15.391 4.60801C16.0399 5.25662 16.5536 6.01935 16.9323 6.89622C17.3108 7.77309 17.5 8.70996 17.5 9.70684C17.5 10.7038 17.3108 11.641 16.9323 12.5182C16.5539 13.3955 16.0403 14.1585 15.3916 14.8074C14.7429 15.4562 13.98 15.97 13.103 16.3486C12.226 16.7271 11.289 16.9163 10.2918 16.9163C9.72783 16.9163 9.17634 16.8514 8.63737 16.7215C8.09828 16.5916 7.57195 16.4066 7.0584 16.1663L2.5 17.5ZM4.18386 15.8161L6.61188 15.0953C6.79866 15.0447 6.97886 15.0234 7.15249 15.0312C7.32612 15.0389 7.5 15.0856 7.67413 15.1712C8.0788 15.3735 8.50244 15.5253 8.94505 15.6264C9.38765 15.7276 9.83658 15.7782 10.2918 15.7782C11.9864 15.7782 13.4217 15.1902 14.5978 14.0141C15.7738 12.838 16.3619 11.4027 16.3619 9.70816C16.3619 8.01361 15.7738 6.5783 14.5978 5.40223C13.4217 4.22617 11.9864 3.63813 10.2918 3.63813C8.59728 3.63813 7.16197 4.22617 5.98591 5.40223C4.80984 6.5783 4.2218 8.01361 4.2218 9.70816C4.2218 10.1634 4.27239 10.6123 4.37355 11.055C4.47472 11.4976 4.62647 11.9212 4.82881 12.3259C4.91733 12.4903 4.96595 12.6641 4.97468 12.8475C4.9834 13.0309 4.96007 13.2111 4.90468 13.3881L4.18386 15.8161Z" fill="#7C7F83"/>
</g>
</svg>
