<svg width="21" height="20" viewBox="0 0 21 20" fill="none" xmlns="http://www.w3.org/2000/svg">
<path d="M10.5 16.7075L6.762 18.3509C6.22333 18.588 5.71167 18.5423 5.227 18.2139C4.74233 17.8862 4.5 17.428 4.5 16.8393V5.15157C4.5 4.68077 4.65433 4.28797 4.963 3.97319C5.27167 3.65841 5.656 3.50068 6.116 3.5H14.885C15.345 3.5 15.7293 3.65773 16.038 3.97319C16.3467 4.28865 16.5007 4.68145 16.5 5.15157V16.8393C16.5 17.428 16.2577 17.8862 15.773 18.2139C15.2883 18.5423 14.7767 18.588 14.238 18.3509L10.5 16.7075ZM10.5 15.5598L14.635 17.383C14.8397 17.475 15.035 17.4556 15.221 17.3248C15.407 17.1933 15.5 17.0161 15.5 16.7933V5.1526C15.5 4.99521 15.436 4.85076 15.308 4.71926C15.18 4.58776 15.0387 4.52201 14.884 4.52201H6.116C5.962 4.52201 5.82067 4.58742 5.692 4.71824C5.56333 4.84906 5.49933 4.9935 5.5 5.15157V16.7944C5.5 17.0172 5.593 17.194 5.779 17.3248C5.965 17.4556 6.16033 17.475 6.365 17.383L10.5 15.5598ZM10.5 4.52201H5.5H15.5H10.5Z" fill="#7C7F83"/>
</svg>
