<svg width="17" height="20" viewBox="0 0 17 20" fill="none" xmlns="http://www.w3.org/2000/svg">
<path d="M12.8848 2.40625C13.3688 2.40625 13.7783 2.57291 14.1055 2.90723C14.4324 3.24138 14.5944 3.65862 14.5938 4.15137V15.8389C14.5938 16.4584 14.3358 16.9467 13.8252 17.292C13.3138 17.6383 12.768 17.6865 12.2002 17.4365L8.5 15.8096L4.7998 17.4365C4.23198 17.6865 3.68621 17.6383 3.1748 17.292C2.66416 16.9467 2.40625 16.4584 2.40625 15.8389V4.15137C2.4063 3.65795 2.56943 3.24076 2.89648 2.90723C3.22352 2.5739 3.63248 2.40697 4.11621 2.40625H12.8848ZM12.8643 17.4971C12.9075 17.4982 12.9503 17.4969 12.9932 17.4941C12.9503 17.497 12.9075 17.4982 12.8643 17.4971ZM12.6807 17.4805C12.7229 17.487 12.7648 17.4913 12.8066 17.4941C12.7648 17.4914 12.7229 17.4869 12.6807 17.4805ZM13.0498 17.4893C13.0911 17.4849 13.1319 17.4788 13.1729 17.4707C13.1319 17.4788 13.0911 17.4848 13.0498 17.4893ZM12.5098 17.4443C12.5445 17.4536 12.5788 17.4629 12.6133 17.4697C12.5788 17.4629 12.5445 17.4536 12.5098 17.4443ZM13.2383 17.457C13.279 17.447 13.319 17.4337 13.3594 17.4199C13.319 17.4337 13.279 17.447 13.2383 17.457ZM13.7734 17.2139C13.8308 17.175 13.884 17.1333 13.9346 17.0908C13.884 17.1333 13.8308 17.175 13.7734 17.2139ZM13.9678 17.0605C14.0071 17.0258 14.0442 16.9902 14.0791 16.9531C14.0442 16.9902 14.0071 17.0258 13.9678 17.0605ZM14.1143 16.9131C14.1424 16.8812 14.1693 16.849 14.1943 16.8154C14.1693 16.849 14.1424 16.8812 14.1143 16.9131ZM14.2383 16.7529C14.2581 16.7233 14.2764 16.693 14.2939 16.6621C14.2764 16.693 14.2581 16.7233 14.2383 16.7529ZM14.332 16.5908C14.3489 16.5569 14.3646 16.5226 14.3789 16.4873C14.3646 16.5226 14.3489 16.5569 14.332 16.5908ZM2.54492 16.2559L2.5459 16.2568L2.54492 16.2559ZM14.4043 16.4248C14.4211 16.3772 14.435 16.3283 14.4473 16.2783C14.4349 16.3283 14.4211 16.3772 14.4043 16.4248ZM3.91992 16.4023C3.93367 16.4078 3.94807 16.4108 3.96191 16.415C3.92421 16.4034 3.88659 16.3884 3.84961 16.3682L3.91992 16.4023ZM13.1504 16.3682C13.1131 16.3885 13.0751 16.4034 13.0371 16.415C13.0752 16.4034 13.1131 16.3886 13.1504 16.3682ZM4.02441 3.62598C3.93325 3.6459 3.84491 3.69662 3.75879 3.78418C3.64454 3.90039 3.5932 4.02206 3.59375 4.15137V15.7939C3.59375 15.9855 3.67136 16.1344 3.83301 16.248C3.99224 16.36 4.15237 16.3758 4.32617 16.2979L4.32715 16.2969L8.46191 14.4736L8.5 14.457L8.53809 14.4736L12.6729 16.2969L12.6738 16.2979C12.8476 16.3758 13.0078 16.36 13.167 16.248L13.2236 16.2041C13.347 16.0963 13.4062 15.9607 13.4062 15.793V4.15234C13.4062 4.02351 13.3551 3.90122 13.2412 3.78418C13.1559 3.69653 13.0676 3.64609 12.9766 3.62598L12.8838 3.61621H4.11621L4.02441 3.62598ZM13.2207 16.3252L13.2861 16.2734C13.2981 16.263 13.3084 16.2512 13.3193 16.2402C13.2897 16.27 13.2576 16.2991 13.2207 16.3252ZM14.4551 16.2461C14.4691 16.1837 14.4811 16.1198 14.4883 16.0537C14.4811 16.1198 14.4691 16.1837 14.4551 16.2461ZM3.51758 15.9531C3.52036 15.9651 3.5239 15.9767 3.52734 15.9883C3.51661 15.9523 3.50822 15.9151 3.50391 15.876L3.51758 15.9531ZM2.50586 3.99805C2.50208 4.04821 2.5 4.0993 2.5 4.15137C2.50001 4.0993 2.50208 4.0482 2.50586 3.99805ZM14.4932 3.9873C14.4974 4.04092 14.5001 4.09558 14.5 4.15137C14.5001 4.09558 14.4974 4.04092 14.4932 3.9873ZM14.4893 3.94922C14.4852 3.90822 14.4803 3.86783 14.4736 3.82812C14.4803 3.86783 14.4851 3.90822 14.4893 3.94922ZM2.52637 3.8291C2.52251 3.85194 2.52058 3.87517 2.51758 3.89844C2.52059 3.87517 2.5225 3.85193 2.52637 3.8291ZM2.56055 3.67188C2.55067 3.7086 2.54359 3.74623 2.53613 3.78418C2.54359 3.74623 2.55067 3.7086 2.56055 3.67188ZM14.4639 3.78223C14.4569 3.74657 14.4496 3.71134 14.4404 3.67676C14.4496 3.71134 14.4568 3.74657 14.4639 3.78223ZM13.21 3.63281L13.209 3.63379L13.21 3.63281ZM2.61035 3.52246C2.59869 3.55328 2.58791 3.58444 2.57812 3.61621C2.58792 3.58445 2.59868 3.55328 2.61035 3.52246ZM14.4229 3.61621C14.4131 3.58445 14.4023 3.55328 14.3906 3.52246C14.4023 3.55328 14.4131 3.58445 14.4229 3.61621ZM2.66406 3.39551C2.65021 3.42408 2.63709 3.45296 2.625 3.48242C2.63709 3.45297 2.65021 3.42407 2.66406 3.39551ZM14.374 3.48047C14.3622 3.45169 14.3495 3.42344 14.3359 3.39551C14.3495 3.42344 14.3622 3.4517 14.374 3.48047ZM2.74707 3.24609C2.72646 3.27878 2.7065 3.31171 2.68848 3.3457C2.70651 3.31171 2.72645 3.27877 2.74707 3.24609ZM14.1465 3.09473C14.2104 3.17392 14.2649 3.25785 14.3115 3.3457C14.265 3.25782 14.2104 3.17393 14.1465 3.09473ZM2.85449 3.09473C2.82217 3.13473 2.79157 3.17553 2.76367 3.21777C2.79158 3.17554 2.82217 3.13473 2.85449 3.09473ZM3.19434 2.77734C3.17287 2.79235 3.15174 2.80799 3.13086 2.82422C3.15174 2.80799 3.17286 2.79235 3.19434 2.77734ZM3.31348 2.70215C3.29104 2.7149 3.26892 2.72823 3.24707 2.74219C3.26892 2.72823 3.29104 2.7149 3.31348 2.70215ZM3.45605 2.63086C3.42797 2.64304 3.40031 2.65603 3.37305 2.66992C3.40031 2.65603 3.42796 2.64304 3.45605 2.63086ZM3.60059 2.57715C3.56726 2.58769 3.53423 2.5986 3.50195 2.61133C3.53423 2.5986 3.56725 2.58769 3.60059 2.57715ZM3.75098 2.53809C3.71561 2.54552 3.68077 2.55379 3.64648 2.56348C3.68078 2.5538 3.7156 2.54552 3.75098 2.53809ZM3.94727 2.50781C3.89446 2.51259 3.84263 2.51904 3.79199 2.52832C3.84264 2.51904 3.89445 2.51259 3.94727 2.50781Z" fill="#7C7F83"/>
</svg>
