<svg width="18" height="19" viewBox="0 0 18 19" fill="none" xmlns="http://www.w3.org/2000/svg">
<path d="M3 14.75H15V13.25H3V14.75ZM6 10.25H7.5V8C7.5 7.5875 7.647 7.2345 7.941 6.941C8.235 6.6475 8.588 6.5005 9 6.5V5C8.175 5 7.46875 5.29375 6.88125 5.88125C6.29375 6.46875 6 7.175 6 8V10.25ZM5.25 11.75H12.75V8C12.75 6.9625 12.3842 6.07825 11.6528 5.34725C10.9212 4.61625 10.037 4.2505 9 4.25C7.963 4.2495 7.07875 4.61525 6.34725 5.34725C5.61575 6.07925 5.25 6.9635 5.25 8V11.75ZM3 16.25C2.5875 16.25 2.2345 16.1033 1.941 15.8097C1.6475 15.5162 1.5005 15.163 1.5 14.75V13.25C1.5 12.8375 1.647 12.4845 1.941 12.191C2.235 11.8975 2.588 11.7505 3 11.75H3.75V8C3.75 6.5375 4.2595 5.297 5.2785 4.2785C6.2975 3.26 7.538 2.7505 9 2.75C10.462 2.7495 11.7027 3.259 12.7222 4.2785C13.7417 5.298 14.251 6.5385 14.25 8V11.75H15C15.4125 11.75 15.7657 11.897 16.0597 12.191C16.3538 12.485 16.5005 12.838 16.5 13.25V14.75C16.5 15.1625 16.3533 15.5157 16.0597 15.8097C15.7662 16.1038 15.413 16.2505 15 16.25H3Z" fill="#C3C5C9"/>
</svg>
