<svg width="18" height="19" viewBox="0 0 18 19" fill="none" xmlns="http://www.w3.org/2000/svg">
<path d="M12.75 17C12.125 17 11.5938 16.7812 11.1562 16.3437C10.7188 15.9062 10.5 15.375 10.5 14.75C10.5 14.675 10.5188 14.5 10.5562 14.225L5.2875 11.15C5.0875 11.3375 4.85625 11.4845 4.59375 11.591C4.33125 11.6975 4.05 11.7505 3.75 11.75C3.125 11.75 2.59375 11.5312 2.15625 11.0937C1.71875 10.6562 1.5 10.125 1.5 9.5C1.5 8.875 1.71875 8.34375 2.15625 7.90625C2.59375 7.46875 3.125 7.25 3.75 7.25C4.05 7.25 4.33125 7.30325 4.59375 7.40975C4.85625 7.51625 5.0875 7.663 5.2875 7.85L10.5562 4.775C10.5312 4.6875 10.5157 4.60325 10.5097 4.52225C10.5037 4.44125 10.5005 4.3505 10.5 4.25C10.5 3.625 10.7188 3.09375 11.1562 2.65625C11.5938 2.21875 12.125 2 12.75 2C13.375 2 13.9062 2.21875 14.3438 2.65625C14.7812 3.09375 15 3.625 15 4.25C15 4.875 14.7812 5.40625 14.3438 5.84375C13.9062 6.28125 13.375 6.5 12.75 6.5C12.45 6.5 12.1687 6.44675 11.9062 6.34025C11.6438 6.23375 11.4125 6.087 11.2125 5.9L5.94375 8.975C5.96875 9.0625 5.9845 9.147 5.991 9.2285C5.9975 9.31 6.0005 9.4005 6 9.5C5.9995 9.5995 5.9965 9.69025 5.991 9.77225C5.9855 9.85425 5.96975 9.9385 5.94375 10.025L11.2125 13.1C11.4125 12.9125 11.6438 12.7657 11.9062 12.6597C12.1687 12.5537 12.45 12.5005 12.75 12.5C13.375 12.5 13.9062 12.7187 14.3438 13.1562C14.7812 13.5937 15 14.125 15 14.75C15 15.375 14.7812 15.9062 14.3438 16.3437C13.9062 16.7812 13.375 17 12.75 17ZM12.75 15.5C12.9625 15.5 13.1407 15.4282 13.2847 15.2847C13.4287 15.1412 13.5005 14.963 13.5 14.75C13.4995 14.537 13.4275 14.359 13.284 14.216C13.1405 14.073 12.9625 14.001 12.75 14C12.5375 13.999 12.3595 14.071 12.216 14.216C12.0725 14.361 12.0005 14.539 12 14.75C11.9995 14.961 12.0715 15.1392 12.216 15.2847C12.3605 15.4302 12.5385 15.502 12.75 15.5ZM3.75 10.25C3.9625 10.25 4.14075 10.178 4.28475 10.034C4.42875 9.89 4.5005 9.712 4.5 9.5C4.4995 9.288 4.4275 9.11 4.284 8.966C4.1405 8.822 3.9625 8.75 3.75 8.75C3.5375 8.75 3.3595 8.822 3.216 8.966C3.0725 9.11 3.0005 9.288 3 9.5C2.9995 9.712 3.0715 9.89025 3.216 10.0347C3.3605 10.1792 3.5385 10.251 3.75 10.25ZM12.75 5C12.9625 5 13.1407 4.928 13.2847 4.784C13.4287 4.64 13.5005 4.462 13.5 4.25C13.4995 4.038 13.4275 3.86 13.284 3.716C13.1405 3.572 12.9625 3.5 12.75 3.5C12.5375 3.5 12.3595 3.572 12.216 3.716C12.0725 3.86 12.0005 4.038 12 4.25C11.9995 4.462 12.0715 4.64025 12.216 4.78475C12.3605 4.92925 12.5385 5.001 12.75 5Z" fill="#C3C5C9"/>
</svg>
