<svg width="20" height="20" viewBox="0 0 20 20" fill="none" xmlns="http://www.w3.org/2000/svg">
<path d="M10 16.7075L6.262 18.3509C5.72333 18.588 5.21167 18.5423 4.727 18.2139C4.24233 17.8862 4 17.428 4 16.8393V5.15157C4 4.68077 4.15433 4.28797 4.463 3.97319C4.77167 3.65841 5.156 3.50068 5.616 3.5H14.385C14.845 3.5 15.2293 3.65773 15.538 3.97319C15.8467 4.28865 16.0007 4.68145 16 5.15157V16.8393C16 17.428 15.7577 17.8862 15.273 18.2139C14.7883 18.5423 14.2767 18.588 13.738 18.3509L10 16.7075ZM10 15.5598L14.135 17.383C14.3397 17.475 14.535 17.4556 14.721 17.3248C14.907 17.1933 15 17.0161 15 16.7933V5.1526C15 4.99521 14.936 4.85076 14.808 4.71926C14.68 4.58776 14.5387 4.52201 14.384 4.52201H5.616C5.462 4.52201 5.32067 4.58742 5.192 4.71824C5.06333 4.84906 4.99933 4.9935 5 5.15157V16.7944C5 17.0172 5.093 17.194 5.279 17.3248C5.465 17.4556 5.66033 17.475 5.865 17.383L10 15.5598ZM10 4.52201H5H15H10Z" fill="#EE1171"/>
</svg>
