<svg width="21" height="20" viewBox="0 0 21 20" fill="none" xmlns="http://www.w3.org/2000/svg">
<path d="M11 16.2075L7.262 17.8509C6.72333 18.088 6.21167 18.0423 5.727 17.7139C5.24233 17.3862 5 16.928 5 16.3393V4.65157C5 4.18077 5.15433 3.78797 5.463 3.47319C5.77167 3.15841 6.156 3.00068 6.616 3H15.385C15.845 3 16.2293 3.15773 16.538 3.47319C16.8467 3.78865 17.0007 4.18145 17 4.65157V16.3393C17 16.928 16.7577 17.3862 16.273 17.7139C15.7883 18.0423 15.2767 18.088 14.738 17.8509L11 16.2075ZM11 15.0598L15.135 16.883C15.3397 16.975 15.535 16.9556 15.721 16.8248C15.907 16.6933 16 16.5161 16 16.2933V4.6526C16 4.49521 15.936 4.35076 15.808 4.21926C15.68 4.08776 15.5387 4.02201 15.384 4.02201H6.616C6.462 4.02201 6.32067 4.08742 6.192 4.21824C6.06333 4.34906 5.99933 4.4935 6 4.65157V16.2944C6 16.5172 6.093 16.694 6.279 16.8248C6.465 16.9556 6.66033 16.975 6.865 16.883L11 15.0598ZM11 4.02201H6H16H11Z" fill="#EE1171"/>
</svg>
