<svg width="28" height="28" viewBox="0 0 28 28" fill="none" xmlns="http://www.w3.org/2000/svg">
<path d="M13.65 21.9905L8.4168 24.2912C7.66267 24.6232 6.94633 24.5593 6.2678 24.0995C5.58927 23.6407 5.25 22.9992 5.25 22.1751V5.8122C5.25 5.15307 5.46607 4.60316 5.8982 4.16247C6.33033 3.72178 6.8684 3.50095 7.5124 3.5H19.789C20.433 3.5 20.9711 3.72082 21.4032 4.16247C21.8353 4.60412 22.0509 5.15403 22.05 5.8122V22.1751C22.05 22.9992 21.7107 23.6407 21.0322 24.0995C20.3537 24.5593 19.6373 24.6232 18.8832 24.2912L13.65 21.9905ZM13.65 20.3837L19.439 22.9362C19.7255 23.065 19.999 23.0378 20.2594 22.8547C20.5198 22.6706 20.65 22.4226 20.65 22.1107V5.81363C20.65 5.59329 20.5604 5.39107 20.3812 5.20697C20.202 5.02287 20.0041 4.93082 19.7876 4.93082H7.5124C7.2968 4.93082 7.09893 5.02239 6.9188 5.20554C6.73867 5.38868 6.64907 5.5909 6.65 5.8122V22.1121C6.65 22.424 6.7802 22.6715 7.0406 22.8547C7.301 23.0378 7.57447 23.065 7.861 22.9362L13.65 20.3837ZM13.65 4.93082H6.65H20.65H13.65Z" fill="#EE1171"/>
</svg>
