<svg width="19" height="19" viewBox="0 0 19 19" fill="none" xmlns="http://www.w3.org/2000/svg">
<mask id="mask0_9116_9010" style="mask-type:alpha" maskUnits="userSpaceOnUse" x="0" y="0" width="19" height="19">
<rect x="0.5" y="0.5" width="18" height="18" fill="#D9D9D9"/>
</mask>
<g mask="url(#mask0_9116_9010)">
<path d="M2.30078 11.3002C2.30078 10.1127 2.58203 9.0252 3.14453 8.0377C3.70703 7.0502 4.32578 6.19707 5.00078 5.47832C5.67578 4.75957 6.29453 4.2002 6.85703 3.8002L7.70078 3.2002V5.43145C7.70078 5.80645 7.83203 6.1252 8.09453 6.3877C8.35703 6.6502 8.68203 6.78145 9.06953 6.78145C9.28203 6.78145 9.47266 6.7377 9.64141 6.6502C9.81016 6.5627 9.96328 6.4377 10.1008 6.2752L10.4008 5.9002C11.1883 6.3502 11.8383 7.08145 12.3508 8.09395C12.8633 9.10645 13.1133 10.1689 13.1008 11.2814C13.0883 12.2564 12.8539 13.1471 12.3977 13.9533C11.9414 14.7596 11.3008 15.4127 10.4758 15.9127C10.6758 15.6252 10.8258 15.3189 10.9258 14.9939C11.0258 14.6689 11.0758 14.3377 11.0758 14.0002C11.0758 13.5877 11.0039 13.1877 10.8602 12.8002C10.7164 12.4127 10.5008 12.0627 10.2133 11.7502L7.70078 8.9377L5.18828 11.7502C4.90078 12.0627 4.68516 12.4127 4.54141 12.8002C4.39766 13.1877 4.32578 13.5877 4.32578 14.0002C4.32578 14.3502 4.37891 14.6908 4.48516 15.0221C4.59141 15.3533 4.75078 15.6627 4.96328 15.9502C4.13828 15.4627 3.48828 14.8064 3.01328 13.9814C2.53828 13.1564 2.30078 12.2627 2.30078 11.3002ZM7.70078 10.9627L9.20078 12.6502C9.37578 12.8377 9.50703 13.0471 9.59453 13.2783C9.68203 13.5096 9.72578 13.7502 9.72578 14.0002C9.72578 14.5627 9.52891 15.0408 9.13516 15.4346C8.74141 15.8283 8.26328 16.0252 7.70078 16.0252C7.13828 16.0252 6.66016 15.8283 6.26641 15.4346C5.87266 15.0408 5.67578 14.5627 5.67578 14.0002C5.67578 13.7502 5.71953 13.5096 5.80703 13.2783C5.89453 13.0471 6.02578 12.8377 6.20078 12.6502L7.70078 10.9627Z" fill="white"/>
</g>
</svg>
