<svg width="24" height="24" viewBox="0 0 24 24" fill="none" xmlns="http://www.w3.org/2000/svg">
<mask id="mask0_7117_23226" style="mask-type:alpha" maskUnits="userSpaceOnUse" x="0" y="0" width="24" height="24">
<rect width="24" height="24" fill="#D9D9D9"/>
</mask>
<g mask="url(#mask0_7117_23226)">
<path d="M21 19.269C20.5875 19.269 20.2344 19.1221 19.9408 18.8282C19.6469 18.5346 19.5 18.1815 19.5 17.769C19.5 17.3565 19.6469 17.0033 19.9408 16.7095C20.2344 16.4158 20.5875 16.269 21 16.269C21.4125 16.269 21.7656 16.4158 22.0592 16.7095C22.3531 17.0033 22.5 17.3565 22.5 17.769C22.5 18.1815 22.3531 18.5346 22.0592 18.8282C21.7656 19.1221 21.4125 19.269 21 19.269ZM21 13.4997C20.5875 13.4997 20.2344 13.3528 19.9408 13.059C19.6469 12.7653 19.5 12.4122 19.5 11.9997C19.5 11.5872 19.6469 11.2341 19.9408 10.9405C20.2344 10.6466 20.5875 10.4997 21 10.4997C21.4125 10.4997 21.7656 10.6466 22.0592 10.9405C22.3531 11.2341 22.5 11.5872 22.5 11.9997C22.5 12.4122 22.3531 12.7653 22.0592 13.059C21.7656 13.3528 21.4125 13.4997 21 13.4997ZM21 7.73047C20.5875 7.73047 20.2344 7.58364 19.9408 7.28997C19.6469 6.99614 19.5 6.64297 19.5 6.23047C19.5 5.81797 19.6469 5.46489 19.9408 5.17122C20.2344 4.87739 20.5875 4.73047 21 4.73047C21.4125 4.73047 21.7656 4.87739 22.0592 5.17122C22.3531 5.46489 22.5 5.81797 22.5 6.23047C22.5 6.64297 22.3531 6.99614 22.0592 7.28997C21.7656 7.58364 21.4125 7.73047 21 7.73047Z" fill="white"/>
</g>
</svg>
