<svg width="79" height="104" viewBox="0 0 79 104" fill="none" xmlns="http://www.w3.org/2000/svg">
<path d="M3.75 0C6.49267 7.07786 16.5073 7.07786 19.25 0H73C76.3137 0 79 2.68629 79 6V98C79 101.314 76.3137 104 73 104H19.25C16.5073 96.9221 6.49267 96.9221 3.75 104H0V0H3.75Z" fill="#28292A"/>
<path d="M3.75 0C6.49267 7.07786 16.5073 7.07786 19.25 0H73C76.3137 0 79 2.68629 79 6V98C79 101.314 76.3137 104 73 104H19.25C16.5073 96.9221 6.49267 96.9221 3.75 104H0V0H3.75Z" fill="url(#paint0_linear_9981_25396)"/>
<path d="M55.1289 64.8047V65.7422H45.5195V64.8047H48.1445V62.9531H46.6914V59.6133H52.8555V58.1484H46.668V57.2344H53.957V60.5156H47.793V62.0391H54.2031V62.9531H52.6094V64.8047H55.1289ZM49.2227 64.8047H51.5195V62.9531H49.2227V64.8047Z" fill="#7C7F83"/>
<path d="M40.707 57.4219V62.3203H35.7969V57.4219H40.707ZM36.8867 61.4414H39.6172V58.3242H36.8867V61.4414ZM36.9805 66.7734V63.4453H38.0938V65.8711H44.082V66.7734H36.9805ZM42.5234 64.1836V56.4844H43.6367V59.625H45.1602V60.5625H43.6367V64.1836H42.5234Z" fill="#7C7F83"/>
<path d="M54.1914 37.9414V38.8555H52.668V41.0586H54.1445V41.9375H50.8516V43.1211H55.0938V44.0117H45.5195V43.1211H49.75V41.9375H46.4453V41.0586H47.9336V38.8555H46.3984V37.9414H54.1914ZM46.7266 47.7734V44.8555H47.8516V46.8711H54.0156V47.7734H46.7266ZM49.0352 41.0586H51.5547V38.8555H49.0352V41.0586Z" fill="#7C7F83"/>
<path d="M43.7773 38.1289V39.0898C43.7832 40.1797 43.7832 41.3926 43.4141 43.1094H44.9609V44.0117H40.7422V47.9844H39.6289V44.0117H35.3867V43.1094H42.3184C42.4824 42.4238 42.5762 41.8086 42.6348 41.252L36.4062 41.5625L36.2656 40.6016L42.6992 40.4023C42.7168 39.9336 42.7227 39.5 42.7227 39.0898V39.0312H36.5703V38.1289H43.7773Z" fill="#7C7F83"/>
<path d="M12 14.5H11V12H12V14.5ZM12 24.5H11V19.5H12V24.5ZM12 34.5H11V29.5H12V34.5ZM12 44.5H11V39.5H12V44.5ZM12 54.5H11V49.5H12V54.5ZM12 64.5H11V59.5H12V64.5ZM12 74.5H11V69.5H12V74.5ZM12 84.5H11V79.5H12V84.5ZM12 92H11V89.5H12V92Z" fill="#7C7F83"/>
<defs>
<linearGradient id="paint0_linear_9981_25396" x1="79" y1="34" x2="11.5" y2="34" gradientUnits="userSpaceOnUse">
<stop stop-color="#1F2123"/>
<stop offset="0.999974" stop-color="#1F2123"/>
<stop offset="1" stop-color="#28292A"/>
</linearGradient>
</defs>
</svg>
