<svg width="17" height="20" viewBox="0 0 17 20" fill="none" xmlns="http://www.w3.org/2000/svg">
<circle cx="8.56543" cy="4" r="4" fill="#17181C"/>
<path fill-rule="evenodd" clip-rule="evenodd" d="M8.55716 19.5986C9.57587 19.5986 10.4766 18.7613 11.0226 17.479C11.3341 18.4172 11.8403 19.0274 12.4118 19.0274C13.3586 19.0274 14.1261 17.3528 14.1261 15.2871C14.1261 13.2214 13.3586 11.5469 12.4118 11.5469C11.9809 11.5469 11.5871 11.8938 11.2859 12.4666C10.8032 10.7715 9.76281 9.59863 8.55716 9.59863C7.35153 9.59863 6.31114 10.7715 5.82844 12.4665C5.52726 11.8938 5.13348 11.5469 4.70256 11.5469C3.75579 11.5469 2.98828 13.2214 2.98828 15.2871C2.98828 17.3528 3.75579 19.0274 4.70256 19.0274C5.27408 19.0274 5.78027 18.4172 6.09175 17.4791C6.63776 18.7613 7.53848 19.5986 8.55716 19.5986ZM1.20635 19.0284C1.87259 19.0284 2.41269 17.9818 2.41269 16.6908C2.41269 15.3997 1.87259 14.3531 1.20635 14.3531C0.5401 14.3531 0 15.3997 0 16.6908C0 17.9818 0.5401 19.0284 1.20635 19.0284ZM16.9606 16.6908C16.9606 17.9818 16.4542 19.0284 15.8296 19.0284C15.205 19.0284 14.6987 17.9818 14.6987 16.6908C14.6987 15.3997 15.205 14.3531 15.8296 14.3531C16.4542 14.3531 16.9606 15.3997 16.9606 16.6908Z" fill="#17181C"/>
</svg>
