<svg width="79" height="104" viewBox="0 0 79 104" fill="none" xmlns="http://www.w3.org/2000/svg">
<path d="M3.75 0C6.49267 7.07786 16.5073 7.07786 19.25 0H73C76.3137 0 79 2.68629 79 6V98C79 101.314 76.3137 104 73 104H19.25C16.5073 96.9221 6.49267 96.9221 3.75 104H0V0H3.75Z" fill="#28292A"/>
<path d="M3.75 0C6.49267 7.07786 16.5073 7.07786 19.25 0H73C76.3137 0 79 2.68629 79 6V98C79 101.314 76.3137 104 73 104H19.25C16.5073 96.9221 6.49267 96.9221 3.75 104H0V0H3.75Z" fill="url(#paint0_linear_11281_13082)"/>
<path d="M12 14.5H11V12H12V14.5ZM12 24.5H11V19.5H12V24.5ZM12 34.5H11V29.5H12V34.5ZM12 44.5H11V39.5H12V44.5ZM12 54.5H11V49.5H12V54.5ZM12 64.5H11V59.5H12V64.5ZM12 74.5H11V69.5H12V74.5ZM12 84.5H11V79.5H12V84.5ZM12 92H11V89.5H12V92Z" fill="#EE1171"/>
<defs>
<linearGradient id="paint0_linear_11281_13082" x1="79" y1="34" x2="11.5" y2="34" gradientUnits="userSpaceOnUse">
<stop stop-color="#381726"/>
<stop offset="0.999974" stop-color="#381726"/>
<stop offset="1" stop-color="#28292A"/>
</linearGradient>
</defs>
</svg>
