<svg width="33" height="32" viewBox="0 0 33 32" fill="none" xmlns="http://www.w3.org/2000/svg">
<ellipse cx="16.5193" cy="9.09752" rx="4.89842" ry="4.8983" fill="#7C7F83"/>
<path fill-rule="evenodd" clip-rule="evenodd" d="M16.5088 28.1989C17.7563 28.1989 18.8594 27.1735 19.528 25.6033C19.9095 26.7521 20.5294 27.4994 21.2293 27.4994C22.3887 27.4994 23.3286 25.4487 23.3286 22.9191C23.3286 20.3895 22.3887 18.3389 21.2293 18.3389C20.7015 18.3389 20.2193 18.7637 19.8505 19.4652C19.2594 17.3894 17.9853 15.9531 16.5088 15.9531C15.0325 15.9531 13.7585 17.3892 13.1673 19.4647C12.7985 18.7635 12.3164 18.3389 11.7888 18.3389C10.6294 18.3389 9.68949 20.3895 9.68949 22.9191C9.68949 25.4487 10.6294 27.4994 11.7888 27.4994C12.4886 27.4994 13.1084 26.7523 13.4899 25.6038C14.1585 27.1737 15.2615 28.1989 16.5088 28.1989ZM7.50733 27.5011C8.32322 27.5011 8.98463 26.2195 8.98463 24.6385C8.98463 23.0575 8.32322 21.7758 7.50733 21.7758C6.69144 21.7758 6.03003 23.0575 6.03003 24.6385C6.03003 26.2195 6.69144 27.5011 7.50733 27.5011ZM26.7995 24.6385C26.7995 26.2195 26.1794 27.5011 25.4145 27.5011C24.6496 27.5011 24.0296 26.2195 24.0296 24.6385C24.0296 23.0575 24.6496 21.7758 25.4145 21.7758C26.1794 21.7758 26.7995 23.0575 26.7995 24.6385Z" fill="#7C7F83"/>
</svg>
