<svg width="79" height="71" viewBox="0 0 79 71" fill="none" xmlns="http://www.w3.org/2000/svg">
<path d="M3.75 0C6.49267 7.07786 16.5073 7.07786 19.25 0H73C76.3137 0 79 2.68629 79 6V65C79 68.3137 76.3137 71 73 71H19.25C16.5073 63.9221 6.49267 63.9221 3.75 71H0V0H3.75Z" fill="#28292A"/>
<path d="M3.75 0C6.49267 7.07786 16.5073 7.07786 19.25 0H73C76.3137 0 79 2.68629 79 6V65C79 68.3137 76.3137 71 73 71H19.25C16.5073 63.9221 6.49267 63.9221 3.75 71H0V0H3.75Z" fill="#28292A"/>
<path d="M12 58H11V54.25H12V58Z" fill="#313335"/>
<path d="M12 48.75H11V43.25H12V48.75Z" fill="#313335"/>
<path d="M12 37.75H11V32.25H12V37.75Z" fill="#313335"/>
<path d="M12 26.75H11V21.25H12V26.75Z" fill="#313335"/>
<path d="M12 15.75H11V12H12V15.75Z" fill="#313335"/>
</svg>
