<svg width="256" height="104" viewBox="0 0 256 104" fill="none" xmlns="http://www.w3.org/2000/svg">
<path d="M0 6C0 2.68629 2.68629 0 6 0H256V104H6C2.68629 104 0 101.314 0 98V6Z" fill="#28292A"/>
<path d="M32.7266 27.6367C32.7266 31.7939 30.1514 34.1758 26.7852 34.1758C23.3926 34.1758 20.8262 31.7764 20.8262 27.6367C20.8262 23.4795 23.3926 21.0977 26.7852 21.0977C30.1514 21.0977 32.7266 23.4795 32.7266 27.6367ZM23.5156 27.6367C23.5156 30.3525 24.8076 31.8291 26.7852 31.8379C28.7451 31.8291 30.0459 30.3525 30.0371 27.6367C30.0459 24.9121 28.7451 23.4443 26.7852 23.4355C24.8076 23.4443 23.5156 24.9121 23.5156 27.6367ZM42.5 21.2734H45.1543V29.5352C45.1543 32.3213 43.0361 34.1846 39.8809 34.1758C36.7168 34.1846 34.625 32.3213 34.625 29.5352V21.2734H37.2617V29.3242C37.2705 30.792 38.3076 31.8467 39.8809 31.8555C41.4717 31.8467 42.5088 30.792 42.5 29.3242V21.2734ZM47.2988 34V21.2734H55.6836V23.4531H49.9355V26.5469H55.1387V28.7266H49.9355V34H47.2988ZM61.502 34L61.4844 32.084L66.0547 27.8828C67.2412 26.749 67.8828 26.0459 67.8828 25.0352C67.8828 23.9014 67.0303 23.1982 65.8613 23.207C64.666 23.1982 63.8838 23.9541 63.8926 25.1758H61.3789C61.3701 22.6885 63.2158 21.0977 65.8965 21.0977C68.6211 21.0977 70.4316 22.6533 70.4316 24.8594C70.4316 26.3096 69.7285 27.4961 67.1094 29.8691L65.1758 31.75V31.8203H70.6074V34H61.502ZM77.4277 34.1758C74.2373 34.1758 72.3125 31.8027 72.3125 27.6367C72.3125 23.4795 74.2549 21.0977 77.4277 21.0977C80.6006 21.0977 82.543 23.4795 82.543 27.6367C82.543 31.8203 80.6094 34.1758 77.4277 34.1758ZM75.0195 27.6367C75.002 30.5723 75.9512 31.9961 77.4277 31.9961C78.9043 31.9961 79.8447 30.5723 79.8359 27.6367C79.8447 24.7275 78.8955 23.2686 77.4277 23.2598C75.96 23.2686 75.0195 24.7275 75.0195 27.6367ZM84.3711 34L84.3535 32.084L88.9238 27.8828C90.1104 26.749 90.752 26.0459 90.752 25.0352C90.752 23.9014 89.8994 23.1982 88.7305 23.207C87.5352 23.1982 86.7529 23.9541 86.7617 25.1758H84.248C84.2393 22.6885 86.085 21.0977 88.7656 21.0977C91.4902 21.0977 93.3008 22.6533 93.3008 24.8594C93.3008 26.3096 92.5977 27.4961 89.9785 29.8691L88.0449 31.75V31.8203H93.4766V34H84.3711ZM100.033 34.1758C97.3789 34.1758 95.4365 32.6113 95.3926 30.4141H97.959C98.0205 31.4072 98.9258 32.0928 100.033 32.084C101.352 32.0928 102.292 31.1611 102.283 29.834C102.292 28.4805 101.334 27.54 99.998 27.5312C99.04 27.5312 98.3721 27.8916 97.9941 28.6035H95.6035L96.2891 21.2734H104.129V23.4355H98.4688L98.1172 26.6523H98.2227C98.6885 26.0283 99.6553 25.5713 100.771 25.5801C103.109 25.5713 104.85 27.3203 104.85 29.7637C104.85 32.3389 102.898 34.1758 100.033 34.1758ZM116.152 23.2422C116.144 26.1074 117.365 28.999 119.932 30.2383L118.578 32.0312C116.864 31.1787 115.704 29.5967 115.045 27.6719C114.342 29.7373 113.111 31.4336 111.301 32.3301L109.912 30.5195C112.628 29.2715 113.902 26.2129 113.902 23.2422V20.8516H116.152V23.2422ZM120.635 35.6172V19.6211H122.885V25.791H125.24V27.6895H122.885V35.6172H120.635ZM139.303 19.6387V31.3105H137.07V25.5801H134.451V23.7695H137.07V19.6387H139.303ZM125.732 27.707C128.378 26.8809 129.573 24.7979 129.582 22.75V22.5039H126.365V20.7109H135.049V22.5039H131.867V22.7676C131.858 24.6221 133.001 26.5996 135.541 27.4258L134.434 29.2012C132.667 28.6211 131.445 27.4609 130.751 26.0283C130.039 27.6191 128.765 28.9111 126.875 29.5352L125.732 27.707ZM128.686 35.3359V30.291H130.936V33.543H139.689V35.3359H128.686ZM159.395 19.6211V35.6172H157.25V19.6211H159.395ZM145.666 26.5469C145.666 22.9697 147.028 20.7549 149.146 20.7637C150.482 20.7549 151.537 21.6338 152.126 23.1719H154.016V19.8496H156.125V34.8789H154.016V29.9219H152.135C151.537 31.4775 150.491 32.3652 149.146 32.3652C147.028 32.3652 145.666 30.1416 145.666 26.5469ZM147.705 26.5469C147.688 29.0078 148.206 30.2207 149.146 30.2031C150.069 30.2207 150.632 29.0078 150.641 26.5469C150.632 24.0947 150.069 22.873 149.146 22.873C148.206 22.873 147.688 24.0947 147.705 26.5469ZM152.574 24.9648C152.645 25.457 152.68 25.9844 152.68 26.5469C152.68 27.1006 152.645 27.6279 152.583 28.1113H154.016V24.9648H152.574ZM175.848 21.7305V23.541H173.773V25.1758H175.848V27.0391H173.773V29.0605H171.523V19.6211H173.773V21.7305H175.848ZM161.188 24.3848C161.179 22.126 163.077 20.4912 165.582 20.5C168.061 20.4912 169.941 22.126 169.941 24.3848C169.941 26.6963 168.061 28.3135 165.582 28.3047C163.077 28.3135 161.179 26.6963 161.188 24.3848ZM162.998 31.5039V29.6934H173.773V35.6172H171.523V31.5039H162.998ZM163.402 24.3848C163.385 25.6768 164.325 26.415 165.582 26.4062C166.812 26.415 167.753 25.6768 167.762 24.3848C167.753 23.1367 166.812 22.4072 165.582 22.416C164.325 22.4072 163.385 23.1367 163.402 24.3848ZM35.0645 55.4453V57.2383H28.8418V62.6172H26.627V57.2383H20.4746V55.4453H35.0645ZM21.1953 52.7559C24.4297 52.3604 26.2227 50.7959 26.46 49.2227H21.793V47.4648H33.7637V49.2227H29.0967C29.3252 50.7959 31.0918 52.3604 34.3789 52.7559L33.5703 54.5137C30.7578 54.1357 28.7451 52.9404 27.7783 51.2969C26.8027 52.9404 24.8076 54.1357 22.0215 54.5137L21.1953 52.7559ZM50.6562 56.0078V57.7656H47.2812V62.6172H45.0137V57.7656H41.6738V62.6172H39.4414V57.7656H36.0137V56.0078H50.6562ZM37.7012 48.9238V47.0957H48.9688V51.7539H40.0215V53.0547H49.3379V54.8477H37.7539V50.1191H46.666V48.9238H37.7012ZM56.2637 61L56.2461 59.084L60.8164 54.8828C62.0029 53.749 62.6445 53.0459 62.6445 52.0352C62.6445 50.9014 61.792 50.1982 60.623 50.207C59.4277 50.1982 58.6455 50.9541 58.6543 52.1758H56.1406C56.1318 49.6885 57.9775 48.0977 60.6582 48.0977C63.3828 48.0977 65.1934 49.6533 65.1934 51.8594C65.1934 53.3096 64.4902 54.4961 61.8711 56.8691L59.9375 58.75V58.8203H65.3691V61H56.2637ZM72.1895 61.1758C68.999 61.1758 67.0742 58.8027 67.0742 54.6367C67.0742 50.4795 69.0166 48.0977 72.1895 48.0977C75.3623 48.0977 77.3047 50.4795 77.3047 54.6367C77.3047 58.8203 75.3711 61.1758 72.1895 61.1758ZM69.7812 54.6367C69.7637 57.5723 70.7129 58.9961 72.1895 58.9961C73.666 58.9961 74.6064 57.5723 74.5977 54.6367C74.6064 51.7275 73.6572 50.2686 72.1895 50.2598C70.7217 50.2686 69.7812 51.7275 69.7812 54.6367ZM86.0586 57.9414C86.0674 56.4209 87.0693 55.1201 88.8535 55.1289C90.6729 55.1201 91.6396 56.4121 91.6484 57.9414V58.6094C91.6396 60.1299 90.6465 61.4307 88.8535 61.4395C87.043 61.4307 86.0674 60.1299 86.0586 58.6094V57.9414ZM79.5371 51.332V50.6641C79.5371 49.126 80.5566 47.834 82.332 47.834C84.1514 47.834 85.1182 49.126 85.1094 50.6641V51.332C85.1182 52.8613 84.125 54.1357 82.332 54.127C80.5127 54.1357 79.5371 52.8438 79.5371 51.332ZM80.3457 61L89.0996 48.2734H90.7168L81.9629 61H80.3457ZM81.3301 51.332C81.3389 51.9385 81.585 52.5625 82.332 52.5625C83.0879 52.5625 83.3164 51.9385 83.3164 51.332V50.6641C83.3164 50.0488 83.1143 49.4072 82.332 49.416C81.5762 49.4072 81.3389 50.0576 81.3301 50.6641V51.332ZM87.8516 58.6094C87.8516 59.207 88.0889 59.8486 88.8535 59.8398C89.6094 59.8486 89.8467 59.2246 89.8379 58.6094V57.9414C89.8467 57.335 89.6357 56.6934 88.8535 56.6934C88.1064 56.6934 87.8516 57.335 87.8516 57.9414V58.6094ZM110.334 46.5859V50.0664H112.496V51.8594H110.334V55.252H108.084V46.5859H110.334ZM97.6426 49.5215V47.8164H101.281V46.5156H103.514V47.8164H107.135V49.5215H97.6426ZM98.416 52.5273C98.416 50.9277 100.007 49.917 102.389 49.9082C104.788 49.917 106.326 50.9277 106.326 52.5273C106.326 54.1621 104.788 55.1377 102.389 55.1465C100.007 55.1377 98.416 54.1621 98.416 52.5273ZM99.7168 57.5195V55.9023H110.334V59.9453H101.949V60.8594H110.791V62.5117H99.752V58.416H108.102V57.5195H99.7168ZM100.613 52.5273C100.604 53.2129 101.281 53.5381 102.389 53.5469C103.505 53.5381 104.199 53.2129 104.199 52.5273C104.199 51.8506 103.505 51.4814 102.389 51.4902C101.281 51.4814 100.604 51.8506 100.613 52.5273ZM126.594 46.6387V58.1348H124.344V46.6387H126.594ZM113.445 51.6836C113.445 49.3369 115.361 47.6494 117.822 47.6582C120.274 47.6494 122.19 49.3369 122.199 51.6836C122.19 54.0654 120.274 55.7441 117.822 55.7441C115.361 55.7441 113.445 54.0654 113.445 51.6836ZM115.643 51.6836C115.625 53.0195 116.565 53.793 117.822 53.793C119.035 53.793 119.976 53.0195 119.984 51.6836C119.976 50.3828 119.035 49.6006 117.822 49.6094C116.565 49.6006 115.625 50.3828 115.643 51.6836ZM115.871 62.3359V56.9746H118.139V60.543H127.016V62.3359H115.871ZM145.877 47.5176V48.959C145.868 50.6201 145.868 52.4746 145.332 55.0586H147.494V56.8691H141.324V62.582H139.074V56.8691H132.904V55.0586H143.135C143.328 54.2061 143.46 53.4238 143.548 52.7031L134.363 53.1602L134.1 51.2441L143.697 50.9805C143.724 50.3828 143.724 49.8291 143.732 49.293H134.609V47.5176H145.877ZM161.75 47.2012V49.0117H159.658V51.7715H161.645V53.5117H156.863V55.0059H163.051V56.7637H148.461V55.0059H154.613V53.5117H149.85V51.7715H151.818V49.0117H149.744V47.2012H161.75ZM150.219 62.3359V57.8008H152.469V60.543H161.398V62.3359H150.219ZM154.068 51.7715H157.408V49.0117H154.068V51.7715Z" fill="#7C7F83"/>
<path d="M20.75 85V84.0625L23.6914 81.0977C24.623 80.1309 25.0859 79.5918 25.0859 78.8477C25.0859 78.0098 24.4062 77.4766 23.5156 77.4766C22.5723 77.4766 21.9746 78.0742 21.9688 78.9766H20.75C20.7383 77.4238 21.9219 76.3984 23.5391 76.3984C25.1738 76.3984 26.3047 77.4355 26.3164 78.8125C26.3047 79.7617 25.8594 80.5176 24.2656 82.082L22.543 83.8281V83.8984H26.457V85H20.75ZM30.5998 85.1172C28.637 85.1172 27.4827 83.5352 27.4827 80.7578C27.4827 77.998 28.6487 76.3984 30.5998 76.3984C32.5452 76.3984 33.7112 77.998 33.717 80.7578C33.7112 83.5352 32.5627 85.1172 30.5998 85.1172ZM28.7717 80.7578C28.7659 82.873 29.4514 84.0039 30.5998 84.0039C31.7424 84.0039 32.428 82.873 32.428 80.7578C32.428 78.6484 31.7366 77.4941 30.5998 77.4883C29.4573 77.4941 28.7717 78.6484 28.7717 80.7578ZM34.813 85V84.0625L37.7544 81.0977C38.686 80.1309 39.1489 79.5918 39.1489 78.8477C39.1489 78.0098 38.4692 77.4766 37.5786 77.4766C36.6352 77.4766 36.0376 78.0742 36.0317 78.9766H34.813C34.8013 77.4238 35.9848 76.3984 37.602 76.3984C39.2368 76.3984 40.3677 77.4355 40.3794 78.8125C40.3677 79.7617 39.9223 80.5176 38.3286 82.082L36.6059 83.8281V83.8984H40.52V85H34.813ZM44.5925 85.1172C42.987 85.1172 41.78 84.1387 41.7214 82.7852H42.9753C43.0456 83.5059 43.737 84.0332 44.5925 84.0391C45.6238 84.0332 46.362 83.2891 46.362 82.2812C46.362 81.25 45.6003 80.5 44.5339 80.4883C43.8542 80.4883 43.3327 80.7168 43.0456 81.2383H41.8269L42.3777 76.5156H47.1823V77.6172H43.4441L43.1628 79.9961H43.2448C43.5964 79.6562 44.1941 79.4277 44.8386 79.4219C46.4382 79.4277 47.6159 80.6113 47.6159 82.2461C47.6159 83.916 46.362 85.1172 44.5925 85.1172ZM49.2744 85.082C48.8173 85.0762 48.4365 84.707 48.4423 84.25C48.4365 83.793 48.8173 83.418 49.2744 83.418C49.7255 83.418 50.1005 83.793 50.1064 84.25C50.1005 84.707 49.7255 85.0762 49.2744 85.082ZM56.8686 85.1172C54.9057 85.1172 53.7514 83.5352 53.7514 80.7578C53.7514 77.998 54.9174 76.3984 56.8686 76.3984C58.8139 76.3984 59.9799 77.998 59.9858 80.7578C59.9799 83.5352 58.8315 85.1172 56.8686 85.1172ZM55.0405 80.7578C55.0346 82.873 55.7202 84.0039 56.8686 84.0039C58.0112 84.0039 58.6967 82.873 58.6967 80.7578C58.6967 78.6484 58.0053 77.4941 56.8686 77.4883C55.726 77.4941 55.0405 78.6484 55.0405 80.7578ZM61.1403 85L64.9255 77.6875V77.6172H60.5544V76.5156H66.2614V77.6641L62.488 85H61.1403ZM66.6894 85.082C66.2323 85.0762 65.8515 84.707 65.8573 84.25C65.8515 83.793 66.2323 83.418 66.6894 83.418C67.1405 83.418 67.5155 83.793 67.5214 84.25C67.5155 84.707 67.1405 85.0762 66.6894 85.082ZM71.3305 85V84.0625L74.2719 81.0977C75.2035 80.1309 75.6664 79.5918 75.6664 78.8477C75.6664 78.0098 74.9867 77.4766 74.0961 77.4766C73.1527 77.4766 72.5551 78.0742 72.5492 78.9766H71.3305C71.3187 77.4238 72.5023 76.3984 74.1195 76.3984C75.7543 76.3984 76.8852 77.4355 76.8969 78.8125C76.8852 79.7617 76.4398 80.5176 74.8461 82.082L73.1234 83.8281V83.8984H77.0375V85H71.3305ZM81.1803 85.1172C79.2174 85.1172 78.0631 83.5352 78.0631 80.7578C78.0631 77.998 79.2291 76.3984 81.1803 76.3984C83.1256 76.3984 84.2916 77.998 84.2975 80.7578C84.2916 83.5352 83.1432 85.1172 81.1803 85.1172ZM79.3522 80.7578C79.3463 82.873 80.0319 84.0039 81.1803 84.0039C82.3229 84.0039 83.0084 82.873 83.0084 80.7578C83.0084 78.6484 82.317 77.4941 81.1803 77.4883C80.0377 77.4941 79.3522 78.6484 79.3522 80.7578ZM85.9091 85.082C85.452 85.0762 85.0712 84.707 85.077 84.25C85.0712 83.793 85.452 83.418 85.9091 83.418C86.3602 83.418 86.7352 83.793 86.7411 84.25C86.7352 84.707 86.3602 85.0762 85.9091 85.082ZM95.9816 75.4961V79.7617H97.505V80.6758H95.9816V85.9961H94.8683V75.4961H95.9816ZM87.5441 83.043C89.0792 81.4434 89.6359 79.6387 89.7472 77.5352H87.9191V76.6211H90.8019C90.796 79.2461 90.3273 81.6367 88.423 83.6641L87.5441 83.043ZM90.5441 83.7461C92.1085 81.918 92.5655 79.7734 92.6476 77.5352H91.1417V76.6211H93.6964C93.6964 79.2754 93.3624 82.0762 91.4347 84.3555L90.5441 83.7461ZM101.636 78.5898C101.63 80.3477 102.785 82.1641 104.402 82.8555L103.792 83.7227C102.556 83.1777 101.572 82.0176 101.085 80.6172C100.599 82.1172 99.6146 83.3945 98.39 83.9922L97.7455 83.1133C99.3275 82.3691 100.499 80.4004 100.511 78.5898V77.4766H98.1087V76.5508H104.027V77.4766H101.636V78.5898ZM105.351 85.9961V75.4961H106.464V85.9961H105.351Z" fill="#7C7F83"/>
</svg>
