<svg width="79" height="104" viewBox="0 0 79 104" fill="none" xmlns="http://www.w3.org/2000/svg">
<path d="M3.75 0C6.49267 7.07786 16.5073 7.07786 19.25 0H73C76.3137 0 79 2.68629 79 6V98C79 101.314 76.3137 104 73 104H19.25C16.5073 96.9221 6.49267 96.9221 3.75 104H0V0H3.75Z" fill="#28292A"/>
<path d="M3.75 0C6.49267 7.07786 16.5073 7.07786 19.25 0H73C76.3137 0 79 2.68629 79 6V98C79 101.314 76.3137 104 73 104H19.25C16.5073 96.9221 6.49267 96.9221 3.75 104H0V0H3.75Z" fill="url(#paint0_linear_9981_25383)"/>
<path d="M55.1289 64.8047V65.7422H45.5195V64.8047H48.1445V62.9531H46.6914V59.6133H52.8555V58.1484H46.668V57.2344H53.957V60.5156H47.793V62.0391H54.2031V62.9531H52.6094V64.8047H55.1289ZM49.2227 64.8047H51.5195V62.9531H49.2227V64.8047Z" fill="#7C7F83"/>
<path d="M38.5742 56.9648C40.1094 56.9648 41.1875 57.8086 41.1992 59.0625C41.1875 60.1289 40.3789 60.9082 39.1602 61.1016V62.0391C40.0859 61.9863 41.0234 61.8984 41.8906 61.7695L41.9727 62.5898C39.7695 62.9883 37.2969 63.0293 35.4922 63.0234L35.375 62.1211C36.1602 62.127 37.0801 62.1211 38.0469 62.0859V61.1133C36.793 60.9375 35.9551 60.1465 35.9609 59.0625C35.9551 57.8086 37.0332 56.9648 38.5742 56.9648ZM36.8633 66.7734V63.832H37.9766V65.8594H44.0234V66.7734H36.8633ZM37.0039 59.0625C36.9922 59.8066 37.6484 60.293 38.5742 60.293C39.5059 60.293 40.1445 59.8066 40.1445 59.0625C40.1445 58.3008 39.5059 57.8203 38.5742 57.8203C37.6484 57.8203 36.9922 58.3008 37.0039 59.0625ZM42.5352 64.5352V56.5078H43.6484V59.9766H45.1484V60.9141H43.6484V64.5352H42.5352Z" fill="#7C7F83"/>
<path d="M55.0938 42.6172V43.5196H45.5195V42.6172H47.8164V41.2051C47.002 40.877 46.5449 40.3496 46.5508 39.6524C46.5449 38.4043 47.9922 37.6778 50.3008 37.6836C52.6035 37.6778 54.0449 38.4043 54.0508 39.6524C54.0449 40.3496 53.5879 40.877 52.7734 41.211V42.6172H55.0938ZM46.6562 46.0977C46.6562 44.8965 48.0156 44.2344 50.3008 44.2344C52.5566 44.2344 53.916 44.8965 53.9219 46.0977C53.916 47.3106 52.5566 47.9727 50.3008 47.9727C48.0156 47.9727 46.6562 47.3106 46.6562 46.0977ZM47.6992 39.6524C47.6934 40.3555 48.666 40.7481 50.3008 40.7539C51.9238 40.7481 52.9082 40.3555 52.9023 39.6524C52.9082 38.9493 51.9238 38.545 50.3008 38.5391C48.666 38.545 47.6934 38.9493 47.6992 39.6524ZM47.7812 46.0977C47.7754 46.7539 48.6953 47.1289 50.3008 47.1172C51.8828 47.1289 52.8086 46.7539 52.8086 46.0977C52.8086 45.4532 51.8828 45.0899 50.3008 45.0899C48.6953 45.0899 47.7754 45.4532 47.7812 46.0977ZM48.9414 42.6172H51.6719V41.4981C51.2617 41.5625 50.7988 41.5977 50.3008 41.5977C49.8086 41.5977 49.3516 41.5625 48.9414 41.5039V42.6172Z" fill="#7C7F83"/>
<path d="M39.0312 40.168C39.0195 42.0254 40.1035 43.9297 41.668 44.6914L40.9766 45.582C39.834 44.9844 38.9492 43.8125 38.4863 42.4121C38.0176 43.9004 37.0977 45.1602 35.9023 45.7812L35.2109 44.8789C36.8223 44.1055 37.9121 42.0898 37.918 40.168V38.375H39.0312V40.168ZM42.4531 47.9961V37.4961H43.5664V41.6797H45.2539V42.6289H43.5664V47.9961H42.4531Z" fill="#7C7F83"/>
<path d="M12 14.5H11V12H12V14.5ZM12 24.5H11V19.5H12V24.5ZM12 34.5H11V29.5H12V34.5ZM12 44.5H11V39.5H12V44.5ZM12 54.5H11V49.5H12V54.5ZM12 64.5H11V59.5H12V64.5ZM12 74.5H11V69.5H12V74.5ZM12 84.5H11V79.5H12V84.5ZM12 92H11V89.5H12V92Z" fill="#7C7F83"/>
<defs>
<linearGradient id="paint0_linear_9981_25383" x1="79" y1="34" x2="11.5" y2="34" gradientUnits="userSpaceOnUse">
<stop stop-color="#1F2123"/>
<stop offset="0.999974" stop-color="#1F2123"/>
<stop offset="1" stop-color="#28292A"/>
</linearGradient>
</defs>
</svg>
