<svg width="79" height="104" viewBox="0 0 79 104" fill="none" xmlns="http://www.w3.org/2000/svg">
<path d="M3.75 0C6.49267 7.07786 16.5073 7.07786 19.25 0H73C76.3137 0 79 2.68629 79 6V98C79 101.314 76.3137 104 73 104H19.25C16.5073 96.9221 6.49267 96.9221 3.75 104H0V0H3.75Z" fill="#28292A"/>
<path d="M3.75 0C6.49267 7.07786 16.5073 7.07786 19.25 0H73C76.3137 0 79 2.68629 79 6V98C79 101.314 76.3137 104 73 104H19.25C16.5073 96.9221 6.49267 96.9221 3.75 104H0V0H3.75Z" fill="url(#paint0_linear_9981_25375)"/>
<path d="M55.0938 61.6172V62.5196H45.5195V61.6172H47.8164V60.2051C47.002 59.877 46.5449 59.3496 46.5508 58.6524C46.5449 57.4043 47.9922 56.6778 50.3008 56.6836C52.6035 56.6778 54.0449 57.4043 54.0508 58.6524C54.0449 59.3496 53.5879 59.877 52.7734 60.211V61.6172H55.0938ZM46.6562 65.0977C46.6562 63.8965 48.0156 63.2344 50.3008 63.2344C52.5566 63.2344 53.916 63.8965 53.9219 65.0977C53.916 66.3106 52.5566 66.9727 50.3008 66.9727C48.0156 66.9727 46.6562 66.3106 46.6562 65.0977ZM47.6992 58.6524C47.6934 59.3555 48.666 59.7481 50.3008 59.7539C51.9238 59.7481 52.9082 59.3555 52.9023 58.6524C52.9082 57.9493 51.9238 57.545 50.3008 57.5391C48.666 57.545 47.6934 57.9493 47.6992 58.6524ZM47.7812 65.0977C47.7754 65.7539 48.6953 66.1289 50.3008 66.1172C51.8828 66.1289 52.8086 65.7539 52.8086 65.0977C52.8086 64.4532 51.8828 64.0899 50.3008 64.0899C48.6953 64.0899 47.7754 64.4532 47.7812 65.0977ZM48.9414 61.6172H51.6719V60.4981C51.2617 60.5625 50.7988 60.5977 50.3008 60.5977C49.8086 60.5977 49.3516 60.5625 48.9414 60.5039V61.6172Z" fill="#EE1171"/>
<path d="M39.0312 59.168C39.0195 61.0254 40.1035 62.9297 41.668 63.6914L40.9766 64.582C39.834 63.9844 38.9492 62.8125 38.4863 61.4121C38.0176 62.9004 37.0977 64.1602 35.9023 64.7812L35.2109 63.8789C36.8223 63.1055 37.9121 61.0898 37.918 59.168V57.375H39.0312V59.168ZM42.4531 66.9961V56.4961H43.5664V60.6797H45.2539V61.6289H43.5664V66.9961H42.4531Z" fill="#EE1171"/>
<path d="M54.1914 37.9414V38.8555H52.668V41.0586H54.1445V41.9375H50.8516V43.1211H55.0938V44.0117H45.5195V43.1211H49.75V41.9375H46.4453V41.0586H47.9336V38.8555H46.3984V37.9414H54.1914ZM46.7266 47.7734V44.8555H47.8516V46.8711H54.0156V47.7734H46.7266ZM49.0352 41.0586H51.5547V38.8555H49.0352V41.0586Z" fill="#EE1171"/>
<path d="M43.7773 38.1289V39.0898C43.7832 40.1797 43.7832 41.3926 43.4141 43.1094H44.9609V44.0117H40.7422V47.9844H39.6289V44.0117H35.3867V43.1094H42.3184C42.4824 42.4238 42.5762 41.8086 42.6348 41.252L36.4062 41.5625L36.2656 40.6016L42.6992 40.4023C42.7168 39.9336 42.7227 39.5 42.7227 39.0898V39.0312H36.5703V38.1289H43.7773Z" fill="#EE1171"/>
<path d="M12 14.5H11V12H12V14.5ZM12 24.5H11V19.5H12V24.5ZM12 34.5H11V29.5H12V34.5ZM12 44.5H11V39.5H12V44.5ZM12 54.5H11V49.5H12V54.5ZM12 64.5H11V59.5H12V64.5ZM12 74.5H11V69.5H12V74.5ZM12 84.5H11V79.5H12V84.5ZM12 92H11V89.5H12V92Z" fill="#EE1171"/>
<defs>
<linearGradient id="paint0_linear_9981_25375" x1="79" y1="34" x2="11.5" y2="34" gradientUnits="userSpaceOnUse">
<stop stop-color="#381726"/>
<stop offset="0.999974" stop-color="#381726"/>
<stop offset="1" stop-color="#28292A"/>
</linearGradient>
</defs>
</svg>
