<svg width="24" height="32" viewBox="0 0 24 32" fill="none" xmlns="http://www.w3.org/2000/svg">
<path fill-rule="evenodd" clip-rule="evenodd" d="M0.3634 12.792C0.3634 5.7424 5.5837 0 11.9996 0C18.4156 0 23.6359 5.7424 23.6359 12.8C23.6781 23.104 11.9996 32 11.9996 32C11.9927 31.9946 11.9831 31.9872 11.9709 31.9778C11.2076 31.3856 0.32188 22.9422 0.3634 12.792Z" fill="#EE1171"/>
<path fill-rule="evenodd" clip-rule="evenodd" d="M8.53662 20.9091C9.52178 20.9091 10.3656 19.4146 10.717 17.2933C10.8931 19.0849 11.2772 20.3273 11.7228 20.3273C12.1456 20.3273 12.5132 19.2082 12.7 17.5625C12.8499 18.7054 13.1008 19.4546 13.3851 19.4546C13.8442 19.4546 14.2163 17.5009 14.2163 15.0909C14.2163 12.681 13.8442 10.7273 13.3851 10.7273C13.1008 10.7273 12.8499 11.4765 12.7 12.6194C12.5132 10.9737 12.1456 9.85458 11.7228 9.85458C11.2772 9.85458 10.8931 11.097 10.717 12.8886C10.3656 10.7672 9.52178 9.27277 8.53662 9.27277C7.236 9.27277 6.18164 11.8777 6.18164 15.0909C6.18164 18.3042 7.236 20.9091 8.53662 20.9091ZM15.463 18.5819C15.8456 18.5819 16.1557 17.0841 16.1557 15.2364C16.1557 13.3888 15.8456 11.8909 15.463 11.8909C15.0805 11.8909 14.7704 13.3888 14.7704 15.2364C14.7704 17.0841 15.0805 18.5819 15.463 18.5819ZM17.818 14.9455C17.818 15.8292 17.6319 16.5455 17.4024 16.5455C17.1729 16.5455 16.9868 15.8292 16.9868 14.9455C16.9868 14.0618 17.1729 13.3455 17.4024 13.3455C17.6319 13.3455 17.818 14.0618 17.818 14.9455Z" fill="#17181C"/>
</svg>
