<svg width="16" height="17" viewBox="0 0 16 17" fill="none" xmlns="http://www.w3.org/2000/svg">
<path d="M1.26275 5.17222C3.20001 7.23394 5.92943 8.42555 8.83138 8.41765C11.1216 8.40983 13.2942 7.64943 15.0667 6.25403L14.6197 5.37603C13.004 6.72439 10.9726 7.46125 8.83138 7.46915C6.05492 7.47697 3.45883 6.26971 1.70197 4.20014L1.26275 5.17222ZM0.42353 9.64846C4.50197 13.1291 10.3373 13.7798 15.0432 11.3182L15.0196 10.2442C10.4471 12.8861 4.60393 12.2275 0.658825 8.58228L0.42353 9.64846ZM4.31373 15.0341L5.4353 15.2927C4.90982 14.0306 4.62746 12.6979 4.60393 11.3261C4.38432 7.42994 6.06276 3.71411 9.05887 1.26041L8.05495 0.868446C5.08236 3.50245 3.44314 7.33589 3.65491 11.3417C3.6706 12.596 3.89805 13.8346 4.31373 15.0341ZM9.48239 15.8101L10.3687 15.4182C8.90199 13.3486 8.102 10.8949 8.102 8.33142C8.102 5.90127 8.80789 3.58084 10.1333 1.60534L9.20785 1.27609C7.86668 3.37702 7.15296 5.81503 7.15296 8.33142C7.15296 11.036 7.96861 13.6151 9.48239 15.8101ZM14.102 12.8939L14.7373 12.1727C12.102 10.6597 10.4549 7.89246 10.4157 4.81944C10.4 3.72195 10.5961 2.63229 10.9883 1.62886L10.0706 1.37016C9.65493 2.46766 9.451 3.62787 9.46667 4.82729C9.50589 8.15897 11.2706 11.2006 14.102 12.8939ZM4.59609 8.3236C5.26275 8.3236 5.81177 7.76703 5.81177 7.09284C5.81177 6.41866 5.26275 5.86991 4.59609 5.86991C3.91374 5.86991 3.36471 6.41866 3.36471 7.09284C3.36471 7.76703 3.91374 8.3236 4.59609 8.3236ZM10.604 8.97429C11.2628 8.97429 11.8039 8.43337 11.8039 7.7592C11.8039 7.10068 11.2628 6.55976 10.604 6.55976C9.92941 6.55976 9.38823 7.10068 9.38823 7.7592C9.38823 8.43337 9.92941 8.97429 10.604 8.97429ZM8.26671 13.5054C8.94121 13.5054 9.48239 12.9645 9.48239 12.2825C9.48239 11.6083 8.94121 11.0595 8.26671 11.0595C7.58431 11.0595 7.0353 11.6083 7.0353 12.2825C7.0353 12.9645 7.58431 13.5054 8.26671 13.5054ZM8 16.4921C12.3765 16.4921 16 12.8626 16 8.49605C16 4.12175 12.3687 0.5 7.99217 0.5C3.62353 0.5 0 4.12175 0 8.49605C0 12.8626 3.63138 16.4921 8 16.4921ZM8 15.426C4.21177 15.426 1.06667 12.2825 1.06667 8.49605C1.06667 4.7097 4.20393 1.56614 7.99217 1.56614C11.7804 1.56614 14.9334 4.7097 14.9334 8.49605C14.9334 12.2825 11.7883 15.426 8 15.426Z" fill="#979A9F"/>
</svg>
