<svg width="21" height="21" viewBox="0 0 21 21" fill="none" xmlns="http://www.w3.org/2000/svg">
<path d="M10.5 18.9006C7.0262 18.9006 4.19995 16.2388 4.19995 12.967C4.19995 8.40059 10.5 2.10059 10.5 2.10059C10.5 2.10059 16.8 8.40059 16.8 12.967C16.8 16.2388 13.9738 18.9006 10.5 18.9006Z" fill="#17181C"/>
<path d="M10.5 18.9006C8.7631 18.9006 7.34995 17.5697 7.34995 15.9338C7.34995 13.6506 10.5 10.5006 10.5 10.5006C10.5 10.5006 13.65 13.6506 13.65 15.9338C13.65 17.5697 12.2369 18.9006 10.5 18.9006Z" fill="#17181C"/>
<path d="M10.5 18.9006C7.0262 18.9006 4.19995 16.2388 4.19995 12.967C4.19995 8.40059 10.5 2.10059 10.5 2.10059C10.5 2.10059 16.8 8.40059 16.8 12.967C16.8 16.2388 13.9738 18.9006 10.5 18.9006ZM10.5 18.9006C8.7631 18.9006 7.34995 17.5697 7.34995 15.9338C7.34995 13.6506 10.5 10.5006 10.5 10.5006C10.5 10.5006 13.65 13.6506 13.65 15.9338C13.65 17.5697 12.2369 18.9006 10.5 18.9006Z" stroke="#17181C" stroke-width="1.575" stroke-linejoin="round"/>
<path d="M10.5 17.7945C8.76313 17.7945 7.34998 16.4636 7.34998 14.8277C7.34998 12.5445 10.5 9.39453 10.5 9.39453C10.5 9.39453 13.65 12.5445 13.65 14.8277C13.65 16.4636 12.2369 17.7945 10.5 17.7945Z" fill="#EE1171" stroke="#EE1171" stroke-width="1.32632" stroke-linejoin="round"/>
</svg>
