<svg width="21" height="21" viewBox="0 0 21 21" fill="none" xmlns="http://www.w3.org/2000/svg">
<path d="M10.5001 18.9006C7.02633 18.9006 4.20007 16.2388 4.20007 12.967C4.20007 8.40059 10.5002 2.10059 10.5002 2.10059C10.5002 2.10059 16.8001 8.40059 16.8001 12.967C16.8001 16.2388 13.9739 18.9006 10.5001 18.9006Z" fill="#313335"/>
<path d="M10.5001 18.9006C8.76322 18.9006 7.35007 17.5697 7.35007 15.9338C7.35007 13.6506 10.5001 10.5006 10.5001 10.5006C10.5001 10.5006 13.6501 13.6506 13.6501 15.9338C13.6501 17.5697 12.237 18.9006 10.5001 18.9006Z" fill="#313335"/>
<path d="M10.5001 18.9006C7.02633 18.9006 4.20007 16.2388 4.20007 12.967C4.20007 8.40059 10.5002 2.10059 10.5002 2.10059C10.5002 2.10059 16.8001 8.40059 16.8001 12.967C16.8001 16.2388 13.9739 18.9006 10.5001 18.9006ZM10.5001 18.9006C8.76322 18.9006 7.35007 17.5697 7.35007 15.9338C7.35007 13.6506 10.5001 10.5006 10.5001 10.5006C10.5001 10.5006 13.6501 13.6506 13.6501 15.9338C13.6501 17.5697 12.237 18.9006 10.5001 18.9006Z" stroke="#313335" stroke-width="1.575" stroke-linejoin="round"/>
<path d="M10.5 17.7945C8.76313 17.7945 7.34998 16.4636 7.34998 14.8277C7.34998 12.5445 10.5 9.39453 10.5 9.39453C10.5 9.39453 13.65 12.5445 13.65 14.8277C13.65 16.4636 12.2369 17.7945 10.5 17.7945Z" fill="#7C7F83" stroke="#7C7F83" stroke-width="1.32632" stroke-linejoin="round"/>
</svg>
