<svg width="33" height="32" viewBox="0 0 33 32" fill="none" xmlns="http://www.w3.org/2000/svg">
<path d="M16.5002 27.7008C11.8684 27.7008 8.1001 24.1517 8.1001 19.7893C8.1001 13.7008 16.5002 5.30078 16.5002 5.30078C16.5002 5.30078 24.9001 13.7008 24.9001 19.7893C24.9001 24.1517 21.1319 27.7008 16.5002 27.7008Z" fill="#7C7F83"/>
<path d="M16.5002 27.7008C14.1843 27.7008 12.3001 25.9262 12.3001 23.745C12.3001 20.7008 16.5002 16.5008 16.5002 16.5008C16.5002 16.5008 20.7001 20.7008 20.7001 23.745C20.7001 25.9263 18.816 27.7008 16.5002 27.7008Z" fill="#7C7F83"/>
<path d="M16.5002 27.7008C11.8684 27.7008 8.1001 24.1517 8.1001 19.7893C8.1001 13.7008 16.5002 5.30078 16.5002 5.30078C16.5002 5.30078 24.9001 13.7008 24.9001 19.7893C24.9001 24.1517 21.1319 27.7008 16.5002 27.7008ZM16.5002 27.7008C14.1843 27.7008 12.3001 25.9262 12.3001 23.745C12.3001 20.7008 16.5002 16.5008 16.5002 16.5008C16.5002 16.5008 20.7001 20.7008 20.7001 23.745C20.7001 25.9263 18.816 27.7008 16.5002 27.7008Z" stroke="#7C7F83" stroke-width="2.1" stroke-linejoin="round"/>
<path d="M16.4996 26.2254C14.1838 26.2254 12.2996 24.4508 12.2996 22.2696C12.2996 19.2254 16.4996 15.0254 16.4996 15.0254C16.4996 15.0254 20.6996 19.2254 20.6996 22.2696C20.6996 24.4509 18.8155 26.2254 16.4996 26.2254Z" fill="#17181C" stroke="#17181C" stroke-width="1.76842" stroke-linejoin="round"/>
</svg>
