<svg width="16" height="17" viewBox="0 0 16 17" fill="none" xmlns="http://www.w3.org/2000/svg">
<path d="M6.05455 16.5C6.45386 16.5 6.76959 16.3332 6.99246 16.0084L15.7678 2.94821C15.935 2.69368 16 2.50059 16 2.29872C16 1.81597 15.6657 1.5 15.155 1.5C14.7835 1.5 14.5792 1.6141 14.3564 1.94763L6.01741 14.5076L1.69007 9.1536C1.45792 8.84637 1.22577 8.72354 0.891469 8.72354C0.362159 8.72354 0 9.06582 0 9.54853C0 9.75045 0.0928617 9.97867 0.269298 10.1893L5.0888 15.9909C5.36739 16.3332 5.65526 16.5 6.05455 16.5Z" fill="#4B4D4F"/>
</svg>
