<svg width="32" height="32" viewBox="0 0 32 32" fill="none" xmlns="http://www.w3.org/2000/svg">
<rect width="32" height="32" rx="16" fill="white"/>
<circle cx="16" cy="10.4015" r="4" fill="#17181C"/>
<path fill-rule="evenodd" clip-rule="evenodd" d="M15.9918 26C17.0105 26 17.9112 25.1626 18.4572 23.8804C18.7687 24.8185 19.2749 25.4288 19.8464 25.4288C20.7932 25.4288 21.5607 23.7542 21.5607 21.6885C21.5607 19.6228 20.7932 17.9482 19.8464 17.9482C19.4155 17.9482 19.0217 18.2952 18.7205 18.868C18.2378 17.1729 17.1974 16 15.9918 16C14.7861 16 13.7457 17.1729 13.263 18.8679C12.9619 18.2951 12.5681 17.9482 12.1372 17.9482C11.1904 17.9482 10.4229 19.6228 10.4229 21.6885C10.4229 23.7542 11.1904 25.4288 12.1372 25.4288C12.7087 25.4288 13.2149 24.8186 13.5264 23.8805C14.0724 25.1627 14.9731 26 15.9918 26ZM8.64095 25.4298C9.30719 25.4298 9.84729 24.3832 9.84729 23.0921C9.84729 21.8011 9.30719 20.7545 8.64095 20.7545C7.9747 20.7545 7.4346 21.8011 7.4346 23.0921C7.4346 24.3832 7.9747 25.4298 8.64095 25.4298ZM24.3952 23.0921C24.3952 24.3832 23.8888 25.4298 23.2642 25.4298C22.6396 25.4298 22.1333 24.3832 22.1333 23.0921C22.1333 21.8011 22.6396 20.7545 23.2642 20.7545C23.8888 20.7545 24.3952 21.8011 24.3952 23.0921Z" fill="#17181C"/>
</svg>
