<svg width="16" height="17" viewBox="0 0 16 17" fill="none" xmlns="http://www.w3.org/2000/svg">
<g clip-path="url(#clip0_833_16000)">
<path d="M4.38402 12.2532C6.87809 14.6503 9.90719 16.5 12.384 16.5C13.4973 16.5 14.4724 16.1267 15.2578 15.2972C15.7151 14.8079 16 14.2356 16 13.6716C16 13.2568 15.836 12.8587 15.4304 12.5767L12.781 10.7685C12.384 10.5031 12.0388 10.3704 11.7281 10.3704C11.3398 10.3704 10.986 10.586 10.589 10.9593L9.97627 11.5399C9.88134 11.6312 9.7605 11.6726 9.64834 11.6726C9.51888 11.6726 9.38941 11.6228 9.3031 11.5813C8.76802 11.3076 7.8533 10.5528 6.99891 9.74002C6.15317 8.92712 5.36784 8.04797 5.09168 7.53369C5.04854 7.44244 4.99676 7.32632 4.99676 7.20191C4.99676 7.09408 5.03127 6.98625 5.12621 6.89502L5.73893 6.28952C6.11865 5.90797 6.35166 5.5762 6.35166 5.19465C6.35166 4.89605 6.21358 4.57257 5.92016 4.18273L4.06472 1.66951C3.7713 1.27138 3.3398 1.0972 2.87378 1.0972C2.30421 1.0972 1.71736 1.34603 1.20819 1.81881C0.371089 2.59019 0 3.54406 0 4.59745C0 6.97796 1.88997 9.86445 4.38402 12.2532Z" fill="#979A9F"/>
</g>
<defs>
<clipPath id="clip0_833_16000">
<rect width="16" height="16" fill="white" transform="translate(0 0.5)"/>
</clipPath>
</defs>
</svg>
