<svg width="20" height="20" viewBox="0 0 20 20" fill="none" xmlns="http://www.w3.org/2000/svg">
<path d="M5.85961 10.4374H2.90249C2.65779 10.4374 2.45892 10.2412 2.45892 9.99982C2.45892 9.75839 2.65779 9.56218 2.90249 9.56218H5.6223L6.67355 8.0064C6.80958 7.80509 7.08459 7.75112 7.28863 7.88533C7.33743 7.91742 7.37883 7.95899 7.41135 8.0064L9.40815 10.9611L10.2221 9.75693C10.3042 9.63512 10.4431 9.56218 10.591 9.56218H12.3653C12.61 9.56218 12.8088 9.75839 12.8088 9.99982C12.8088 10.2412 12.61 10.4374 12.3653 10.4374H10.8283L9.77705 11.9932C9.64102 12.1945 9.36601 12.2485 9.16197 12.1143C9.11318 12.0822 9.07178 12.0406 9.03925 11.9932L7.04245 9.03849L6.22851 10.2427C6.14645 10.3645 6.00746 10.4374 5.85961 10.4374ZM13.5481 3.14286C12.1265 3.14067 10.7965 3.83505 9.99957 4.9955C8.66813 3.06335 6.00081 2.56154 4.04098 3.87516C2.867 4.6629 2.16321 5.97288 2.16321 7.37403C2.16321 7.47833 2.16617 7.58482 2.17208 7.69058C2.18539 7.93201 2.3946 8.11654 2.6393 8.10341C2.88401 8.09028 3.07104 7.88387 3.05774 7.64244C3.05774 7.64244 3.05774 7.64171 3.05774 7.64098C3.05256 7.55273 3.05034 7.46301 3.05034 7.37476C3.05034 5.52139 4.574 4.01958 6.45251 4.01958C7.82461 4.01958 9.06217 4.83285 9.59075 6.08228C9.68538 6.30548 9.94487 6.41051 10.1711 6.31715C10.279 6.27265 10.364 6.18804 10.4091 6.08228C11.1329 4.37187 13.1252 3.56444 14.8589 4.27924C16.1245 4.80075 16.9488 6.02174 16.9495 7.37548C16.9495 11.5571 11.1979 15.1989 10.0003 15.9122C9.28839 15.4892 6.96926 14.0348 5.2083 12.0472C5.04714 11.8656 4.76695 11.8466 4.58213 12.0056C4.39731 12.1646 4.37883 12.4411 4.53999 12.6234C6.73861 15.1048 9.66024 16.7335 9.7837 16.8013C9.91825 16.8757 10.0824 16.8757 10.2169 16.8013C11.5646 16.0224 12.8303 15.1114 13.9932 14.0829C16.5437 11.8182 17.8367 9.56145 17.8367 7.37548C17.833 5.03853 15.9153 3.14578 13.5481 3.14286Z" fill="#EE1171"/>
</svg>
