<svg width="16" height="14" viewBox="0 0 16 14" fill="none" xmlns="http://www.w3.org/2000/svg">
<path d="M3.85948 7.43717H0.902366C0.657664 7.43717 0.458798 7.24097 0.458798 6.99954C0.458798 6.75811 0.657664 6.56191 0.902366 6.56191H3.62218L4.67343 5.00613C4.80946 4.80482 5.08447 4.75084 5.28851 4.88505C5.3373 4.91714 5.3787 4.95872 5.41123 5.00613L7.40803 7.96087L8.22197 6.75666C8.30403 6.63485 8.44302 6.56191 8.59087 6.56191H10.3651C10.6098 6.56191 10.8087 6.75811 10.8087 6.99954C10.8087 7.24097 10.6098 7.43717 10.3651 7.43717H8.82818L7.77693 8.99295C7.6409 9.19426 7.36589 9.24824 7.16185 9.11403C7.11305 9.08194 7.07165 9.04036 7.03913 8.99295L5.04233 6.03821L4.22839 7.24243C4.14633 7.36423 4.00734 7.43717 3.85948 7.43717ZM11.548 0.142583C10.1264 0.140395 8.79639 0.834771 7.99945 1.99522C6.66801 0.0630802 4.00069 -0.438737 2.04086 0.874887C0.86688 1.66262 0.163086 2.9726 0.163086 4.37375C0.163086 4.47805 0.166043 4.58454 0.171957 4.6903C0.185264 4.93173 0.39448 5.11627 0.639182 5.10314C0.883884 5.09001 1.07092 4.88359 1.05761 4.64217C1.05761 4.64217 1.05761 4.64144 1.05761 4.64071C1.05244 4.55245 1.05022 4.46274 1.05022 4.37448C1.05022 2.52111 2.57388 1.01931 4.45239 1.01931C5.82449 1.01931 7.06204 1.83257 7.59063 3.08201C7.68526 3.3052 7.94474 3.41023 8.17096 3.31687C8.2789 3.27238 8.36392 3.18777 8.40901 3.08201C9.13277 1.3716 11.1251 0.564168 12.8587 1.27897C14.1244 1.80048 14.9487 3.02147 14.9494 4.37521C14.9494 8.55678 9.19782 12.1986 8.00019 12.9119C7.28826 12.4889 4.96914 11.0345 3.20818 9.04693C3.04702 8.86531 2.76683 8.84635 2.58201 9.00535C2.39719 9.16436 2.37871 9.4408 2.53987 9.62314C4.73849 12.1045 7.66012 13.7332 7.78358 13.8011C7.91813 13.8755 8.08225 13.8755 8.2168 13.8011C9.56451 13.0221 10.8302 12.1111 11.993 11.0826C14.5436 8.8179 15.8366 6.56118 15.8366 4.37521C15.8329 2.03826 13.9152 0.145501 11.548 0.142583Z" fill="#EE1171"/>
</svg>
