<svg width="20" height="20" viewBox="0 0 20 20" fill="none" xmlns="http://www.w3.org/2000/svg">
<path d="M3.41119 20H16.5888C18.8702 20 20 18.8714 20 16.6358V3.38577C20 1.15029 18.8702 0.021698 16.5888 0.021698H3.41119C1.14069 0.021698 0 1.13944 0 3.38577V16.6358C0 18.8822 1.14069 20 3.41119 20Z" fill="#EE1171"/>
<path d="M10.6138 15.3228C10.0489 15.3228 9.72302 14.943 9.72302 14.3136V6.61963H9.64691L8.20209 7.57459C7.94136 7.74822 7.82186 7.76992 7.64804 7.76992C7.28954 7.76992 7.00708 7.44436 7.00708 7.0971C7.00708 6.81496 7.11572 6.65218 7.35472 6.4677L9.37538 5.10036C9.85336 4.77481 10.1467 4.66629 10.5703 4.66629C11.1787 4.66629 11.5264 5.0244 11.5264 5.67552V14.3136C11.5264 14.943 11.1896 15.3228 10.6138 15.3228Z" fill="#ffffff"/>
</svg>
