<svg width="20" height="20" viewBox="0 0 20 20" fill="none" xmlns="http://www.w3.org/2000/svg">
<path d="M3.41119 20H16.5888C18.8702 20 20 18.8714 20 16.6359V3.3858C20 1.15032 18.8702 0.0217285 16.5888 0.0217285H3.41119C1.14069 0.0217285 0 1.13947 0 3.3858V16.6359C0 18.8822 1.14069 20 3.41119 20Z" fill="#EE1171"/>
<path d="M10.0489 15.3229C8.20208 15.3229 6.74634 14.4439 6.40957 13.1524C6.37698 12.9897 6.36612 12.892 6.36612 12.7293C6.36612 12.2735 6.68116 11.9588 7.13744 11.9588C7.52853 11.9588 7.76753 12.1433 7.90876 12.534C8.19122 13.3044 8.8539 13.8904 10.0815 13.8904C11.3851 13.8904 12.2651 13.2393 12.2651 12.23C12.2651 11.2209 11.3851 10.5263 10.125 10.5263H9.36452C8.96254 10.5263 8.65835 10.2333 8.65835 9.84265C8.65835 9.41946 8.96254 9.13729 9.36452 9.13729H10.0706C11.1353 9.13729 11.9175 8.46447 11.9175 7.54206C11.9175 6.64136 11.2222 6.08792 10.1032 6.08792C9.07117 6.08792 8.36504 6.6088 8.12603 7.44439C7.9848 7.83507 7.7458 8.0304 7.34385 8.0304C6.89844 8.0304 6.58339 7.72654 6.58339 7.28162C6.58339 7.11884 6.59425 6.99947 6.63771 6.83669C6.93103 5.51276 8.31071 4.66632 10.1358 4.66632C12.1456 4.66632 13.5796 5.78406 13.5796 7.34673C13.5796 8.51873 12.7105 9.54966 11.5807 9.71245V9.79922C12.9386 9.92951 13.9381 10.9821 13.9381 12.2951C13.9381 14.064 12.4498 15.3229 10.0489 15.3229Z" fill="#ffffff"/>
</svg>
