<svg width="20" height="20" viewBox="0 0 20 20" fill="none" xmlns="http://www.w3.org/2000/svg">
<path d="M3.41119 20H16.5888C18.8702 20 20 18.8714 20 16.6359V3.3858C20 1.15032 18.8702 0.0217285 16.5888 0.0217285H3.41119C1.14069 0.0217285 0 1.13947 0 3.3858V16.6359C0 18.8822 1.14069 20 3.41119 20Z" fill="#EE1171"/>
<path d="M7.46333 15.0732C6.9636 15.0732 6.65942 14.7911 6.65942 14.3354C6.65942 14.1075 6.76806 13.8796 6.9636 13.6625L10.5378 9.83181C11.2004 9.13729 11.8957 8.45362 11.8957 7.63973C11.8957 6.71733 11.1787 6.09877 10.1141 6.09877C9.03856 6.09877 8.44106 6.81499 8.14774 7.48781C7.95219 7.80251 7.75665 8.0521 7.35469 8.0521C6.90928 8.0521 6.61597 7.76995 6.61597 7.33588C6.61597 7.18395 6.62683 7.05373 6.68115 6.8801C7.05051 5.63214 8.45193 4.66632 10.038 4.66632C12.113 4.66632 13.4818 5.80577 13.4818 7.49866C13.4818 8.74662 12.7866 9.63642 11.798 10.6891L9.1472 13.5215V13.5974H13.2211C13.6665 13.5974 13.9815 13.8687 13.9815 14.3354C13.9815 14.7911 13.6665 15.0732 13.2211 15.0732H7.46333Z" fill="#ffffff"/>
</svg>
