<svg width="24" height="24" viewBox="0 0 24 24" fill="none" xmlns="http://www.w3.org/2000/svg">
<path d="M10.0049 4.0002C8.41264 4.0002 6.88558 4.63277 5.75967 5.75874C4.63376 6.88471 4.00123 8.41186 4.00123 10.0042C4.00123 11.5966 4.63376 13.1237 5.75967 14.2497C6.88558 15.3757 8.41264 16.0083 10.0049 16.0083C11.5972 16.0083 13.1243 15.3757 14.2502 14.2497C15.3761 13.1237 16.0086 11.5966 16.0086 10.0042C16.0086 8.41186 15.3761 6.88471 14.2502 5.75874C13.1243 4.63277 11.5972 4.0002 10.0049 4.0002ZM2 10.0042C2.00018 8.73024 2.30441 7.47468 2.88738 6.34191C3.47036 5.20915 4.31526 4.23188 5.35186 3.49134C6.38846 2.7508 7.58683 2.26837 8.84736 2.08414C10.1079 1.89992 11.3942 2.01921 12.5993 2.43212C13.8045 2.84503 14.8937 3.53962 15.7765 4.45817C16.6592 5.37673 17.31 6.49271 17.6747 7.71337C18.0395 8.93403 18.1076 10.2241 17.8735 11.4764C17.6394 12.7287 17.1099 13.9071 16.3288 14.9135L21.7191 20.3041C21.9014 20.4929 22.0022 20.7456 22 21.008C21.9977 21.2704 21.8924 21.5214 21.7069 21.7069C21.5214 21.8924 21.2704 21.9977 21.0081 22C20.7457 22.0022 20.493 21.9014 20.3042 21.7191L14.9139 16.3285C13.7307 17.2472 12.3134 17.8154 10.8232 17.9686C9.33301 18.1217 7.82977 17.8536 6.4844 17.1947C5.13903 16.5359 4.00552 15.5127 3.21277 14.2416C2.42002 12.9704 1.99983 11.5023 2 10.0042Z" fill="white"/>
</svg>
