<svg width="32" height="32" viewBox="0 0 32 32" fill="none" xmlns="http://www.w3.org/2000/svg">
<g opacity="0.8">
<path d="M23.3511 27C22.3316 27 21.465 26.6646 20.7513 25.9937C20.0377 25.3229 19.6809 24.5083 19.6809 23.55C19.6809 23.4158 19.691 23.2767 19.7114 23.1325C19.7318 22.9884 19.7624 22.8592 19.8032 22.745L11.1782 18.03C10.8316 18.3175 10.4441 18.5429 10.016 18.7062C9.58777 18.8695 9.13918 18.9508 8.67021 18.95C7.65071 18.95 6.78413 18.6146 6.07048 17.9437C5.35683 17.2729 5 16.4583 5 15.5C5 14.5417 5.35683 13.7271 6.07048 13.0562C6.78413 12.3854 7.65071 12.05 8.67021 12.05C9.13918 12.05 9.58777 12.1316 10.016 12.295C10.4441 12.4583 10.8316 12.6833 11.1782 12.97L19.8032 8.255C19.7624 8.14 19.7318 8.01082 19.7114 7.86745C19.691 7.72408 19.6809 7.58493 19.6809 7.45C19.6809 6.49167 20.0377 5.67708 20.7513 5.00625C21.465 4.33542 22.3316 4 23.3511 4C24.3706 4 25.2371 4.33542 25.9508 5.00625C26.6644 5.67708 27.0213 6.49167 27.0213 7.45C27.0213 8.40833 26.6644 9.22292 25.9508 9.89375C25.2371 10.5646 24.3706 10.9 23.3511 10.9C22.8821 10.9 22.4335 10.8187 22.0053 10.6562C21.5771 10.4937 21.1897 10.2683 20.8431 9.98L12.2181 14.695C12.2589 14.81 12.2895 14.9396 12.3098 15.0837C12.3302 15.2278 12.3404 15.3666 12.3404 15.5C12.3404 15.6334 12.3302 15.7725 12.3098 15.9174C12.2895 16.0623 12.2589 16.1915 12.2181 16.305L20.8431 21.02C21.1897 20.7325 21.5771 20.5075 22.0053 20.3449C22.4335 20.1824 22.8821 20.1008 23.3511 20.1C24.3706 20.1 25.2371 20.4354 25.9508 21.1063C26.6644 21.7771 27.0213 22.5917 27.0213 23.55C27.0213 24.5083 26.6644 25.3229 25.9508 25.9937C25.2371 26.6646 24.3706 27 23.3511 27Z" fill="white"/>
</g>
</svg>
