<svg width="26" height="26" viewBox="0 0 26 26" fill="none" xmlns="http://www.w3.org/2000/svg">
<mask id="mask0_10459_7253" style="mask-type:alpha" maskUnits="userSpaceOnUse" x="0" y="0" width="26" height="26">
<rect width="26" height="26" fill="#D9D9D9"/>
</mask>
<g mask="url(#mask0_10459_7253)">
<path d="M21.8213 16.9189C22.0392 16.9189 22.2266 16.9933 22.376 17.1426C22.5253 17.2919 22.5995 17.4794 22.5996 17.6973V20.3076C22.5996 20.9572 22.3817 21.505 21.9434 21.9434C21.505 22.3817 20.9572 22.5996 20.3076 22.5996H5.69238C5.0428 22.5996 4.49496 22.3817 4.05664 21.9434C3.61832 21.505 3.40041 20.9572 3.40039 20.3076V17.6973C3.4005 17.4794 3.47468 17.2919 3.62402 17.1426C3.77343 16.9933 3.96076 16.9189 4.17871 16.9189C4.39667 16.919 4.584 16.9933 4.7334 17.1426C4.88274 17.2919 4.95692 17.4794 4.95703 17.6973V20.3076C4.95705 20.4854 5.02974 20.6528 5.18848 20.8115C5.34721 20.9703 5.5146 21.0429 5.69238 21.043H20.3076C20.4854 21.0429 20.6528 20.9703 20.8115 20.8115C20.9703 20.6528 21.0429 20.4854 21.043 20.3076V17.6973C21.0431 17.4794 21.1173 17.2919 21.2666 17.1426C21.416 16.9933 21.6033 16.919 21.8213 16.9189ZM13 3.40039C13.1572 3.40039 13.3043 3.42591 13.4404 3.47852C13.5797 3.53259 13.7121 3.62451 13.8379 3.75L17.3926 7.30469C17.5566 7.46844 17.6458 7.65355 17.6426 7.85742C17.6396 8.0586 17.5515 8.24157 17.3936 8.40527L17.3926 8.40723C17.227 8.57275 17.0353 8.65855 16.8213 8.65137C16.6135 8.64436 16.4326 8.56437 16.2832 8.41504L13.7783 5.91016V16.7295C13.7783 16.9476 13.7041 17.1347 13.5547 17.2842C13.4052 17.4336 13.2181 17.5078 13 17.5078C12.7819 17.5078 12.5948 17.4336 12.4453 17.2842C12.2959 17.1347 12.2217 16.9476 12.2217 16.7295V5.91016L9.7168 8.41504C9.55273 8.57902 9.36611 8.66702 9.16016 8.66406C8.9558 8.66078 8.77088 8.57063 8.60742 8.40723L8.60645 8.40527C8.44654 8.23958 8.36306 8.05027 8.37012 7.83984C8.37713 7.63397 8.45797 7.45388 8.60742 7.30469L12.1621 3.75L12.2578 3.66211C12.3545 3.58081 12.4552 3.51905 12.5596 3.47852C12.6957 3.42591 12.8428 3.40039 13 3.40039Z" fill="white" stroke="white" stroke-width="0.2"/>
</g>
</svg>
