<svg width="16" height="17" viewBox="0 0 16 17" fill="none" xmlns="http://www.w3.org/2000/svg">
<path d="M0 13.2H12V15.6H0V13.2ZM14.8 13.2H16V15.6H14.8V13.2ZM12.8 13.2H14V15.6H12.8V13.2ZM13.48 6.584C13.976 6.096 14.28 5.424 14.28 4.68C14.28 3.2 13.08 2 11.6 2V3.2C12.4 3.2 13.08 3.864 13.08 4.68C13.08 5.496 12.4 6.16 11.6 6.16V7.36C13.392 7.36 14.8 8.824 14.8 10.616V12.4H16V10.608C16 8.832 14.976 7.296 13.48 6.584ZM11.224 8.56H10C9.2 8.56 8.52 7.776 8.52 6.96C8.52 6.144 9.2 5.56 10 5.56V4.36C9.28922 4.36 8.60755 4.64236 8.10495 5.14495C7.60236 5.64755 7.32 6.32922 7.32 7.04C7.32 7.75078 7.60236 8.43245 8.10495 8.93505C8.60755 9.43764 9.28922 9.72 10 9.72H11.224C12.064 9.72 12.8 10.312 12.8 11.36V12.4H14V11.088C14 9.64 12.72 8.56 11.224 8.56Z" fill="#7C7F83"/>
</svg>
