<svg width="21" height="20" viewBox="0 0 21 20" fill="none" xmlns="http://www.w3.org/2000/svg">
<g id="icon" clip-path="url(#clip0_2737_6755)">
<path id="Vector" d="M0.375 15H15.375V18H0.375V15ZM18.875 15H20.375V18H18.875V15ZM16.375 15H17.875V18H16.375V15ZM17.225 6.73C17.845 6.12 18.225 5.28 18.225 4.35C18.225 2.5 16.725 1 14.875 1V2.5C15.875 2.5 16.725 3.33 16.725 4.35C16.725 5.37 15.875 6.2 14.875 6.2V7.7C17.115 7.7 18.875 9.53 18.875 11.77V14H20.375V11.76C20.375 9.54 19.095 7.62 17.225 6.73ZM14.405 9.2H12.875C11.875 9.2 11.025 8.22 11.025 7.2C11.025 6.18 11.875 5.45 12.875 5.45V3.95C11.9865 3.95 11.1344 4.30295 10.5062 4.93119C9.87794 5.55944 9.525 6.41153 9.525 7.3C9.525 8.18848 9.87794 9.04056 10.5062 9.66881C11.1344 10.2971 11.9865 10.65 12.875 10.65H14.405C15.455 10.65 16.375 11.39 16.375 12.7V14H17.875V12.36C17.875 10.55 16.275 9.2 14.405 9.2Z" fill="#EE1171"/>
</g>
<defs>
<clipPath id="clip0_2737_6755">
<rect width="20" height="20" fill="white" transform="translate(0.5)"/>
</clipPath>
</defs>
</svg>
