<svg xmlns="http://www.w3.org/2000/svg" width="30" height="30" viewBox="0 0 30 30" fill="none">
  <mask id="mask0_9855_7356" style="mask-type:alpha" maskUnits="userSpaceOnUse" x="0" y="0" width="30" height="30">
    <rect width="30" height="30" fill="#D9D9D9"/>
  </mask>
  <g mask="url(#mask0_9855_7356)">
    <path d="M17.549 25.137V23.1995C19.3519 22.626 20.8042 21.5843 21.9059 20.0745C23.0077 18.5649 23.5587 16.8631 23.5587 14.9689C23.5587 13.0747 23.0077 11.3729 21.9059 9.86328C20.8042 8.35349 19.3519 7.31182 17.549 6.73828V4.80078C19.8759 5.42411 21.7717 6.67328 23.2365 8.54828C24.7011 10.4233 25.4334 12.5635 25.4334 14.9689C25.4334 17.3743 24.7011 19.5145 23.2365 21.3895C21.7717 23.2645 19.8759 24.5137 17.549 25.137ZM4.56836 18.1252V11.8752H9.20773L14.568 6.51484V23.4855L9.20773 18.1252H4.56836ZM17.549 19.5673V10.3705C18.3919 10.8288 19.0434 11.4742 19.5034 12.3067C19.9632 13.1392 20.193 14.037 20.193 15.0002C20.193 15.9504 19.9611 16.8345 19.4971 17.6527C19.0332 18.4708 18.3838 19.109 17.549 19.5673Z" fill="#EE1171"/>
  </g>
</svg>