<svg width="24" height="24" viewBox="0 0 24 24" fill="none" xmlns="http://www.w3.org/2000/svg">
<mask id="mask0_10314_7237" style="mask-type:alpha" maskUnits="userSpaceOnUse" x="0" y="0" width="24" height="24">
<rect width="24" height="24" fill="#D9D9D9"/>
</mask>
<g mask="url(#mask0_10314_7237)">
<path d="M4.08898 21.0418C3.74918 21.1172 3.4566 21.0322 3.21124 20.7868C2.96588 20.5414 2.88088 20.2489 2.95626 19.9091L3.85057 15.616L8.38202 20.1475L4.08898 21.0418ZM8.38202 20.1475L3.85057 15.616L15.8452 3.62136C16.2139 3.25269 16.6703 3.06836 17.2145 3.06836C17.7587 3.06836 18.2151 3.25269 18.5838 3.62136L20.3767 5.41427C20.7454 5.78293 20.9297 6.23936 20.9297 6.78354C20.9297 7.32771 20.7454 7.78414 20.3767 8.1528L8.38202 20.1475ZM16.9884 4.74821L6.05669 15.6695L8.32856 17.9414L19.2498 7.00965C19.3115 6.948 19.3423 6.87093 19.3423 6.77846C19.3423 6.6858 19.3115 6.60865 19.2498 6.54699L17.4511 4.74821C17.3894 4.68655 17.3122 4.65573 17.2196 4.65573C17.1271 4.65573 17.05 4.68655 16.9884 4.74821Z" fill="white"/>
</g>
</svg>
