<svg width="42" height="40" viewBox="0 0 42 40" fill="none" xmlns="http://www.w3.org/2000/svg">
<g id="Headers/Symbol">
<path id="Union" fill-rule="evenodd" clip-rule="evenodd" d="M8.5 40C12.0558 40 15.1016 34.8627 16.3699 27.5706C17.0053 33.7292 18.3918 38 20 38C21.5263 38 22.853 34.153 23.5273 28.496C24.0682 32.4246 24.974 35 26 35C27.6569 35 29 28.2843 29 20C29 11.7157 27.6569 5 26 5C24.974 5 24.0682 7.57545 23.5273 11.504C22.853 5.84705 21.5263 2 20 2C18.3918 2 17.0053 6.27077 16.3699 12.4294C15.1016 5.13727 12.0558 0 8.5 0C3.80558 0 0 8.9543 0 20C0 31.0457 3.80558 40 8.5 40ZM33.5 32C34.8807 32 36 26.8513 36 20.5C36 14.1487 34.8807 9 33.5 9C32.1193 9 31 14.1487 31 20.5C31 26.8513 32.1193 32 33.5 32ZM42 19.5C42 22.5376 41.3284 25 40.5 25C39.6716 25 39 22.5376 39 19.5C39 16.4624 39.6716 14 40.5 14C41.3284 14 42 16.4624 42 19.5Z" fill="#17181C"/>
</g>
</svg>
