<svg width="16" height="17" viewBox="0 0 16 17" fill="none" xmlns="http://www.w3.org/2000/svg">
<path d="M1.92183 14.8669H14.4376C14.8498 14.8669 15.1797 14.5073 15.1797 14.045C15.1797 13.5724 14.8498 13.2129 14.4376 13.2129H1.92183C1.50037 13.2129 1.17969 13.5724 1.17969 14.045C1.17969 14.5073 1.50037 14.8669 1.92183 14.8669Z" fill="#EE1171"/>
<path d="M1.92183 9.69412H14.4376C14.8498 9.69412 15.1797 9.32426 15.1797 8.86194C15.1797 8.39962 14.8498 8.04004 14.4376 8.04004H1.92183C1.50037 8.04004 1.17969 8.39962 1.17969 8.86194C1.17969 9.32426 1.50037 9.69412 1.92183 9.69412Z" fill="#EE1171"/>
<path d="M1.92183 4.52126H14.4376C14.8498 4.52126 15.1797 4.16168 15.1797 3.69936C15.1797 3.22677 14.8498 2.86719 14.4376 2.86719H1.92183C1.50037 2.86719 1.17969 3.22677 1.17969 3.69936C1.17969 4.16168 1.50037 4.52126 1.92183 4.52126Z" fill="#EE1171"/>
</svg>
