<svg width="17" height="17" viewBox="0 0 17 17" fill="none" xmlns="http://www.w3.org/2000/svg">
<g id="Text Formatting - SVG">
<g id="Group">
<path id="Vector" d="M2.42281 14.8673H14.9385C15.3508 14.8673 15.6807 14.5077 15.6807 14.0454C15.6807 13.5728 15.3508 13.2132 14.9385 13.2132H2.42281C2.00135 13.2132 1.68066 13.5728 1.68066 14.0454C1.68066 14.5077 2.00135 14.8673 2.42281 14.8673Z" fill="#EE1171"/>
<path id="Vector_2" d="M2.42281 9.69415H14.9385C15.3508 9.69415 15.6807 9.32429 15.6807 8.86197C15.6807 8.39965 15.3508 8.04007 14.9385 8.04007H2.42281C2.00135 8.04007 1.68066 8.39965 1.68066 8.86197C1.68066 9.32429 2.00135 9.69415 2.42281 9.69415Z" fill="#EE1171"/>
<path id="Vector_3" d="M2.42281 4.52126H14.9385C15.3508 4.52126 15.6807 4.16168 15.6807 3.69936C15.6807 3.22677 15.3508 2.86719 14.9385 2.86719H2.42281C2.00135 2.86719 1.68066 3.22677 1.68066 3.69936C1.68066 4.16168 2.00135 4.52126 2.42281 4.52126Z" fill="#EE1171"/>
</g>
</g>
</svg>
