<svg width="11" height="11" viewBox="0 0 11 11" fill="none" xmlns="http://www.w3.org/2000/svg">
<g id="thumb-up">
<path id="Vector" d="M6.41667 4.58333H8.60017C8.7564 4.58334 8.91003 4.62327 9.04649 4.69935C9.18295 4.77542 9.2977 4.88511 9.37985 5.018C9.462 5.15089 9.50882 5.30257 9.51587 5.45864C9.52292 5.61471 9.48996 5.77 9.42012 5.90975L7.81596 9.11808C7.73981 9.27046 7.62272 9.39861 7.4778 9.48815C7.33289 9.57769 7.16589 9.62508 6.99554 9.625H5.15442C5.07971 9.625 5.005 9.61583 4.93212 9.5975L3.20833 9.16667M6.41667 4.58333V2.29167C6.41667 2.04855 6.32009 1.81539 6.14818 1.64349C5.97627 1.47158 5.74312 1.375 5.5 1.375H5.45646C5.22729 1.375 5.04167 1.56062 5.04167 1.78979C5.04167 2.11704 4.94496 2.43696 4.763 2.70921L3.20833 5.04167V9.16667M6.41667 4.58333H5.5M3.20833 9.16667H2.29167C2.04855 9.16667 1.81539 9.07009 1.64349 8.89818C1.47158 8.72627 1.375 8.49312 1.375 8.25V5.5C1.375 5.25688 1.47158 5.02373 1.64349 4.85182C1.81539 4.67991 2.04855 4.58333 2.29167 4.58333H3.4375" stroke="white" stroke-width="0.9" stroke-linecap="round" stroke-linejoin="round"/>
</g>
</svg>
