<svg width="18" height="18" viewBox="0 0 18 18" fill="none" xmlns="http://www.w3.org/2000/svg">
<path d="M10.4167 7.58333H13.7912C14.0326 7.58334 14.2701 7.64506 14.4809 7.76263C14.6918 7.8802 14.8692 8.04972 14.9961 8.25509C15.1231 8.46047 15.1955 8.69488 15.2063 8.93608C15.2172 9.17728 15.1663 9.41727 15.0584 9.63325L12.5792 14.5916C12.4615 14.8271 12.2806 15.0251 12.0566 15.1635C11.8326 15.3019 11.5746 15.3751 11.3113 15.375H8.46592C8.35046 15.375 8.235 15.3608 8.12238 15.3325L5.45833 14.6667M10.4167 7.58333V4.04167C10.4167 3.66594 10.2674 3.30561 10.0017 3.03993C9.73606 2.77426 9.37572 2.625 9 2.625H8.93271C8.57854 2.625 8.29167 2.91187 8.29167 3.26604C8.29167 3.77179 8.14221 4.26621 7.861 4.68696L5.45833 8.29167V14.6667M10.4167 7.58333H9M5.45833 14.6667H4.04167C3.66594 14.6667 3.30561 14.5174 3.03993 14.2517C2.77426 13.9861 2.625 13.6257 2.625 13.25V9C2.625 8.62428 2.77426 8.26394 3.03993 7.99827C3.30561 7.73259 3.66594 7.58333 4.04167 7.58333H5.8125" stroke="#7C7F83" stroke-width="0.9" stroke-linecap="round" stroke-linejoin="round"/>
</svg>
