<svg width="11" height="12" viewBox="0 0 11 12" fill="none" xmlns="http://www.w3.org/2000/svg">
<g id="thumb-up">
<path id="Vector" d="M6.41667 5.08333H8.60017C8.7564 5.08334 8.91003 5.12327 9.04649 5.19935C9.18295 5.27542 9.2977 5.38511 9.37985 5.518C9.462 5.65089 9.50882 5.80257 9.51587 5.95864C9.52292 6.11471 9.48996 6.27 9.42012 6.40975L7.81596 9.61808C7.73981 9.77046 7.62272 9.89861 7.4778 9.98815C7.33289 10.0777 7.16589 10.1251 6.99554 10.125H5.15442C5.07971 10.125 5.005 10.1158 4.93212 10.0975L3.20833 9.66667M6.41667 5.08333V2.79167C6.41667 2.54855 6.32009 2.31539 6.14818 2.14349C5.97627 1.97158 5.74312 1.875 5.5 1.875H5.45646C5.22729 1.875 5.04167 2.06062 5.04167 2.28979C5.04167 2.61704 4.94496 2.93696 4.763 3.20921L3.20833 5.54167V9.66667M6.41667 5.08333H5.5M3.20833 9.66667H2.29167C2.04855 9.66667 1.81539 9.57009 1.64349 9.39818C1.47158 9.22627 1.375 8.99312 1.375 8.75V6C1.375 5.75688 1.47158 5.52373 1.64349 5.35182C1.81539 5.17991 2.04855 5.08333 2.29167 5.08333H3.4375" stroke="#EE1171" stroke-width="0.9" stroke-linecap="round" stroke-linejoin="round"/>
</g>
</svg>
