<svg width="17" height="18" viewBox="0 0 17 18" fill="none" xmlns="http://www.w3.org/2000/svg">
<path d="M9.91667 7.58333H13.2912C13.5326 7.58334 13.7701 7.64506 13.9809 7.76263C14.1918 7.8802 14.3692 8.04972 14.4961 8.25509C14.6231 8.46047 14.6955 8.69488 14.7063 8.93608C14.7172 9.17728 14.6663 9.41727 14.5584 9.63325L12.0792 14.5916C11.9615 14.8271 11.7806 15.0251 11.5566 15.1635C11.3326 15.3019 11.0746 15.3751 10.8113 15.375H7.96592C7.85046 15.375 7.735 15.3608 7.62238 15.3325L4.95833 14.6667M9.91667 7.58333V4.04167C9.91667 3.66594 9.76741 3.30561 9.50174 3.03993C9.23606 2.77426 8.87572 2.625 8.5 2.625H8.43271C8.07854 2.625 7.79167 2.91187 7.79167 3.26604C7.79167 3.77179 7.64221 4.26621 7.361 4.68696L4.95833 8.29167V14.6667M9.91667 7.58333H8.5M4.95833 14.6667H3.54167C3.16594 14.6667 2.80561 14.5174 2.53993 14.2517C2.27426 13.9861 2.125 13.6257 2.125 13.25V9C2.125 8.62428 2.27426 8.26394 2.53993 7.99827C2.80561 7.73259 3.16594 7.58333 3.54167 7.58333H5.3125" stroke="#EE1171" stroke-width="0.9" stroke-linecap="round" stroke-linejoin="round"/>
</svg>
