<svg width="18" height="19" viewBox="0 0 18 19" fill="none" xmlns="http://www.w3.org/2000/svg">
<g clip-path="url(#clip0_4002_14764)">
<path d="M4.41699 17.25C3.91283 17.25 3.48138 17.0706 3.12266 16.7119C2.76394 16.3532 2.58427 15.9214 2.58366 15.4167V3.5H1.66699V1.66667H6.25033V0.75H11.7503V1.66667H16.3337V3.5H15.417V15.4167C15.417 15.9208 15.2376 16.3526 14.8789 16.7119C14.5202 17.0713 14.0884 17.2506 13.5837 17.25H4.41699ZM13.5837 3.5H4.41699V15.4167H13.5837V3.5ZM6.25033 13.5833H8.08366V5.33333H6.25033V13.5833ZM9.91699 13.5833H11.7503V5.33333H9.91699V13.5833Z" fill="#C3C5C9"/>
</g>
<defs>
<clipPath id="clip0_4002_14764">
<rect width="18" height="18" fill="white" transform="translate(0 0.5)"/>
</clipPath>
</defs>
</svg>
