<svg width="28" height="28" viewBox="0 0 28 28" fill="none" xmlns="http://www.w3.org/2000/svg">
<path d="M20.625 6.8H17.775V5.45C17.775 5.33065 17.725 5.21619 17.6359 5.1318C17.5468 5.04741 17.426 5 17.3 5C17.174 5 17.0532 5.04741 16.9641 5.1318C16.875 5.21619 16.825 5.33065 16.825 5.45V6.8H10.175V5.45C10.175 5.33065 10.125 5.21619 10.0359 5.1318C9.9468 5.04741 9.82598 5 9.7 5C9.57402 5 9.4532 5.04741 9.36412 5.1318C9.27504 5.21619 9.225 5.33065 9.225 5.45V6.8H6.375C5.74534 6.80071 5.14169 7.038 4.69645 7.4598C4.25122 7.8816 4.00075 8.45348 4 9.05V20.75C4.00075 21.3465 4.25122 21.9184 4.69645 22.3402C5.14169 22.762 5.74534 22.9993 6.375 23H20.625C21.2549 23 21.859 22.7629 22.3044 22.341C22.7498 21.919 23 21.3467 23 20.75V9.05C23 8.45326 22.7498 7.88097 22.3044 7.45901C21.859 7.03705 21.2549 6.8 20.625 6.8ZM22.05 20.75C22.05 21.108 21.8999 21.4514 21.6326 21.7046C21.3654 21.9578 21.0029 22.1 20.625 22.1H6.375C5.99707 22.1 5.63461 21.9578 5.36737 21.7046C5.10013 21.4514 4.95 21.108 4.95 20.75V13.1H22.05V20.75ZM22.05 12.2H4.95V9.05C4.95 8.3048 5.5865 7.7 6.375 7.7H9.225V9.05C9.225 9.16935 9.27504 9.28381 9.36412 9.3682C9.4532 9.45259 9.57402 9.5 9.7 9.5C9.82598 9.5 9.9468 9.45259 10.0359 9.3682C10.125 9.28381 10.175 9.16935 10.175 9.05V7.7H16.825V9.05C16.825 9.16935 16.875 9.28381 16.9641 9.3682C17.0532 9.45259 17.174 9.5 17.3 9.5C17.426 9.5 17.5468 9.45259 17.6359 9.3682C17.725 9.28381 17.775 9.16935 17.775 9.05V7.7H20.625C21.0029 7.7 21.3654 7.84223 21.6326 8.09541C21.8999 8.34858 22.05 8.69196 22.05 9.05V12.2Z" fill="#EE1171" stroke="#EE1171" stroke-width="0.5"/>
</svg>
