<svg width="12" height="8" viewBox="0 0 12 8" fill="none" xmlns="http://www.w3.org/2000/svg">
<path d="M6.00345 7.25632C6.17617 7.25632 6.33507 7.18729 6.45942 7.056L11.8204 1.5845C11.9378 1.46016 12 1.30816 12 1.12855C12 0.776216 11.7306 0.499878 11.3713 0.499878C11.1986 0.499878 11.0397 0.568963 10.9223 0.679498L6.00345 5.70885L1.08466 0.679498C0.967227 0.568962 0.815189 0.499877 0.635621 0.499877C0.276367 0.499877 0.00689696 0.776215 0.00689695 1.12855C0.00689694 1.30816 0.0690918 1.46015 0.19348 1.5845L5.54751 7.056C5.67874 7.18729 5.83078 7.25632 6.00345 7.25632Z" fill="#7C7F83"/>
</svg>
