<svg width="24" height="24" viewBox="0 0 24 24" fill="none" xmlns="http://www.w3.org/2000/svg">
<mask id="mask0_9972_8993" style="mask-type:alpha" maskUnits="userSpaceOnUse" x="0" y="0" width="24" height="24">
<rect width="24" height="24" fill="#D9D9D9"/>
</mask>
<g mask="url(#mask0_9972_8993)">
<path fill-rule="evenodd" clip-rule="evenodd" d="M20.3584 15.5605C20.5911 15.5606 20.7956 15.6414 20.958 15.8037C21.1204 15.9661 21.2011 16.1707 21.2012 16.4033V18.876C21.2012 19.5176 20.984 20.0638 20.5479 20.5C20.1117 20.9362 19.5654 21.1533 18.9238 21.1533H5.07812C4.43651 21.1533 3.8903 20.9362 3.4541 20.5C3.01796 20.0638 2.80078 19.5176 2.80078 18.876V16.4033C2.80089 16.1707 2.88158 15.9661 3.04395 15.8037C3.20635 15.6414 3.41085 15.5606 3.64355 15.5605C3.87642 15.5605 4.08166 15.6412 4.24414 15.8037C4.40644 15.9661 4.48622 16.1707 4.48633 16.4033V18.876C4.48633 19.0116 4.54044 19.1449 4.6748 19.2793C4.80923 19.4137 4.94249 19.4678 5.07812 19.4678H18.9238C19.0595 19.4678 19.1927 19.4137 19.3271 19.2793C19.4615 19.1449 19.5156 19.0116 19.5156 18.876V16.4033C19.5157 16.1707 19.5955 15.9661 19.7578 15.8037C19.9203 15.6412 20.1255 15.5605 20.3584 15.5605ZM4.9209 19.6494C4.97177 19.6613 5.02387 19.668 5.07715 19.668L5.00488 19.6641C4.97651 19.6611 4.94856 19.656 4.9209 19.6494ZM20.9639 19.291C20.9753 19.2266 20.9853 19.161 20.9912 19.0938L21.001 18.876C21.001 19.0201 20.9874 19.1585 20.9639 19.291ZM4.5332 19.4199C4.57743 19.4641 4.6233 19.5018 4.66992 19.5342C4.66682 19.532 4.66325 19.5305 4.66016 19.5283L4.5332 19.4199ZM4.28613 18.876C4.28613 18.9836 4.31166 19.0858 4.36035 19.1836C4.32294 19.1083 4.29959 19.0304 4.29102 18.9492L4.28613 18.876ZM4.10156 15.9453C4.16243 16.0062 4.20761 16.0747 4.23828 16.1504C4.22295 16.113 4.20524 16.0768 4.18262 16.043L4.10156 15.9453ZM20.8154 15.9453C20.8747 16.0046 20.9186 16.0713 20.9492 16.1445C20.9345 16.1094 20.9188 16.0749 20.8975 16.043L20.8154 15.9453ZM20.3574 15.7607C20.4446 15.7608 20.5251 15.7748 20.5986 15.8027C20.5637 15.7895 20.5273 15.7794 20.4893 15.7725L20.3574 15.7607Z" fill="white"/>
<path fill-rule="evenodd" clip-rule="evenodd" d="M12.001 3.17578C12.1615 3.17578 12.3138 3.20264 12.4561 3.25781C12.605 3.31535 12.7422 3.41218 12.8691 3.53906L16.2363 6.90625C16.3958 7.0657 16.4846 7.26064 16.4922 7.4834C16.5001 7.7162 16.4073 7.92279 16.2393 8.09668L16.2373 8.09863C16.0675 8.26866 15.8668 8.37076 15.6396 8.37402C15.41 8.37748 15.2078 8.27732 15.0371 8.10645L12.8438 5.91309V15.9092C12.8438 16.142 12.764 16.3473 12.6016 16.5098C12.4391 16.6722 12.2338 16.752 12.001 16.752C11.7681 16.752 11.5629 16.6722 11.4004 16.5098C11.238 16.3473 11.1582 16.142 11.1582 15.9092V5.91309L8.96484 8.10645C8.80496 8.26649 8.60824 8.35379 8.38379 8.36133C8.14714 8.36915 7.93838 8.27263 7.76465 8.09863L7.7627 8.09668C7.61904 7.94806 7.52599 7.77769 7.50293 7.58789L7.49805 7.50586C7.49445 7.2777 7.59535 7.07653 7.76562 6.90625L11.1328 3.53906C11.2597 3.41218 11.397 3.31535 11.5459 3.25781C11.6881 3.20264 11.8405 3.17578 12.001 3.17578ZM12 16.5518L12.001 16.5527C12.0416 16.5527 12.0805 16.5481 12.1182 16.542C12.0802 16.5481 12.041 16.5518 12 16.5518ZM12.459 16.3682C12.399 16.4281 12.3311 16.4722 12.2568 16.5029C12.2935 16.4878 12.3291 16.4705 12.3623 16.4482L12.459 16.3682ZM15.6357 8.17285L15.6367 8.17383C15.6729 8.17331 15.7081 8.16744 15.7432 8.16016C15.7079 8.16756 15.6721 8.17233 15.6357 8.17285ZM8.82227 7.96484C8.69725 8.09001 8.549 8.15525 8.37695 8.16113L8.37793 8.16211C8.54999 8.15624 8.69725 8.09002 8.82227 7.96484ZM16.0947 7.95801C16.0275 8.02529 15.957 8.07543 15.8848 8.11133C15.9193 8.09425 15.954 8.07504 15.9873 8.05078L16.0947 7.95801ZM16.0947 7.04785C16.1559 7.1091 16.2017 7.17621 16.2344 7.24805C16.2183 7.21287 16.2006 7.17816 16.1777 7.14551L16.0947 7.04785ZM12.3828 3.44434C12.4186 3.45817 12.4539 3.47598 12.4893 3.49609C12.4831 3.4926 12.4778 3.48767 12.4717 3.48438L12.3828 3.44434ZM12 3.37598C12.0345 3.37598 12.0684 3.37706 12.1016 3.37988L12 3.37598Z" fill="white"/>
</g>
</svg>
