<svg width="21" height="21" viewBox="0 0 21 21" fill="none" xmlns="http://www.w3.org/2000/svg">
<path fill-rule="evenodd" clip-rule="evenodd" d="M2.33413 3.12586C2.54286 2.98678 2.80731 2.96125 3.0388 3.05783L7.56169 4.94494L12.7645 3.04548C12.9306 2.98484 13.1128 2.98484 13.2789 3.04549L13.3267 3.06293C13.3377 3.06666 13.3487 3.07065 13.3594 3.07487L18.7572 5.04549C19.0531 5.15352 19.25 5.43497 19.25 5.75V17.75C19.25 17.9948 19.1305 18.2242 18.9299 18.3646C18.7293 18.5049 18.4728 18.5385 18.2428 18.4545L13.0217 16.5484L7.80068 18.4545C7.6236 18.5192 7.42866 18.5148 7.25468 18.4422L2.4612 16.4422C2.1819 16.3256 2 16.0526 2 15.75V3.75C2 3.49917 2.12539 3.26495 2.33413 3.12586ZM13.8359 15.2488L17.75 16.6778V6.27461L13.8359 4.84567V15.2488ZM12.3359 4.79879L8.42188 6.22774V16.6309L12.3359 15.202V4.79879ZM6.92188 16.678L3.5 15.2503V4.87559L6.92188 6.30331V16.678Z" fill="#17181C"/>
<path fill-rule="evenodd" clip-rule="evenodd" d="M7.75 4.87619L7.56169 4.94494L3.0388 3.05783C2.80731 2.96125 2.54286 2.98678 2.33413 3.12586C2.12539 3.26495 2 3.49917 2 3.75V15.75C2 16.0526 2.1819 16.3256 2.4612 16.4422L7.25468 18.4422C7.41221 18.5079 7.58692 18.5177 7.75 18.471V4.87619ZM12.75 16.6476L13.0217 16.5484L18.2428 18.4545C18.4728 18.5385 18.7293 18.5049 18.9299 18.3646C19.1305 18.2242 19.25 17.9948 19.25 17.75V5.75C19.25 5.43497 19.0531 5.15352 18.7572 5.04549L13.3594 3.07487C13.3487 3.07065 13.3377 3.06666 13.3267 3.06293L13.2789 3.04549C13.1128 2.98484 12.9306 2.98484 12.7645 3.04548L12.75 3.05079V16.6476Z" fill="#17181C"/>
</svg>
