<svg width="26" height="26" viewBox="0 0 26 26" fill="none" xmlns="http://www.w3.org/2000/svg">
<path d="M18.0449 3.0498C21.5183 3.05425 24.3362 5.83237 24.3418 9.26758V9.26855C24.3417 12.2599 22.6837 15.3108 19.4727 18.3477L18.8096 18.9551C17.1462 20.4261 15.3358 21.7295 13.4082 22.8438L13.4043 22.8457C13.1529 22.9845 12.8461 22.9847 12.5947 22.8457V22.8447C12.3955 22.7351 8.22806 20.4094 5.08594 16.8633V16.8623C4.78361 16.5198 4.81809 15.9991 5.16504 15.7002C5.51044 15.403 6.0341 15.4384 6.33594 15.7783C8.73921 18.4908 11.8861 20.5027 12.999 21.1719C13.9273 20.6125 16.2834 19.1103 18.4404 17.042C20.6902 14.8847 22.6805 12.1545 22.6807 9.26855C22.6797 7.42591 21.5577 5.76193 19.832 5.05078C17.4669 4.07579 14.7512 5.1786 13.7656 7.50781H13.7646C13.6801 7.7061 13.5211 7.86492 13.3193 7.94824C12.898 8.12195 12.4115 7.92752 12.2334 7.50781C11.5136 5.80646 9.82688 4.69629 7.95508 4.69629C5.39212 4.69658 3.31739 6.7456 3.31738 9.26758C3.31739 9.38959 3.32105 9.51299 3.32812 9.63379L3.3291 9.64551H3.32812C3.34835 10.0976 2.99724 10.4786 2.54395 10.5029C2.089 10.5271 1.6942 10.1836 1.66895 9.72754C1.66034 9.57359 1.65626 9.4185 1.65625 9.2666C1.65625 7.20693 2.69127 5.28175 4.41504 4.125L4.6875 3.95215C7.45461 2.29271 11.0592 2.98044 12.999 5.54492C14.1832 3.97699 16.0528 3.04684 18.0449 3.0498ZM12.166 22.3623C12.4686 22.5448 12.6556 22.6512 12.6914 22.6709C12.7135 22.6831 12.7365 22.6931 12.7598 22.7021C12.7368 22.6931 12.7142 22.683 12.6924 22.6709C12.6579 22.6519 12.4702 22.5457 12.166 22.3623ZM10.2949 21.1436C10.6288 21.3771 10.9402 21.5863 11.2207 21.7695C10.9401 21.5863 10.6288 21.3771 10.2949 21.1436ZM8.10352 10.0537C8.35883 9.67587 8.87334 9.5761 9.25391 9.82617C9.34593 9.8867 9.42336 9.96439 9.4834 10.0518L9.48438 10.0537L12.1572 14.0098L13.1494 12.542C13.3039 12.313 13.5646 12.1778 13.8398 12.1777H16.3623C16.8181 12.1777 17.1934 12.5437 17.1934 13C17.1932 13.4561 16.8181 13.8223 16.3623 13.8223H14.2832L12.8477 15.9463C12.5923 16.3237 12.0786 16.4237 11.6982 16.1738C11.6062 16.1132 11.5288 16.0347 11.4688 15.9473L11.4678 15.9463L8.79297 11.9902L7.80273 13.457C7.64821 13.6862 7.38776 13.8223 7.1123 13.8223H2.90723C2.45179 13.8219 2.07729 13.4559 2.07715 13C2.07715 12.544 2.45171 12.1781 2.90723 12.1777H6.66895L8.10352 10.0537ZM2.78027 13.6094H2.78613C2.74805 13.6017 2.71111 13.591 2.67578 13.5771C2.70944 13.5904 2.74406 13.602 2.78027 13.6094ZM16.9932 13L16.9834 12.8896C16.9828 12.8866 16.9811 12.8839 16.9805 12.8809C16.9881 12.9194 16.9932 12.9592 16.9932 13ZM8.35059 10.0674C8.32067 10.0964 8.29372 10.1293 8.26953 10.165L6.77441 12.3779H6.77539L8.26953 10.165C8.31783 10.0936 8.37898 10.0356 8.44727 9.99121V9.99023C8.41299 10.0125 8.38044 10.0381 8.35059 10.0674ZM2.40527 10.2979L2.5332 10.3037V10.3027C2.44824 10.3072 2.36663 10.2947 2.29102 10.2686C2.32787 10.2813 2.36579 10.292 2.40527 10.2979ZM4.49512 5.93555C4.46896 5.96213 4.44253 5.98844 4.41699 6.01562C4.44256 5.98848 4.46889 5.96207 4.49512 5.93555ZM12.4189 5.16602C12.523 5.27652 12.624 5.39123 12.7207 5.51074C12.6239 5.39092 12.5232 5.27571 12.4189 5.16504V5.16602ZM6.4707 4.72656C6.4264 4.74074 6.3826 4.75609 6.33887 4.77148C6.38263 4.75621 6.42637 4.74064 6.4707 4.72656ZM18.0244 4.49609C18.1814 4.49541 18.3392 4.50189 18.4971 4.5166L18.2607 4.5L18.0244 4.49609ZM9.94629 3.58008C10.0387 3.61147 10.1308 3.64391 10.2217 3.67969C10.0398 3.60812 9.85448 3.54613 9.66699 3.49219L9.94629 3.58008Z" fill="white"/>
</svg>
