<svg width="28" height="24" viewBox="0 0 28 24" fill="none" xmlns="http://www.w3.org/2000/svg">
<path d="M6.75483 12.7655H1.57987C1.15164 12.7655 0.803629 12.4222 0.803629 11.9997C0.803629 11.5772 1.15164 11.2338 1.57987 11.2338H6.33954L8.17924 8.51121C8.41729 8.15892 8.89856 8.06447 9.25563 8.29933C9.34102 8.35549 9.41346 8.42825 9.47039 8.51121L12.9648 13.682L14.3892 11.5746C14.5328 11.3615 14.776 11.2338 15.0348 11.2338H18.1397C18.568 11.2338 18.916 11.5772 18.916 11.9997C18.916 12.4222 18.568 12.7655 18.1397 12.7655H15.4501L13.6104 15.4882C13.3723 15.8404 12.891 15.9349 12.534 15.7C12.4486 15.6439 12.3761 15.5711 12.3192 15.4882L8.82481 10.3174L7.40041 12.4247C7.2568 12.6379 7.01358 12.7655 6.75483 12.7655ZM20.2097 9.02342e-06C17.7219 -0.00382025 15.3944 1.21134 13.9998 3.24213C11.6697 -0.139121 7.00193 -1.0173 3.57223 1.28154C1.51777 2.66008 0.286133 4.95254 0.286133 7.40455C0.286133 7.58708 0.291308 7.77344 0.301658 7.95852C0.324945 8.38102 0.691073 8.70395 1.1193 8.68098C1.54753 8.658 1.87485 8.29677 1.85156 7.87428C1.85156 7.87428 1.85156 7.873 1.85156 7.87173C1.8425 7.71728 1.83862 7.56028 1.83862 7.40583C1.83862 4.16243 4.50502 1.53427 7.79241 1.53427C10.1936 1.53427 12.3593 2.95749 13.2843 5.144C13.4499 5.53459 13.904 5.7184 14.2999 5.55501C14.4888 5.47715 14.6376 5.32909 14.7165 5.144C15.9831 2.15079 19.4697 0.737783 22.5035 1.98868C24.7184 2.90132 26.1609 5.03806 26.1622 7.40711C26.1622 14.7249 16.0969 21.098 14.0011 22.3464C12.7552 21.6061 8.69673 19.0609 5.61505 15.5826C5.33301 15.2648 4.84268 15.2316 4.51925 15.5099C4.19581 15.7881 4.16347 16.2719 4.44551 16.591C8.29309 20.9334 13.4059 23.7836 13.622 23.9024C13.8575 24.0325 14.1447 24.0325 14.3801 23.9024C16.7386 22.5391 18.9535 20.9449 20.9886 19.1451C25.452 15.1818 27.7147 11.2326 27.7147 7.40711C27.7082 3.31744 24.3523 0.00511473 20.2097 9.02342e-06Z" fill="white"/>
</svg>
