<svg width="28" height="24" viewBox="0 0 28 24" fill="none" xmlns="http://www.w3.org/2000/svg">
<path d="M27.7145 7.50014C27.7145 11.3201 25.4656 15.2501 21.0288 19.1813C19.0161 20.9563 16.8282 22.5288 14.4968 23.8725C14.1882 24.0425 13.8124 24.0425 13.5038 23.8725C13.0809 23.6388 5.19149 19.2263 1.80739 13.0001H6.88925C7.2283 13.0001 7.54575 12.8326 7.73496 12.5551L8.92098 10.8026L12.1387 15.5551C12.4498 16.0151 13.0809 16.1388 13.547 15.8326C13.6587 15.7588 13.754 15.6651 13.8289 15.5551L15.5584 13.0001H18.0625C18.6238 13.0001 19.0784 12.5526 19.0784 12.0001C19.0784 11.4476 18.6238 11.0001 18.0625 11.0001H15.0149C14.6759 11.0001 14.3584 11.1676 14.1692 11.4451L12.9832 13.1976L9.76542 8.44513C9.45431 7.98513 8.8232 7.86139 8.35718 8.16763C8.24543 8.24138 8.15019 8.33513 8.07527 8.44513L6.34576 11.0001H0.912159C0.505813 9.87637 0.293752 8.69388 0.286133 7.50014C0.287403 3.35767 3.70071 0.000201483 7.9102 0.000201483C10.3051 0.000201483 12.5616 1.11019 14.0003 2.99518C16.5298 -0.317296 21.3069 -0.98354 24.672 1.50519C26.5869 2.92143 27.7132 5.14266 27.7145 7.50014Z" fill="#EE1171"/>
</svg>
