<svg width="253" height="220" viewBox="0 0 253 220" fill="none" xmlns="http://www.w3.org/2000/svg">
<g filter="url(#filter0_ddd_3053_11770)">
<path d="M50.6963 167.645C51.6719 168.899 52.1604 170.331 52.1604 171.941C52.1604 174.265 51.3486 176.107 49.7264 177.465C48.1042 178.825 45.8412 179.504 42.9402 179.504H30V151.707H42.5048C45.3268 151.707 47.5366 152.354 49.133 153.648C50.7293 154.942 51.5268 156.698 51.5268 158.915C51.5268 160.552 51.0971 161.911 50.2408 162.994C49.383 164.076 48.2421 164.828 46.8182 165.251C48.4275 165.595 49.7206 166.393 50.6963 167.647V167.645ZM36.7675 162.952H41.2002C42.308 162.952 43.1586 162.708 43.752 162.219C44.3454 161.73 44.6429 161.011 44.6429 160.061C44.6429 159.11 44.3454 158.384 43.752 157.882C43.1586 157.381 42.308 157.13 41.2002 157.13H36.7675V162.952ZM44.3842 173.268C45.0035 172.754 45.3139 172.007 45.3139 171.031C45.3139 170.055 44.9906 169.289 44.344 168.735C43.6974 168.18 42.8066 167.904 41.6729 167.904H36.7661V174.042H41.7519C42.8856 174.042 43.7635 173.785 44.3828 173.27L44.3842 173.268Z" fill="white"/>
<path d="M72.0265 170.082H56.7126C56.8175 171.455 57.2601 172.505 58.0388 173.231C58.8162 173.957 59.7731 174.319 60.9082 174.319C62.5965 174.319 63.7704 173.606 64.4299 172.181H71.6314C71.2621 173.633 70.5954 174.94 69.6327 176.102C68.67 177.264 67.4631 178.175 66.0119 178.834C64.5607 179.494 62.9385 179.825 61.1439 179.825C58.98 179.825 57.0546 179.363 55.3663 178.438C53.678 177.515 52.359 176.196 51.4093 174.479C50.4595 172.763 49.9854 170.756 49.9854 168.46C49.9854 166.164 50.4538 164.157 51.3906 162.441C52.3274 160.726 53.6392 159.406 55.3275 158.482C57.0158 157.559 58.9541 157.096 61.1453 157.096C63.3365 157.096 65.1814 157.544 66.8438 158.441C68.5062 159.339 69.8051 160.62 70.742 162.282C71.6773 163.945 72.1472 165.885 72.1472 168.104C72.1472 168.738 72.107 169.398 72.0279 170.083L72.0265 170.082ZM65.2202 166.319C65.2202 165.157 64.825 164.234 64.0333 163.547C63.2417 162.861 62.2531 162.518 61.0648 162.518C59.8766 162.518 58.9742 162.848 58.1955 163.508C57.4167 164.168 56.9354 165.106 56.7514 166.319H65.2202Z" fill="white"/>
<path d="M70.8983 162.44C71.7547 160.724 72.9228 159.404 74.3999 158.48C75.877 157.557 77.5265 157.094 79.3469 157.094C80.903 157.094 82.268 157.41 83.4419 158.044C84.6158 158.678 85.5196 159.509 86.1532 160.539V157.41H92.9208V179.506H86.1532V176.378C85.4937 177.407 84.577 178.238 83.4031 178.872C82.2292 179.506 80.8642 179.823 79.3081 179.823C77.5135 179.823 75.8784 179.354 74.4013 178.416C72.9228 177.479 71.7561 176.146 70.8997 174.416C70.0419 172.688 69.6138 170.688 69.6138 168.418C69.6138 166.148 70.0419 164.155 70.8997 162.438L70.8983 162.44ZM84.748 164.46C83.8112 163.483 82.6703 162.995 81.3255 162.995C79.9806 162.995 78.8383 163.476 77.9029 164.439C76.9661 165.403 76.4977 166.73 76.4977 168.419C76.4977 170.109 76.9661 171.449 77.9029 172.438C78.8397 173.429 79.9806 173.923 81.3255 173.923C82.6703 173.923 83.8112 173.434 84.748 172.458C85.6834 171.482 86.1532 170.149 86.1532 168.458C86.1532 166.767 85.6848 165.436 84.748 164.458V164.46Z" fill="white"/>
<path d="M106.82 173.984V179.782H103.378C100.924 179.782 99.0111 179.175 97.6404 177.962C96.2682 176.748 95.5828 174.769 95.5828 172.022V163.144H92.8916V157.465H95.5828V152.025H102.349V157.465H106.782V163.144H102.349V172.103C102.349 172.77 102.507 173.25 102.824 173.542C103.141 173.835 103.668 173.982 104.408 173.982H106.822L106.82 173.984Z" fill="white"/>
<path d="M133.042 167.645C134.018 168.899 134.506 170.331 134.506 171.941C134.506 174.265 133.694 176.107 132.072 177.465C130.45 178.825 128.187 179.504 125.286 179.504H112.346V151.707H124.851C127.672 151.707 129.882 152.354 131.479 153.648C133.075 154.942 133.872 156.698 133.872 158.915C133.872 160.552 133.443 161.911 132.586 162.994C131.729 164.076 130.588 164.828 129.164 165.251C130.773 165.595 132.066 166.393 133.042 167.647V167.645ZM119.113 162.952H123.546C124.654 162.952 125.504 162.708 126.098 162.219C126.691 161.73 126.989 161.011 126.989 160.061C126.989 159.11 126.691 158.384 126.098 157.882C125.504 157.381 124.654 157.13 123.546 157.13H119.113V162.952ZM126.73 173.268C127.349 172.754 127.66 172.007 127.66 171.031C127.66 170.055 127.336 169.289 126.69 168.735C126.043 168.18 125.152 167.904 124.019 167.904H119.112V174.042H124.098C125.231 174.042 126.109 173.785 126.728 173.27L126.73 173.268Z" fill="white"/>
<path d="M155.479 157.41V179.506H148.712V176.497C148.025 177.473 147.095 178.26 145.922 178.854C144.748 179.447 143.449 179.745 142.023 179.745C140.335 179.745 138.844 179.368 137.552 178.616C136.259 177.864 135.257 176.775 134.545 175.35C133.832 173.925 133.476 172.248 133.476 170.32V157.41H140.203V169.409C140.203 170.887 140.585 172.036 141.351 172.854C142.115 173.672 143.144 174.082 144.437 174.082C145.73 174.082 146.798 173.673 147.564 172.854C148.328 172.036 148.712 170.887 148.712 169.409V157.41H155.479Z" fill="white"/>
<path d="M155.538 162.439C156.395 160.724 157.563 159.404 159.04 158.479C160.517 157.556 162.167 157.093 163.987 157.093C165.438 157.093 166.763 157.396 167.964 158.003C169.164 158.611 170.108 159.428 170.793 160.459V150.203H177.561V179.506H170.793V176.338C170.16 177.395 169.256 178.239 168.082 178.873C166.908 179.507 165.543 179.823 163.987 179.823C162.167 179.823 160.517 179.355 159.04 178.417C157.561 177.48 156.395 176.147 155.538 174.417C154.681 172.689 154.252 170.689 154.252 168.419C154.252 166.148 154.681 164.156 155.538 162.439ZM169.388 164.459C168.451 163.483 167.31 162.994 165.966 162.994C164.621 162.994 163.478 163.476 162.543 164.439C161.606 165.402 161.138 166.729 161.138 168.419C161.138 170.108 161.606 171.448 162.543 172.437C163.48 173.428 164.621 173.923 165.966 173.923C167.31 173.923 168.451 173.434 169.388 172.457C170.324 171.481 170.793 170.148 170.793 168.458C170.793 166.767 170.325 165.435 169.388 164.458V164.459Z" fill="white"/>
<path d="M177.658 162.439C178.514 160.724 179.683 159.404 181.16 158.479C182.637 157.556 184.286 157.093 186.107 157.093C187.558 157.093 188.883 157.396 190.084 158.003C191.284 158.611 192.228 159.428 192.913 160.459V150.203H199.681V179.506H192.913V176.338C192.279 177.395 191.376 178.239 190.202 178.873C189.028 179.507 187.663 179.823 186.107 179.823C184.286 179.823 182.637 179.355 181.16 178.417C179.681 177.48 178.514 176.147 177.658 174.417C176.8 172.689 176.372 170.689 176.372 168.419C176.372 166.148 176.8 164.156 177.658 162.439ZM191.508 164.459C190.571 163.483 189.43 162.994 188.085 162.994C186.74 162.994 185.598 163.476 184.663 164.439C183.726 165.402 183.257 166.729 183.257 168.419C183.257 170.108 183.726 171.448 184.663 172.437C185.599 173.428 186.74 173.923 188.085 173.923C189.43 173.923 190.571 173.434 191.508 172.457C192.443 171.481 192.913 170.148 192.913 168.458C192.913 166.767 192.445 165.435 191.508 164.458V164.459Z" fill="white"/>
<path d="M222.395 157.41L208.545 189.999H201.263L206.328 178.752L197.345 157.408H204.903L210.008 171.228L215.072 157.408H222.393L222.395 157.41Z" fill="white"/>
<path d="M91.7002 30C101.147 30.0002 109.257 43.0951 112.764 61.793C114.541 45.8605 118.307 34.8712 122.665 34.8711C127.277 34.8711 131.223 47.1813 132.854 64.6328C134.314 51.7852 137.297 42.9816 140.743 42.9814C145.628 42.9814 149.589 60.6739 149.589 82.499C149.589 104.324 145.628 122.018 140.743 122.018C137.297 122.017 134.313 113.211 132.853 100.361C131.222 117.811 127.277 130.119 122.665 130.119C118.307 130.119 114.541 119.13 112.764 103.198C109.257 121.898 101.148 134.994 91.7002 134.994C79.0436 134.994 68.7832 111.49 68.7832 82.4971C68.7832 53.5038 79.0436 30 91.7002 30ZM160.841 52.8906C164.394 52.8907 167.274 66.1465 167.274 82.498C167.274 98.8496 164.394 112.105 160.841 112.105C157.288 112.105 154.407 98.8497 154.407 82.498C154.407 66.1464 157.288 52.8906 160.841 52.8906ZM178.466 67.6924C181.097 67.6924 183.229 74.3195 183.229 82.4951C183.229 90.6709 181.097 97.2988 178.466 97.2988C175.835 97.2987 173.702 90.6709 173.702 82.4951C173.702 74.3195 175.835 67.6925 178.466 67.6924Z" fill="white"/>
</g>
<defs>
<filter id="filter0_ddd_3053_11770" x="0" y="0" width="252.395" height="219.998" filterUnits="userSpaceOnUse" color-interpolation-filters="sRGB">
<feFlood flood-opacity="0" result="BackgroundImageFix"/>
<feColorMatrix in="SourceAlpha" type="matrix" values="0 0 0 0 0 0 0 0 0 0 0 0 0 0 0 0 0 0 127 0" result="hardAlpha"/>
<feOffset/>
<feGaussianBlur stdDeviation="15"/>
<feComposite in2="hardAlpha" operator="out"/>
<feColorMatrix type="matrix" values="0 0 0 0 0.933673 0 0 0 0 0.0663265 0 0 0 0 0.44898 0 0 0 0.5 0"/>
<feBlend mode="normal" in2="BackgroundImageFix" result="effect1_dropShadow_3053_11770"/>
<feColorMatrix in="SourceAlpha" type="matrix" values="0 0 0 0 0 0 0 0 0 0 0 0 0 0 0 0 0 0 127 0" result="hardAlpha"/>
<feOffset/>
<feGaussianBlur stdDeviation="10"/>
<feComposite in2="hardAlpha" operator="out"/>
<feColorMatrix type="matrix" values="0 0 0 0 0.933673 0 0 0 0 0.0663265 0 0 0 0 0.44898 0 0 0 0.7 0"/>
<feBlend mode="normal" in2="effect1_dropShadow_3053_11770" result="effect2_dropShadow_3053_11770"/>
<feColorMatrix in="SourceAlpha" type="matrix" values="0 0 0 0 0 0 0 0 0 0 0 0 0 0 0 0 0 0 127 0" result="hardAlpha"/>
<feOffset/>
<feGaussianBlur stdDeviation="5"/>
<feComposite in2="hardAlpha" operator="out"/>
<feColorMatrix type="matrix" values="0 0 0 0 0.0901961 0 0 0 0 0.0941176 0 0 0 0 0.109804 0 0 0 0.8 0"/>
<feBlend mode="normal" in2="effect2_dropShadow_3053_11770" result="effect3_dropShadow_3053_11770"/>
<feBlend mode="normal" in="SourceGraphic" in2="effect3_dropShadow_3053_11770" result="shape"/>
</filter>
</defs>
</svg>
