<svg width="116" height="105" viewBox="0 0 116 105" fill="none" xmlns="http://www.w3.org/2000/svg">
<path d="M23.7001 0C33.147 0.000225602 41.2569 13.0951 44.7636 31.793C46.5411 15.8605 50.3072 4.87124 54.6649 4.87109C59.2771 4.87109 63.2228 17.1813 64.8534 34.6328C66.3136 21.7852 69.297 12.9816 72.7431 12.9814C77.6283 12.9814 81.5887 30.6739 81.5888 52.499C81.5888 74.3242 77.6283 92.0176 72.7431 92.0176C69.2967 92.0174 66.3124 83.2112 64.8524 70.3613C63.2216 87.8108 59.2768 100.119 54.6649 100.119C50.3072 100.119 46.5411 89.1302 44.7636 73.1982C41.2572 91.8976 33.1474 104.994 23.7001 104.994C11.0435 104.994 0.783115 81.4903 0.7831 52.4971C0.7831 23.5038 11.0435 0 23.7001 0ZM92.8407 22.8906C96.3938 22.8907 99.2743 36.1465 99.2743 52.498C99.2743 68.8496 96.3938 82.1054 92.8407 82.1055C89.2876 82.1055 86.4071 68.8497 86.4071 52.498C86.4071 36.1464 89.2876 22.8906 92.8407 22.8906ZM110.466 37.6924C113.097 37.6924 115.229 44.3195 115.229 52.4951C115.229 60.6709 113.097 67.2988 110.466 67.2988C107.835 67.2987 105.702 60.6709 105.702 52.4951C105.702 44.3195 107.835 37.6925 110.466 37.6924Z" fill="black"/>
</svg>
