<svg width="129" height="47" viewBox="0 0 129 47" fill="none" xmlns="http://www.w3.org/2000/svg">
<path d="M9.0286 1.06V2.54H2.9686V7.24H7.8886V8.72H2.9686V15H1.1486V1.06H9.0286ZM21.0267 9.1C21.0267 9.44667 21.0067 9.81333 20.9667 10.2H12.2067C12.2734 11.28 12.6401 12.1267 13.3067 12.74C13.9867 13.34 14.8067 13.64 15.7667 13.64C16.5534 13.64 17.2067 13.46 17.7267 13.1C18.2601 12.7267 18.6334 12.2333 18.8467 11.62H20.8067C20.5134 12.6733 19.9267 13.5333 19.0467 14.2C18.1667 14.8533 17.0734 15.18 15.7667 15.18C14.7267 15.18 13.7934 14.9467 12.9667 14.48C12.1534 14.0133 11.5134 13.3533 11.0467 12.5C10.5801 11.6333 10.3467 10.6333 10.3467 9.5C10.3467 8.36667 10.5734 7.37333 11.0267 6.52C11.4801 5.66667 12.1134 5.01333 12.9267 4.56C13.7534 4.09333 14.7001 3.86 15.7667 3.86C16.8067 3.86 17.7267 4.08667 18.5267 4.54C19.3267 4.99333 19.9401 5.62 20.3667 6.42C20.8067 7.20667 21.0267 8.1 21.0267 9.1ZM19.1467 8.72C19.1467 8.02667 18.9934 7.43333 18.6867 6.94C18.3801 6.43333 17.9601 6.05333 17.4267 5.8C16.9067 5.53333 16.3267 5.4 15.6867 5.4C14.7667 5.4 13.9801 5.69333 13.3267 6.28C12.6867 6.86667 12.3201 7.68 12.2267 8.72H19.1467ZM33.2291 9.1C33.2291 9.44667 33.2091 9.81333 33.1691 10.2H24.4091C24.4757 11.28 24.8424 12.1267 25.5091 12.74C26.1891 13.34 27.0091 13.64 27.9691 13.64C28.7557 13.64 29.4091 13.46 29.9291 13.1C30.4624 12.7267 30.8357 12.2333 31.0491 11.62H33.0091C32.7157 12.6733 32.1291 13.5333 31.2491 14.2C30.3691 14.8533 29.2757 15.18 27.9691 15.18C26.9291 15.18 25.9957 14.9467 25.1691 14.48C24.3557 14.0133 23.7157 13.3533 23.2491 12.5C22.7824 11.6333 22.5491 10.6333 22.5491 9.5C22.5491 8.36667 22.7757 7.37333 23.2291 6.52C23.6824 5.66667 24.3157 5.01333 25.1291 4.56C25.9557 4.09333 26.9024 3.86 27.9691 3.86C29.0091 3.86 29.9291 4.08667 30.7291 4.54C31.5291 4.99333 32.1424 5.62 32.5691 6.42C33.0091 7.20667 33.2291 8.1 33.2291 9.1ZM31.3491 8.72C31.3491 8.02667 31.1957 7.43333 30.8891 6.94C30.5824 6.43333 30.1624 6.05333 29.6291 5.8C29.1091 5.53333 28.5291 5.4 27.8891 5.4C26.9691 5.4 26.1824 5.69333 25.5291 6.28C24.8891 6.86667 24.5224 7.68 24.4291 8.72H31.3491ZM37.2514 0.2V15H35.4314V0.2H37.2514ZM47.5053 5.54V12C47.5053 12.5333 47.6186 12.9133 47.8453 13.14C48.072 13.3533 48.4653 13.46 49.0253 13.46H50.3653V15H48.7253C47.712 15 46.952 14.7667 46.4453 14.3C45.9386 13.8333 45.6853 13.0667 45.6853 12V5.54H44.2653V4.04H45.6853V1.28H47.5053V4.04H50.3653V5.54H47.5053ZM57.8105 3.84C58.6371 3.84 59.3838 4.02 60.0505 4.38C60.7171 4.72667 61.2371 5.25333 61.6105 5.96C61.9971 6.66667 62.1905 7.52667 62.1905 8.54V15H60.3905V8.8C60.3905 7.70667 60.1171 6.87333 59.5705 6.3C59.0238 5.71333 58.2771 5.42 57.3305 5.42C56.3705 5.42 55.6038 5.72 55.0305 6.32C54.4705 6.92 54.1905 7.79333 54.1905 8.94V15H52.3705V0.2H54.1905V5.6C54.5505 5.04 55.0438 4.60667 55.6705 4.3C56.3105 3.99333 57.0238 3.84 57.8105 3.84ZM74.9634 9.1C74.9634 9.44667 74.9434 9.81333 74.9034 10.2H66.1434C66.2101 11.28 66.5768 12.1267 67.2434 12.74C67.9234 13.34 68.7434 13.64 69.7034 13.64C70.4901 13.64 71.1434 13.46 71.6634 13.1C72.1968 12.7267 72.5701 12.2333 72.7834 11.62H74.7434C74.4501 12.6733 73.8634 13.5333 72.9834 14.2C72.1034 14.8533 71.0101 15.18 69.7034 15.18C68.6634 15.18 67.7301 14.9467 66.9034 14.48C66.0901 14.0133 65.4501 13.3533 64.9834 12.5C64.5168 11.6333 64.2834 10.6333 64.2834 9.5C64.2834 8.36667 64.5101 7.37333 64.9634 6.52C65.4168 5.66667 66.0501 5.01333 66.8634 4.56C67.6901 4.09333 68.6368 3.86 69.7034 3.86C70.7434 3.86 71.6634 4.08667 72.4634 4.54C73.2634 4.99333 73.8768 5.62 74.3034 6.42C74.7434 7.20667 74.9634 8.1 74.9634 9.1ZM73.0834 8.72C73.0834 8.02667 72.9301 7.43333 72.6234 6.94C72.3168 6.43333 71.8968 6.05333 71.3634 5.8C70.8434 5.53333 70.2634 5.4 69.6234 5.4C68.7034 5.4 67.9168 5.69333 67.2634 6.28C66.6234 6.86667 66.2568 7.68 66.1634 8.72H73.0834ZM89.2778 7.82C89.7845 7.9 90.2445 8.10667 90.6578 8.44C91.0845 8.77333 91.4178 9.18667 91.6578 9.68C91.9111 10.1733 92.0378 10.7 92.0378 11.26C92.0378 11.9667 91.8578 12.6067 91.4978 13.18C91.1378 13.74 90.6111 14.1867 89.9178 14.52C89.2378 14.84 88.4311 15 87.4978 15H82.2978V1.06H87.2978C88.2445 1.06 89.0511 1.22 89.7178 1.54C90.3845 1.84667 90.8845 2.26667 91.2178 2.8C91.5511 3.33333 91.7178 3.93333 91.7178 4.6C91.7178 5.42667 91.4911 6.11333 91.0378 6.66C90.5978 7.19333 90.0111 7.58 89.2778 7.82ZM84.1178 7.08H87.1778C88.0311 7.08 88.6911 6.88 89.1578 6.48C89.6245 6.08 89.8578 5.52667 89.8578 4.82C89.8578 4.11333 89.6245 3.56 89.1578 3.16C88.6911 2.76 88.0178 2.56 87.1378 2.56H84.1178V7.08ZM87.3378 13.5C88.2445 13.5 88.9511 13.2867 89.4578 12.86C89.9645 12.4333 90.2178 11.84 90.2178 11.08C90.2178 10.3067 89.9511 9.7 89.4178 9.26C88.8845 8.80667 88.1711 8.58 87.2778 8.58H84.1178V13.5H87.3378ZM104.363 9.1C104.363 9.44667 104.343 9.81333 104.303 10.2H95.5434C95.6101 11.28 95.9768 12.1267 96.6434 12.74C97.3234 13.34 98.1434 13.64 99.1034 13.64C99.8901 13.64 100.543 13.46 101.063 13.1C101.597 12.7267 101.97 12.2333 102.183 11.62H104.143C103.85 12.6733 103.263 13.5333 102.383 14.2C101.503 14.8533 100.41 15.18 99.1034 15.18C98.0634 15.18 97.1301 14.9467 96.3034 14.48C95.4901 14.0133 94.8501 13.3533 94.3834 12.5C93.9168 11.6333 93.6834 10.6333 93.6834 9.5C93.6834 8.36667 93.9101 7.37333 94.3634 6.52C94.8168 5.66667 95.4501 5.01333 96.2634 4.56C97.0901 4.09333 98.0368 3.86 99.1034 3.86C100.143 3.86 101.063 4.08667 101.863 4.54C102.663 4.99333 103.277 5.62 103.703 6.42C104.143 7.20667 104.363 8.1 104.363 9.1ZM102.483 8.72C102.483 8.02667 102.33 7.43333 102.023 6.94C101.717 6.43333 101.297 6.05333 100.763 5.8C100.243 5.53333 99.6634 5.4 99.0234 5.4C98.1034 5.4 97.3168 5.69333 96.6634 6.28C96.0234 6.86667 95.6568 7.68 95.5634 8.72H102.483ZM105.886 9.48C105.886 8.36 106.112 7.38 106.566 6.54C107.019 5.68667 107.639 5.02667 108.426 4.56C109.226 4.09333 110.112 3.86 111.086 3.86C112.046 3.86 112.879 4.06667 113.586 4.48C114.292 4.89333 114.819 5.41333 115.166 6.04V4.04H117.006V15H115.166V12.96C114.806 13.6 114.266 14.1333 113.546 14.56C112.839 14.9733 112.012 15.18 111.066 15.18C110.092 15.18 109.212 14.94 108.426 14.46C107.639 13.98 107.019 13.3067 106.566 12.44C106.112 11.5733 105.886 10.5867 105.886 9.48ZM115.166 9.5C115.166 8.67333 114.999 7.95333 114.666 7.34C114.332 6.72667 113.879 6.26 113.306 5.94C112.746 5.60667 112.126 5.44 111.446 5.44C110.766 5.44 110.146 5.6 109.586 5.92C109.026 6.24 108.579 6.70667 108.246 7.32C107.912 7.93333 107.746 8.65333 107.746 9.48C107.746 10.32 107.912 11.0533 108.246 11.68C108.579 12.2933 109.026 12.7667 109.586 13.1C110.146 13.42 110.766 13.58 111.446 13.58C112.126 13.58 112.746 13.42 113.306 13.1C113.879 12.7667 114.332 12.2933 114.666 11.68C114.999 11.0533 115.166 10.3267 115.166 9.5ZM122.101 5.54V12C122.101 12.5333 122.215 12.9133 122.441 13.14C122.668 13.3533 123.061 13.46 123.621 13.46H124.961V15H123.321C122.308 15 121.548 14.7667 121.041 14.3C120.535 13.8333 120.281 13.0667 120.281 12V5.54H118.861V4.04H120.281V1.28H122.101V4.04H124.961V5.54H122.101ZM128.847 12.48L126.607 17.86H125.387L126.847 12.48H128.847ZM2.71469 39.52H7.59469V41H0.894691V27.06H2.71469V39.52ZM10.2675 28.26C9.92084 28.26 9.6275 28.14 9.3875 27.9C9.1475 27.66 9.0275 27.3667 9.0275 27.02C9.0275 26.6733 9.1475 26.38 9.3875 26.14C9.6275 25.9 9.92084 25.78 10.2675 25.78C10.6008 25.78 10.8808 25.9 11.1075 26.14C11.3475 26.38 11.4675 26.6733 11.4675 27.02C11.4675 27.3667 11.3475 27.66 11.1075 27.9C10.8808 28.14 10.6008 28.26 10.2675 28.26ZM11.1475 30.04V41H9.3275V30.04H11.1475ZM18.1294 39.32L21.5294 30.04H23.4694L19.1694 41H17.0494L12.7494 30.04H14.7094L18.1294 39.32ZM35.0603 35.1C35.0603 35.4467 35.0403 35.8133 35.0003 36.2H26.2403C26.307 37.28 26.6736 38.1267 27.3403 38.74C28.0203 39.34 28.8403 39.64 29.8003 39.64C30.587 39.64 31.2403 39.46 31.7603 39.1C32.2936 38.7267 32.667 38.2333 32.8803 37.62H34.8403C34.547 38.6733 33.9603 39.5333 33.0803 40.2C32.2003 40.8533 31.107 41.18 29.8003 41.18C28.7603 41.18 27.827 40.9467 27.0003 40.48C26.187 40.0133 25.547 39.3533 25.0803 38.5C24.6136 37.6333 24.3803 36.6333 24.3803 35.5C24.3803 34.3667 24.607 33.3733 25.0603 32.52C25.5136 31.6667 26.147 31.0133 26.9603 30.56C27.787 30.0933 28.7336 29.86 29.8003 29.86C30.8403 29.86 31.7603 30.0867 32.5603 30.54C33.3603 30.9933 33.9736 31.62 34.4003 32.42C34.8403 33.2067 35.0603 34.1 35.0603 35.1ZM33.1803 34.72C33.1803 34.0267 33.027 33.4333 32.7203 32.94C32.4136 32.4333 31.9936 32.0533 31.4603 31.8C30.9403 31.5333 30.3603 31.4 29.7203 31.4C28.8003 31.4 28.0136 31.6933 27.3603 32.28C26.7203 32.8667 26.3536 33.68 26.2603 34.72H33.1803ZM44.6147 31.54V38C44.6147 38.5333 44.728 38.9133 44.9547 39.14C45.1814 39.3533 45.5747 39.46 46.1347 39.46H47.4747V41H45.8347C44.8214 41 44.0614 40.7667 43.5547 40.3C43.048 39.8333 42.7947 39.0667 42.7947 38V31.54H41.3747V30.04H42.7947V27.28H44.6147V30.04H47.4747V31.54H44.6147ZM54.9198 29.84C55.7465 29.84 56.4932 30.02 57.1598 30.38C57.8265 30.7267 58.3465 31.2533 58.7198 31.96C59.1065 32.6667 59.2998 33.5267 59.2998 34.54V41H57.4998V34.8C57.4998 33.7067 57.2265 32.8733 56.6798 32.3C56.1332 31.7133 55.3865 31.42 54.4398 31.42C53.4798 31.42 52.7132 31.72 52.1398 32.32C51.5798 32.92 51.2998 33.7933 51.2998 34.94V41H49.4798V26.2H51.2998V31.6C51.6598 31.04 52.1532 30.6067 52.7798 30.3C53.4198 29.9933 54.1332 29.84 54.9198 29.84ZM72.0728 35.1C72.0728 35.4467 72.0528 35.8133 72.0128 36.2H63.2528C63.3195 37.28 63.6861 38.1267 64.3528 38.74C65.0328 39.34 65.8528 39.64 66.8128 39.64C67.5995 39.64 68.2528 39.46 68.7728 39.1C69.3061 38.7267 69.6795 38.2333 69.8928 37.62H71.8528C71.5595 38.6733 70.9728 39.5333 70.0928 40.2C69.2128 40.8533 68.1195 41.18 66.8128 41.18C65.7728 41.18 64.8395 40.9467 64.0128 40.48C63.1995 40.0133 62.5595 39.3533 62.0928 38.5C61.6261 37.6333 61.3928 36.6333 61.3928 35.5C61.3928 34.3667 61.6195 33.3733 62.0728 32.52C62.5261 31.6667 63.1595 31.0133 63.9728 30.56C64.7995 30.0933 65.7461 29.86 66.8128 29.86C67.8528 29.86 68.7728 30.0867 69.5728 30.54C70.3728 30.9933 70.9861 31.62 71.4128 32.42C71.8528 33.2067 72.0728 34.1 72.0728 35.1ZM70.1928 34.72C70.1928 34.0267 70.0395 33.4333 69.7328 32.94C69.4261 32.4333 69.0061 32.0533 68.4728 31.8C67.9528 31.5333 67.3728 31.4 66.7328 31.4C65.8128 31.4 65.0261 31.6933 64.3728 32.28C63.7328 32.8667 63.3661 33.68 63.2728 34.72H70.1928ZM90.3672 41H88.5472L81.2272 29.9V41H79.4072V27.04H81.2272L88.5472 38.12V27.04H90.3672V41ZM94.2097 28.26C93.863 28.26 93.5697 28.14 93.3297 27.9C93.0897 27.66 92.9697 27.3667 92.9697 27.02C92.9697 26.6733 93.0897 26.38 93.3297 26.14C93.5697 25.9 93.863 25.78 94.2097 25.78C94.543 25.78 94.823 25.9 95.0497 26.14C95.2897 26.38 95.4097 26.6733 95.4097 27.02C95.4097 27.3667 95.2897 27.66 95.0497 27.9C94.823 28.14 94.543 28.26 94.2097 28.26ZM95.0897 30.04V41H93.2697V30.04H95.0897ZM102.512 29.86C103.458 29.86 104.285 30.0667 104.992 30.48C105.712 30.8933 106.245 31.4133 106.592 32.04V30.04H108.432V41.24C108.432 42.24 108.218 43.1267 107.792 43.9C107.365 44.6867 106.752 45.3 105.952 45.74C105.165 46.18 104.245 46.4 103.192 46.4C101.752 46.4 100.552 46.06 99.5916 45.38C98.6316 44.7 98.0649 43.7733 97.8916 42.6H99.6916C99.8916 43.2667 100.305 43.8 100.932 44.2C101.558 44.6133 102.312 44.82 103.192 44.82C104.192 44.82 105.005 44.5067 105.632 43.88C106.272 43.2533 106.592 42.3733 106.592 41.24V38.94C106.232 39.58 105.698 40.1133 104.992 40.54C104.285 40.9667 103.458 41.18 102.512 41.18C101.538 41.18 100.652 40.94 99.8516 40.46C99.0649 39.98 98.4449 39.3067 97.9916 38.44C97.5382 37.5733 97.3116 36.5867 97.3116 35.48C97.3116 34.36 97.5382 33.38 97.9916 32.54C98.4449 31.6867 99.0649 31.0267 99.8516 30.56C100.652 30.0933 101.538 29.86 102.512 29.86ZM106.592 35.5C106.592 34.6733 106.425 33.9533 106.092 33.34C105.758 32.7267 105.305 32.26 104.732 31.94C104.172 31.6067 103.552 31.44 102.872 31.44C102.192 31.44 101.572 31.6 101.012 31.92C100.452 32.24 100.005 32.7067 99.6716 33.32C99.3382 33.9333 99.1716 34.6533 99.1716 35.48C99.1716 36.32 99.3382 37.0533 99.6716 37.68C100.005 38.2933 100.452 38.7667 101.012 39.1C101.572 39.42 102.192 39.58 102.872 39.58C103.552 39.58 104.172 39.42 104.732 39.1C105.305 38.7667 105.758 38.2933 106.092 37.68C106.425 37.0533 106.592 36.3267 106.592 35.5ZM116.747 29.84C117.574 29.84 118.321 30.02 118.987 30.38C119.654 30.7267 120.174 31.2533 120.547 31.96C120.934 32.6667 121.127 33.5267 121.127 34.54V41H119.327V34.8C119.327 33.7067 119.054 32.8733 118.507 32.3C117.961 31.7133 117.214 31.42 116.267 31.42C115.307 31.42 114.541 31.72 113.967 32.32C113.407 32.92 113.127 33.7933 113.127 34.94V41H111.307V26.2H113.127V31.6C113.487 31.04 113.981 30.6067 114.607 30.3C115.247 29.9933 115.961 29.84 116.747 29.84ZM126.12 31.54V38C126.12 38.5333 126.233 38.9133 126.46 39.14C126.687 39.3533 127.08 39.46 127.64 39.46H128.98V41H127.34C126.327 41 125.567 40.7667 125.06 40.3C124.553 39.8333 124.3 39.0667 124.3 38V31.54H122.88V30.04H124.3V27.28H126.12V30.04H128.98V31.54H126.12Z" fill="#17181C"/>
</svg>
