<svg width="66" height="66" viewBox="0 0 66 66" fill="none" xmlns="http://www.w3.org/2000/svg">
<circle cx="33" cy="33" r="33" fill="white"/>
<path d="M24.6489 36.1306L23.6046 40.0291L19.7877 40.1099C18.647 37.9942 18 35.5735 18 33.0011C18 30.5137 18.6049 28.168 19.6772 26.1025H19.6781L23.0762 26.7255L24.5647 30.1032C24.2532 31.0115 24.0834 31.9866 24.0834 33.0011C24.0835 34.1023 24.2829 35.1573 24.6489 36.1306Z" fill="#FBBB00"/>
<path d="M47.7379 30.1982C47.9102 31.1057 48 32.0428 48 33.0005C48 34.0745 47.8871 35.1221 47.672 36.1325C46.9418 39.5711 45.0337 42.5737 42.3905 44.6985L42.3897 44.6977L38.1096 44.4793L37.5038 40.6978C39.2577 39.6692 40.6284 38.0595 41.3504 36.1325H33.3292V30.1982H41.4674H47.7379Z" fill="#518EF8"/>
<path d="M42.3921 44.6975L42.393 44.6983C39.8223 46.7646 36.5567 48.0009 33.002 48.0009C27.2894 48.0009 22.3227 44.8079 19.7891 40.1091L24.6503 36.1299C25.9171 39.5107 29.1785 41.9175 33.002 41.9175C34.6454 41.9175 36.1851 41.4732 37.5062 40.6976L42.3921 44.6975Z" fill="#28B446"/>
<path d="M42.5741 21.4534L37.7146 25.4318C36.3473 24.5772 34.731 24.0834 32.9993 24.0834C29.0893 24.0834 25.7669 26.6005 24.5636 30.1026L19.6769 26.1019H19.676C22.1726 21.2886 27.2019 18 32.9993 18C36.639 18 39.9762 19.2965 42.5741 21.4534Z" fill="#F14336"/>
</svg>
