<svg width="253" height="100" viewBox="0 0 253 100" fill="none" xmlns="http://www.w3.org/2000/svg">
<g filter="url(#filter0_d_6878_25256)">
<path d="M50.6963 47.6461C51.6719 48.8998 52.1604 50.3319 52.1604 51.9422C52.1604 54.2657 51.3486 56.1076 49.7264 57.4663C48.1042 58.8265 45.8412 59.5051 42.9402 59.5051H30V31.708H42.5048C45.3268 31.708 47.5366 32.355 49.133 33.649C50.7293 34.9431 51.5268 36.6986 51.5268 38.9157C51.5268 40.5534 51.0971 41.9121 50.2408 42.9948C49.383 44.0774 48.2421 44.8294 46.8182 45.2521C48.4275 45.5958 49.7206 46.3938 50.6963 47.6475V47.6461ZM36.7675 42.9531H41.2002C42.308 42.9531 43.1586 42.7087 43.752 42.2198C44.3454 41.7309 44.6429 41.012 44.6429 40.0617C44.6429 39.1113 44.3454 38.3852 43.752 37.8834C43.1586 37.3816 42.308 37.1314 41.2002 37.1314H36.7675V42.9531ZM44.3842 53.2693C45.0035 52.7546 45.3139 52.0084 45.3139 51.0321C45.3139 50.0558 44.9906 49.2895 44.344 48.7359C43.6974 48.1809 42.8066 47.9049 41.6729 47.9049H36.7661V54.0429H41.7519C42.8856 54.0429 43.7635 53.7855 44.3828 53.2708L44.3842 53.2693Z" fill="white"/>
<path d="M72.0265 50.082H56.7126C56.8175 51.4551 57.2601 52.5047 58.0388 53.2308C58.8162 53.9568 59.7731 54.3192 60.9082 54.3192C62.5965 54.3192 63.7704 53.606 64.4299 52.1812H71.6314C71.2621 53.6333 70.5954 54.9403 69.6327 56.1021C68.67 57.2638 67.4631 58.1754 66.0119 58.8339C64.5607 59.4938 62.9385 59.8245 61.1439 59.8245C58.98 59.8245 57.0546 59.363 55.3663 58.4385C53.678 57.5154 52.359 56.1955 51.4093 54.4788C50.4595 52.7635 49.9854 50.7563 49.9854 48.4601C49.9854 46.1639 50.4538 44.1568 51.3906 42.4415C52.3274 40.7262 53.6392 39.4063 55.3275 38.4817C57.0158 37.5587 58.9541 37.0957 61.1453 37.0957C63.3365 37.0957 65.1814 37.5443 66.8438 38.4415C68.5062 39.3387 69.8051 40.6198 70.742 42.2819C71.6773 43.9454 72.1472 45.885 72.1472 48.1035C72.1472 48.7376 72.107 49.3976 72.0279 50.0834L72.0265 50.082ZM65.2202 46.3192C65.2202 45.1575 64.825 44.2344 64.0333 43.5471C63.2417 42.8613 62.2531 42.5177 61.0648 42.5177C59.8766 42.5177 58.9742 42.8484 58.1955 43.5083C57.4167 44.1683 56.9354 45.1057 56.7514 46.3192H65.2202Z" fill="white"/>
<path d="M70.8983 42.4385C71.7547 40.7232 72.9228 39.4033 74.3999 38.4788C75.877 37.5557 77.5265 37.0928 79.3469 37.0928C80.903 37.0928 82.268 37.4091 83.4419 38.0432C84.6158 38.6772 85.5196 39.5083 86.1532 40.5378V37.4091H92.9208V59.5053H86.1532V56.3766C85.4937 57.4061 84.577 58.2371 83.4031 58.8712C82.2292 59.5053 80.8642 59.8216 79.3081 59.8216C77.5135 59.8216 75.8784 59.3529 74.4013 58.4154C72.9228 57.478 71.7561 56.1451 70.8997 54.4155C70.0419 52.6872 69.6138 50.6872 69.6138 48.4169C69.6138 46.1466 70.0419 44.1538 70.8997 42.4371L70.8983 42.4385ZM84.748 44.4587C83.8112 43.4824 82.6703 42.9935 81.3255 42.9935C79.9806 42.9935 78.8383 43.4752 77.9029 44.4385C76.9661 45.4019 76.4977 46.7289 76.4977 48.4184C76.4977 50.1078 76.9661 51.4478 77.9029 52.437C78.8397 53.4277 79.9806 53.9223 81.3255 53.9223C82.6703 53.9223 83.8112 53.4334 84.748 52.4572C85.6834 51.4809 86.1532 50.148 86.1532 48.4572C86.1532 46.7663 85.6848 45.4349 84.748 44.4572V44.4587Z" fill="white"/>
<path d="M106.82 53.9836V59.7822H103.378C100.924 59.7822 99.0111 59.1755 97.6404 57.962C96.2682 56.7485 95.5828 54.7686 95.5828 52.0224V43.1439H92.8916V37.4646H95.5828V32.0254H102.349V37.4646H106.782V43.1439H102.349V52.1029C102.349 52.77 102.507 53.2503 102.824 53.5421C103.141 53.8355 103.668 53.9821 104.408 53.9821H106.822L106.82 53.9836Z" fill="white"/>
<path d="M133.042 47.6461C134.018 48.8998 134.506 50.3319 134.506 51.9422C134.506 54.2657 133.694 56.1076 132.072 57.4663C130.45 58.8265 128.187 59.5051 125.286 59.5051H112.346V31.708H124.851C127.672 31.708 129.882 32.355 131.479 33.649C133.075 34.9431 133.872 36.6986 133.872 38.9157C133.872 40.5534 133.443 41.9121 132.586 42.9948C131.729 44.0774 130.588 44.8294 129.164 45.2521C130.773 45.5958 132.066 46.3938 133.042 47.6475V47.6461ZM119.113 42.9531H123.546C124.654 42.9531 125.504 42.7087 126.098 42.2198C126.691 41.7309 126.989 41.012 126.989 40.0617C126.989 39.1113 126.691 38.3852 126.098 37.8834C125.504 37.3816 124.654 37.1314 123.546 37.1314H119.113V42.9531ZM126.73 53.2693C127.349 52.7546 127.66 52.0084 127.66 51.0321C127.66 50.0558 127.336 49.2895 126.69 48.7359C126.043 48.1809 125.152 47.9049 124.019 47.9049H119.112V54.0429H124.098C125.231 54.0429 126.109 53.7855 126.728 53.2708L126.73 53.2693Z" fill="white"/>
<path d="M155.479 37.4102V59.5063H148.712V56.497C148.025 57.4733 147.095 58.2598 145.922 58.8536C144.748 59.4474 143.449 59.745 142.023 59.745C140.335 59.745 138.844 59.3683 137.552 58.6163C136.259 57.8644 135.257 56.7745 134.545 55.3497C133.832 53.9248 133.476 52.2483 133.476 50.3202V37.4102H140.203V49.4086C140.203 50.8867 140.585 52.0355 141.351 52.8536C142.115 53.6717 143.144 54.0815 144.437 54.0815C145.73 54.0815 146.798 53.6732 147.564 52.8536C148.328 52.0355 148.712 50.8867 148.712 49.4086V37.4102H155.479Z" fill="white"/>
<path d="M155.538 42.4388C156.395 40.7235 157.563 39.4036 159.04 38.4791C160.517 37.5561 162.167 37.0931 163.987 37.0931C165.438 37.0931 166.763 37.3965 167.964 38.0032C169.164 38.6114 170.108 39.4281 170.793 40.459V30.2031H177.561V59.5056H170.793V56.3381C170.16 57.3949 169.256 58.2389 168.082 58.873C166.908 59.507 165.543 59.8234 163.987 59.8234C162.167 59.8234 160.517 59.3546 159.04 58.4172C157.561 57.4797 156.395 56.1469 155.538 54.4172C154.681 52.689 154.252 50.689 154.252 48.4187C154.252 46.1484 154.681 44.1556 155.538 42.4388ZM169.388 44.459C168.451 43.4827 167.31 42.9938 165.966 42.9938C164.621 42.9938 163.478 43.4755 162.543 44.4388C161.606 45.4022 161.138 46.7293 161.138 48.4187C161.138 50.1081 161.606 51.4481 162.543 52.4373C163.48 53.428 164.621 53.9226 165.966 53.9226C167.31 53.9226 168.451 53.4337 169.388 52.4575C170.324 51.4812 170.793 50.1484 170.793 48.4575C170.793 46.7666 170.325 45.4352 169.388 44.4575V44.459Z" fill="white"/>
<path d="M177.658 42.4388C178.514 40.7235 179.683 39.4036 181.16 38.4791C182.637 37.5561 184.286 37.0931 186.107 37.0931C187.558 37.0931 188.883 37.3965 190.084 38.0032C191.284 38.6114 192.228 39.4281 192.913 40.459V30.2031H199.681V59.5056H192.913V56.3381C192.279 57.3949 191.376 58.2389 190.202 58.873C189.028 59.507 187.663 59.8234 186.107 59.8234C184.286 59.8234 182.637 59.3546 181.16 58.4172C179.681 57.4797 178.514 56.1469 177.658 54.4172C176.8 52.689 176.372 50.689 176.372 48.4187C176.372 46.1484 176.8 44.1556 177.658 42.4388ZM191.508 44.459C190.571 43.4827 189.43 42.9938 188.085 42.9938C186.74 42.9938 185.598 43.4755 184.663 44.4388C183.726 45.4022 183.257 46.7293 183.257 48.4187C183.257 50.1081 183.726 51.4481 184.663 52.4373C185.599 53.428 186.74 53.9226 188.085 53.9226C189.43 53.9226 190.571 53.4337 191.508 52.4575C192.443 51.4812 192.913 50.1484 192.913 48.4575C192.913 46.7666 192.445 45.4352 191.508 44.4575V44.459Z" fill="white"/>
<path d="M222.395 37.4096L208.545 69.9989H201.263L206.328 58.7524L197.345 37.4082H204.903L210.008 51.2284L215.072 37.4082H222.393L222.395 37.4096Z" fill="white"/>
</g>
<defs>
<filter id="filter0_d_6878_25256" x="0" y="0.203125" width="252.395" height="99.7959" filterUnits="userSpaceOnUse" color-interpolation-filters="sRGB">
<feFlood flood-opacity="0" result="BackgroundImageFix"/>
<feColorMatrix in="SourceAlpha" type="matrix" values="0 0 0 0 0 0 0 0 0 0 0 0 0 0 0 0 0 0 127 0" result="hardAlpha"/>
<feOffset/>
<feGaussianBlur stdDeviation="15"/>
<feComposite in2="hardAlpha" operator="out"/>
<feColorMatrix type="matrix" values="0 0 0 0 0.933673 0 0 0 0 0.0663265 0 0 0 0 0.44898 0 0 0 0.7 0"/>
<feBlend mode="normal" in2="BackgroundImageFix" result="effect1_dropShadow_6878_25256"/>
<feBlend mode="normal" in="SourceGraphic" in2="effect1_dropShadow_6878_25256" result="shape"/>
</filter>
</defs>
</svg>
