<svg width="176" height="165" viewBox="0 0 176 165" fill="none" xmlns="http://www.w3.org/2000/svg">
<g filter="url(#filter0_d_6878_25266)">
<path d="M53.7002 30C63.1471 30.0002 71.257 43.0951 74.7637 61.793C76.5412 45.8605 80.3073 34.8712 84.665 34.8711C89.2772 34.8711 93.2229 47.1813 94.8535 64.6328C96.3137 51.7852 99.2971 42.9816 102.743 42.9814C107.628 42.9814 111.589 60.6739 111.589 82.499C111.589 104.324 107.628 122.018 102.743 122.018C99.2968 122.017 96.3125 113.211 94.8525 100.361C93.2217 117.811 89.2769 130.119 84.665 130.119C80.3073 130.119 76.5412 119.13 74.7637 103.198C71.2573 121.898 63.1475 134.994 53.7002 134.994C41.0436 134.994 30.7832 111.49 30.7832 82.4971C30.7832 53.5038 41.0436 30 53.7002 30ZM122.841 52.8906C126.394 52.8907 129.274 66.1465 129.274 82.498C129.274 98.8496 126.394 112.105 122.841 112.105C119.288 112.105 116.407 98.8497 116.407 82.498C116.407 66.1464 119.288 52.8906 122.841 52.8906ZM140.466 67.6924C143.097 67.6924 145.229 74.3195 145.229 82.4951C145.229 90.6709 143.097 97.2988 140.466 97.2988C137.835 97.2987 135.702 90.6709 135.702 82.4951C135.702 74.3195 137.835 67.6925 140.466 67.6924Z" fill="white"/>
</g>
<defs>
<filter id="filter0_d_6878_25266" x="0.783203" y="0" width="174.446" height="164.994" filterUnits="userSpaceOnUse" color-interpolation-filters="sRGB">
<feFlood flood-opacity="0" result="BackgroundImageFix"/>
<feColorMatrix in="SourceAlpha" type="matrix" values="0 0 0 0 0 0 0 0 0 0 0 0 0 0 0 0 0 0 127 0" result="hardAlpha"/>
<feOffset/>
<feGaussianBlur stdDeviation="15"/>
<feComposite in2="hardAlpha" operator="out"/>
<feColorMatrix type="matrix" values="0 0 0 0 0.933673 0 0 0 0 0.0663265 0 0 0 0 0.44898 0 0 0 0.7 0"/>
<feBlend mode="normal" in2="BackgroundImageFix" result="effect1_dropShadow_6878_25266"/>
<feBlend mode="normal" in="SourceGraphic" in2="effect1_dropShadow_6878_25266" result="shape"/>
</filter>
</defs>
</svg>
