<svg width="58" height="58" viewBox="0 0 58 58" fill="none" xmlns="http://www.w3.org/2000/svg">
<circle cx="29" cy="29" r="29" fill="#28292A"/>
<path d="M35.4902 28.0814C35.5032 27.071 35.7716 26.0802 36.2704 25.2013C36.7692 24.3225 37.4822 23.584 38.3431 23.0548C37.7962 22.2737 37.0747 21.6309 36.236 21.1775C35.3972 20.7241 34.4643 20.4724 33.5113 20.4426C31.4783 20.2292 29.5074 21.6591 28.4714 21.6591C27.4154 21.6591 25.8204 20.4638 24.1028 20.4991C22.9919 20.535 21.9091 20.8581 20.9601 21.4368C20.0111 22.0156 19.2283 22.8303 18.6877 23.8016C16.3464 27.8553 18.0928 33.813 20.3357 37.0897C21.4578 38.6943 22.7693 40.4865 24.4853 40.423C26.1645 40.3533 26.7917 39.3522 28.8187 39.3522C30.8268 39.3522 31.4152 40.423 33.1661 40.3826C34.968 40.3533 36.1033 38.7709 37.1861 37.1512C37.9923 36.0079 38.6127 34.7443 39.0243 33.4073C37.9775 32.9645 37.0841 32.2234 36.4556 31.2763C35.8272 30.3292 35.4914 29.2181 35.4902 28.0814Z" fill="white"/>
<path d="M32.1831 18.2864C33.1656 17.107 33.6496 15.5911 33.5324 14.0605C32.0314 14.2182 30.6449 14.9356 29.6492 16.0697C29.1623 16.6238 28.7894 17.2684 28.5519 17.9667C28.3143 18.6649 28.2166 19.4032 28.2645 20.1392C29.0153 20.1469 29.758 19.9842 30.4368 19.6633C31.1155 19.3423 31.7126 18.8716 32.1831 18.2864Z" fill="white"/>
</svg>
