<svg width="193" height="40" viewBox="0 0 193 40" fill="none" xmlns="http://www.w3.org/2000/svg">
<g clip-path="url(#clip0_2197_19819)">
<path d="M20.6963 17.6461C21.6719 18.8998 22.1604 20.3319 22.1604 21.9422C22.1604 24.2657 21.3486 26.1076 19.7264 27.4663C18.1042 28.8265 15.8412 29.5051 12.9402 29.5051H4.57764e-05V1.70801H12.5049C15.3268 1.70801 17.5367 2.35502 19.133 3.64904C20.7294 4.94307 21.5268 6.69863 21.5268 8.91573C21.5268 10.5534 21.0972 11.9121 20.2408 12.9948C19.383 14.0774 18.2422 14.8294 16.8183 15.2521C18.4275 15.5958 19.7207 16.3938 20.6963 17.6475V17.6461ZM6.76757 12.9531H11.2002C12.308 12.9531 13.1586 12.7087 13.7521 12.2198C14.3455 11.7309 14.6429 11.012 14.6429 10.0617C14.6429 9.11127 14.3455 8.38518 13.7521 7.88338C13.1586 7.38159 12.308 7.13141 11.2002 7.13141H6.76757V12.9531ZM14.3843 23.2693C15.0035 22.7546 15.3139 22.0084 15.3139 21.0321C15.3139 20.0558 14.9906 19.2895 14.344 18.7359C13.6975 18.1809 12.8066 17.9049 11.6729 17.9049H6.76613V24.0429H11.752C12.8856 24.0429 13.7635 23.7855 14.3828 23.2708L14.3843 23.2693Z" fill="black"/>
<path d="M42.0263 20.082H26.7125C26.8174 21.4551 27.2599 22.5047 28.0387 23.2308C28.816 23.9568 29.773 24.3192 30.9081 24.3192C32.5963 24.3192 33.7702 23.606 34.4298 22.1812H41.6312C41.2619 23.6333 40.5952 24.9403 39.6326 26.1021C38.6699 27.2638 37.4629 28.1754 36.0117 28.8339C34.5605 29.4938 32.9383 29.8245 31.1437 29.8245C28.9798 29.8245 27.0545 29.363 25.3662 28.4385C23.6779 27.5154 22.3589 26.1955 21.4091 24.4788C20.4593 22.7635 19.9852 20.7563 19.9852 18.4601C19.9852 16.1639 20.4536 14.1568 21.3904 12.4415C22.3272 10.7262 23.6391 9.40626 25.3274 8.48175C27.0157 7.55868 28.954 7.0957 31.1451 7.0957C33.3363 7.0957 35.1812 7.5443 36.8437 8.44149C38.5061 9.33868 39.805 10.6198 40.7418 12.2819C41.6772 13.9454 42.147 15.885 42.147 18.1035C42.147 18.7376 42.1068 19.3976 42.0278 20.0834L42.0263 20.082ZM35.22 16.3192C35.22 15.1575 34.8249 14.2344 34.0332 13.5471C33.2415 12.8613 32.2529 12.5177 31.0647 12.5177C29.8764 12.5177 28.9741 12.8484 28.1953 13.5083C27.4165 14.1683 26.9352 15.1057 26.7513 16.3192H35.22Z" fill="black"/>
<path d="M40.8984 12.4385C41.7548 10.7232 42.9229 9.40333 44.4 8.47882C45.8771 7.55575 47.5266 7.09277 49.347 7.09277C50.9031 7.09277 52.2681 7.40909 53.442 8.04316C54.6159 8.67723 55.5197 9.50829 56.1534 10.5378V7.40909H62.9209V29.5053H56.1534V26.3766C55.4938 27.4061 54.5771 28.2371 53.4032 28.8712C52.2293 29.5053 50.8643 29.8216 49.3082 29.8216C47.5136 29.8216 45.8785 29.3529 44.4014 28.4154C42.9229 27.478 41.7562 26.1451 40.8999 24.4155C40.0421 22.6872 39.6139 20.6872 39.6139 18.4169C39.6139 16.1466 40.0421 14.1538 40.8999 12.4371L40.8984 12.4385ZM54.7481 14.4587C53.8113 13.4824 52.6705 12.9935 51.3256 12.9935C49.9807 12.9935 48.8384 13.4752 47.903 14.4385C46.9662 15.4019 46.4978 16.7289 46.4978 18.4184C46.4978 20.1078 46.9662 21.4478 47.903 22.437C48.8398 23.4277 49.9807 23.9223 51.3256 23.9223C52.6705 23.9223 53.8113 23.4334 54.7481 22.4572C55.6835 21.4809 56.1534 20.148 56.1534 18.4572C56.1534 16.7663 55.6849 15.4349 54.7481 14.4572V14.4587Z" fill="black"/>
<path d="M76.8206 23.9831V29.7817H73.3779C70.9238 29.7817 69.0114 29.175 67.6406 27.9615C66.2684 26.748 65.5831 24.7681 65.5831 22.0219V13.1435H62.8918V7.46412H65.5831V2.0249H72.3491V7.46412H76.7818V13.1435H72.3491V22.1024C72.3491 22.7696 72.5072 23.2498 72.8247 23.5417C73.1408 23.835 73.6682 23.9816 74.4081 23.9816H76.822L76.8206 23.9831Z" fill="black"/>
<path d="M103.042 17.6461C104.018 18.8998 104.506 20.3319 104.506 21.9422C104.506 24.2657 103.694 26.1076 102.072 27.4663C100.45 28.8265 98.1869 29.5051 95.286 29.5051H82.3458V1.70801H94.8506C97.6726 1.70801 99.8824 2.35502 101.479 3.64904C103.075 4.94307 103.873 6.69863 103.873 8.91573C103.873 10.5534 103.443 11.9121 102.587 12.9948C101.729 14.0774 100.588 14.8294 99.164 15.2521C100.773 15.5958 102.066 16.3938 103.042 17.6475V17.6461ZM89.1133 12.9531H93.5459C94.6537 12.9531 95.5044 12.7087 96.0978 12.2198C96.6912 11.7309 96.9886 11.012 96.9886 10.0617C96.9886 9.11127 96.6912 8.38518 96.0978 7.88338C95.5044 7.38159 94.6537 7.13141 93.5459 7.13141H89.1133V12.9531ZM96.73 23.2693C97.3493 22.7546 97.6596 22.0084 97.6596 21.0321C97.6596 20.0558 97.3363 19.2895 96.6898 18.7359C96.0432 18.1809 95.1523 17.9049 94.0187 17.9049H89.1119V24.0429H94.0977C95.2314 24.0429 96.1093 23.7855 96.7286 23.2708L96.73 23.2693Z" fill="black"/>
<path d="M125.479 7.40967V29.5059H118.712V26.4965C118.025 27.4728 117.095 28.2593 115.921 28.8531C114.748 29.4469 113.449 29.7445 112.023 29.7445C110.335 29.7445 108.844 29.3678 107.552 28.6159C106.259 27.8639 105.257 26.774 104.545 25.3492C103.832 23.9243 103.476 22.2478 103.476 20.3197V7.40967H110.203V19.4082C110.203 20.8862 110.585 22.035 111.351 22.8531C112.115 23.6712 113.144 24.081 114.437 24.081C115.73 24.081 116.798 23.6727 117.564 22.8531C118.328 22.035 118.712 20.8862 118.712 19.4082V7.40967H125.479Z" fill="black"/>
<path d="M125.538 12.4388C126.395 10.7235 127.563 9.40364 129.04 8.47913C130.517 7.55606 132.166 7.09309 133.987 7.09309C135.438 7.09309 136.763 7.39646 137.964 8.00322C139.164 8.61141 140.108 9.42808 140.793 10.459V0.203125H147.561V29.5056H140.793V26.3381C140.16 27.3949 139.256 28.2389 138.082 28.873C136.908 29.507 135.543 29.8234 133.987 29.8234C132.166 29.8234 130.517 29.3546 129.04 28.4172C127.561 27.4797 126.395 26.1469 125.538 24.4172C124.681 22.689 124.252 20.689 124.252 18.4187C124.252 16.1484 124.681 14.1556 125.538 12.4388ZM139.388 14.459C138.451 13.4827 137.31 12.9938 135.965 12.9938C134.621 12.9938 133.478 13.4755 132.543 14.4388C131.606 15.4022 131.138 16.7293 131.138 18.4187C131.138 20.1081 131.606 21.4481 132.543 22.4373C133.48 23.428 134.621 23.9226 135.965 23.9226C137.31 23.9226 138.451 23.4337 139.388 22.4575C140.323 21.4812 140.793 20.1484 140.793 18.4575C140.793 16.7666 140.325 15.4352 139.388 14.4575V14.459Z" fill="black"/>
<path d="M147.658 12.4388C148.515 10.7235 149.683 9.40364 151.16 8.47913C152.637 7.55606 154.286 7.09309 156.107 7.09309C157.558 7.09309 158.883 7.39646 160.084 8.00322C161.284 8.61141 162.228 9.42808 162.913 10.459V0.203125H169.681V29.5056H162.913V26.3381C162.28 27.3949 161.376 28.2389 160.202 28.873C159.028 29.507 157.663 29.8234 156.107 29.8234C154.286 29.8234 152.637 29.3546 151.16 28.4172C149.681 27.4797 148.515 26.1469 147.658 24.4172C146.8 22.689 146.372 20.689 146.372 18.4187C146.372 16.1484 146.8 14.1556 147.658 12.4388ZM161.508 14.459C160.571 13.4827 159.43 12.9938 158.085 12.9938C156.741 12.9938 155.598 13.4755 154.663 14.4388C153.726 15.4022 153.258 16.7293 153.258 18.4187C153.258 20.1081 153.726 21.4481 154.663 22.4373C155.6 23.428 156.741 23.9226 158.085 23.9226C159.43 23.9226 160.571 23.4337 161.508 22.4575C162.443 21.4812 162.913 20.1484 162.913 18.4575C162.913 16.7666 162.445 15.4352 161.508 14.4575V14.459Z" fill="black"/>
<path d="M192.395 7.40915L178.545 39.9984H171.263L176.328 28.7519L167.345 7.40771H174.902L180.008 21.2279L185.072 7.40771H192.393L192.395 7.40915Z" fill="black"/>
</g>
<defs>
<clipPath id="clip0_2197_19819">
<rect width="192.394" height="39.797" fill="white" transform="translate(2.28882e-05 0.203125)"/>
</clipPath>
</defs>
</svg>
