<svg width="33" height="30" viewBox="0 0 33 30" fill="none" xmlns="http://www.w3.org/2000/svg">
<path d="M7.6337 15.9569H1.52674C1.02139 15.9569 0.610696 15.5277 0.610696 14.9996C0.610696 14.4715 1.02139 14.0423 1.52674 14.0423H7.14362L9.31464 10.639C9.59556 10.1987 10.1635 10.0806 10.5849 10.3742C10.6857 10.4444 10.7712 10.5353 10.8383 10.639L14.9621 17.1025L16.643 14.4683C16.8125 14.2018 17.0995 14.0423 17.4048 14.0423H21.069C21.5744 14.0423 21.9851 14.4715 21.9851 14.9996C21.9851 15.5277 21.5744 15.9569 21.069 15.9569H17.8949L15.7239 19.3602C15.443 19.8006 14.875 19.9186 14.4537 19.6251C14.3529 19.5549 14.2674 19.4639 14.2002 19.3602L10.0765 12.8967L8.39555 15.5309C8.22608 15.7974 7.93905 15.9569 7.6337 15.9569ZM23.5118 1.12793e-05C20.5759 -0.00477532 17.8293 1.51417 16.1834 4.05266C13.4338 -0.173902 7.92531 -1.27163 3.87792 1.60193C1.45346 3.3251 0 6.19068 0 9.25569C0 9.48385 0.00610696 9.7168 0.0183209 9.94815C0.0458022 10.4763 0.47787 10.8799 0.983221 10.8512C1.48857 10.8225 1.87484 10.371 1.84736 9.84285C1.84736 9.84285 1.84736 9.84125 1.84736 9.83966C1.83667 9.6466 1.83209 9.45035 1.83209 9.25729C1.83209 5.20304 4.9787 1.91784 8.85815 1.91784C11.6918 1.91784 14.2475 3.69686 15.3392 6.43001C15.5346 6.91824 16.0705 7.14799 16.5377 6.94377C16.7606 6.84644 16.9361 6.66136 17.0293 6.43001C18.5239 2.68848 22.6385 0.922229 26.2187 2.48585C28.8325 3.62666 30.5348 6.29758 30.5363 9.25888C30.5363 18.4061 18.6583 26.3726 16.185 27.933C14.7147 27.0076 9.92534 23.8261 6.28864 19.4783C5.95581 19.081 5.37718 19.0395 4.99549 19.3873C4.61381 19.7351 4.57564 20.3399 4.90847 20.7387C9.449 26.1667 15.4827 29.7296 15.7376 29.8779C16.0155 30.0407 16.3544 30.0407 16.6323 29.8779C19.4156 28.1739 22.0293 26.1811 24.4309 23.9314C29.6982 18.9773 32.3684 14.0407 32.3684 9.25888C32.3608 4.1468 28.4004 0.00639341 23.5118 1.12793e-05Z" fill="#C3C5C9"/>
</svg>
