<svg width="375" height="52" viewBox="0 0 375 52" fill="none" xmlns="http://www.w3.org/2000/svg">
<rect width="375" height="52" fill="#17181C"/>
<path d="M26.4766 11C29.1868 11.0004 31.5062 14.8571 32.4717 20.3301C32.9554 15.7068 34.0123 12.5 35.2383 12.5C36.4016 12.5003 37.4123 15.3877 37.9258 19.6328C38.3379 16.6838 39.0274 14.75 39.8096 14.75C41.0719 14.7501 42.0957 19.7869 42.0957 26C42.0957 32.2131 41.0719 37.2499 39.8096 37.25C39.0273 37.25 38.3378 35.3158 37.9258 32.3662C37.4123 36.6118 36.4017 39.4997 35.2383 39.5C34.0122 39.5 32.9553 36.2928 32.4717 31.6689C31.5063 37.1424 29.187 40.9996 26.4766 41C22.8999 41 20 34.2843 20 26C20 17.7157 22.8999 11 26.4766 11ZM45.5234 17.75C46.5754 17.75 47.4287 21.6115 47.4287 26.375C47.4287 31.1385 46.5754 35 45.5234 35C44.4716 34.9991 43.6191 31.1379 43.6191 26.375C43.6191 21.6121 44.4716 17.7509 45.5234 17.75ZM50.8574 21.5C51.4885 21.5005 52 23.3472 52 25.625C52 27.9028 51.4885 29.7495 50.8574 29.75C50.2262 29.75 49.7139 27.9032 49.7139 25.625C49.7139 23.3468 50.2262 21.5 50.8574 21.5Z" fill="#EE1171"/>
</svg>
