<svg width="42" height="41" viewBox="0 0 42 41" fill="none" xmlns="http://www.w3.org/2000/svg">
<path d="M8.5 0.5C12.0575 0.5 15.1019 5.64267 16.3691 12.9404C17.004 6.77587 18.3909 2.5 20 2.5C21.5267 2.5 22.8532 6.34882 23.5273 12.0078C24.0682 8.07718 24.9736 5.5 26 5.5C27.6569 5.5 29 12.2157 29 20.5C29 28.7843 27.6569 35.5 26 35.5C24.9735 35.5 24.0682 32.9224 23.5273 28.9912C22.8532 34.6507 21.5268 38.5 20 38.5C18.3908 38.5 17.0039 34.2237 16.3691 28.0586C15.102 35.3569 12.0576 40.5 8.5 40.5C3.80558 40.5 0 31.5457 0 20.5C0 9.4543 3.80558 0.5 8.5 0.5ZM33.5 9.5C34.8807 9.5 36 14.6487 36 21C36 27.3513 34.8807 32.5 33.5 32.5C32.1193 32.5 31 27.3513 31 21C31 14.6487 32.1193 9.5 33.5 9.5ZM40.5 14.5C41.3284 14.5 42 16.9624 42 20C42 23.0376 41.3284 25.5 40.5 25.5C39.6716 25.5 39 23.0376 39 20C39 16.9624 39.6716 14.5 40.5 14.5Z" fill="#EE1171"/>
</svg>
