<svg width="17" height="17" viewBox="0 0 17 17" fill="none" xmlns="http://www.w3.org/2000/svg">
<path d="M3.44043 0.5C4.88136 0.5 6.11369 2.56007 6.62598 5.48242C6.88264 3.01329 7.44384 1.2998 8.0957 1.2998C8.71365 1.30058 9.24975 2.84121 9.52246 5.10547C9.74129 3.53235 10.1079 2.50062 10.5234 2.5C11.1941 2.5 11.7383 5.18629 11.7383 8.5C11.7383 11.8137 11.1941 14.5 10.5234 14.5C10.1079 14.4994 9.74127 13.4672 9.52246 11.8936C9.24978 14.1583 8.71374 15.6994 8.0957 15.7002C7.44376 15.7002 6.88259 13.9862 6.62598 11.5166C6.11379 14.4395 4.88152 16.5 3.44043 16.5C1.54033 16.4999 0 12.9182 0 8.5C0 4.08176 1.54033 0.500058 3.44043 0.5ZM13.5596 4.09961C14.1184 4.09972 14.5713 6.15975 14.5713 8.7002C14.5713 11.2405 14.1184 13.2997 13.5596 13.2998C13.0007 13.2998 12.5479 11.2406 12.5479 8.7002C12.5479 6.15969 13.0007 4.09961 13.5596 4.09961ZM16.3926 6.09961C16.7279 6.09961 17 7.08487 17 8.2998C17 9.51483 16.7279 10.5 16.3926 10.5C16.0574 10.4995 15.7861 9.51449 15.7861 8.2998C15.7862 7.08521 16.0574 6.10016 16.3926 6.09961Z" fill="white"/>
</svg>
