<svg xmlns="http://www.w3.org/2000/svg" width="100%" height="68" viewBox="0 0 335 68" fill="none" preserveAspectRatio="none">
  <!-- 왼쪽 부분 (반응형) -->
  <path d="M0 0H259.75C262.493 7.07786 272.507 7.07786 275.25 0H329C332.314 0 335 2.68629 335 6V62C335 65.3137 332.314 68 329 68H275.25C272.507 60.9221 262.493 60.9221 259.75 68H6C2.68629 68 0 65.3137 0 62V6C5.15405e-07 2.68629 2.68629 0 6 0Z" fill="#28292A"/>
  <path d="M0 0H259.75C262.493 7.07786 272.507 7.07786 275.25 0H329C332.314 0 335 2.68629 335 6V62C335 65.3137 332.314 68 329 68H275.25C272.507 60.9221 262.493 60.9221 259.75 68H6C2.68629 68 0 65.3137 0 62V6C5.15405e-07 2.68629 2.68629 0 6 0Z" fill="url(#paint0_linear_7259_22429)"/>
  <path d="M0 0H259.75C262.493 7.07786 272.507 7.07786 275.25 0H329C332.314 0 335 2.68629 335 6V62C335 65.3137 332.314 68 329 68H275.25C272.507 60.9221 262.493 60.9221 259.75 68H6C2.68629 68 0 65.3137 0 62V6C5.15405e-07 2.68629 2.68629 0 6 0Z" fill="url(#paint1_linear_7259_22429)"/>
  
  <!-- 점선 패턴 (고정 위치) -->
  <path d="M268 14.2001H267V12H268V14.2001ZM268 23H267V18.5997H268V23ZM268 31.7999H267V27.4003H268V31.7999ZM268 40.5997H267V36.2001H268V40.5997ZM268 49.4003H267V45H268V49.4003ZM268 56H267V53.7999H268V56Z" fill="#EE1171"/>
  
  <!-- 텍스트 (고정 위치) -->
  <path d="M299.777 21.1289V22.0898C299.783 23.1797 299.783 24.3926 299.414 26.1094H300.961V27.0117H296.742V30.9844H295.629V27.0117H291.387V26.1094H298.318C298.482 25.4238 298.576 24.8086 298.635 24.252L292.406 24.5625L292.266 23.6016L298.699 23.4023C298.717 22.9336 298.723 22.5 298.723 22.0898V22.0312H292.57V21.1289H299.777Z" fill="#EE1171"/>
  <path d="M310.19 20.9414V21.8555H308.666V24.0586H310.143V24.9375H306.85V26.1211H311.092V27.0117H301.518V26.1211H305.748V24.9375H302.444V24.0586H303.932V21.8555H302.397V20.9414H310.19ZM302.725 30.7734V27.8555H303.85V29.8711H310.014V30.7734H302.725ZM305.033 24.0586H307.553V21.8555H305.033V24.0586Z" fill="#EE1171"/>
  <path d="M295.031 39.168C295.02 41.0254 296.104 42.9297 297.668 43.6914L296.977 44.582C295.834 43.9844 294.949 42.8125 294.486 41.4121C294.018 42.9004 293.098 44.1602 291.902 44.7812L291.211 43.8789C292.822 43.1055 293.912 41.0898 293.918 39.168V37.375H295.031V39.168ZM298.453 46.9961V36.4961H299.566V40.6797H301.254V41.6289H299.566V46.9961H298.453Z" fill="#EE1171"/>
  <path d="M311.092 41.6172V42.5195H301.518V41.6172H303.815V40.2051C303 39.877 302.543 39.3496 302.549 38.6523C302.543 37.4043 303.99 36.6777 306.299 36.6836C308.602 36.6777 310.043 37.4043 310.049 38.6523C310.043 39.3496 309.586 39.877 308.772 40.2109V41.6172H311.092ZM302.655 45.0977C302.655 43.8965 304.014 43.2344 306.299 43.2344C308.555 43.2344 309.914 43.8965 309.92 45.0977C309.914 46.3105 308.555 46.9727 306.299 46.9727C304.014 46.9727 302.655 46.3105 302.655 45.0977ZM303.698 38.6523C303.692 39.3555 304.664 39.748 306.299 39.7539C307.922 39.748 308.906 39.3555 308.901 38.6523C308.906 37.9492 307.922 37.5449 306.299 37.5391C304.664 37.5449 303.692 37.9492 303.698 38.6523ZM303.78 45.0977C303.774 45.7539 304.694 46.1289 306.299 46.1172C307.881 46.1289 308.807 45.7539 308.807 45.0977C308.807 44.4531 307.881 44.0898 306.299 44.0898C304.694 44.0898 303.774 44.4531 303.78 45.0977ZM304.94 41.6172H307.67V40.498C307.26 40.5625 306.797 40.5977 306.299 40.5977C305.807 40.5977 305.35 40.5625 304.94 40.5039V41.6172Z" fill="#EE1171"/>
  
  <defs>
    <linearGradient id="paint0_linear_7259_22429" x1="0" y1="34" x2="335" y2="34" gradientUnits="userSpaceOnUse">
      <stop offset="0.798429" stop-color="#381726" stop-opacity="0"/>
      <stop offset="0.798756" stop-color="#381726"/>
      <stop offset="1" stop-color="#381726"/>
    </linearGradient>
    <linearGradient id="paint1_linear_7259_22429" x1="247" y1="34.4096" x2="1.3741e-07" y2="34.4096" gradientUnits="userSpaceOnUse">
      <stop stop-color="#EE1171" stop-opacity="0"/>
      <stop offset="0.9" stop-color="#EE1171" stop-opacity="0.5"/>
    </linearGradient>
  </defs>
</svg>