<svg width="215" height="68" viewBox="0 0 215 68" fill="none" xmlns="http://www.w3.org/2000/svg">
<path d="M0 6C0 2.68629 2.68629 0 6 0H215V68H6C2.68629 68 0 65.3137 0 62V6Z" fill="#28292A"/>
<path d="M20.1602 17.5156H21.4492V23.5273C21.4434 25.1621 20.4238 26.1172 18.8594 26.1172C17.418 26.1172 16.3398 25.3086 16.3398 23.8672H17.6172C17.6289 24.5762 18.1504 25.0156 18.8945 25.0156C19.7031 25.0156 20.1543 24.5059 20.1602 23.5273V17.5156ZM24.2092 18.6406C23.8108 18.6406 23.4709 18.3066 23.4709 17.9141C23.4709 17.5039 23.8108 17.1875 24.2092 17.1875C24.6252 17.1875 24.9416 17.5039 24.9358 17.9141C24.9416 18.3066 24.6252 18.6406 24.2092 18.6406ZM22.5334 24.207C22.5276 22.7539 23.7639 22.3789 24.9123 22.2969C25.3342 22.2734 26.2893 22.2207 26.5823 22.209L26.5764 21.6992C26.5823 20.9785 26.137 20.5625 25.2873 20.5625C24.5491 20.5625 24.1038 20.9023 23.9748 21.3711H22.7327C22.844 20.3164 23.8284 19.5547 25.3342 19.5547C26.3479 19.5547 27.8245 19.9238 27.8303 21.7695V26H26.6116V25.1328H26.5647C26.3186 25.6074 25.7327 26.1406 24.678 26.1406C23.4709 26.1406 22.5276 25.4492 22.5334 24.207ZM23.7522 24.2188C23.7522 24.8281 24.2561 25.1387 24.9592 25.1445C25.9788 25.1387 26.5881 24.459 26.5881 23.7031L26.5823 23.123C26.2952 23.1406 25.387 23.2051 25.0881 23.2227C24.2678 23.2812 23.7522 23.5918 23.7522 24.2188ZM25.9084 17.9141C25.9143 17.5039 26.2541 17.1875 26.6467 17.1875C27.0627 17.1875 27.3791 17.5039 27.385 17.9141C27.3791 18.3066 27.0627 18.6406 26.6467 18.6406C26.2541 18.6406 25.9143 18.3066 25.9084 17.9141ZM31.7739 28.5195C30.1684 28.5195 29.1079 27.8105 28.9966 26.6211H30.2739C30.397 27.2246 30.9595 27.5176 31.7856 27.5117C32.7817 27.5176 33.4087 27.084 33.4145 26.0938V24.8398H33.3325C33.1098 25.25 32.6528 25.9062 31.4809 25.9062C29.9809 25.9062 28.8208 24.7871 28.8208 22.7539C28.8208 20.7207 29.9634 19.5547 31.4927 19.5547C32.6763 19.5547 33.1098 20.2695 33.3442 20.668H33.4263V19.6367H34.645V26.1406C34.6509 27.7754 33.4145 28.5195 31.7739 28.5195ZM30.0981 22.7773C30.0923 24.0254 30.6665 24.8691 31.7622 24.875C32.8286 24.8691 33.4263 24.0898 33.4263 22.7773C33.4263 21.4883 32.8403 20.6152 31.7622 20.6211C30.6548 20.6152 30.0923 21.5586 30.0981 22.7773ZM38.6706 26.1289C36.7956 26.1289 35.6413 24.834 35.6472 22.8594C35.6413 20.9023 36.8132 19.5547 38.5886 19.5547C40.0359 19.5547 41.4128 20.4512 41.4128 22.7539V23.1992H36.8894C36.9245 24.4121 37.6394 25.0977 38.6823 25.0977C39.3913 25.0977 39.8542 24.793 40.0652 24.4062H41.3308C41.0495 25.4375 40.071 26.1289 38.6706 26.1289ZM36.8952 22.2617H40.1823C40.1823 21.2949 39.5554 20.5801 38.6003 20.5859C37.5984 20.5801 36.948 21.3652 36.8952 22.2617ZM42.415 26V19.6367H43.622V20.6445H43.6923C43.9267 19.9648 44.5654 19.5371 45.3095 19.543C45.4619 19.5371 45.708 19.5547 45.8369 19.5664V20.7617C45.7314 20.7383 45.4384 20.6855 45.1806 20.6914C44.3134 20.6855 43.6689 21.2891 43.6689 22.1211V26H42.415ZM46.5344 26V19.6367H47.7414V20.6797H47.8117C48.0812 19.9707 48.7082 19.5547 49.5461 19.5547C50.3957 19.5547 50.9875 19.9707 51.257 20.6797H51.3273C51.6262 19.9941 52.3176 19.5547 53.2375 19.5547C54.3859 19.5547 55.2004 20.2754 55.2062 21.7344V26H53.9523V21.8516C53.9523 20.9902 53.4133 20.6328 52.757 20.6328C51.9543 20.6328 51.4914 21.1836 51.4914 21.9453V26H50.2492V21.7812C50.2492 21.084 49.7746 20.6328 49.0891 20.6328C48.3859 20.6328 47.7883 21.2188 47.7883 22.0742V26H46.5344ZM59.2202 26.1289C57.3452 26.1289 56.1909 24.834 56.1967 22.8594C56.1909 20.9023 57.3627 19.5547 59.1381 19.5547C60.5854 19.5547 61.9623 20.4512 61.9623 22.7539V23.1992H57.4389C57.4741 24.4121 58.1889 25.0977 59.2319 25.0977C59.9409 25.0977 60.4038 24.793 60.6147 24.4062H61.8803C61.5991 25.4375 60.6205 26.1289 59.2202 26.1289ZM57.4448 22.2617H60.7319C60.7319 21.2949 60.1049 20.5801 59.1498 20.5859C58.1479 20.5801 57.4975 21.3652 57.4448 22.2617ZM62.9645 26V19.6367H64.2184V26H62.9645ZM62.8005 17.9141C62.8063 17.5039 63.1637 17.1758 63.5973 17.1758C64.0251 17.1758 64.3825 17.5039 64.3825 17.9141C64.3825 18.3242 64.0251 18.6582 63.5973 18.6523C63.1637 18.6582 62.8063 18.3242 62.8005 17.9141ZM69.0761 21.3711C68.9589 20.8672 68.5605 20.5391 67.8691 20.5391C67.1542 20.5391 66.6445 20.9082 66.6503 21.3945C66.6445 21.7695 66.9433 22.0391 67.6464 22.2031L68.6542 22.4375C69.8261 22.7012 70.3945 23.2578 70.4003 24.1602C70.3945 25.3086 69.4218 26.1289 67.7988 26.1289C66.2695 26.1289 65.3671 25.4492 65.2089 24.2656H66.4863C66.5976 24.8398 67.0312 25.127 67.787 25.1211C68.5956 25.127 69.1171 24.7871 69.123 24.2539C69.1171 23.8438 68.8124 23.5801 68.1386 23.4219L67.1425 23.2109C65.9941 22.959 65.3964 22.3438 65.3964 21.4648C65.3964 20.334 66.3808 19.5547 67.8573 19.5547C69.2753 19.5547 70.1601 20.2754 70.2831 21.3711H69.0761ZM74.3556 19.6367V20.6328H73.0548V24.125C73.0607 24.8457 73.4123 24.9746 73.8166 24.9805C73.9982 24.9805 74.2736 24.9629 74.4494 24.9453V26.0352C74.2795 26.0586 74.0099 26.082 73.6642 26.082C72.6857 26.082 71.8009 25.543 71.8127 24.3828V20.6328H70.8752V19.6367H71.8127V18.1133H73.0548V19.6367H74.3556ZM78.0062 26.1289C76.1312 26.1289 74.977 24.834 74.9828 22.8594C74.977 20.9023 76.1488 19.5547 77.9242 19.5547C79.3715 19.5547 80.7484 20.4512 80.7484 22.7539V23.1992H76.225C76.2602 24.4121 76.975 25.0977 78.018 25.0977C78.727 25.0977 79.1898 24.793 79.4008 24.4062H80.6664C80.3852 25.4375 79.4066 26.1289 78.0062 26.1289ZM76.2309 22.2617H79.518C79.518 21.2949 78.891 20.5801 77.9359 20.5859C76.934 20.5801 76.2836 21.3652 76.2309 22.2617ZM81.7506 26V19.6367H82.9577V20.6445H83.028C83.2623 19.9648 83.901 19.5371 84.6452 19.543C84.7975 19.5371 85.0436 19.5547 85.1725 19.5664V20.7617C85.067 20.7383 84.7741 20.6855 84.5163 20.6914C83.6491 20.6855 83.0045 21.2891 83.0045 22.1211V26H81.7506ZM88.6652 26V17.5156H91.6886C93.6632 17.5156 94.63 18.6992 94.63 20.2695C94.63 21.834 93.6573 23.0234 91.6886 23.0234H89.9542V26H88.6652ZM89.9542 21.9219H91.5597C92.8077 21.9277 93.3292 21.2246 93.3292 20.2695C93.3292 19.3086 92.8077 18.623 91.5597 18.6172H89.9542V21.9219ZM95.6439 26V19.6367H96.8978V26H95.6439ZM95.4798 17.9141C95.4857 17.5039 95.8431 17.1758 96.2767 17.1758C96.7045 17.1758 97.0619 17.5039 97.0619 17.9141C97.0619 18.3242 96.7045 18.6582 96.2767 18.6523C95.8431 18.6582 95.4857 18.3242 95.4798 17.9141ZM100.877 26.1289C99.0191 26.1289 97.8941 24.7637 97.9 22.8477C97.8941 20.9082 99.0602 19.5547 100.853 19.5547C102.306 19.5547 103.355 20.4102 103.49 21.6992H102.271C102.142 21.1016 101.668 20.6035 100.877 20.5977C99.8453 20.6035 99.1539 21.459 99.1539 22.8125C99.1539 24.207 99.8277 25.0684 100.877 25.0625C101.586 25.0684 102.113 24.6699 102.271 23.9844H103.49C103.355 25.2207 102.377 26.1289 100.877 26.1289ZM104.433 26V17.5156H105.687V22.3203H105.793L108.312 19.6367H109.812L107.24 22.3672L109.988 26H108.453L106.291 23.1406L105.687 23.7383V26H104.433Z" fill="#28292A"/>
<path d="M16.9531 48V36.6875H24.4062V38.625H19.2969V41.375H23.9219V43.3125H19.2969V48H16.9531ZM25.4456 48V39.5156H27.68V40.9844H27.7738C28.0784 39.9453 28.8675 39.3906 29.8206 39.3906C30.055 39.3906 30.3519 39.4219 30.555 39.4688V41.5312C30.3363 41.4609 29.8909 41.4062 29.5706 41.4062C28.5238 41.4062 27.7503 42.1328 27.7581 43.1719V48H25.4456ZM34.9381 48.1719C32.3366 48.1641 30.7428 46.4844 30.7506 43.7969C30.7428 41.1797 32.36 39.4062 34.8444 39.4062C37.0709 39.4062 38.8287 40.8125 38.8287 43.7031V44.3594H33.0319C33.0319 45.6406 33.7897 46.4297 34.985 46.4375C35.7741 46.4297 36.3366 46.0859 36.5631 45.5781H38.7662C38.4381 47.1484 37.0319 48.1641 34.9381 48.1719ZM33.0319 42.9062H36.6412C36.6334 41.875 35.9225 41.1328 34.8912 41.1406C33.8287 41.1328 33.0787 41.9297 33.0319 42.9062ZM43.8056 48.1719C41.2041 48.1641 39.6103 46.4844 39.6181 43.7969C39.6103 41.1797 41.2275 39.4062 43.7119 39.4062C45.9384 39.4062 47.6963 40.8125 47.6963 43.7031V44.3594H41.8994C41.8994 45.6406 42.6572 46.4297 43.8525 46.4375C44.6416 46.4297 45.2041 46.0859 45.4306 45.5781H47.6338C47.3056 47.1484 45.8994 48.1641 43.8056 48.1719ZM41.8994 42.9062H45.5088C45.5009 41.875 44.79 41.1328 43.7588 41.1406C42.6963 41.1328 41.9463 41.9297 41.8994 42.9062ZM56.2281 48H52.2438V36.6875H56.275C59.6813 36.6875 61.7672 38.8047 61.7594 42.3281C61.7672 45.8672 59.6813 48 56.2281 48ZM54.5875 45.9844H56.1344C58.2906 45.9844 59.4156 44.8672 59.4156 42.3281C59.4156 39.8125 58.2906 38.7031 56.15 38.7031H54.5875V45.9844ZM63.0956 48V39.5156H65.33V40.9844H65.4238C65.7284 39.9453 66.5175 39.3906 67.4706 39.3906C67.705 39.3906 68.0019 39.4219 68.205 39.4688V41.5312C67.9863 41.4609 67.5409 41.4062 67.2206 41.4062C66.1738 41.4062 65.4003 42.1328 65.4081 43.1719V48H63.0956ZM69.01 48V39.5156H71.3225V48H69.01ZM68.9006 37.2344C68.9006 36.5781 69.4709 36.0547 70.1662 36.0469C70.8537 36.0547 71.4241 36.5781 71.4162 37.2344C71.4241 37.875 70.8537 38.4062 70.1662 38.4062C69.4709 38.4062 68.9006 37.875 68.9006 37.2344ZM75.1119 43.0938V48H72.7994V39.5156H75.0025V41H75.0962C75.4791 40.0234 76.3853 39.4062 77.6431 39.4062C79.4166 39.4062 80.5728 40.6172 80.565 42.5938V48H78.2681V43C78.2603 41.9531 77.6978 41.3281 76.7369 41.3281C75.7759 41.3281 75.1119 41.9766 75.1119 43.0938ZM82.0419 48V36.6875H84.3544V42.7656H84.4794L87.2294 39.5156H89.8856L86.7216 43.1875L90.0575 48H87.3388L85.0028 44.5469L84.3544 45.2812V48H82.0419ZM101.621 40.625C101.433 39.375 100.472 38.6172 99.1519 38.6094C97.3941 38.6172 96.23 39.9609 96.23 42.3438C96.23 44.7812 97.4097 46.0703 99.1363 46.0781C100.425 46.0703 101.394 45.3672 101.621 44.1406L103.996 44.1562C103.738 46.25 101.98 48.1562 99.105 48.1562C96.0816 48.1562 93.8394 46.0234 93.8394 42.3438C93.8394 38.6484 96.1206 36.5312 99.105 36.5312C101.714 36.5312 103.683 38.0234 103.996 40.625H101.621ZM109.082 48.1719C106.519 48.1641 104.918 46.4062 104.926 43.7812C104.918 41.1641 106.519 39.4062 109.082 39.4062C111.652 39.4062 113.246 41.1641 113.254 43.7812C113.246 46.4062 111.652 48.1641 109.082 48.1719ZM107.269 43.7812C107.269 45.2656 107.887 46.3672 109.098 46.375C110.277 46.3672 110.902 45.2656 110.894 43.7812C110.902 42.2891 110.277 41.1719 109.098 41.1719C107.887 41.1719 107.269 42.2891 107.269 43.7812ZM119.824 44.3906V39.5156H122.137V48H119.918V46.4688H119.824C119.442 47.4531 118.527 48.1094 117.246 48.1094C115.551 48.1094 114.387 46.9062 114.387 44.9219V39.5156H116.699V44.5156C116.699 45.5234 117.277 46.1484 118.184 46.1562C119.027 46.1484 119.824 45.5469 119.824 44.3906ZM123.614 51.1875V39.5156H125.895V40.9375H125.989C126.309 40.25 126.981 39.4062 128.411 39.4062C130.286 39.4062 131.856 40.8594 131.848 43.7656C131.856 46.6016 130.348 48.1406 128.411 48.1406C127.028 48.1406 126.317 47.3438 125.989 46.6406H125.926V51.1875H123.614ZM125.879 43.75C125.872 45.2812 126.528 46.2891 127.676 46.2969C128.856 46.2891 129.497 45.25 129.489 43.75C129.497 42.2734 128.872 41.25 127.676 41.25C126.52 41.25 125.872 42.2266 125.879 43.75ZM136.841 48.1719C134.278 48.1641 132.677 46.4062 132.684 43.7812C132.677 41.1641 134.278 39.4062 136.841 39.4062C139.411 39.4062 141.005 41.1641 141.012 43.7812C141.005 46.4062 139.411 48.1641 136.841 48.1719ZM135.028 43.7812C135.028 45.2656 135.645 46.3672 136.856 46.375C138.036 46.3672 138.661 45.2656 138.653 43.7812C138.661 42.2891 138.036 41.1719 136.856 41.1719C135.645 41.1719 135.028 42.2891 135.028 43.7812ZM144.458 43.0938V48H142.146V39.5156H144.349V41H144.442C144.825 40.0234 145.732 39.4062 146.989 39.4062C148.763 39.4062 149.919 40.6172 149.911 42.5938V48H147.614V43C147.607 41.9531 147.044 41.3281 146.083 41.3281C145.122 41.3281 144.458 41.9766 144.458 43.0938Z" fill="#28292A"/>
</svg>
