<svg width="79" height="68" viewBox="0 0 79 68" fill="none" xmlns="http://www.w3.org/2000/svg">
<path d="M3.75 0C6.49267 7.07786 16.5073 7.07786 19.25 0H73C76.3137 0 79 2.68629 79 6V62C79 65.3137 76.3137 68 73 68H19.25C16.5073 60.9221 6.49267 60.9221 3.75 68H0V0H3.75Z" fill="#28292A"/>
<path d="M3.75 0C6.49267 7.07786 16.5073 7.07786 19.25 0H73C76.3137 0 79 2.68629 79 6V62C79 65.3137 76.3137 68 73 68H19.25C16.5073 60.9221 6.49267 60.9221 3.75 68H0V0H3.75Z" fill="url(#paint0_linear_9981_25116)"/>
<path d="M12 56H11V53.25H12V56Z" fill="#7C7F83"/>
<path d="M37.9766 47.8594H44.0234V48.7734H36.8633V45.832H37.9766V47.8594Z" fill="#7C7F83"/>
<path d="M12 47.75H11V42.25H12V47.75Z" fill="#7C7F83"/>
<path fill-rule="evenodd" clip-rule="evenodd" d="M53.9551 42.5156H47.791V44.0391H54.2012V44.9531H52.6074V46.8047H55.127V47.7422H45.5176V46.8047H48.1426V44.9531H46.6895V41.6133H52.8535V40.1484H46.666V39.2344H53.9551V42.5156ZM49.2207 46.8047H51.5176V44.9531H49.2207V46.8047Z" fill="#7C7F83"/>
<path d="M43.6484 41.9766H45.1484V42.9141H43.6484V46.5352H42.5352V38.5078H43.6484V41.9766Z" fill="#7C7F83"/>
<path fill-rule="evenodd" clip-rule="evenodd" d="M38.5742 38.9648C40.1094 38.9648 41.1875 39.8086 41.1992 41.0625C41.1875 42.1289 40.3789 42.9082 39.1602 43.1016V44.0391C40.0859 43.9863 41.0234 43.8984 41.8906 43.7695L41.9727 44.5898C39.7695 44.9883 37.2969 45.0293 35.4922 45.0234L35.375 44.1211C36.1602 44.127 37.0801 44.1211 38.0469 44.0859V43.1133C36.793 42.9375 35.9551 42.1465 35.9609 41.0625C35.9551 39.8086 37.0332 38.9648 38.5742 38.9648ZM38.5742 39.8203C37.6484 39.8203 36.9922 40.3008 37.0039 41.0625C36.9922 41.8066 37.6484 42.293 38.5742 42.293C39.5059 42.293 40.1445 41.8066 40.1445 41.0625C40.1445 40.3008 39.5059 39.8203 38.5742 39.8203Z" fill="#7C7F83"/>
<path d="M12 36.75H11V31.25H12V36.75Z" fill="#7C7F83"/>
<path d="M43.5664 23.6797H45.2539V24.6289H43.5664V29.9961H42.4531V19.4961H43.5664V23.6797Z" fill="#7C7F83"/>
<path fill-rule="evenodd" clip-rule="evenodd" d="M50.2988 26.2344C52.5547 26.2344 53.9141 26.8965 53.9199 28.0977C53.9141 29.3105 52.5547 29.9727 50.2988 29.9727C48.0138 29.9726 46.6543 29.3105 46.6543 28.0977C46.6543 26.8965 48.0138 26.2344 50.2988 26.2344ZM50.2988 27.0898C48.6935 27.0899 47.7734 27.4532 47.7793 28.0977C47.7734 28.7539 48.6935 29.1289 50.2988 29.1172C51.8809 29.1289 52.8066 28.7539 52.8066 28.0977C52.8066 27.4531 51.8809 27.0898 50.2988 27.0898Z" fill="#7C7F83"/>
<path d="M39.0312 22.168C39.0195 24.0254 40.1035 25.9297 41.668 26.6914L40.9766 27.582C39.834 26.9844 38.9492 25.8125 38.4863 24.4121C38.0176 25.9004 37.0977 27.1602 35.9023 27.7812L35.2109 26.8789C36.8223 26.1055 37.9121 24.0898 37.918 22.168V20.375H39.0312V22.168Z" fill="#7C7F83"/>
<path d="M12 25.75H11V20.25H12V25.75Z" fill="#7C7F83"/>
<path fill-rule="evenodd" clip-rule="evenodd" d="M50.2988 19.6836C52.6016 19.6777 54.043 20.4043 54.0488 21.6523C54.043 22.3496 53.5859 22.877 52.7715 23.2109V24.6172H55.0918V25.5195H45.5176V24.6172H47.8145V23.2051C47.0001 22.8769 46.543 22.3496 46.5488 21.6523C46.543 20.4043 47.9904 19.6778 50.2988 19.6836ZM51.6699 23.498C51.2598 23.5625 50.7968 23.5977 50.2988 23.5977C49.8067 23.5976 49.3495 23.5625 48.9395 23.5039V24.6172H51.6699V23.498ZM50.2988 20.5391C48.6642 20.545 47.6914 20.9493 47.6973 21.6523C47.6914 22.3554 48.6642 22.748 50.2988 22.7539C51.9219 22.748 52.9062 22.3555 52.9004 21.6523C52.9062 20.9492 51.9219 20.5449 50.2988 20.5391Z" fill="#7C7F83"/>
<path d="M12 14.75H11V12H12V14.75Z" fill="#7C7F83"/>
<defs>
<linearGradient id="paint0_linear_9981_25116" x1="79" y1="34" x2="11.5" y2="34" gradientUnits="userSpaceOnUse">
<stop stop-color="#1F2123"/>
<stop offset="0.999974" stop-color="#1F2123"/>
<stop offset="1" stop-color="#28292A"/>
</linearGradient>
</defs>
</svg>
