<svg width="79" height="68" viewBox="0 0 79 68" fill="none" xmlns="http://www.w3.org/2000/svg">
<path d="M3.75 0C6.49267 7.07786 16.5073 7.07786 19.25 0H73C76.3137 0 79 2.68629 79 6V62C79 65.3137 76.3137 68 73 68H19.25C16.5073 60.9221 6.49267 60.9221 3.75 68H0V0H3.75Z" fill="#28292A"/>
<path d="M3.75 0C6.49267 7.07786 16.5073 7.07786 19.25 0H73C76.3137 0 79 2.68629 79 6V62C79 65.3137 76.3137 68 73 68H19.25C16.5073 60.9221 6.49267 60.9221 3.75 68H0V0H3.75Z" fill="url(#paint0_linear_9981_25113)"/>
<path d="M12 56H11V53.25H12V56Z" fill="#EE1171"/>
<path d="M43.5664 42.6797H45.2539V43.6289H43.5664V48.9961H42.4531V38.4961H43.5664V42.6797Z" fill="#EE1171"/>
<path fill-rule="evenodd" clip-rule="evenodd" d="M50.2988 45.2344C52.5547 45.2344 53.9141 45.8965 53.9199 47.0977C53.9141 48.3105 52.5547 48.9727 50.2988 48.9727C48.0138 48.9726 46.6543 48.3105 46.6543 47.0977C46.6543 45.8965 48.0138 45.2344 50.2988 45.2344ZM50.2988 46.0898C48.6935 46.0899 47.7734 46.4532 47.7793 47.0977C47.7734 47.7539 48.6935 48.1289 50.2988 48.1172C51.8809 48.1289 52.8066 47.7539 52.8066 47.0977C52.8066 46.4531 51.8809 46.0898 50.2988 46.0898Z" fill="#EE1171"/>
<path d="M12 47.75H11V42.25H12V47.75Z" fill="#EE1171"/>
<path d="M39.0312 41.168C39.0195 43.0254 40.1035 44.9297 41.668 45.6914L40.9766 46.582C39.834 45.9844 38.9492 44.8125 38.4863 43.4121C38.0176 44.9004 37.0977 46.1602 35.9023 46.7812L35.2109 45.8789C36.8223 45.1055 37.9121 43.0898 37.918 41.168V39.375H39.0312V41.168Z" fill="#EE1171"/>
<path fill-rule="evenodd" clip-rule="evenodd" d="M50.2988 38.6836C52.6016 38.6777 54.043 39.4043 54.0488 40.6523C54.043 41.3496 53.5859 41.877 52.7715 42.2109V43.6172H55.0918V44.5195H45.5176V43.6172H47.8145V42.2051C47.0001 41.8769 46.543 41.3496 46.5488 40.6523C46.543 39.4043 47.9904 38.6778 50.2988 38.6836ZM51.6699 42.498C51.2598 42.5625 50.7968 42.5977 50.2988 42.5977C49.8067 42.5976 49.3495 42.5625 48.9395 42.5039V43.6172H51.6699V42.498ZM50.2988 39.5391C48.6642 39.545 47.6914 39.9493 47.6973 40.6523C47.6914 41.3554 48.6642 41.748 50.2988 41.7539C51.9219 41.748 52.9062 41.3555 52.9004 40.6523C52.9062 39.9492 51.9219 39.5449 50.2988 39.5391Z" fill="#EE1171"/>
<path d="M12 36.75H11V31.25H12V36.75Z" fill="#EE1171"/>
<path d="M43.7773 21.0898C43.7832 22.1797 43.7832 23.3926 43.4141 25.1094H44.9609V26.0117H40.7422V29.9844H39.6289V26.0117H35.3867V25.1094H42.3184C42.4824 24.4238 42.5762 23.8086 42.6348 23.252L36.4062 23.5625L36.2656 22.6016L42.6992 22.4023C42.7168 21.9336 42.7227 21.5 42.7227 21.0898V21.0312H36.5703V20.1289H43.7773V21.0898Z" fill="#EE1171"/>
<path d="M47.8496 28.8711H54.0137V29.7734H46.7246V26.8555H47.8496V28.8711Z" fill="#EE1171"/>
<path fill-rule="evenodd" clip-rule="evenodd" d="M54.1895 20.8555H52.666V23.0586H54.1426V23.9375H50.8496V25.1211H55.0918V26.0117H45.5176V25.1211H49.748V23.9375H46.4434V23.0586H47.9316V20.8555H46.3965V19.9414H54.1895V20.8555ZM49.0332 23.0586H51.5527V20.8555H49.0332V23.0586Z" fill="#EE1171"/>
<path d="M12 25.75H11V20.25H12V25.75Z" fill="#EE1171"/>
<path d="M12 14.75H11V12H12V14.75Z" fill="#EE1171"/>
<defs>
<linearGradient id="paint0_linear_9981_25113" x1="79" y1="34" x2="11.5" y2="34" gradientUnits="userSpaceOnUse">
<stop stop-color="#381726"/>
<stop offset="0.999974" stop-color="#381726"/>
<stop offset="1" stop-color="#28292A"/>
</linearGradient>
</defs>
</svg>
