<svg width="79" height="68" viewBox="0 0 79 68" fill="none" xmlns="http://www.w3.org/2000/svg">
<path d="M3.75 0C6.49267 7.07786 16.5073 7.07786 19.25 0H73C76.3137 0 79 2.68629 79 6V62C79 65.3137 76.3137 68 73 68H19.25C16.5073 60.9221 6.49267 60.9221 3.75 68H0V0H3.75Z" fill="#28292A"/>
<path d="M12 56H11V53.25H12V56Z" fill="#EE1171"/>
<path d="M12 47.75H11V42.25H12V47.75Z" fill="#EE1171"/>
<path d="M39.001 40.2812C39.001 40.4608 39.0752 40.6259 39.2246 40.7754C39.3741 40.9249 39.5391 41 39.7188 41H52.2822C52.4619 41 52.6268 40.9249 52.7764 40.7754C52.9259 40.6259 53.001 40.4609 53.001 40.2812V37.4551H54.167V40.2812C54.167 40.8183 53.9877 41.2672 53.6279 41.627C53.2682 41.9867 52.8193 42.166 52.2822 42.166H39.7188C39.1819 42.166 38.7337 41.9865 38.374 41.627C38.0143 41.2672 37.834 40.8183 37.834 40.2812V37.4551H39.001V40.2812Z" fill="#EE1171"/>
<path d="M46.584 35.9248L49.3027 33.2051L50.1289 34.0449L46.001 38.1729L41.8721 34.0449L42.6982 33.2051L45.417 35.9248V25.833H46.584V35.9248Z" fill="#EE1171"/>
<path d="M12 36.75H11V31.25H12V36.75Z" fill="#EE1171"/>
<path d="M12 25.75H11V20.25H12V25.75Z" fill="#EE1171"/>
<path d="M12 14.75H11V12H12V14.75Z" fill="#EE1171"/>
</svg>
