<svg width="28" height="28" viewBox="0 0 28 28" fill="none" xmlns="http://www.w3.org/2000/svg">
<path d="M19.0459 4.0498C22.5193 4.05425 25.3371 6.83237 25.3428 10.2676V10.2686C25.3427 13.2599 23.6847 16.3108 20.4736 19.3477L19.8105 19.9551C18.1472 21.4261 16.3368 22.7295 14.4092 23.8438L14.4053 23.8457C14.1538 23.9845 13.8471 23.9847 13.5957 23.8457V23.8447C13.3965 23.7351 9.22904 21.4094 6.08691 17.8633V17.8623C5.78458 17.5198 5.81907 16.9991 6.16602 16.7002C6.51141 16.403 7.03507 16.4384 7.33691 16.7783C9.74018 19.4908 12.8871 21.5027 14 22.1719C14.9283 21.6125 17.2844 20.1103 19.4414 18.042C21.6912 15.8847 23.6815 13.1545 23.6816 10.2686C23.6806 8.42591 22.5587 6.76193 20.833 6.05078C18.4679 5.07579 15.7522 6.1786 14.7666 8.50781H14.7656C14.681 8.7061 14.5221 8.86492 14.3203 8.94824C13.899 9.12195 13.4125 8.92752 13.2344 8.50781C12.5145 6.80646 10.8279 5.69629 8.95605 5.69629C6.39309 5.69658 4.31836 7.7456 4.31836 10.2676C4.31837 10.3896 4.32203 10.513 4.3291 10.6338L4.33008 10.6455H4.3291C4.34932 11.0976 3.99822 11.4786 3.54492 11.5029C3.08997 11.5271 2.69517 11.1836 2.66992 10.7275C2.66131 10.5736 2.65723 10.4185 2.65723 10.2666C2.65723 8.20693 3.69225 6.28175 5.41602 5.125L5.68848 4.95215C8.45559 3.29271 12.0602 3.98044 14 6.54492C15.1842 4.97699 17.0538 4.04684 19.0459 4.0498ZM13.167 23.3623C13.4696 23.5448 13.6566 23.6512 13.6924 23.6709C13.7145 23.6831 13.7375 23.6931 13.7607 23.7021C13.7378 23.6931 13.7152 23.683 13.6934 23.6709C13.6588 23.6519 13.4712 23.5457 13.167 23.3623ZM11.2959 22.1436C11.6297 22.3771 11.9411 22.5863 12.2217 22.7695C11.9411 22.5863 11.6297 22.3771 11.2959 22.1436ZM9.10449 11.0537C9.3598 10.6759 9.87432 10.5761 10.2549 10.8262C10.3469 10.8867 10.4243 10.9644 10.4844 11.0518L10.4854 11.0537L13.1582 15.0098L14.1504 13.542C14.3049 13.313 14.5656 13.1778 14.8408 13.1777H17.3633C17.8191 13.1777 18.1943 13.5437 18.1943 14C18.1942 14.4561 17.819 14.8223 17.3633 14.8223H15.2842L13.8486 16.9463C13.5932 17.3237 13.0796 17.4237 12.6992 17.1738C12.6072 17.1132 12.5298 17.0347 12.4697 16.9473L12.4688 16.9463L9.79395 12.9902L8.80371 14.457C8.64919 14.6862 8.38874 14.8223 8.11328 14.8223H3.9082C3.45276 14.8219 3.07826 14.4559 3.07812 14C3.07813 13.544 3.45268 13.1781 3.9082 13.1777H7.66992L9.10449 11.0537ZM3.78125 14.6094H3.78711C3.74903 14.6017 3.71209 14.591 3.67676 14.5771C3.71042 14.5904 3.74503 14.602 3.78125 14.6094ZM17.9941 14L17.9844 13.8896C17.9838 13.8866 17.982 13.8839 17.9814 13.8809C17.9891 13.9194 17.9941 13.9592 17.9941 14ZM9.35156 11.0674C9.32165 11.0964 9.29469 11.1293 9.27051 11.165L7.77539 13.3779H7.77637L9.27051 11.165C9.3188 11.0936 9.37996 11.0356 9.44824 10.9912V10.9902C9.41397 11.0125 9.38142 11.0381 9.35156 11.0674ZM3.40625 11.2979L3.53418 11.3037V11.3027C3.44921 11.3072 3.3676 11.2947 3.29199 11.2686C3.32884 11.2813 3.36677 11.292 3.40625 11.2979ZM5.49609 6.93555C5.46993 6.96213 5.4435 6.98844 5.41797 7.01562C5.44354 6.98848 5.46987 6.96207 5.49609 6.93555ZM13.4199 6.16602C13.524 6.27652 13.6249 6.39123 13.7217 6.51074C13.6249 6.39092 13.5242 6.27571 13.4199 6.16504V6.16602ZM7.47168 5.72656C7.42738 5.74074 7.38358 5.75609 7.33984 5.77148C7.38361 5.75621 7.42735 5.74064 7.47168 5.72656ZM19.0254 5.49609C19.1824 5.49541 19.3402 5.50189 19.498 5.5166L19.2617 5.5L19.0254 5.49609ZM10.9473 4.58008C11.0396 4.61147 11.1318 4.64391 11.2227 4.67969C11.0408 4.60812 10.8555 4.54613 10.668 4.49219L10.9473 4.58008Z" fill="white"/>
</svg>
