<svg width="76" height="15" viewBox="0 0 76 15" fill="none" xmlns="http://www.w3.org/2000/svg">
<path d="M12.12 14H9.86V7.9H2.72V14H0.46V-2.38419e-07H2.72V5.88H9.86V-2.38419e-07H12.12V14ZM18.708 14.12C17.6813 14.12 16.7613 13.8867 15.948 13.42C15.1346 12.9533 14.4946 12.3067 14.028 11.48C13.5613 10.6533 13.328 9.72 13.328 8.68C13.328 7.64 13.5613 6.70667 14.028 5.88C14.4946 5.05333 15.1346 4.40667 15.948 3.94C16.7613 3.47333 17.6813 3.24 18.708 3.24C19.7346 3.24 20.6546 3.47333 21.468 3.94C22.2813 4.40667 22.9146 5.05333 23.368 5.88C23.8346 6.70667 24.068 7.64 24.068 8.68C24.068 9.72 23.8346 10.6533 23.368 11.48C22.9146 12.3067 22.2813 12.9533 21.468 13.42C20.6546 13.8867 19.7346 14.12 18.708 14.12ZM18.708 12.22C19.308 12.22 19.8413 12.0733 20.308 11.78C20.788 11.4867 21.1613 11.0733 21.428 10.54C21.708 10.0067 21.848 9.38667 21.848 8.68C21.848 7.97333 21.708 7.35333 21.428 6.82C21.1613 6.28667 20.788 5.87333 20.308 5.58C19.8413 5.28667 19.308 5.14 18.708 5.14C18.1213 5.14 17.588 5.28667 17.108 5.58C16.628 5.87333 16.248 6.28667 15.968 6.82C15.7013 7.35333 15.568 7.97333 15.568 8.68C15.568 9.38667 15.7013 10.0067 15.968 10.54C16.248 11.0733 16.628 11.4867 17.108 11.78C17.588 12.0733 18.1213 12.22 18.708 12.22ZM31.5853 13.44C31.3186 13.6667 30.9786 13.84 30.5653 13.96C30.1653 14.0667 29.7453 14.12 29.3053 14.12C28.2253 14.12 27.392 13.8267 26.8053 13.24C26.2186 12.64 25.9253 11.78 25.9253 10.66V5.32H24.2653V3.52H25.9253V1.02H28.1253V3.52H30.9053V5.32H28.1253V10.6C28.1253 11.1333 28.252 11.5467 28.5053 11.84C28.772 12.1333 29.1386 12.28 29.6053 12.28C30.1386 12.28 30.5853 12.12 30.9453 11.8L31.5853 13.44ZM41.7966 -2.38419e-07C43.5299 -2.38419e-07 44.8966 0.44 45.8966 1.32C46.9099 2.2 47.4166 3.40667 47.4166 4.94C47.4166 5.95333 47.1899 6.83333 46.7366 7.58C46.2832 8.31333 45.6299 8.88 44.7766 9.28C43.9366 9.66667 42.9432 9.86 41.7966 9.86H38.6966V14H36.4166V-2.38419e-07H41.7966ZM41.6966 7.9C42.8032 7.9 43.6499 7.64 44.2366 7.12C44.8232 6.6 45.1166 5.87333 45.1166 4.94C45.1166 3.99333 44.8232 3.26 44.2366 2.74C43.6499 2.22 42.8032 1.96 41.6966 1.96H38.6966V7.9H41.6966ZM53.1801 14.12C52.1534 14.12 51.2334 13.8867 50.4201 13.42C49.6067 12.9533 48.9667 12.3067 48.5001 11.48C48.0334 10.6533 47.8001 9.72 47.8001 8.68C47.8001 7.64 48.0334 6.70667 48.5001 5.88C48.9667 5.05333 49.6067 4.40667 50.4201 3.94C51.2334 3.47333 52.1534 3.24 53.1801 3.24C54.2067 3.24 55.1267 3.47333 55.9401 3.94C56.7534 4.40667 57.3867 5.05333 57.8401 5.88C58.3067 6.70667 58.5401 7.64 58.5401 8.68C58.5401 9.72 58.3067 10.6533 57.8401 11.48C57.3867 12.3067 56.7534 12.9533 55.9401 13.42C55.1267 13.8867 54.2067 14.12 53.1801 14.12ZM53.1801 12.22C53.7801 12.22 54.3134 12.0733 54.7801 11.78C55.2601 11.4867 55.6334 11.0733 55.9001 10.54C56.1801 10.0067 56.3201 9.38667 56.3201 8.68C56.3201 7.97333 56.1801 7.35333 55.9001 6.82C55.6334 6.28667 55.2601 5.87333 54.7801 5.58C54.3134 5.28667 53.7801 5.14 53.1801 5.14C52.5934 5.14 52.0601 5.28667 51.5801 5.58C51.1001 5.87333 50.7201 6.28667 50.4401 6.82C50.1734 7.35333 50.0401 7.97333 50.0401 8.68C50.0401 9.38667 50.1734 10.0067 50.4401 10.54C50.7201 11.0733 51.1001 11.4867 51.5801 11.78C52.0601 12.0733 52.5934 12.22 53.1801 12.22ZM63.1974 14.12C62.3708 14.12 61.5708 14.0067 60.7974 13.78C60.0241 13.5533 59.4041 13.26 58.9374 12.9L59.6974 11.22C60.1374 11.5533 60.6774 11.8267 61.3174 12.04C61.9574 12.2533 62.6108 12.36 63.2774 12.36C64.8108 12.36 65.5774 11.9 65.5774 10.98C65.5774 10.5533 65.3774 10.2533 64.9774 10.08C64.5908 9.90667 63.9774 9.74667 63.1374 9.6C62.3108 9.45333 61.6374 9.29333 61.1174 9.12C60.6108 8.94667 60.1708 8.65333 59.7974 8.24C59.4241 7.82667 59.2374 7.24 59.2374 6.48C59.2374 5.52 59.6174 4.74 60.3774 4.14C61.1508 3.54 62.2241 3.24 63.5974 3.24C64.2774 3.24 64.9574 3.32667 65.6374 3.5C66.3174 3.67333 66.8774 3.91333 67.3174 4.22L66.5374 5.86C65.6841 5.28667 64.6974 5 63.5774 5C62.8308 5 62.2708 5.12667 61.8974 5.38C61.5241 5.63333 61.3374 5.96667 61.3374 6.38C61.3374 6.83333 61.5374 7.15333 61.9374 7.34C62.3508 7.52667 62.9908 7.7 63.8574 7.86C64.6708 8.02 65.3241 8.18667 65.8174 8.36C66.3241 8.53333 66.7574 8.82667 67.1174 9.24C67.4908 9.64 67.6774 10.2067 67.6774 10.94C67.6774 11.8867 67.2774 12.6533 66.4774 13.24C65.6908 13.8267 64.5974 14.12 63.1974 14.12ZM75.4006 13.44C75.1339 13.6667 74.7939 13.84 74.3806 13.96C73.9806 14.0667 73.5606 14.12 73.1206 14.12C72.0406 14.12 71.2072 13.8267 70.6206 13.24C70.0339 12.64 69.7406 11.78 69.7406 10.66V5.32H68.0806V3.52H69.7406V1.02H71.9406V3.52H74.7206V5.32H71.9406V10.6C71.9406 11.1333 72.0672 11.5467 72.3206 11.84C72.5872 12.1333 72.9539 12.28 73.4206 12.28C73.9539 12.28 74.4006 12.12 74.7606 11.8L75.4006 13.44Z" fill="#EE1171"/>
</svg>
