<svg width="93" height="15" viewBox="0 0 93 15" fill="none" xmlns="http://www.w3.org/2000/svg">
<path d="M12.12 14H9.86V7.9H2.72V14H0.46V-2.38419e-07H2.72V5.88H9.86V-2.38419e-07H12.12V14ZM18.708 14.12C17.6813 14.12 16.7613 13.8867 15.948 13.42C15.1346 12.9533 14.4946 12.3067 14.028 11.48C13.5613 10.6533 13.328 9.72 13.328 8.68C13.328 7.64 13.5613 6.70667 14.028 5.88C14.4946 5.05333 15.1346 4.40667 15.948 3.94C16.7613 3.47333 17.6813 3.24 18.708 3.24C19.7346 3.24 20.6546 3.47333 21.468 3.94C22.2813 4.40667 22.9146 5.05333 23.368 5.88C23.8346 6.70667 24.068 7.64 24.068 8.68C24.068 9.72 23.8346 10.6533 23.368 11.48C22.9146 12.3067 22.2813 12.9533 21.468 13.42C20.6546 13.8867 19.7346 14.12 18.708 14.12ZM18.708 12.22C19.308 12.22 19.8413 12.0733 20.308 11.78C20.788 11.4867 21.1613 11.0733 21.428 10.54C21.708 10.0067 21.848 9.38667 21.848 8.68C21.848 7.97333 21.708 7.35333 21.428 6.82C21.1613 6.28667 20.788 5.87333 20.308 5.58C19.8413 5.28667 19.308 5.14 18.708 5.14C18.1213 5.14 17.588 5.28667 17.108 5.58C16.628 5.87333 16.248 6.28667 15.968 6.82C15.7013 7.35333 15.568 7.97333 15.568 8.68C15.568 9.38667 15.7013 10.0067 15.968 10.54C16.248 11.0733 16.628 11.4867 17.108 11.78C17.588 12.0733 18.1213 12.22 18.708 12.22ZM31.5853 13.44C31.3186 13.6667 30.9786 13.84 30.5653 13.96C30.1653 14.0667 29.7453 14.12 29.3053 14.12C28.2253 14.12 27.392 13.8267 26.8053 13.24C26.2186 12.64 25.9253 11.78 25.9253 10.66V5.32H24.2653V3.52H25.9253V1.02H28.1253V3.52H30.9053V5.32H28.1253V10.6C28.1253 11.1333 28.252 11.5467 28.5053 11.84C28.772 12.1333 29.1386 12.28 29.6053 12.28C30.1386 12.28 30.5853 12.12 30.9453 11.8L31.5853 13.44ZM42.7166 14H40.4766L34.6766 -2.38419e-07H37.1366L41.6966 11.04L46.2766 -2.38419e-07H48.5566L42.7166 14ZM57.4297 8.68C57.4164 8.88 57.403 9.08667 57.3897 9.3H49.3697C49.4764 10.2067 49.8364 10.9267 50.4497 11.46C51.063 11.9933 51.8364 12.26 52.7697 12.26C53.9164 12.26 54.8497 11.86 55.5697 11.06L56.7497 12.4C55.803 13.5467 54.4564 14.12 52.7097 14.12C51.6164 14.12 50.6497 13.8867 49.8097 13.42C48.9697 12.9533 48.3164 12.3067 47.8497 11.48C47.383 10.6533 47.1497 9.72 47.1497 8.68C47.1497 7.64 47.3764 6.70667 47.8297 5.88C48.283 5.05333 48.903 4.40667 49.6897 3.94C50.4764 3.47333 51.363 3.24 52.3497 3.24C53.2964 3.24 54.1564 3.46667 54.9297 3.92C55.703 4.36 56.3097 4.99333 56.7497 5.82C57.203 6.64667 57.4297 7.6 57.4297 8.68ZM52.3497 5C51.5364 5 50.8497 5.26667 50.2897 5.8C49.743 6.33333 49.4297 7.03333 49.3497 7.9H55.3697C55.2764 7.03333 54.9497 6.33333 54.3897 5.8C53.843 5.26667 53.163 5 52.3497 5ZM64.59 3.24C65.8567 3.24 66.8633 3.63333 67.61 4.42C68.37 5.19333 68.75 6.34 68.75 7.86V14H66.57V8.2C66.57 7.21333 66.35 6.47333 65.91 5.98C65.4833 5.48667 64.8633 5.24 64.05 5.24C63.1433 5.24 62.4233 5.53333 61.89 6.12C61.3567 6.69333 61.09 7.51333 61.09 8.58V14H58.89V3.36H60.99V5.06C61.3633 4.47333 61.8567 4.02667 62.47 3.72C63.0967 3.4 63.8033 3.24 64.59 3.24ZM80.6777 14H78.6177V12.3C78.2444 12.8867 77.7644 13.34 77.1777 13.66C76.5911 13.9667 75.9311 14.12 75.1977 14.12C73.8777 14.12 72.8377 13.7267 72.0777 12.94C71.3177 12.1533 70.9377 10.9933 70.9377 9.46V3.36H73.1177V9.14C73.1177 10.1267 73.3377 10.8733 73.7777 11.38C74.2177 11.8733 74.8444 12.12 75.6577 12.12C76.5244 12.12 77.2111 11.8333 77.7177 11.26C78.2377 10.6733 78.4977 9.84667 78.4977 8.78V3.36H80.6777V14ZM92.4552 8.68C92.4418 8.88 92.4285 9.08667 92.4152 9.3H84.3952C84.5018 10.2067 84.8618 10.9267 85.4752 11.46C86.0885 11.9933 86.8618 12.26 87.7952 12.26C88.9418 12.26 89.8752 11.86 90.5952 11.06L91.7752 12.4C90.8285 13.5467 89.4818 14.12 87.7352 14.12C86.6418 14.12 85.6752 13.8867 84.8352 13.42C83.9952 12.9533 83.3418 12.3067 82.8752 11.48C82.4085 10.6533 82.1752 9.72 82.1752 8.68C82.1752 7.64 82.4018 6.70667 82.8552 5.88C83.3085 5.05333 83.9285 4.40667 84.7152 3.94C85.5018 3.47333 86.3885 3.24 87.3752 3.24C88.3218 3.24 89.1818 3.46667 89.9552 3.92C90.7285 4.36 91.3352 4.99333 91.7752 5.82C92.2285 6.64667 92.4552 7.6 92.4552 8.68ZM87.3752 5C86.5618 5 85.8752 5.26667 85.3152 5.8C84.7685 6.33333 84.4552 7.03333 84.3752 7.9H90.3952C90.3018 7.03333 89.9752 6.33333 89.4152 5.8C88.8685 5.26667 88.1885 5 87.3752 5Z" fill="#EE1171"/>
</svg>
