<svg width="127" height="26" viewBox="0 0 127 26" fill="none" xmlns="http://www.w3.org/2000/svg">
<g clip-path="url(#clip0_7057_21280)">
<path d="M13.5571 11.396C14.1961 12.2151 14.5161 13.1507 14.5161 14.2027C14.5161 15.7207 13.9844 16.924 12.9218 17.8117C11.8591 18.7003 10.3767 19.1437 8.47646 19.1437H0V0.983398H8.19127C10.0398 0.983398 11.4874 1.4061 12.533 2.25151C13.5787 3.09691 14.1011 4.24385 14.1011 5.69231C14.1011 6.76222 13.8197 7.6499 13.2587 8.35722C12.6968 9.06454 11.9495 9.55582 11.0168 9.83198C12.0709 10.0565 12.918 10.5778 13.5571 11.3969V11.396ZM4.43306 8.32998H7.33666C8.06233 8.32998 8.61952 8.17029 9.00824 7.85091C9.39695 7.53154 9.59178 7.06187 9.59178 6.44097C9.59178 5.82006 9.39695 5.34569 9.00824 5.01786C8.61952 4.69003 8.06233 4.52659 7.33666 4.52659H4.43306V8.32998ZM9.42237 15.0697C9.82802 14.7335 10.0313 14.2459 10.0313 13.6081C10.0313 12.9703 9.81955 12.4697 9.39601 12.108C8.97247 11.7454 8.38893 11.5651 7.64632 11.5651H4.43212V15.5751H7.69808C8.44069 15.5751 9.01577 15.407 9.42142 15.0707L9.42237 15.0697Z" fill="#EE1171"/>
<path d="M27.5288 12.9871H17.4975C17.5662 13.8841 17.8561 14.5698 18.3663 15.0442C18.8754 15.5186 19.5023 15.7553 20.2458 15.7553C21.3517 15.7553 22.1207 15.2894 22.5527 14.3585H27.27C27.0281 15.3072 26.5914 16.1611 25.9608 16.9201C25.3302 17.6791 24.5396 18.2746 23.589 18.7048C22.6384 19.136 21.5757 19.352 20.4002 19.352C18.9827 19.352 17.7215 19.0505 16.6156 18.4465C15.5097 17.8434 14.6457 16.9811 14.0236 15.8596C13.4014 14.7389 13.0908 13.4276 13.0908 11.9275C13.0908 10.4274 13.3977 9.11603 14.0113 7.9954C14.625 6.87476 15.4843 6.01245 16.5902 5.40845C17.6961 4.8054 18.9658 4.50293 20.4011 4.50293C21.8365 4.50293 23.045 4.796 24.1339 5.38215C25.2229 5.9683 26.0737 6.80525 26.6874 7.89113C27.3001 8.97795 27.6079 10.2451 27.6079 11.6945C27.6079 12.1088 27.5816 12.5399 27.5298 12.988L27.5288 12.9871ZM23.0704 10.5288C23.0704 9.76981 22.8115 9.16675 22.2929 8.71775C21.7743 8.26968 21.1268 8.04518 20.3484 8.04518C19.57 8.04518 18.979 8.26123 18.4688 8.69239C17.9587 9.12355 17.6434 9.73599 17.5229 10.5288H23.0704Z" fill="#EE1171"/>
<path d="M26.7897 7.99344C27.3506 6.87281 28.1158 6.0105 29.0834 5.4065C30.0509 4.80344 31.1314 4.50098 32.3239 4.50098C33.3433 4.50098 34.2374 4.70763 35.0064 5.12188C35.7753 5.53613 36.3673 6.07907 36.7824 6.75164V4.70763H41.2155V19.1434H36.7824V17.0994C36.3504 17.772 35.7499 18.3149 34.9809 18.7292C34.212 19.1434 33.3178 19.3501 32.2985 19.3501C31.123 19.3501 30.0519 19.0438 29.0843 18.4314C28.1158 17.8189 27.3516 16.9482 26.7906 15.8181C26.2287 14.6891 25.9482 13.3824 25.9482 11.8992C25.9482 10.416 26.2287 9.11408 26.7906 7.9925L26.7897 7.99344ZM35.8619 9.31322C35.2482 8.67541 34.5009 8.35603 33.62 8.35603C32.739 8.35603 31.9908 8.67071 31.378 9.30007C30.7644 9.92942 30.4575 10.7964 30.4575 11.9002C30.4575 13.0039 30.7644 13.8794 31.378 14.5256C31.9917 15.1728 32.739 15.496 33.62 15.496C34.5009 15.496 35.2482 15.1766 35.8619 14.5388C36.4746 13.901 36.7824 13.0302 36.7824 11.9255C36.7824 10.8209 36.4756 9.95103 35.8619 9.31228V9.31322Z" fill="#EE1171"/>
<path d="M50.3213 15.536V19.3244H48.0662C46.4586 19.3244 45.2058 18.928 44.3079 18.1352C43.4091 17.3424 42.9601 16.0489 42.9601 14.2548V8.45435H41.1973V4.74395H42.9601V1.19043H47.3923V4.74395H50.2959V8.45435H47.3923V14.3074C47.3923 14.7432 47.4958 15.057 47.7038 15.2477C47.9109 15.4393 48.2563 15.5351 48.741 15.5351H50.3222L50.3213 15.536Z" fill="#EE1171"/>
<path d="M67.4975 11.396C68.1366 12.2151 68.4566 13.1507 68.4566 14.2027C68.4566 15.7207 67.9248 16.924 66.8622 17.8117C65.7996 18.7003 64.3172 19.1437 62.4169 19.1437H53.9404V0.983398H62.1317C63.9802 0.983398 65.4278 1.4061 66.4735 2.25151C67.5191 3.09691 68.0415 4.24385 68.0415 5.69231C68.0415 6.76222 67.7601 7.6499 67.1991 8.35722C66.6372 9.06454 65.8899 9.55582 64.9572 9.83198C66.0113 10.0565 66.8584 10.5778 67.4975 11.3969V11.396ZM58.3735 8.32998H61.2771C62.0028 8.32998 62.56 8.17029 62.9487 7.85091C63.3374 7.53154 63.5322 7.06187 63.5322 6.44097C63.5322 5.82006 63.3374 5.34569 62.9487 5.01786C62.56 4.69003 62.0028 4.52659 61.2771 4.52659H58.3735V8.32998ZM63.3628 15.0697C63.7685 14.7335 63.9718 14.2459 63.9718 13.6081C63.9718 12.9703 63.76 12.4697 63.3364 12.108C62.9129 11.7454 62.3294 11.5651 61.5868 11.5651H58.3725V15.5751H61.6385C62.3811 15.5751 62.9562 15.407 63.3619 15.0707L63.3628 15.0697Z" fill="#EE1171"/>
<path d="M82.1948 4.70801V19.1438H77.7618V17.1778C77.3119 17.8156 76.7029 18.3294 75.9339 18.7173C75.165 19.1053 74.3141 19.2997 73.3805 19.2997C72.2745 19.2997 71.2976 19.0536 70.4514 18.5623C69.6044 18.0711 68.9483 17.359 68.4815 16.4282C68.0147 15.4973 67.7812 14.402 67.7812 13.1423V4.70801H72.188V12.5468C72.188 13.5124 72.4383 14.263 72.94 14.7975C73.4407 15.3319 74.1146 15.5997 74.9617 15.5997C75.8088 15.5997 76.5081 15.3329 77.0097 14.7975C77.5105 14.263 77.7618 13.5124 77.7618 12.5468V4.70801H82.1948Z" fill="#EE1171"/>
<path d="M82.234 7.99379C82.7949 6.87315 83.5601 6.01084 84.5277 5.40684C85.4952 4.80379 86.5757 4.50132 87.7682 4.50132C88.7189 4.50132 89.5866 4.69952 90.3735 5.09592C91.1594 5.49326 91.7778 6.02681 92.2267 6.70031V0H96.6598V19.1438H92.2267V17.0744C91.8116 17.7648 91.2196 18.3162 90.4507 18.7304C89.6817 19.1447 88.7876 19.3513 87.7682 19.3513C86.5757 19.3513 85.4952 19.0451 84.5277 18.4327C83.5592 17.8202 82.7949 16.9495 82.234 15.8194C81.6721 14.6903 81.3916 13.3837 81.3916 11.9005C81.3916 10.4173 81.6721 9.11536 82.234 7.99379ZM91.3062 9.31356C90.6925 8.67575 89.9452 8.35637 89.0643 8.35637C88.1833 8.35637 87.4351 8.67105 86.8223 9.30041C86.2087 9.92977 85.9018 10.7968 85.9018 11.9005C85.9018 13.0042 86.2087 13.8797 86.8223 14.526C87.436 15.1732 88.1833 15.4963 89.0643 15.4963C89.9452 15.4963 90.6925 15.1769 91.3062 14.5391C91.9189 13.9013 92.2267 13.0305 92.2267 11.9259C92.2267 10.8212 91.9199 9.95137 91.3062 9.31262V9.31356Z" fill="#EE1171"/>
<path d="M96.7232 7.99379C97.2842 6.87315 98.0494 6.01084 99.0169 5.40684C99.9845 4.80379 101.065 4.50132 102.257 4.50132C103.208 4.50132 104.076 4.69952 104.863 5.09592C105.649 5.49326 106.267 6.02681 106.716 6.70031V0H111.149V19.1438H106.716V17.0744C106.301 17.7648 105.709 18.3162 104.94 18.7304C104.171 19.1447 103.277 19.3513 102.257 19.3513C101.065 19.3513 99.9845 19.0451 99.0169 18.4327C98.0484 17.8202 97.2842 16.9495 96.7232 15.8194C96.1613 14.6903 95.8809 13.3837 95.8809 11.9005C95.8809 10.4173 96.1613 9.11536 96.7232 7.99379ZM105.795 9.31356C105.182 8.67575 104.434 8.35637 103.554 8.35637C102.673 8.35637 101.924 8.67105 101.312 9.30041C100.698 9.92977 100.391 10.7968 100.391 11.9005C100.391 13.0042 100.698 13.8797 101.312 14.526C101.925 15.1732 102.673 15.4963 103.554 15.4963C104.434 15.4963 105.182 15.1769 105.795 14.5391C106.408 13.9013 106.716 13.0305 106.716 11.9259C106.716 10.8212 106.409 9.95137 105.795 9.31262V9.31356Z" fill="#EE1171"/>
<path d="M126.027 4.70797L116.955 25.9991H112.185L115.503 18.6515L109.618 4.70703H114.569L117.913 13.736L121.231 4.70703H126.026L126.027 4.70797Z" fill="#EE1171"/>
</g>
<defs>
<clipPath id="clip0_7057_21280">
<rect width="126.028" height="26" fill="white"/>
</clipPath>
</defs>
</svg>
