<svg width="128" height="18" viewBox="0 0 128 18" fill="none" xmlns="http://www.w3.org/2000/svg">
<path d="M12.84 4.2L8.28 12.36H7.24L2.7 4.32V14H0.56V-2.38419e-07H2.44L7.8 9.54L13.1 -2.38419e-07H14.96L14.98 14H12.86L12.84 4.2ZM22.5073 14.96C22.0673 16.08 21.5406 16.8667 20.9273 17.32C20.3139 17.7733 19.5739 18 18.7073 18C18.2006 18 17.7139 17.9133 17.2473 17.74C16.7806 17.58 16.3939 17.3467 16.0873 17.04L16.9273 15.4C17.1539 15.64 17.4139 15.82 17.7073 15.94C18.0139 16.0733 18.3273 16.14 18.6473 16.14C19.1406 16.14 19.5339 15.9867 19.8273 15.68C20.1206 15.3733 20.4339 14.8267 20.7673 14.04L16.3073 3.36H18.5873L21.8873 11.44L25.1873 3.36H27.3073L22.5073 14.96ZM43.3838 14H41.1238V7.9H33.9838V14H31.7238V-2.38419e-07H33.9838V5.88H41.1238V-2.38419e-07H43.3838V14ZM55.276 8.68C55.2627 8.88 55.2494 9.08667 55.236 9.3H47.216C47.3227 10.2067 47.6827 10.9267 48.296 11.46C48.9094 11.9933 49.6827 12.26 50.616 12.26C51.7627 12.26 52.696 11.86 53.416 11.06L54.596 12.4C53.6494 13.5467 52.3027 14.12 50.556 14.12C49.4627 14.12 48.496 13.8867 47.656 13.42C46.816 12.9533 46.1627 12.3067 45.696 11.48C45.2294 10.6533 44.996 9.72 44.996 8.68C44.996 7.64 45.2227 6.70667 45.676 5.88C46.1294 5.05333 46.7494 4.40667 47.536 3.94C48.3227 3.47333 49.2094 3.24 50.196 3.24C51.1427 3.24 52.0027 3.46667 52.776 3.92C53.5494 4.36 54.156 4.99333 54.596 5.82C55.0494 6.64667 55.276 7.6 55.276 8.68ZM50.196 5C49.3827 5 48.696 5.26667 48.136 5.8C47.5894 6.33333 47.276 7.03333 47.196 7.9H53.216C53.1227 7.03333 52.796 6.33333 52.236 5.8C51.6894 5.26667 51.0094 5 50.196 5ZM60.6763 3.24C62.1297 3.24 63.243 3.61333 64.0163 4.36C64.7897 5.09333 65.1763 6.19333 65.1763 7.66V14H63.1163V12.42C62.8363 12.9667 62.4097 13.3867 61.8363 13.68C61.2763 13.9733 60.603 14.12 59.8163 14.12C58.6697 14.12 57.763 13.8333 57.0963 13.26C56.4297 12.6733 56.0963 11.9133 56.0963 10.98C56.0963 10.0333 56.4297 9.28 57.0963 8.72C57.763 8.16 58.803 7.88 60.2163 7.88H62.9763C62.9763 7.44 62.923 7.08 62.8163 6.8C62.5897 5.65333 61.7897 5.08 60.4163 5.08C59.8163 5.08 59.2363 5.18 58.6763 5.38C58.1297 5.58 57.6563 5.86 57.2563 6.22L56.4363 4.6C56.9697 4.17333 57.6097 3.84 58.3563 3.6C59.1163 3.36 59.8897 3.24 60.6763 3.24ZM60.3363 12.54C60.9763 12.54 61.523 12.3867 61.9763 12.08C62.4297 11.7733 62.763 11.3267 62.9763 10.74V9.28H60.4363C58.9697 9.28 58.2363 9.81333 58.2363 10.88C58.2363 11.3867 58.423 11.7933 58.7963 12.1C59.1697 12.3933 59.683 12.54 60.3363 12.54ZM69.6505 5.14C69.9972 4.51333 70.4772 4.04 71.0905 3.72C71.7039 3.4 72.4372 3.24 73.2905 3.24V5.38C73.0239 5.35333 72.8505 5.34 72.7705 5.34C71.8372 5.34 71.0972 5.64 70.5505 6.24C70.0172 6.82667 69.7505 7.67333 69.7505 8.78V14H67.5505V3.36H69.6505V5.14ZM81.4826 13.44C81.2159 13.6667 80.8759 13.84 80.4626 13.96C80.0626 14.0667 79.6426 14.12 79.2026 14.12C78.1226 14.12 77.2892 13.8267 76.7026 13.24C76.1159 12.64 75.8226 11.78 75.8226 10.66V5.32H74.1626V3.52H75.8226V1.02H78.0226V3.52H80.8026V5.32H78.0226V10.6C78.0226 11.1333 78.1492 11.5467 78.4026 11.84C78.6692 12.1333 79.0359 12.28 79.5026 12.28C80.0359 12.28 80.4826 12.12 80.8426 11.8L81.4826 13.44ZM95.3138 6.74C96.1672 6.96667 96.8272 7.38 97.2938 7.98C97.7605 8.58 97.9938 9.32667 97.9938 10.22C97.9938 11.4333 97.5538 12.3667 96.6738 13.02C95.8072 13.6733 94.5272 14 92.8338 14H86.3138V-2.38419e-07H92.4538C94.0138 -2.38419e-07 95.2138 0.32 96.0538 0.96C96.8938 1.6 97.3138 2.48667 97.3138 3.62C97.3138 4.35333 97.1338 4.98667 96.7738 5.52C96.4272 6.05333 95.9405 6.46 95.3138 6.74ZM88.5738 6.02H92.1938C93.1138 6.02 93.8138 5.84667 94.2938 5.5C94.7872 5.14 95.0338 4.61333 95.0338 3.92C95.0338 3.22667 94.7872 2.70667 94.2938 2.36C93.8138 2 93.1138 1.82 92.1938 1.82H88.5738V6.02ZM92.6738 12.18C94.7005 12.18 95.7138 11.4533 95.7138 10C95.7138 8.53333 94.7005 7.8 92.6738 7.8H88.5738V12.18H92.6738ZM109.032 8.68C109.019 8.88 109.005 9.08667 108.992 9.3H100.972C101.079 10.2067 101.439 10.9267 102.052 11.46C102.665 11.9933 103.439 12.26 104.372 12.26C105.519 12.26 106.452 11.86 107.172 11.06L108.352 12.4C107.405 13.5467 106.059 14.12 104.312 14.12C103.219 14.12 102.252 13.8867 101.412 13.42C100.572 12.9533 99.9187 12.3067 99.452 11.48C98.9854 10.6533 98.752 9.72 98.752 8.68C98.752 7.64 98.9787 6.70667 99.432 5.88C99.8854 5.05333 100.505 4.40667 101.292 3.94C102.079 3.47333 102.965 3.24 103.952 3.24C104.899 3.24 105.759 3.46667 106.532 3.92C107.305 4.36 107.912 4.99333 108.352 5.82C108.805 6.64667 109.032 7.6 109.032 8.68ZM103.952 5C103.139 5 102.452 5.26667 101.892 5.8C101.345 6.33333 101.032 7.03333 100.952 7.9H106.972C106.879 7.03333 106.552 6.33333 105.992 5.8C105.445 5.26667 104.765 5 103.952 5ZM114.432 3.24C115.886 3.24 116.999 3.61333 117.772 4.36C118.546 5.09333 118.932 6.19333 118.932 7.66V14H116.872V12.42C116.592 12.9667 116.166 13.3867 115.592 13.68C115.032 13.9733 114.359 14.12 113.572 14.12C112.426 14.12 111.519 13.8333 110.852 13.26C110.186 12.6733 109.852 11.9133 109.852 10.98C109.852 10.0333 110.186 9.28 110.852 8.72C111.519 8.16 112.559 7.88 113.972 7.88H116.732C116.732 7.44 116.679 7.08 116.572 6.8C116.346 5.65333 115.546 5.08 114.172 5.08C113.572 5.08 112.992 5.18 112.432 5.38C111.886 5.58 111.412 5.86 111.012 6.22L110.192 4.6C110.726 4.17333 111.366 3.84 112.112 3.6C112.872 3.36 113.646 3.24 114.432 3.24ZM114.092 12.54C114.732 12.54 115.279 12.3867 115.732 12.08C116.186 11.7733 116.519 11.3267 116.732 10.74V9.28H114.192C112.726 9.28 111.992 9.81333 111.992 10.88C111.992 11.3867 112.179 11.7933 112.552 12.1C112.926 12.3933 113.439 12.54 114.092 12.54ZM127.267 13.44C127 13.6667 126.66 13.84 126.247 13.96C125.847 14.0667 125.427 14.12 124.987 14.12C123.907 14.12 123.073 13.8267 122.487 13.24C121.9 12.64 121.607 11.78 121.607 10.66V5.32H119.947V3.52H121.607V1.02H123.807V3.52H126.587V5.32H123.807V10.6C123.807 11.1333 123.933 11.5467 124.187 11.84C124.453 12.1333 124.82 12.28 125.287 12.28C125.82 12.28 126.267 12.12 126.627 11.8L127.267 13.44Z" fill="#EE1171"/>
</svg>
