<svg width="78" height="15" viewBox="0 0 78 15" fill="none" xmlns="http://www.w3.org/2000/svg">
<path d="M12.24 14.6602H10.36L2.8 4.74016V14.6602H0.56V0.660156H2.44L10 10.5802V0.660156H12.24V14.6602ZM18.9365 14.7802C17.9098 14.7802 16.9898 14.5468 16.1765 14.0802C15.3632 13.6135 14.7232 12.9668 14.2565 12.1402C13.7898 11.3135 13.5565 10.3802 13.5565 9.34016C13.5565 8.30016 13.7898 7.36682 14.2565 6.54016C14.7232 5.71349 15.3632 5.06682 16.1765 4.60016C16.9898 4.13349 17.9098 3.90016 18.9365 3.90016C19.9632 3.90016 20.8832 4.13349 21.6965 4.60016C22.5098 5.06682 23.1432 5.71349 23.5965 6.54016C24.0632 7.36682 24.2965 8.30016 24.2965 9.34016C24.2965 10.3802 24.0632 11.3135 23.5965 12.1402C23.1432 12.9668 22.5098 13.6135 21.6965 14.0802C20.8832 14.5468 19.9632 14.7802 18.9365 14.7802ZM18.9365 12.8802C19.5365 12.8802 20.0698 12.7335 20.5365 12.4402C21.0165 12.1468 21.3898 11.7335 21.6565 11.2002C21.9365 10.6668 22.0765 10.0468 22.0765 9.34016C22.0765 8.63349 21.9365 8.01349 21.6565 7.48016C21.3898 6.94682 21.0165 6.53349 20.5365 6.24016C20.0698 5.94682 19.5365 5.80016 18.9365 5.80016C18.3498 5.80016 17.8165 5.94682 17.3365 6.24016C16.8565 6.53349 16.4765 6.94682 16.1965 7.48016C15.9298 8.01349 15.7965 8.63349 15.7965 9.34016C15.7965 10.0468 15.9298 10.6668 16.1965 11.2002C16.4765 11.7335 16.8565 12.1468 17.3365 12.4402C17.8165 12.7335 18.3498 12.8802 18.9365 12.8802ZM37.6938 14.6602H35.5938L32.8938 7.04016L30.1338 14.6602H28.0538L24.3338 4.02016H26.4138L29.1538 12.0802L32.0138 4.02016H33.8538L36.6538 12.0802L39.4538 4.02016H41.4138L37.6938 14.6602ZM57.6488 14.6602H55.3888V8.56016H48.2488V14.6602H45.9888V0.660156H48.2488V6.54016H55.3888V0.660156H57.6488V14.6602ZM64.2367 14.7802C63.2101 14.7802 62.2901 14.5468 61.4767 14.0802C60.6634 13.6135 60.0234 12.9668 59.5567 12.1402C59.0901 11.3135 58.8567 10.3802 58.8567 9.34016C58.8567 8.30016 59.0901 7.36682 59.5567 6.54016C60.0234 5.71349 60.6634 5.06682 61.4767 4.60016C62.2901 4.13349 63.2101 3.90016 64.2367 3.90016C65.2634 3.90016 66.1834 4.13349 66.9967 4.60016C67.8101 5.06682 68.4434 5.71349 68.8967 6.54016C69.3634 7.36682 69.5967 8.30016 69.5967 9.34016C69.5967 10.3802 69.3634 11.3135 68.8967 12.1402C68.4434 12.9668 67.8101 13.6135 66.9967 14.0802C66.1834 14.5468 65.2634 14.7802 64.2367 14.7802ZM64.2367 12.8802C64.8367 12.8802 65.3701 12.7335 65.8367 12.4402C66.3167 12.1468 66.6901 11.7335 66.9567 11.2002C67.2367 10.6668 67.3767 10.0468 67.3767 9.34016C67.3767 8.63349 67.2367 8.01349 66.9567 7.48016C66.6901 6.94682 66.3167 6.53349 65.8367 6.24016C65.3701 5.94682 64.8367 5.80016 64.2367 5.80016C63.6501 5.80016 63.1167 5.94682 62.6367 6.24016C62.1567 6.53349 61.7767 6.94682 61.4967 7.48016C61.2301 8.01349 61.0967 8.63349 61.0967 9.34016C61.0967 10.0468 61.2301 10.6668 61.4967 11.2002C61.7767 11.7335 62.1567 12.1468 62.6367 12.4402C63.1167 12.7335 63.6501 12.8802 64.2367 12.8802ZM77.1141 14.1002C76.8474 14.3268 76.5074 14.5002 76.0941 14.6202C75.6941 14.7268 75.2741 14.7802 74.8341 14.7802C73.7541 14.7802 72.9207 14.4868 72.3341 13.9002C71.7474 13.3002 71.4541 12.4402 71.4541 11.3202V5.98016H69.7941V4.18016H71.4541V1.68016H73.6541V4.18016H76.4341V5.98016H73.6541V11.2602C73.6541 11.7935 73.7807 12.2068 74.0341 12.5002C74.3007 12.7935 74.6674 12.9402 75.1341 12.9402C75.6674 12.9402 76.1141 12.7802 76.4741 12.4602L77.1141 14.1002Z" fill="#EE1171"/>
</svg>
